G04*
G04 #@! TF.GenerationSoftware,Altium Limited,Altium Designer,21.3.2 (30)*
G04*
G04 Layer_Color=16711935*
%FSTAX24Y24*%
%MOIN*%
G70*
G04*
G04 #@! TF.SameCoordinates,17C352DC-52FB-4B9E-A555-A73132B06FB7*
G04*
G04*
G04 #@! TF.FilePolarity,Negative*
G04*
G01*
G75*
%ADD48R,0.0400X0.0460*%
%ADD52R,0.0460X0.0400*%
%ADD73C,0.0256*%
%ADD74O,0.0474X0.0867*%
%ADD75O,0.0394X0.0787*%
%ADD76C,0.0080*%
%ADD77C,0.0552*%
%ADD78R,0.0552X0.0552*%
%ADD79C,0.0631*%
%ADD80C,0.0710*%
%ADD81C,0.0671*%
%ADD82R,0.0671X0.0671*%
%ADD83R,0.0710X0.0710*%
%ADD84C,0.0474*%
%ADD110R,0.0651X0.1340*%
%ADD111R,0.1261X0.0907*%
%ADD112R,0.0710X0.0788*%
%ADD113R,0.1025X0.0631*%
%ADD114R,0.0710X0.0631*%
%ADD115R,0.0946X0.0355*%
D48*
X04341Y03804D02*
D03*
X04397D02*
D03*
X04457Y03279D02*
D03*
X04513D02*
D03*
X04445Y028894D02*
D03*
X04501D02*
D03*
X04397Y03736D02*
D03*
X04341D02*
D03*
X04765Y02133D02*
D03*
X04821D02*
D03*
X04054D02*
D03*
X0411D02*
D03*
X04501Y027397D02*
D03*
X04445D02*
D03*
Y029392D02*
D03*
X04501D02*
D03*
X04445Y03039D02*
D03*
X04501D02*
D03*
X04445Y029891D02*
D03*
X04501D02*
D03*
X04064Y02656D02*
D03*
X0412D02*
D03*
X04064Y02595D02*
D03*
X0412D02*
D03*
X04228Y02611D02*
D03*
X04172D02*
D03*
X039202Y029655D02*
D03*
X038642D02*
D03*
X04128Y03063D02*
D03*
X04184D02*
D03*
X040583Y034027D02*
D03*
X040023D02*
D03*
X04377Y03945D02*
D03*
X04433D02*
D03*
X04976Y03174D02*
D03*
X0492D02*
D03*
X04445Y0264D02*
D03*
X04501D02*
D03*
X04445Y026899D02*
D03*
X04501D02*
D03*
X04079Y02508D02*
D03*
X04135D02*
D03*
X04172Y02667D02*
D03*
X04228D02*
D03*
X04773Y01985D02*
D03*
X04717D02*
D03*
X04155D02*
D03*
X04099D02*
D03*
X04993Y03615D02*
D03*
X04937D02*
D03*
X04993Y0374D02*
D03*
X04937D02*
D03*
X04167Y03696D02*
D03*
X04111D02*
D03*
D52*
X04494Y03518D02*
D03*
Y03462D02*
D03*
Y03331D02*
D03*
Y03387D02*
D03*
X04604Y03376D02*
D03*
Y0332D02*
D03*
X04557Y03376D02*
D03*
Y0332D02*
D03*
X04093Y03373D02*
D03*
Y03317D02*
D03*
X04142Y03343D02*
D03*
Y03287D02*
D03*
X041223Y034509D02*
D03*
Y035069D02*
D03*
X04289Y01602D02*
D03*
Y01658D02*
D03*
Y020154D02*
D03*
Y019594D02*
D03*
X04584Y02363D02*
D03*
Y02307D02*
D03*
X0419Y02506D02*
D03*
Y02562D02*
D03*
X03917Y028292D02*
D03*
Y028852D02*
D03*
X039704Y028292D02*
D03*
Y028852D02*
D03*
X04023Y02829D02*
D03*
Y02773D02*
D03*
X040772Y028292D02*
D03*
Y028852D02*
D03*
X03897Y03138D02*
D03*
Y03082D02*
D03*
X03947Y03138D02*
D03*
Y03082D02*
D03*
X04084Y03138D02*
D03*
Y03082D02*
D03*
X04018Y03468D02*
D03*
Y03524D02*
D03*
X04072Y035069D02*
D03*
Y034509D02*
D03*
X04174D02*
D03*
Y035069D02*
D03*
X04698Y03266D02*
D03*
Y03322D02*
D03*
X047505Y03266D02*
D03*
Y03322D02*
D03*
X04803Y03266D02*
D03*
Y03322D02*
D03*
X044365Y022688D02*
D03*
Y023248D02*
D03*
Y01959D02*
D03*
Y01903D02*
D03*
Y01642D02*
D03*
Y01698D02*
D03*
D73*
X042288Y038114D02*
D03*
X040012D02*
D03*
D74*
X039449Y039563D02*
D03*
D75*
Y037917D02*
D03*
X042851Y039563D02*
D03*
Y037917D02*
D03*
D76*
X05007Y02965D02*
D03*
Y0265D02*
D03*
X0474Y039511D02*
D03*
Y036755D02*
D03*
D77*
X050942Y038613D02*
D03*
X050155Y0394D02*
D03*
X050942D02*
D03*
Y014213D02*
D03*
X050155Y015D02*
D03*
X050942D02*
D03*
X03855Y014213D02*
D03*
X037763Y015D02*
D03*
X03855D02*
D03*
Y038613D02*
D03*
X037763Y0394D02*
D03*
X03855D02*
D03*
D78*
X050155Y038613D02*
D03*
Y014213D02*
D03*
X037763D02*
D03*
Y038613D02*
D03*
D79*
X0422Y01985D02*
D03*
X044365Y014929D02*
D03*
Y024771D02*
D03*
Y017685D02*
D03*
Y022015D02*
D03*
X049287Y01985D02*
D03*
X039444D02*
D03*
X046531D02*
D03*
X044365Y018472D02*
D03*
Y021228D02*
D03*
D80*
X045842Y015421D02*
D03*
X042889D02*
D03*
Y024279D02*
D03*
X045842D02*
D03*
X042889Y017193D02*
D03*
Y022507D02*
D03*
X045842Y017193D02*
D03*
Y022507D02*
D03*
X048794Y018374D02*
D03*
Y021326D02*
D03*
X039936Y018374D02*
D03*
Y021326D02*
D03*
X047023Y018374D02*
D03*
Y021326D02*
D03*
X041708Y018374D02*
D03*
Y021326D02*
D03*
X042889Y018964D02*
D03*
X045842D02*
D03*
Y020736D02*
D03*
X042889D02*
D03*
X0384Y0356D02*
D03*
Y036584D02*
D03*
D81*
X04477Y03874D02*
D03*
D82*
X04377D02*
D03*
D83*
X0384Y034616D02*
D03*
D84*
X04499Y03425D02*
D03*
D110*
X044749Y03776D02*
D03*
X047111D02*
D03*
D111*
X04342Y033471D02*
D03*
Y034849D02*
D03*
D112*
X046172Y025122D02*
D03*
D113*
X049913Y02465D02*
D03*
Y030752D02*
D03*
D114*
X046133D02*
D03*
D115*
X045936Y03024D02*
D03*
Y029807D02*
D03*
Y029374D02*
D03*
Y028941D02*
D03*
Y028508D02*
D03*
Y028075D02*
D03*
Y027641D02*
D03*
Y027208D02*
D03*
Y026776D02*
D03*
M02*
