G04*
G04 #@! TF.GenerationSoftware,Altium Limited,Altium Designer,21.3.2 (30)*
G04*
G04 Layer_Physical_Order=1*
G04 Layer_Color=255*
%FSTAX24Y24*%
%MOIN*%
G70*
G04*
G04 #@! TF.SameCoordinates,17C352DC-52FB-4B9E-A555-A73132B06FB7*
G04*
G04*
G04 #@! TF.FilePolarity,Positive*
G04*
G01*
G75*
%ADD10C,0.0100*%
%ADD15C,0.0060*%
%ADD17R,0.0984X0.0984*%
%ADD18R,0.0276X0.0079*%
%ADD19R,0.0079X0.0276*%
%ADD20R,0.0320X0.0380*%
%ADD21C,0.0118*%
%ADD22R,0.0236X0.0094*%
%ADD23R,0.0630X0.0945*%
%ADD24R,0.0380X0.0320*%
%ADD25R,0.0550X0.0530*%
%ADD26R,0.0098X0.0276*%
%ADD27R,0.0945X0.0591*%
%ADD28R,0.0394X0.0197*%
%ADD29R,0.1339X0.1575*%
%ADD30C,0.0400*%
%ADD31R,0.0472X0.0984*%
%ADD32R,0.0118X0.0492*%
%ADD33R,0.0236X0.0492*%
%ADD34R,0.0472X0.0551*%
%ADD35R,0.1358X0.1358*%
%ADD36R,0.0276X0.0098*%
%ADD37R,0.0098X0.0276*%
%ADD38R,0.2205X0.2205*%
%ADD39R,0.0106X0.0217*%
%ADD40R,0.0217X0.0106*%
%ADD41R,0.0551X0.0551*%
%ADD42R,0.0098X0.0315*%
%ADD43R,0.0315X0.0098*%
%ADD44R,0.0846X0.0591*%
%ADD73C,0.0256*%
%ADD75O,0.0394X0.0787*%
%ADD85C,0.0080*%
%ADD86C,0.0200*%
%ADD87C,0.0120*%
%ADD88C,0.0070*%
%ADD89C,0.0118*%
%ADD90C,0.0150*%
%ADD91C,0.0090*%
%ADD92C,0.0300*%
%ADD93C,0.0472*%
%ADD94R,0.0472X0.0472*%
%ADD95C,0.0551*%
%ADD96C,0.0630*%
%ADD97C,0.0591*%
%ADD98R,0.0591X0.0591*%
%ADD99R,0.0630X0.0630*%
%ADD100C,0.0315*%
%ADD101C,0.0394*%
%ADD102C,0.0236*%
G36*
X05165Y01351D02*
X03706D01*
Y04009D01*
X045389D01*
X04545Y040044D01*
X04545Y04001D01*
Y039293D01*
X046456D01*
Y04001D01*
X046456Y040044D01*
X046517Y04009D01*
X05165D01*
Y01351D01*
D02*
G37*
%LPC*%
G36*
X045065Y040005D02*
X044355D01*
Y039552D01*
X044345Y039545D01*
X044265Y039588D01*
Y040005D01*
X043555D01*
Y039642D01*
X043454D01*
X043407Y039633D01*
X043367Y039607D01*
X042978Y039218D01*
X042952Y039178D01*
X042942Y039131D01*
Y038348D01*
X042952Y038301D01*
X042978Y038262D01*
X043118Y038122D01*
Y037319D01*
X042598Y036799D01*
X042502Y036792D01*
X042364Y03693D01*
Y037018D01*
X042278D01*
Y037276D01*
X042293D01*
Y037928D01*
X042247D01*
X042194Y037982D01*
X042184Y038037D01*
X042153Y038083D01*
X042153Y038083D01*
X041729Y038506D01*
X041683Y038537D01*
X041628Y038548D01*
X041628Y038548D01*
X040683D01*
X040683Y038548D01*
X040628Y038537D01*
X040582Y038506D01*
X040582Y038506D01*
X040138Y038062D01*
X040107Y038016D01*
X040096Y037961D01*
X040029Y037928D01*
X040007D01*
Y037276D01*
X040021D01*
Y037018D01*
X03996D01*
Y036538D01*
X0405D01*
Y037018D01*
X040388D01*
Y037276D01*
X040964D01*
X041022Y037196D01*
X041016Y037178D01*
X040975Y037161D01*
X040909Y037095D01*
X040878Y03702D01*
X04083D01*
Y03654D01*
X041744D01*
X04171Y03646D01*
X04083D01*
Y03598D01*
X04108D01*
X041113Y0359D01*
X040858Y035645D01*
X039933D01*
X039886Y035636D01*
X039846Y035609D01*
X039103Y034867D01*
X039077Y034827D01*
X039068Y03478D01*
Y033213D01*
X039077Y033166D01*
X039103Y033126D01*
X039539Y032691D01*
X03949Y032627D01*
X039448Y032651D01*
X039377Y03267D01*
X039303D01*
X039232Y032651D01*
X039168Y032614D01*
X039116Y032562D01*
X039079Y032498D01*
X03906Y032427D01*
Y032353D01*
X039079Y032282D01*
X039116Y032218D01*
X039168Y032166D01*
X039232Y032129D01*
X039303Y03211D01*
X039377D01*
X039432Y032125D01*
X039489Y032068D01*
Y031516D01*
X039478D01*
Y03114D01*
X0409D01*
D01*
X041447D01*
X04149Y03114D01*
X04149Y031097D01*
Y0309D01*
X04163D01*
X041678Y03089D01*
X041873D01*
X041873Y03089D01*
X041927Y030901D01*
X041974Y030932D01*
X042048Y031006D01*
D01*
X042075Y030979D01*
X04213Y030956D01*
D01*
D01*
X042131Y030912D01*
X042122Y030873D01*
X042045Y030841D01*
X041979Y030775D01*
X041973Y030761D01*
X041866D01*
Y030772D01*
X04149D01*
Y030506D01*
Y030112D01*
Y02972D01*
Y029522D01*
Y029128D01*
Y028803D01*
X04149Y02876D01*
X041447Y02876D01*
X040659D01*
Y02862D01*
X040649Y028572D01*
Y028319D01*
X040611Y028289D01*
X040531Y028329D01*
Y028384D01*
X040532D01*
Y02876D01*
X03911D01*
Y029D01*
X03897D01*
X038922Y02901D01*
X038874Y029D01*
X038791Y029D01*
X038786Y02901D01*
X038761Y029072D01*
X038806Y029128D01*
X03911D01*
Y029522D01*
Y029915D01*
Y030309D01*
Y030703D01*
Y03114D01*
X03935D01*
Y03128D01*
X03936Y031328D01*
X03935Y031376D01*
Y031516D01*
X039084D01*
Y031516D01*
X039076Y031518D01*
X039027Y031607D01*
X039037Y031633D01*
Y031727D01*
X039001Y031815D01*
X038935Y031881D01*
X038847Y031917D01*
X038753D01*
X038672Y031884D01*
X038638Y031897D01*
X038592Y031921D01*
Y031999D01*
X038817Y032223D01*
X038843Y032263D01*
X038852Y03231D01*
Y032667D01*
X038902Y032696D01*
X038954Y032748D01*
X038991Y032812D01*
X03901Y032883D01*
Y032957D01*
X038991Y033028D01*
X038954Y033092D01*
X038902Y033144D01*
X038851Y033173D01*
X03884Y033204D01*
X038839Y033216D01*
X038839Y033263D01*
X038891Y033315D01*
X038927Y033403D01*
Y033497D01*
X038891Y033585D01*
X038825Y033651D01*
X038737Y033687D01*
X038643D01*
X038555Y033651D01*
X038489Y033585D01*
X038453Y033497D01*
Y033407D01*
X038223Y033177D01*
X038197Y033138D01*
X038188Y033091D01*
Y033021D01*
X038114Y03299D01*
X037972Y033131D01*
Y033267D01*
X038022Y033296D01*
X038074Y033348D01*
X038111Y033412D01*
X03813Y033483D01*
Y033557D01*
X038111Y033628D01*
X038074Y033692D01*
X038022Y033744D01*
X037958Y033781D01*
X037887Y0338D01*
X037862D01*
X03785Y033802D01*
X037838Y0338D01*
X037813D01*
X037742Y033781D01*
X037678Y033744D01*
X037626Y033692D01*
X037589Y033628D01*
X03757Y033557D01*
Y033483D01*
X037589Y033412D01*
X037626Y033348D01*
X037678Y033296D01*
X037728Y033267D01*
Y033081D01*
X037737Y033034D01*
X037763Y032994D01*
X037808Y03295D01*
X037774Y03287D01*
X037763D01*
X037692Y032851D01*
X037628Y032814D01*
X037576Y032762D01*
X037539Y032698D01*
X03752Y032627D01*
Y032553D01*
X037539Y032482D01*
X037576Y032418D01*
X037628Y032366D01*
X037678Y032337D01*
Y03209D01*
X037687Y032043D01*
X037713Y032003D01*
X037867Y03185D01*
Y03141D01*
X03751Y031052D01*
X037483Y031013D01*
X037474Y030966D01*
Y030207D01*
X037477Y030188D01*
X037482Y030158D01*
X037433Y03009D01*
X037401Y030076D01*
X037334Y03001D01*
X037298Y029922D01*
Y029828D01*
X037334Y029741D01*
X037401Y029674D01*
X037456Y029651D01*
Y029564D01*
X037425Y029551D01*
X037359Y029485D01*
X037323Y029397D01*
Y029303D01*
X037359Y029215D01*
X037425Y029149D01*
X037513Y029113D01*
X037607D01*
X037608Y029113D01*
X037653Y029083D01*
X037689Y028995D01*
X037755Y028929D01*
X037843Y028893D01*
X037937D01*
X038025Y028929D01*
X03803Y028934D01*
X038125Y028916D01*
X038129Y028905D01*
X038195Y028839D01*
X038283Y028803D01*
X038294D01*
X038329Y028725D01*
X038293Y028637D01*
Y028543D01*
X038329Y028455D01*
X038395Y028389D01*
X038463Y028361D01*
X038447Y028281D01*
X037966D01*
X037919Y028271D01*
X037879Y028245D01*
X037281Y027647D01*
X037255Y027607D01*
X037245Y02756D01*
Y024966D01*
X037255Y024919D01*
X037281Y024879D01*
X038363Y023797D01*
Y016587D01*
X037243Y015468D01*
X037217Y015428D01*
X037208Y015381D01*
Y014645D01*
X037217Y014598D01*
X037243Y014559D01*
X037446Y014356D01*
Y013896D01*
X038079D01*
Y014398D01*
X038159Y014431D01*
X038255Y014334D01*
X038234Y014254D01*
Y014171D01*
X038255Y014091D01*
X038297Y014018D01*
X038356Y01396D01*
X038428Y013918D01*
X038508Y013896D01*
X038592D01*
X038672Y013918D01*
X038744Y01396D01*
X038803Y014018D01*
X038845Y014091D01*
X038866Y014171D01*
Y014254D01*
X038845Y014335D01*
X038803Y014407D01*
X038744Y014466D01*
X038672Y014507D01*
X038592Y014529D01*
X038508D01*
X038428Y014507D01*
X038309Y014627D01*
X038316Y014693D01*
X03839Y014727D01*
X038428Y014705D01*
X038508Y014684D01*
X038592D01*
X038672Y014705D01*
X038744Y014747D01*
X038803Y014806D01*
X038845Y014878D01*
X038866Y014958D01*
Y015042D01*
X038845Y015122D01*
X038803Y015194D01*
X038744Y015253D01*
X038672Y015295D01*
Y015872D01*
X039052Y016251D01*
X039079Y016291D01*
X039088Y016338D01*
Y019559D01*
X039168Y019595D01*
X039206Y01956D01*
Y01778D01*
X03922Y01771D01*
X03926Y01765D01*
X042114Y014796D01*
X042174Y014756D01*
X042244Y014742D01*
X044062D01*
X044081Y01471D01*
X044147Y014644D01*
X044228Y014597D01*
X044319Y014573D01*
X044412D01*
X044503Y014597D01*
X044584Y014644D01*
X04465Y01471D01*
X044668Y014742D01*
X048076D01*
X048146Y014756D01*
X048206Y014796D01*
X049419Y01601D01*
X049459Y016069D01*
X049473Y016139D01*
Y019547D01*
X049505Y019565D01*
X049571Y019632D01*
X049618Y019713D01*
X049642Y019803D01*
Y019897D01*
X049618Y019987D01*
X049571Y020068D01*
X049505Y020135D01*
X049424Y020181D01*
X049333Y020206D01*
X04924D01*
X049223Y020201D01*
X048722Y020702D01*
X048662Y020742D01*
X048592Y020756D01*
X046996D01*
X046878Y020873D01*
X04692Y020945D01*
X046971Y020931D01*
X047075D01*
X047175Y020958D01*
X047265Y02101D01*
X047339Y021084D01*
X047391Y021174D01*
X047418Y021274D01*
Y021378D01*
X047391Y021479D01*
X047339Y021569D01*
X047265Y021642D01*
X047175Y021694D01*
X047075Y021721D01*
X046971D01*
X04687Y021694D01*
X04678Y021642D01*
X046707Y021569D01*
X046655Y021479D01*
X046628Y021378D01*
Y021274D01*
X046642Y021223D01*
X04657Y021182D01*
X045912Y02184D01*
X045852Y02188D01*
X045782Y021894D01*
X045344D01*
Y02342D01*
X04533Y02349D01*
X04529Y02355D01*
X044568Y024272D01*
Y024478D01*
X044584Y024487D01*
X04465Y024553D01*
X044697Y024634D01*
X044721Y024724D01*
Y024818D01*
X044697Y024909D01*
X04465Y02499D01*
X044584Y025056D01*
X044503Y025103D01*
X044412Y025127D01*
X044319D01*
X044228Y025103D01*
X044147Y025056D01*
X044081Y02499D01*
X044034Y024909D01*
X04401Y024818D01*
Y024724D01*
X044034Y024634D01*
X044081Y024553D01*
X044147Y024487D01*
X044201Y024456D01*
Y024196D01*
X044215Y024125D01*
X044255Y024066D01*
X044976Y023344D01*
Y021783D01*
X04469Y021497D01*
X0446Y021497D01*
X044584Y021512D01*
X044503Y021559D01*
X044412Y021584D01*
Y02166D01*
X044503Y021684D01*
X044584Y021731D01*
X04465Y021797D01*
X044697Y021878D01*
X044721Y021969D01*
Y022062D01*
X044697Y022153D01*
X04465Y022234D01*
X044584Y0223D01*
X044503Y022347D01*
X044412Y022371D01*
X044319D01*
X044228Y022347D01*
X044147Y0223D01*
X044081Y022234D01*
X044034Y022153D01*
X04401Y022062D01*
Y021969D01*
X044034Y021878D01*
X044081Y021797D01*
X044147Y021731D01*
X044228Y021684D01*
X044319Y02166D01*
Y021584D01*
X044228Y021559D01*
X044147Y021512D01*
X044081Y021446D01*
X044034Y021365D01*
X04401Y021275D01*
Y021181D01*
X044034Y021091D01*
X044081Y02101D01*
X044147Y020943D01*
X044228Y020897D01*
X044319Y020872D01*
X044412D01*
X044503Y020897D01*
X044584Y020943D01*
X04465Y02101D01*
X044697Y021091D01*
X044702Y021112D01*
X044748D01*
X044818Y021126D01*
X044878Y021165D01*
X045239Y021526D01*
X045706D01*
X046094Y021139D01*
X046045Y021075D01*
X045994Y021104D01*
X045894Y021131D01*
X04579D01*
X045689Y021104D01*
X045599Y021052D01*
X045526Y020978D01*
X045474Y020888D01*
X045447Y020788D01*
Y020684D01*
X045474Y020583D01*
X045526Y020493D01*
X045599Y02042D01*
X045689Y020368D01*
X04579Y020341D01*
X045894D01*
X045994Y020368D01*
X046084Y02042D01*
X046158Y020493D01*
X04621Y020583D01*
X046237Y020684D01*
Y020788D01*
X04621Y020888D01*
X046181Y020939D01*
X046245Y020988D01*
X04679Y020443D01*
X046849Y020403D01*
X04692Y020389D01*
X048516D01*
X048947Y019958D01*
X048931Y019897D01*
Y019803D01*
X048955Y019713D01*
X049002Y019632D01*
X049068Y019565D01*
X049106Y019544D01*
Y016215D01*
X048Y015109D01*
X046189D01*
X046164Y015189D01*
X04621Y015268D01*
X046237Y015369D01*
Y015473D01*
X04621Y015573D01*
X046158Y015663D01*
X046084Y015737D01*
X045994Y015789D01*
X045894Y015816D01*
X04579D01*
X045689Y015789D01*
X045599Y015737D01*
X045526Y015663D01*
X045474Y015573D01*
X045447Y015473D01*
Y015369D01*
X045474Y015268D01*
X045519Y015189D01*
X045494Y015109D01*
X044672D01*
X04465Y015147D01*
X044584Y015213D01*
X044503Y01526D01*
X044412Y015284D01*
X044319D01*
X044228Y01526D01*
X044147Y015213D01*
X044081Y015147D01*
X044059Y015109D01*
X043237D01*
X043211Y015189D01*
X043257Y015268D01*
X043284Y015369D01*
Y015473D01*
X043257Y015573D01*
X043205Y015663D01*
X043131Y015737D01*
X043041Y015789D01*
X042941Y015816D01*
X042837D01*
X042737Y015789D01*
X042695Y015765D01*
X04258Y01588D01*
X04261Y015954D01*
X043572D01*
X043616Y015963D01*
X043654Y015988D01*
X043968Y016301D01*
X044155D01*
X044162Y016284D01*
X044229Y016217D01*
X044316Y016181D01*
X04441D01*
X044498Y016217D01*
X044564Y016284D01*
X044601Y016371D01*
Y016466D01*
X044586Y0165D01*
X04464Y01658D01*
X044718D01*
X044763Y016589D01*
X044801Y016614D01*
X046443Y018256D01*
X046645D01*
X046655Y018221D01*
X046707Y018131D01*
X04678Y018058D01*
X04687Y018006D01*
X046971Y017979D01*
X047075D01*
X047175Y018006D01*
X047265Y018058D01*
X047339Y018131D01*
X047391Y018221D01*
X047418Y018322D01*
Y018426D01*
X047391Y018526D01*
X047339Y018616D01*
X047311Y018644D01*
X047344Y018724D01*
X047445D01*
X04749Y018733D01*
X047528Y018759D01*
X047813Y019044D01*
X047839Y019082D01*
X047848Y019127D01*
Y019645D01*
X047865Y019652D01*
X047932Y019719D01*
X047968Y019806D01*
Y019901D01*
X047932Y019988D01*
X047865Y020055D01*
X047778Y020091D01*
X047683D01*
X047596Y020055D01*
X047529Y019988D01*
X047493Y019901D01*
Y019806D01*
X047529Y019719D01*
X047596Y019652D01*
X047613Y019645D01*
Y019176D01*
X047396Y018959D01*
X046649D01*
X046604Y01895D01*
X046566Y018925D01*
X044606Y016964D01*
X043924D01*
X043879Y016955D01*
X043841Y01693D01*
X043399Y016488D01*
X042608D01*
X041395Y017701D01*
Y020258D01*
X041386Y020302D01*
X041361Y020341D01*
X041118Y020583D01*
Y023596D01*
X041109Y023641D01*
X041084Y023679D01*
X040799Y023964D01*
X040832Y024044D01*
X040919Y02408D01*
X040986Y024146D01*
X041022Y024234D01*
Y024328D01*
X040986Y024416D01*
X040919Y024482D01*
X040918Y024563D01*
X041168Y024814D01*
X041193Y024852D01*
X041202Y024897D01*
Y02496D01*
X041257Y024963D01*
X041305Y024918D01*
X041318Y024888D01*
X041306Y024842D01*
X041305Y024841D01*
X041239Y024775D01*
X041203Y024687D01*
Y024593D01*
X041239Y024505D01*
X041305Y024439D01*
X041393Y024403D01*
X041487D01*
X041518Y024415D01*
X041527Y024415D01*
X041607Y02437D01*
X041632Y024332D01*
X042068Y023896D01*
Y022285D01*
X042077Y02224D01*
X042102Y022202D01*
X042772Y021532D01*
Y021113D01*
X042737Y021104D01*
X042646Y021052D01*
X042573Y020978D01*
X042521Y020888D01*
X042494Y020788D01*
Y020684D01*
X042521Y020583D01*
X042573Y020493D01*
X042646Y02042D01*
X042737Y020368D01*
X042837Y020341D01*
X042941D01*
X043041Y020368D01*
X043131Y02042D01*
X043205Y020493D01*
X043257Y020583D01*
X043284Y020684D01*
Y020788D01*
X043257Y020888D01*
X043205Y020978D01*
X043131Y021052D01*
X043041Y021104D01*
X043006Y021113D01*
Y021581D01*
X042997Y021626D01*
X042972Y021664D01*
X042302Y022333D01*
Y023945D01*
X042293Y02399D01*
X042268Y024028D01*
X042208Y024088D01*
X042238Y024162D01*
X042512D01*
X042521Y024127D01*
X042573Y024037D01*
X042646Y023963D01*
X042737Y023911D01*
X042837Y023884D01*
X042941D01*
X043041Y023911D01*
X043131Y023963D01*
X043205Y024037D01*
X043257Y024127D01*
X043284Y024227D01*
Y024331D01*
X043257Y024432D01*
X043205Y024522D01*
X043131Y024595D01*
X043041Y024647D01*
X042941Y024674D01*
X042837D01*
X042737Y024647D01*
X042646Y024595D01*
X042573Y024522D01*
X042521Y024432D01*
X042512Y024396D01*
X042112D01*
X04199Y024518D01*
Y024964D01*
X041992D01*
Y025337D01*
X041992Y025358D01*
X042013Y025358D01*
X042386Y025358D01*
Y025751D01*
X042386Y025754D01*
X04239Y025833D01*
X042502D01*
X042509Y025815D01*
X042575Y025749D01*
X042663Y025713D01*
X042757D01*
X042845Y025749D01*
X042911Y025815D01*
X042947Y025903D01*
Y025997D01*
X042943Y026009D01*
X042989Y026082D01*
X043055Y026088D01*
X043487Y025655D01*
Y020351D01*
X043496Y020306D01*
X043522Y020268D01*
X044135Y019655D01*
X044128Y019637D01*
Y019543D01*
X044164Y019455D01*
X044231Y019389D01*
X044318Y019353D01*
X044413D01*
X0445Y019389D01*
X044567Y019455D01*
X044603Y019543D01*
Y019637D01*
X044567Y019725D01*
X0445Y019791D01*
X044413Y019827D01*
X044318D01*
X044301Y01982D01*
X043722Y020399D01*
Y023602D01*
X043796Y023632D01*
X044123Y023306D01*
X044118Y023295D01*
Y0232D01*
X044154Y023113D01*
X044221Y023046D01*
X044308Y02301D01*
X044403D01*
X04449Y023046D01*
X044557Y023113D01*
X044593Y0232D01*
Y023295D01*
X044557Y023382D01*
X04449Y023449D01*
X044403Y023485D01*
X044308D01*
X044285Y023475D01*
X043872Y023888D01*
Y025766D01*
X043863Y025811D01*
X043838Y025849D01*
X043221Y026465D01*
X043183Y026491D01*
X043138Y0265D01*
X042542D01*
X042498Y026491D01*
X042466Y026469D01*
X04243Y026477D01*
X042386Y026496D01*
Y026542D01*
X042013D01*
X041992Y026542D01*
X041992Y026563D01*
X041992Y026927D01*
X042023Y026958D01*
X042059Y027045D01*
Y02714D01*
X042023Y027227D01*
X041956Y027294D01*
X041869Y02733D01*
X041801D01*
X041798Y027335D01*
X041672Y02746D01*
X041691Y027555D01*
X041725Y027569D01*
X041791Y027635D01*
X041827Y027723D01*
Y027817D01*
X041791Y027905D01*
X041725Y027971D01*
X041712Y027976D01*
Y028028D01*
X041703Y028075D01*
X041677Y028114D01*
X041505Y028286D01*
Y028384D01*
X041516D01*
Y028691D01*
X041516Y028734D01*
X041559Y028734D01*
X041866D01*
Y028745D01*
X042144D01*
X044313Y026576D01*
Y025819D01*
X044322Y025773D01*
X044349Y025733D01*
X045416Y024666D01*
X045455Y024639D01*
X045502Y02463D01*
X045521D01*
X045554Y02455D01*
X045526Y024522D01*
X045474Y024432D01*
X045447Y024331D01*
Y024227D01*
X045474Y024127D01*
X045526Y024037D01*
X045599Y023963D01*
X045689Y023911D01*
X04579Y023884D01*
X045894D01*
X045994Y023911D01*
X046084Y023963D01*
X046158Y024037D01*
X04621Y024127D01*
X046237Y024227D01*
Y024331D01*
X04621Y024432D01*
X046158Y024522D01*
X046129Y02455D01*
X046162Y02463D01*
X04706D01*
X049877Y021813D01*
Y016109D01*
X049583Y015815D01*
X049557Y015775D01*
X049548Y015729D01*
Y014697D01*
X049557Y014651D01*
X049583Y014611D01*
X049839Y014356D01*
Y013896D01*
X050471D01*
Y014529D01*
X050012D01*
X049792Y014748D01*
Y014835D01*
X049872Y014857D01*
X049902Y014806D01*
X049961Y014747D01*
X050033Y014705D01*
X050113Y014684D01*
X050196D01*
X050277Y014705D01*
X050349Y014747D01*
X050408Y014806D01*
X050449Y014878D01*
X050471Y014958D01*
Y015042D01*
X050449Y015122D01*
X050408Y015194D01*
X050349Y015253D01*
X050322Y015269D01*
Y015963D01*
X050396Y015994D01*
X050799Y01559D01*
Y015283D01*
X050748Y015253D01*
X050689Y015194D01*
X050648Y015122D01*
X050626Y015042D01*
Y014958D01*
X050648Y014878D01*
X050689Y014806D01*
X050748Y014747D01*
X05082Y014705D01*
X050901Y014684D01*
X050984D01*
X051064Y014705D01*
X051098Y014725D01*
X051184Y014692D01*
X051187Y014688D01*
X051192Y014664D01*
X051041Y014513D01*
X050984Y014529D01*
X050901D01*
X05082Y014507D01*
X050748Y014466D01*
X050689Y014407D01*
X050648Y014335D01*
X050626Y014254D01*
Y014171D01*
X050648Y014091D01*
X050689Y014018D01*
X050748Y01396D01*
X05082Y013918D01*
X050901Y013896D01*
X050984D01*
X051064Y013918D01*
X051136Y01396D01*
X051195Y014018D01*
X051237Y014091D01*
X051258Y014171D01*
Y014254D01*
X051243Y014312D01*
X051479Y014548D01*
X05151Y014594D01*
X051521Y014648D01*
X051521Y014648D01*
Y015497D01*
X051521Y015497D01*
X05151Y015551D01*
X051479Y015598D01*
X051479Y015598D01*
X050722Y016355D01*
Y022104D01*
X050722Y022104D01*
X050711Y022159D01*
X05068Y022205D01*
X05068Y022205D01*
X048996Y02389D01*
Y02533D01*
X049559Y025894D01*
X049681Y025772D01*
Y025711D01*
X049717Y025623D01*
X049784Y025557D01*
X049871Y02552D01*
X049965D01*
X050053Y025557D01*
X05012Y025623D01*
X050156Y025711D01*
Y025805D01*
X05012Y025892D01*
X050053Y025959D01*
X049965Y025995D01*
X049871D01*
X049823Y025976D01*
X049768Y026031D01*
Y02631D01*
X049848Y026332D01*
X049848Y02633D01*
X0499Y026278D01*
X049963Y026242D01*
X050034Y026223D01*
X050106D01*
X050177Y026242D01*
X05024Y026278D01*
X050292Y02633D01*
X050328Y026393D01*
X050347Y026464D01*
Y026536D01*
X050328Y026607D01*
X050292Y02667D01*
X05024Y026722D01*
X050177Y026758D01*
X050106Y026777D01*
X050034D01*
X049963Y026758D01*
X0499Y026722D01*
X049848Y02667D01*
X049848Y026668D01*
X049768Y02669D01*
Y026965D01*
X049758Y027012D01*
X049732Y027051D01*
X049321Y027462D01*
X049281Y027489D01*
X049234Y027498D01*
X047559D01*
X0475Y02755D01*
Y028031D01*
Y028521D01*
X047936D01*
X047983Y02853D01*
X048023Y028557D01*
X048466Y029D01*
X048493Y02904D01*
X048501Y02908D01*
X04866D01*
Y02956D01*
X048144D01*
X048107Y029622D01*
X048122Y02964D01*
X04866D01*
Y03012D01*
X048725Y030155D01*
X049037D01*
X049084Y030164D01*
X049124Y030191D01*
X049327Y030394D01*
X049353Y030433D01*
X049356Y03045D01*
X04976D01*
Y031056D01*
X050501D01*
X050583Y031023D01*
X050677D01*
X050765Y031059D01*
X050831Y031125D01*
X050867Y031213D01*
Y031307D01*
X050854Y03134D01*
X050908Y03142D01*
X050916D01*
X050963Y031429D01*
X051002Y031455D01*
X051328Y031781D01*
X051355Y031821D01*
X051364Y031868D01*
Y034666D01*
X051355Y034713D01*
X051328Y034753D01*
X050915Y035166D01*
Y035328D01*
X051486D01*
Y036472D01*
X050915D01*
Y036708D01*
X051486D01*
Y037852D01*
X051058D01*
X051048Y037877D01*
X051034Y037932D01*
X051055Y037964D01*
X051065Y03801D01*
Y038318D01*
X051136Y03836D01*
X051195Y038418D01*
X051237Y038491D01*
X051258Y038571D01*
Y038654D01*
X051237Y038735D01*
X051195Y038807D01*
X051136Y038866D01*
X051064Y038907D01*
X050984Y038929D01*
X050901D01*
X05082Y038907D01*
X050784Y038887D01*
X050711Y038921D01*
X050703Y038988D01*
X05082Y039105D01*
X050901Y039084D01*
X050984D01*
X051064Y039105D01*
X051136Y039147D01*
X051195Y039206D01*
X051237Y039278D01*
X051258Y039358D01*
Y039442D01*
X051237Y039522D01*
X051195Y039594D01*
X051136Y039653D01*
X051064Y039695D01*
X050984Y039716D01*
X050901D01*
X05082Y039695D01*
X050748Y039653D01*
X050689Y039594D01*
X050648Y039522D01*
X050626Y039442D01*
Y039358D01*
X050647Y039278D01*
X050483Y039114D01*
X050457Y039075D01*
X050448Y039028D01*
Y038929D01*
X049871D01*
Y039076D01*
X049951Y039157D01*
X049961Y039147D01*
X050033Y039105D01*
X050113Y039084D01*
X050196D01*
X050277Y039105D01*
X050349Y039147D01*
X050408Y039206D01*
X050449Y039278D01*
X050471Y039358D01*
Y039442D01*
X050449Y039522D01*
X050408Y039594D01*
X050349Y039653D01*
X050277Y039695D01*
X050196Y039716D01*
X050113D01*
X050033Y039695D01*
X049961Y039653D01*
X049902Y039594D01*
X04986Y039522D01*
X049839Y039442D01*
Y039387D01*
X04983Y039381D01*
X049662Y039213D01*
X049635Y039174D01*
X049626Y039127D01*
Y038497D01*
X049552Y038466D01*
X049328Y03869D01*
X049269Y03873D01*
X049199Y038744D01*
X04778D01*
X04771Y03873D01*
X04765Y03869D01*
X047474Y038514D01*
X046456D01*
Y038705D01*
X04545D01*
Y037955D01*
X045576D01*
Y03782D01*
X04549D01*
Y03734D01*
X04603D01*
Y03782D01*
X045944D01*
Y037955D01*
X046456D01*
Y038146D01*
X04755D01*
X04762Y03816D01*
X04768Y0382D01*
X047856Y038376D01*
X049123D01*
X049575Y037924D01*
X049594Y037852D01*
X049594D01*
Y036857D01*
X049514Y036814D01*
X04949Y03683D01*
X04942Y036844D01*
X04935D01*
Y037204D01*
X04935Y037209D01*
X04935D01*
X04934Y03728D01*
X04934D01*
Y03776D01*
X0488D01*
Y03728D01*
X0488D01*
X048778Y037209D01*
X048344D01*
Y036459D01*
X04935D01*
X04935Y036459D01*
Y036459D01*
X049408Y036412D01*
X049591Y03623D01*
X049594Y036225D01*
Y035328D01*
X049779D01*
X049804Y035282D01*
X049816Y035248D01*
X049783Y035167D01*
Y035073D01*
X049819Y034985D01*
X049885Y034919D01*
X049892Y034916D01*
Y034759D01*
X049812Y034723D01*
X049744Y034751D01*
X049649D01*
X049562Y034715D01*
X049495Y034648D01*
X049459Y034561D01*
Y034466D01*
X049468Y034445D01*
X049372Y03435D01*
X04776D01*
X04776Y03435D01*
X047705Y034339D01*
X047659Y034308D01*
X047659Y034308D01*
X047263Y033912D01*
X047201Y033963D01*
X047203Y033966D01*
X047212Y034013D01*
Y03447D01*
X04733D01*
Y03501D01*
X046951D01*
X046906Y035077D01*
X046907Y03508D01*
Y035174D01*
X046871Y035261D01*
X046852Y035281D01*
Y03532D01*
X046845Y035351D01*
X046828Y035378D01*
X046801Y035395D01*
X04677Y035402D01*
X046098D01*
X046067Y035395D01*
X046041Y035378D01*
X046023Y035351D01*
X046017Y03532D01*
Y035113D01*
X045943Y035082D01*
X045588Y035438D01*
X045561Y035455D01*
X04553Y035462D01*
X04553Y035462D01*
X044772D01*
X044741Y035535D01*
X044762Y035556D01*
X044788Y035596D01*
X044798Y035643D01*
Y035891D01*
X044804D01*
Y036327D01*
X043956D01*
X043956Y035891D01*
X04388Y03588D01*
X04364D01*
Y03534D01*
X043869D01*
X043899Y035266D01*
X043512Y034879D01*
X043427Y034862D01*
X042967Y035322D01*
Y035823D01*
X043047Y035866D01*
X043103Y035843D01*
X043197D01*
X043285Y035879D01*
X043351Y035945D01*
X043387Y036033D01*
Y036127D01*
X043351Y036215D01*
X04333Y036235D01*
Y036561D01*
X043755Y036986D01*
X043795Y037046D01*
X043809Y037116D01*
Y037424D01*
X043878Y037468D01*
X043942Y037438D01*
Y037251D01*
X043953Y037196D01*
X043956Y037192D01*
Y037033D01*
X044608D01*
Y03727D01*
X04461Y037274D01*
X044621Y037329D01*
Y037519D01*
X044704Y037603D01*
X044787D01*
X044875Y037639D01*
X044941Y037705D01*
X044977Y037793D01*
Y037887D01*
X044977Y037888D01*
Y038426D01*
X045Y03844D01*
X04507Y03851D01*
X04512Y038595D01*
X045145Y038691D01*
Y038789D01*
X04512Y038885D01*
X04507Y03897D01*
X045Y03904D01*
X044915Y03909D01*
X044819Y039115D01*
X044721D01*
X044625Y03909D01*
X04454Y03904D01*
X04447Y03897D01*
X04442Y038885D01*
X044395Y038789D01*
Y038691D01*
X04442Y038595D01*
X04447Y03851D01*
X044508Y038471D01*
Y037901D01*
X044503Y037887D01*
Y03787D01*
X044494Y037865D01*
X044414Y037908D01*
Y038228D01*
X044404Y038279D01*
X044375Y038322D01*
X044244Y038454D01*
X044244Y038454D01*
X044145Y038552D01*
Y039115D01*
X04421Y039153D01*
X044315D01*
X044362Y039162D01*
X044402Y039188D01*
X044528Y039315D01*
X045065D01*
Y040005D01*
D02*
G37*
G36*
X047447Y039867D02*
X047353D01*
X047263Y039842D01*
X047182Y039796D01*
X047115Y039729D01*
X047069Y039648D01*
X047044Y039558D01*
Y039464D01*
X047069Y039374D01*
X047115Y039293D01*
X047182Y039227D01*
X047263Y03918D01*
X047353Y039156D01*
X047447D01*
X047537Y03918D01*
X047618Y039227D01*
X047685Y039293D01*
X047731Y039374D01*
X047756Y039464D01*
Y039558D01*
X047731Y039648D01*
X047685Y039729D01*
X047618Y039796D01*
X047537Y039842D01*
X047447Y039867D01*
D02*
G37*
G36*
X038592Y038929D02*
X038508D01*
X038428Y038907D01*
X038356Y038866D01*
X038297Y038807D01*
X038255Y038735D01*
X038234Y038654D01*
Y038571D01*
X038255Y038491D01*
X038297Y038418D01*
X038356Y03836D01*
X038428Y038318D01*
X038508Y038296D01*
X038592D01*
X038672Y038318D01*
X038744Y03836D01*
X038803Y038418D01*
X038845Y038491D01*
X038866Y038571D01*
Y038654D01*
X038845Y038735D01*
X038803Y038807D01*
X038744Y038866D01*
X038672Y038907D01*
X038592Y038929D01*
D02*
G37*
G36*
X038079D02*
X037446D01*
Y038296D01*
X038079D01*
Y038929D01*
D02*
G37*
G36*
X047447Y037111D02*
X047353D01*
X047263Y037087D01*
X047182Y03704D01*
X047115Y036974D01*
X047069Y036892D01*
X047044Y036802D01*
Y036708D01*
X047069Y036618D01*
X047115Y036537D01*
X047182Y036471D01*
X047263Y036424D01*
X047353Y0364D01*
X047447D01*
X047537Y036424D01*
X047618Y036471D01*
X047685Y036537D01*
X047731Y036618D01*
X047756Y036708D01*
Y036802D01*
X047731Y036892D01*
X047685Y036974D01*
X047618Y03704D01*
X047537Y037087D01*
X047447Y037111D01*
D02*
G37*
G36*
X038452Y036979D02*
X038348D01*
X038248Y036952D01*
X038157Y0369D01*
X038084Y036827D01*
X038032Y036737D01*
X038005Y036636D01*
Y036532D01*
X038032Y036432D01*
X038084Y036342D01*
X038157Y036268D01*
X038248Y036216D01*
X038348Y036189D01*
X038452D01*
X038552Y036216D01*
X038643Y036268D01*
X038716Y036342D01*
X038768Y036432D01*
X038795Y036532D01*
Y036636D01*
X038768Y036737D01*
X038716Y036827D01*
X038643Y0369D01*
X038552Y036952D01*
X038452Y036979D01*
D02*
G37*
G36*
X046456Y03654D02*
X04545D01*
Y035789D01*
X046456D01*
Y03654D01*
D02*
G37*
G36*
X038452Y035995D02*
X038348D01*
X038248Y035968D01*
X038157Y035916D01*
X038084Y035843D01*
X038032Y035752D01*
X038005Y035652D01*
Y035548D01*
X038032Y035448D01*
X038084Y035357D01*
X038157Y035284D01*
X038248Y035232D01*
X038348Y035205D01*
X038452D01*
X038552Y035232D01*
X038643Y035284D01*
X038716Y035357D01*
X038768Y035448D01*
X038795Y035548D01*
Y035652D01*
X038768Y035752D01*
X038716Y035843D01*
X038643Y035916D01*
X038552Y035968D01*
X038452Y035995D01*
D02*
G37*
G36*
X04935Y036343D02*
X048344D01*
Y036077D01*
X048286D01*
X048226Y036065D01*
X048175Y03603D01*
X048044Y0359D01*
X04801Y035848D01*
X047998Y035788D01*
Y03501D01*
X047916D01*
Y03501D01*
X04789D01*
Y03501D01*
X04741D01*
Y03447D01*
X04789D01*
Y03447D01*
X047916D01*
Y03447D01*
X048396D01*
Y03501D01*
X048314D01*
Y035525D01*
X048344Y035593D01*
X04935D01*
Y036343D01*
D02*
G37*
G36*
X048956Y03501D02*
X048476D01*
Y03447D01*
X048956D01*
Y034679D01*
X048957Y034683D01*
Y034777D01*
X048956Y034781D01*
Y03501D01*
D02*
G37*
G36*
X038795Y035011D02*
X038005D01*
Y034221D01*
X038795D01*
Y035011D01*
D02*
G37*
G36*
X050106Y029926D02*
X050034D01*
X049963Y029907D01*
X0499Y029871D01*
X049848Y029819D01*
X049812Y029756D01*
X049793Y029686D01*
Y029613D01*
X049812Y029543D01*
X049848Y02948D01*
X0499Y029428D01*
X049963Y029392D01*
X050034Y029373D01*
X050106D01*
X050177Y029392D01*
X05024Y029428D01*
X050292Y02948D01*
X050328Y029543D01*
X050347Y029613D01*
Y029686D01*
X050328Y029756D01*
X050292Y029819D01*
X05024Y029871D01*
X050177Y029907D01*
X050106Y029926D01*
D02*
G37*
G36*
X046578Y020206D02*
X046484D01*
X046393Y020181D01*
X046312Y020135D01*
X046246Y020068D01*
X046199Y019987D01*
X046175Y019897D01*
Y019803D01*
X046199Y019713D01*
X046246Y019632D01*
X046312Y019565D01*
X046393Y019519D01*
X046484Y019494D01*
X046578D01*
X046668Y019519D01*
X046749Y019565D01*
X046815Y019632D01*
X046862Y019713D01*
X046886Y019803D01*
Y019897D01*
X046862Y019987D01*
X046815Y020068D01*
X046749Y020135D01*
X046668Y020181D01*
X046578Y020206D01*
D02*
G37*
G36*
X042247D02*
X042153D01*
X042063Y020181D01*
X041982Y020135D01*
X041915Y020068D01*
X041869Y019987D01*
X041844Y019897D01*
Y019803D01*
X041869Y019713D01*
X041915Y019632D01*
X041982Y019565D01*
X042063Y019519D01*
X042153Y019494D01*
X042247D01*
X042337Y019519D01*
X042418Y019565D01*
X042485Y019632D01*
X042531Y019713D01*
X042556Y019803D01*
Y019897D01*
X042531Y019987D01*
X042485Y020068D01*
X042418Y020135D01*
X042337Y020181D01*
X042247Y020206D01*
D02*
G37*
G36*
X044412Y018828D02*
X044319D01*
X044228Y018803D01*
X044147Y018757D01*
X044081Y01869D01*
X044034Y018609D01*
X04401Y018519D01*
Y018425D01*
X044034Y018335D01*
X044081Y018254D01*
X044147Y018188D01*
X044228Y018141D01*
X044319Y018116D01*
Y01804D01*
X044228Y018016D01*
X044147Y017969D01*
X044081Y017903D01*
X044034Y017822D01*
X04401Y017731D01*
Y017638D01*
X044034Y017547D01*
X044081Y017466D01*
X044147Y0174D01*
X044228Y017353D01*
X044319Y017329D01*
X044412D01*
X044503Y017353D01*
X044584Y0174D01*
X04465Y017466D01*
X044697Y017547D01*
X044721Y017638D01*
Y017731D01*
X044697Y017822D01*
X04465Y017903D01*
X044584Y017969D01*
X044503Y018016D01*
X044412Y01804D01*
Y018116D01*
X044503Y018141D01*
X044584Y018188D01*
X04465Y018254D01*
X044697Y018335D01*
X044721Y018425D01*
Y018519D01*
X044697Y018609D01*
X04465Y01869D01*
X044584Y018757D01*
X044503Y018803D01*
X044412Y018828D01*
D02*
G37*
%LPD*%
G36*
X042281Y036476D02*
Y03552D01*
X042036Y035276D01*
X041874D01*
X041797Y035307D01*
X041703D01*
X041615Y035271D01*
X041549Y035205D01*
X041527Y035152D01*
X04144D01*
X041421Y035198D01*
X041355Y035265D01*
X041267Y035301D01*
X041199D01*
X041161Y035376D01*
X041514Y035729D01*
X041541Y035769D01*
X04155Y035816D01*
Y03598D01*
X04186D01*
Y036396D01*
X04186Y03646D01*
D01*
X041865Y036529D01*
D01*
X041865Y036538D01*
X041904Y036538D01*
X042219D01*
X042281Y036476D01*
D02*
G37*
G36*
X040519Y03516D02*
X040493Y035097D01*
Y035003D01*
X040529Y034915D01*
X040595Y034849D01*
X040608Y034844D01*
Y034824D01*
X040617Y034777D01*
X040643Y034737D01*
X040699Y034682D01*
Y034573D01*
X040619Y034565D01*
X040613Y034593D01*
X040587Y034633D01*
X040481Y034739D01*
X040441Y034765D01*
X040409Y034772D01*
X040391Y034815D01*
X040325Y034881D01*
X040237Y034917D01*
X040143D01*
X040055Y034881D01*
X039989Y034815D01*
X039953Y034727D01*
Y034633D01*
X039989Y034545D01*
X040055Y034479D01*
X040143Y034443D01*
X040219D01*
X040237Y034443D01*
X040295Y03438D01*
Y034206D01*
X040178D01*
X04016Y034224D01*
X040073Y03426D01*
X039978D01*
X039891Y034224D01*
X039824Y034157D01*
X039788Y03407D01*
Y033976D01*
X039824Y033888D01*
X039891Y033822D01*
X039978Y033785D01*
X040073D01*
X04016Y033822D01*
X040178Y033839D01*
X040295D01*
Y033799D01*
X04077D01*
Y033996D01*
Y03438D01*
X040957D01*
Y034855D01*
X040957Y034855D01*
X040956Y034859D01*
X040972Y034879D01*
X040976Y034882D01*
X041065Y034882D01*
X041092Y034855D01*
Y03438D01*
X041332D01*
X041381Y034348D01*
X041451Y034334D01*
X041476Y034313D01*
Y033996D01*
Y033602D01*
X041951D01*
X041951Y033602D01*
Y033602D01*
X041951Y033602D01*
X042024Y033586D01*
X042105Y033504D01*
X042103Y033497D01*
Y033403D01*
X042139Y033315D01*
X042205Y033249D01*
X042293Y033213D01*
X042387D01*
X042475Y033249D01*
X042541Y033315D01*
X042546Y033328D01*
X04292D01*
X042967Y033337D01*
X043007Y033363D01*
X043304Y03366D01*
X043378Y03363D01*
Y032807D01*
X043387Y03276D01*
X043413Y03272D01*
X043715Y032419D01*
Y032339D01*
X043635Y032286D01*
X043607Y032297D01*
X043513D01*
X043425Y032261D01*
X043359Y032195D01*
X043286Y032227D01*
X042757Y032757D01*
X042717Y032783D01*
X04267Y032792D01*
X041709D01*
X041656Y032872D01*
X041667Y0329D01*
Y032995D01*
X041631Y033082D01*
X041565Y033149D01*
X041477Y033185D01*
X041383D01*
X041351Y033258D01*
Y033674D01*
X040896D01*
Y033227D01*
X040863D01*
X040775Y033191D01*
X040709Y033125D01*
X040673Y033037D01*
Y032943D01*
X040709Y032855D01*
X040775Y032789D01*
X040794Y032781D01*
X04081Y032702D01*
X040189Y032081D01*
X040109Y032114D01*
Y032643D01*
X040099Y03269D01*
X040073Y03273D01*
X039472Y03333D01*
Y034663D01*
X04005Y03524D01*
X04048D01*
X040519Y03516D01*
D02*
G37*
G36*
X046Y03491D02*
X046Y034807D01*
X046197Y03461D01*
X046Y034413D01*
X04576D01*
X04576Y03485D01*
Y034413D01*
X045623Y03455D01*
X04533D01*
Y03481D01*
X04514Y035D01*
X04468D01*
X0444Y03472D01*
Y03455D01*
X04415D01*
Y03488D01*
X04465Y03538D01*
X04553D01*
X046Y03491D01*
D02*
G37*
G36*
X04677Y03441D02*
X046098Y034413D01*
X046295Y03461D01*
X046098Y034807D01*
Y03532D01*
X04677D01*
Y03441D01*
D02*
G37*
G36*
X046968Y034438D02*
Y034064D01*
X046501Y033597D01*
X045705D01*
X045658Y033588D01*
X045619Y033561D01*
X045423Y033366D01*
X045397Y033327D01*
X045388Y03328D01*
Y033069D01*
X045308Y033016D01*
X04528Y033027D01*
X045185D01*
X045163Y033018D01*
X0451Y033079D01*
Y033269D01*
X04515D01*
X045196Y033278D01*
X045236Y033304D01*
X045541Y033609D01*
X045568Y033649D01*
X045576Y033689D01*
X045659D01*
Y03387D01*
X04612D01*
Y034275D01*
X046177Y034331D01*
X04677Y034328D01*
X04677Y034328D01*
X04677Y034328D01*
X046785Y034331D01*
X046801Y034334D01*
X046801Y034334D01*
X046801Y034334D01*
X046814Y034343D01*
X046827Y034352D01*
X046827Y034352D01*
X046828Y034352D01*
X046836Y034365D01*
X046845Y034378D01*
X046845Y034378D01*
X046845Y034378D01*
X046848Y034392D01*
X04685Y034395D01*
X046919Y034448D01*
X046968Y034438D01*
D02*
G37*
G36*
X045248Y034776D02*
Y03455D01*
X045255Y034519D01*
X045262Y034507D01*
Y034477D01*
X045296D01*
X045299Y034475D01*
X04533Y034468D01*
X045582D01*
X045634Y034408D01*
X045621Y034337D01*
X045262D01*
Y034083D01*
Y033689D01*
X045262Y033689D01*
X045262D01*
X045216Y033631D01*
X04516Y033575D01*
X0451Y0336D01*
Y0336D01*
X04462D01*
Y03318D01*
X044557Y033113D01*
X04454Y033115D01*
Y0336D01*
X044512D01*
Y033816D01*
X044505Y033848D01*
X044488Y033874D01*
X044478Y033881D01*
Y03414D01*
X04428D01*
X044279Y034141D01*
X044278Y03414D01*
X044129D01*
X044102Y034212D01*
X044112Y034233D01*
X044146Y034267D01*
X04415Y034277D01*
X044277D01*
X044289Y03428D01*
X044478D01*
Y03453D01*
X044482Y03455D01*
Y034686D01*
X044714Y034918D01*
X045106D01*
X045248Y034776D01*
D02*
G37*
G36*
X042568Y035175D02*
X042571Y035159D01*
X042598Y035119D01*
X043058Y034659D01*
Y03429D01*
X04261D01*
Y03375D01*
X042943D01*
X042973Y033676D01*
X04287Y033572D01*
X042546D01*
X042541Y033585D01*
X042475Y033651D01*
X042429Y03367D01*
X042445Y03375D01*
X04253D01*
Y03425D01*
Y03479D01*
X04205D01*
Y034632D01*
X04201D01*
X041963Y034623D01*
X041923Y034597D01*
X041778Y034451D01*
X041684D01*
X041634Y034513D01*
X041634Y034517D01*
Y034664D01*
X041807Y034837D01*
X041885Y034869D01*
X041924Y034908D01*
X042112D01*
X042182Y034922D01*
X042242Y034962D01*
X042487Y035208D01*
X042568Y035175D01*
D02*
G37*
G36*
X04443Y0334D02*
X04417D01*
Y033816D01*
X04443D01*
Y0334D01*
D02*
G37*
G36*
X051119Y034615D02*
Y032543D01*
X049919D01*
Y03245D01*
X049001D01*
Y033025D01*
X04936Y033385D01*
X049839D01*
X049839Y033385D01*
X049917Y033329D01*
X049919Y033325D01*
Y032698D01*
X050551D01*
Y033409D01*
X050027D01*
X049994Y033489D01*
X050719Y034215D01*
X050746Y034254D01*
X050755Y034301D01*
Y034875D01*
X050829Y034906D01*
X051119Y034615D01*
D02*
G37*
G36*
X04903Y033631D02*
X048632Y033232D01*
X048605Y033193D01*
X048596Y033146D01*
Y032475D01*
X048485Y032364D01*
X048423Y032321D01*
X047987D01*
Y032063D01*
Y031669D01*
X048146D01*
X04815Y031667D01*
X048205Y031656D01*
X04856D01*
X048592Y031587D01*
X048543Y031527D01*
X048423D01*
Y031534D01*
X047987D01*
Y031276D01*
Y030973D01*
X046639D01*
Y030733D01*
X046638Y030732D01*
X046627Y030677D01*
Y030572D01*
X046458D01*
Y030882D01*
X046533D01*
Y031276D01*
Y031669D01*
Y032063D01*
Y032427D01*
X047291D01*
Y032586D01*
X047293Y03259D01*
X047304Y032645D01*
Y032903D01*
X047382Y032914D01*
X047426Y03286D01*
Y032427D01*
X048078D01*
Y032859D01*
X048155Y032936D01*
X048182Y032976D01*
X048191Y033022D01*
Y033323D01*
X048573Y033705D01*
X048999D01*
X04903Y033631D01*
D02*
G37*
G36*
X04623Y03289D02*
X046173Y032834D01*
X046139Y03282D01*
X046072Y032754D01*
X046036Y032666D01*
Y032572D01*
X046072Y032485D01*
X046097Y032459D01*
Y032322D01*
X045632D01*
Y033229D01*
X045756Y033352D01*
X04623D01*
Y03289D01*
D02*
G37*
G36*
X045076Y033034D02*
X045087Y03298D01*
X045031Y032925D01*
X044995Y032837D01*
Y032743D01*
X045031Y032655D01*
X045088Y032599D01*
X045088Y032529D01*
X045085Y032511D01*
X045019Y032445D01*
X044983Y032357D01*
Y032263D01*
X045019Y032175D01*
X04496Y032125D01*
X044669Y032415D01*
Y032574D01*
X044705Y032589D01*
X044771Y032655D01*
X044807Y032743D01*
Y032837D01*
X044771Y032925D01*
X044716Y03298D01*
X044727Y033034D01*
X04474Y03306D01*
X045062D01*
X045076Y033034D01*
D02*
G37*
G36*
X045148Y032062D02*
X045359Y03185D01*
X045419Y03181D01*
X045489Y031796D01*
X04555D01*
Y03168D01*
X045636D01*
Y03135D01*
X04555D01*
Y030918D01*
X04547Y030885D01*
X045094Y031261D01*
Y03194D01*
X045085Y031983D01*
X045085Y031987D01*
X04513Y032062D01*
X045148Y032062D01*
D02*
G37*
G36*
X042739Y031494D02*
Y030181D01*
X042731Y030171D01*
X041866D01*
Y030517D01*
X041974D01*
X041979Y030505D01*
X042045Y030439D01*
X042133Y030403D01*
X042227D01*
X042315Y030439D01*
X042381Y030505D01*
X042417Y030593D01*
Y030687D01*
X042381Y030775D01*
X042315Y030841D01*
X04226Y030864D01*
X042259Y030908D01*
X042268Y030947D01*
X042345Y030979D01*
X042411Y031045D01*
X042447Y031133D01*
Y031227D01*
X042411Y031315D01*
X042345Y031381D01*
X042257Y031417D01*
X042163D01*
X042075Y031381D01*
X042016Y031322D01*
X041965Y031312D01*
X041919Y031281D01*
X041919Y031281D01*
X041814Y031175D01*
X041678D01*
X04163Y031166D01*
X041516Y031166D01*
X041516Y031209D01*
Y031487D01*
X041549Y0315D01*
X041615Y031567D01*
X041652Y031654D01*
Y031749D01*
X04163Y031801D01*
X041675Y031881D01*
X042351D01*
X042739Y031494D01*
D02*
G37*
G36*
X046172Y030499D02*
X046172Y030499D01*
X046183Y030445D01*
X046214Y030398D01*
X046284Y030328D01*
X046284Y030328D01*
X046331Y030297D01*
X046385Y030286D01*
X046385Y030286D01*
X046487D01*
X046526Y030206D01*
X0465Y030172D01*
X045851D01*
X045576Y030447D01*
Y030728D01*
X045567Y030775D01*
X045557Y030791D01*
X045586Y030858D01*
X045598Y03087D01*
X04609D01*
Y030876D01*
X046172D01*
Y030499D01*
D02*
G37*
G36*
X046218Y029233D02*
X046257Y029207D01*
X046304Y029198D01*
X04712D01*
Y02908D01*
X047625D01*
X047656Y029006D01*
X047575Y028926D01*
X046676D01*
X046629Y028916D01*
X046589Y02889D01*
X046397Y028698D01*
X045527D01*
X045496Y028772D01*
X045615Y02889D01*
X045641Y02893D01*
X045651Y028977D01*
Y029696D01*
X045725Y029726D01*
X046218Y029233D01*
D02*
G37*
G36*
X039458Y027532D02*
Y026836D01*
X039292Y026669D01*
X038844D01*
Y025958D01*
X03892D01*
Y02548D01*
X0394D01*
Y025914D01*
X039417Y025915D01*
X039483Y025838D01*
Y024656D01*
X038899Y024071D01*
X038892Y024072D01*
X03781Y025154D01*
Y02693D01*
X038214D01*
Y026824D01*
X038846D01*
Y027364D01*
X038849Y027376D01*
Y027377D01*
X039027Y027556D01*
X039429D01*
X039458Y027532D01*
D02*
G37*
G36*
X048007Y027028D02*
Y026672D01*
X048125D01*
Y026528D01*
X048007D01*
Y026172D01*
X04856D01*
Y026528D01*
X048442D01*
Y026672D01*
X04856D01*
Y026692D01*
X04872D01*
Y02661D01*
X04926D01*
Y026754D01*
X04934Y026795D01*
X049363Y026778D01*
Y026043D01*
X048877Y025557D01*
X04856Y025873D01*
Y026028D01*
X048007D01*
Y025672D01*
X048279D01*
X048288Y025657D01*
X048265Y025561D01*
X048233Y025528D01*
X048007D01*
Y025172D01*
X048253D01*
X048265Y025159D01*
X048353Y025123D01*
X048387D01*
X04851Y024999D01*
Y023914D01*
X048436Y023883D01*
X047284Y025036D01*
X047237Y025067D01*
X047183Y025078D01*
X047183Y025078D01*
X045633D01*
X045383Y025328D01*
Y026111D01*
X045479Y026207D01*
X045723D01*
Y026172D01*
X045843D01*
X045852Y026162D01*
X045856Y026086D01*
X045853Y026069D01*
X04581Y026028D01*
X045723D01*
Y025672D01*
X045843D01*
X045865Y025649D01*
X045953Y025613D01*
X046047D01*
X046135Y025649D01*
X046157Y025672D01*
X046277D01*
Y026028D01*
X046157D01*
X046148Y026038D01*
X046144Y026114D01*
X046147Y026131D01*
X04619Y026172D01*
X046277D01*
Y026528D01*
X046157D01*
X046135Y026551D01*
X046047Y026587D01*
X045953D01*
X045865Y026551D01*
X045843Y026528D01*
X045723D01*
Y026493D01*
X04542D01*
X045365Y026482D01*
X045319Y026451D01*
X045319Y026451D01*
X045139Y026271D01*
X045108Y026225D01*
X045097Y02617D01*
X045097Y02617D01*
Y025435D01*
X045023Y025404D01*
X044558Y02587D01*
Y026627D01*
X044553Y026648D01*
X044593Y026713D01*
X044608Y026728D01*
X045723D01*
Y026672D01*
X046277D01*
Y027028D01*
X046313Y027094D01*
X047971D01*
X048007Y027028D01*
D02*
G37*
G36*
X041204Y0265D02*
X041281D01*
Y0265D01*
X041929D01*
X04195Y0265D01*
X04195Y026479D01*
X04195Y026303D01*
Y025834D01*
X04195Y025831D01*
Y025754D01*
X04195Y025751D01*
Y025421D01*
X04195Y0254D01*
X041929Y0254D01*
X041284Y0254D01*
X041281Y0254D01*
X041204D01*
X041201Y0254D01*
X04085D01*
Y025673D01*
Y026069D01*
X04085D01*
Y026146D01*
X04085D01*
Y0265D01*
X041204D01*
Y0265D01*
D02*
G37*
D10*
X040228Y027738D02*
Y028011D01*
X040398Y028181D02*
Y028572D01*
X040228Y028011D02*
X040398Y028181D01*
X04022Y02773D02*
X040228Y027738D01*
X040856Y037604D02*
Y037983D01*
X040855Y037602D02*
X040856Y037604D01*
X040915Y038042D02*
X041388D01*
X040856Y037983D02*
X040915Y038042D01*
X041447Y037604D02*
Y037983D01*
X041445Y037602D02*
X041447Y037604D01*
X041388Y038042D02*
X041447Y037983D01*
X04125Y037182D02*
Y037601D01*
X041151Y037001D02*
Y037083D01*
X04125Y037182D01*
X041248Y037602D02*
X04125Y037601D01*
X04111Y03696D02*
X041151Y037001D01*
X047342Y032363D02*
X04736Y032345D01*
X047358Y031798D02*
Y032344D01*
X04736Y032345D01*
X04726Y032281D02*
X047359Y03238D01*
X04154Y03683D02*
X04159Y03678D01*
X04154Y03683D02*
Y03708D01*
X041445Y037175D02*
Y037602D01*
Y037175D02*
X04154Y03708D01*
X04113Y03678D02*
X04124Y03689D01*
X04113Y03677D02*
X04124Y03688D01*
X041052Y037602D02*
X041248D01*
X047359Y03238D02*
Y032644D01*
X047358Y032645D02*
X047359Y032644D01*
X04726Y0317D02*
Y032281D01*
X044282Y037251D02*
Y038228D01*
X04415Y03836D02*
X044282Y038228D01*
X04415Y03836D02*
Y03836D01*
X04377Y03874D02*
X04415Y03836D01*
X03916Y03192D02*
X039414Y031666D01*
Y031328D02*
Y031666D01*
X041418Y033436D02*
Y033732D01*
X04132Y03383D02*
X041418Y033732D01*
X041025Y034125D02*
X041123Y034027D01*
X041025Y034125D02*
Y034617D01*
X040926Y03383D02*
X041123Y034027D01*
X040828Y033732D02*
X040926Y03383D01*
X040828Y033732D02*
X040828Y033732D01*
X040533Y033732D02*
X040828D01*
X040828Y033436D02*
Y033732D01*
X047358Y031602D02*
X048205D01*
X04726Y0317D02*
X047358Y031602D01*
X0403Y02995D02*
X040595Y029655D01*
Y028572D02*
Y029655D01*
X0403Y02995D02*
X041186Y030836D01*
X041678D01*
X039414Y030836D02*
Y031328D01*
X038922Y029064D02*
X039414D01*
X0411Y03677D02*
X04113D01*
X0411Y03678D02*
X04113D01*
D15*
X042024Y030863D02*
X042072Y03091D01*
X04252D01*
D17*
X0414Y02595D02*
D03*
D18*
X042168Y025478D02*
D03*
Y025635D02*
D03*
Y025793D02*
D03*
Y02595D02*
D03*
Y026422D02*
D03*
Y026265D02*
D03*
Y026107D02*
D03*
X040632Y025793D02*
D03*
Y025635D02*
D03*
Y025478D02*
D03*
Y02595D02*
D03*
Y026107D02*
D03*
Y026265D02*
D03*
Y026422D02*
D03*
D19*
X040928Y025182D02*
D03*
X041085D02*
D03*
X041243D02*
D03*
X0414D02*
D03*
X041872D02*
D03*
X041715D02*
D03*
X041557D02*
D03*
X041872Y026718D02*
D03*
X041715D02*
D03*
X041557D02*
D03*
X0414D02*
D03*
X041243D02*
D03*
X041085D02*
D03*
X040928D02*
D03*
D20*
X04952Y03072D02*
D03*
X04896D02*
D03*
X04952Y03122D02*
D03*
X04896D02*
D03*
X04486Y03333D02*
D03*
X0443D02*
D03*
X04388Y03561D02*
D03*
X04332D02*
D03*
X04591Y03316D02*
D03*
X04647D02*
D03*
X04644Y03414D02*
D03*
X04588D02*
D03*
X03916Y02575D02*
D03*
X0386D02*
D03*
X04782Y02782D02*
D03*
X04726D02*
D03*
X04782Y028301D02*
D03*
X04726D02*
D03*
X048156Y03474D02*
D03*
X048716D02*
D03*
X04709D02*
D03*
X04765D02*
D03*
X04285Y03402D02*
D03*
X04229D02*
D03*
X04285Y03452D02*
D03*
X04229D02*
D03*
D21*
X046394Y03461D02*
D03*
X046D02*
D03*
X04132Y034224D02*
D03*
X041119Y034033D02*
D03*
X040926Y034224D02*
D03*
X04132Y03383D02*
D03*
X040926D02*
D03*
D22*
X044279Y034604D02*
D03*
Y034407D02*
D03*
Y03421D02*
D03*
Y034013D02*
D03*
Y033816D02*
D03*
X045461Y034604D02*
D03*
Y034407D02*
D03*
Y03421D02*
D03*
Y034013D02*
D03*
Y033816D02*
D03*
D23*
X04487Y03421D02*
D03*
D24*
X04512Y03576D02*
D03*
Y0352D02*
D03*
X04582Y03111D02*
D03*
Y03055D02*
D03*
Y03192D02*
D03*
Y03248D02*
D03*
X042094Y036218D02*
D03*
Y036778D02*
D03*
X03801Y02717D02*
D03*
Y02661D02*
D03*
X04966Y03221D02*
D03*
Y03277D02*
D03*
X0492D02*
D03*
Y03221D02*
D03*
X04899Y02629D02*
D03*
Y02685D02*
D03*
X04839Y02932D02*
D03*
Y02988D02*
D03*
X04789Y02932D02*
D03*
Y02988D02*
D03*
X04739Y02932D02*
D03*
Y02988D02*
D03*
X04159Y03622D02*
D03*
Y03678D02*
D03*
X04023Y036778D02*
D03*
Y036218D02*
D03*
X0411Y03622D02*
D03*
Y03678D02*
D03*
X04907Y03808D02*
D03*
Y03752D02*
D03*
X04576Y03702D02*
D03*
Y03758D02*
D03*
D25*
X04471Y03966D02*
D03*
X04391D02*
D03*
D26*
X044085Y036109D02*
D03*
X044282D02*
D03*
X044478D02*
D03*
X044675D02*
D03*
X044085Y037251D02*
D03*
X044282D02*
D03*
X044478D02*
D03*
X044675D02*
D03*
D27*
X04438Y03668D02*
D03*
D28*
X048283Y02635D02*
D03*
Y02685D02*
D03*
Y02585D02*
D03*
Y02535D02*
D03*
X046D02*
D03*
Y02585D02*
D03*
Y02685D02*
D03*
Y02635D02*
D03*
D29*
X04715Y02608D02*
D03*
D30*
X03738Y03122D02*
D03*
X03873Y03292D02*
D03*
X03934Y03239D02*
D03*
X03752Y03185D02*
D03*
X0378Y03259D02*
D03*
X03785Y03352D02*
D03*
D31*
X04991Y03728D02*
D03*
X05117D02*
D03*
Y0359D02*
D03*
X04991D02*
D03*
D32*
X041445Y037602D02*
D03*
X041248D02*
D03*
X041642D02*
D03*
X040658D02*
D03*
X040461D02*
D03*
X040855D02*
D03*
X041839D02*
D03*
X041052D02*
D03*
D33*
X04241D02*
D03*
X03989D02*
D03*
X040205D02*
D03*
X042095D02*
D03*
D34*
X03916Y02718D02*
D03*
X03853D02*
D03*
Y026314D02*
D03*
X03916D02*
D03*
X050235Y033054D02*
D03*
X050865D02*
D03*
Y032188D02*
D03*
X050235D02*
D03*
D35*
X04726Y0317D02*
D03*
D36*
X046315Y032389D02*
D03*
Y032192D02*
D03*
Y031995D02*
D03*
Y031798D02*
D03*
Y031602D02*
D03*
Y031405D02*
D03*
Y031208D02*
D03*
Y031011D02*
D03*
X048205Y031011D02*
D03*
Y031208D02*
D03*
Y031405D02*
D03*
Y031602D02*
D03*
Y031798D02*
D03*
Y031995D02*
D03*
Y032192D02*
D03*
Y032389D02*
D03*
D37*
X046571Y030755D02*
D03*
X046768D02*
D03*
X046965D02*
D03*
X047162D02*
D03*
X047358D02*
D03*
X047555D02*
D03*
X047752D02*
D03*
X047949D02*
D03*
X046571Y032645D02*
D03*
X046768D02*
D03*
X046965D02*
D03*
X047162D02*
D03*
X047358D02*
D03*
X047555D02*
D03*
X047752D02*
D03*
X047949D02*
D03*
D38*
X0403Y02995D02*
D03*
D39*
X040202Y028572D02*
D03*
X041383D02*
D03*
X041186D02*
D03*
X040989D02*
D03*
X040792D02*
D03*
X040595D02*
D03*
X040398D02*
D03*
X040005D02*
D03*
X039808D02*
D03*
X039611D02*
D03*
X039414D02*
D03*
X039217D02*
D03*
X039217Y031328D02*
D03*
X039414D02*
D03*
X039611D02*
D03*
X039808D02*
D03*
X040005D02*
D03*
X040202D02*
D03*
X040398D02*
D03*
X040595D02*
D03*
X040792D02*
D03*
X040989D02*
D03*
X041186D02*
D03*
X041383D02*
D03*
D40*
X041678Y030639D02*
D03*
Y030442D02*
D03*
Y030245D02*
D03*
Y030048D02*
D03*
Y029852D02*
D03*
Y029655D02*
D03*
Y029458D02*
D03*
Y029261D02*
D03*
Y029064D02*
D03*
Y028867D02*
D03*
X038922Y029655D02*
D03*
Y029852D02*
D03*
Y030048D02*
D03*
Y030245D02*
D03*
Y030442D02*
D03*
Y030639D02*
D03*
Y030836D02*
D03*
Y031033D02*
D03*
X041678D02*
D03*
Y030836D02*
D03*
X038922Y028867D02*
D03*
Y029064D02*
D03*
Y029261D02*
D03*
Y029458D02*
D03*
D41*
X041123Y034027D02*
D03*
D42*
X040828Y034617D02*
D03*
X041025D02*
D03*
X041222D02*
D03*
X041418D02*
D03*
Y033436D02*
D03*
X041222D02*
D03*
X041025D02*
D03*
X040828D02*
D03*
D43*
X041714Y034322D02*
D03*
Y034125D02*
D03*
Y033928D02*
D03*
Y033732D02*
D03*
X040533D02*
D03*
Y033928D02*
D03*
Y034125D02*
D03*
Y034322D02*
D03*
D44*
X045953Y03833D02*
D03*
Y039669D02*
D03*
X048847Y035968D02*
D03*
X045953Y036165D02*
D03*
X048847Y036834D02*
D03*
Y039669D02*
D03*
D73*
X042288Y038114D02*
D03*
X040012D02*
D03*
D75*
X039449Y039563D02*
D03*
Y037917D02*
D03*
X042851Y039563D02*
D03*
Y037917D02*
D03*
D85*
X04497Y030113D02*
X04502Y030063D01*
Y02998D02*
X04518Y029819D01*
X044894Y030113D02*
X04497D01*
X04502Y02998D02*
Y030063D01*
X044847Y030066D02*
X044894Y030113D01*
X04518Y029819D02*
X045186D01*
X044847Y029681D02*
Y030066D01*
X0448Y029634D02*
X044847Y029681D01*
X044728Y029634D02*
X0448D01*
X044681Y029681D02*
X044728Y029634D01*
X044681Y029681D02*
Y031042D01*
X044175Y032565D02*
X044222Y032612D01*
X044288D01*
X044175Y029681D02*
Y032565D01*
X04386Y029634D02*
X044128D01*
X044175Y029681D01*
X044288Y032612D02*
X04434Y03256D01*
X043618Y031105D02*
X043837Y031325D01*
X043897Y030749D02*
Y031159D01*
X043618Y030532D02*
Y031105D01*
X043895Y030747D02*
X043897Y030749D01*
X043618Y030532D02*
X04382Y03033D01*
X04434Y02968D02*
Y03256D01*
Y02968D02*
X044386Y029634D01*
X042844Y035272D02*
Y036646D01*
X0434Y037202D01*
X042684Y035205D02*
Y036712D01*
X04324Y037268D01*
X042844Y035272D02*
X04334Y034776D01*
X042684Y035205D02*
X04318Y03471D01*
X041678Y030639D02*
X042179D01*
X04218Y03064D01*
X040964Y024556D02*
X041243Y024835D01*
X040964Y024494D02*
Y024556D01*
X041557Y025793D02*
X042168D01*
X042475D01*
X04248Y025787D01*
X041243Y024835D02*
Y025182D01*
X04491Y032228D02*
X045157Y03198D01*
Y031251D02*
X04567Y030738D01*
X039581Y027604D02*
X040202Y028225D01*
Y028572D01*
X039581Y026785D02*
Y027604D01*
X039429Y027678D02*
X040005Y028254D01*
Y028572D01*
X049234Y027376D02*
X049645Y026965D01*
Y025981D02*
X049868Y025758D01*
X049645Y025981D02*
Y026965D01*
X049485Y025992D02*
Y026874D01*
X049144Y027216D02*
X049485Y026874D01*
X048872Y025379D02*
X049485Y025992D01*
X048853Y025379D02*
X048872D01*
X049868Y025758D02*
X049918D01*
X044435Y025819D02*
X045502Y024752D01*
X047111D01*
X044435Y025819D02*
Y026627D01*
X047111Y024752D02*
X049999Y021864D01*
X04535Y0333D02*
Y033346D01*
X04491Y03286D02*
X04535Y0333D01*
X045455Y033696D02*
Y03381D01*
X045461Y033816D01*
X04515Y033391D02*
X045455Y033696D01*
X045461Y033816D02*
Y034013D01*
X044941Y033391D02*
X04515D01*
X04535Y033346D02*
X045639Y033635D01*
X04551Y03227D02*
Y03328D01*
X045705Y033475D02*
X046552D01*
X04551Y03328D02*
X045705Y033475D01*
X045639Y033635D02*
X046265D01*
X04491Y032228D02*
Y03286D01*
X046265Y033635D02*
X04644Y03381D01*
X04489Y03334D02*
X044941Y033391D01*
X04644Y03381D02*
Y03414D01*
X046274Y032398D02*
Y032619D01*
X04558Y0322D02*
X046307D01*
X04551Y03227D02*
X04558Y0322D01*
X044547Y032364D02*
X044972Y03194D01*
X044547Y032797D02*
X04457Y03282D01*
X044972Y03121D02*
Y03194D01*
X044547Y032364D02*
Y032797D01*
X045157Y031251D02*
Y03198D01*
X04465Y031306D02*
Y03184D01*
X044633Y031857D02*
X04465Y03184D01*
X04567Y03067D02*
Y030738D01*
Y03067D02*
X04579Y03055D01*
X046552Y033475D02*
X04709Y034013D01*
X046283Y032389D02*
X046315D01*
X046274Y032398D02*
X046283Y032389D01*
X044386Y029634D02*
X044467D01*
X04328Y03206D02*
X04356D01*
X04647Y03316D02*
X046571Y033059D01*
X04579Y03055D02*
X04582D01*
X044972Y03121D02*
X045454Y030728D01*
X04465Y031306D02*
X045292Y030664D01*
X045454Y030396D02*
Y030728D01*
X045292Y030332D02*
Y030664D01*
X045454Y030396D02*
X0458Y03005D01*
X045292Y030332D02*
X046304Y02932D01*
X04739D01*
X04501Y030388D02*
X045528Y029869D01*
X04501Y030388D02*
Y03039D01*
X042915Y034085D02*
X043083D01*
X04318Y034182D02*
Y03471D01*
X043083Y034085D02*
X04318Y034182D01*
X04285Y03402D02*
X042915Y034085D01*
X050313Y034455D02*
Y037781D01*
X049748Y038345D02*
Y039127D01*
Y038345D02*
X050313Y037781D01*
X049239Y033667D02*
X049751D01*
X04931Y033507D02*
X049839D01*
X049751Y033667D02*
X050473Y034388D01*
X049685Y033827D02*
X050313Y034455D01*
X048878Y033076D02*
X04931Y033507D01*
X048718Y033146D02*
X049239Y033667D01*
X048069Y033373D02*
X048522Y033827D01*
X049839Y033507D02*
X050633Y034301D01*
X048522Y033827D02*
X049685D01*
X048069Y033022D02*
Y033373D01*
X047555Y032645D02*
Y032915D01*
X04786Y0336D02*
X04787Y03359D01*
X04749Y03298D02*
Y03321D01*
X0475Y03322D01*
X04749Y03298D02*
X047555Y032915D01*
X04709Y034013D02*
Y03474D01*
X045193Y028415D02*
X045353Y028576D01*
X04542Y028416D02*
X046564D01*
X045256Y028252D02*
X04542Y028416D01*
X046448Y028576D02*
X046676Y028803D01*
X045353Y028576D02*
X046448D01*
X046564Y028416D02*
X046792Y028643D01*
X047949Y032903D02*
X048069Y033022D01*
X047949Y032645D02*
Y032903D01*
X0435Y032807D02*
X043837Y032469D01*
Y031325D02*
Y032469D01*
X04366Y032873D02*
X043997Y032536D01*
Y031259D02*
Y032536D01*
X04366Y032873D02*
Y034627D01*
X0435Y032807D02*
Y034694D01*
X045461Y034013D02*
Y03421D01*
X04267Y03267D02*
X04328Y03206D01*
X04414Y02915D02*
X044673D01*
X044734Y02909D01*
X04459Y02888D02*
X044734Y029024D01*
Y02909D01*
X04409Y0292D02*
X04414Y02915D01*
X04409Y0292D02*
Y029263D01*
X044137Y02931D01*
X045315D01*
X045366Y029361D01*
X044977Y028894D02*
X04501D01*
X045366Y029361D02*
Y029427D01*
X041557Y038212D02*
X041835Y037933D01*
X040759Y038212D02*
X041557D01*
X040658Y038111D02*
X040759Y038212D01*
X040658Y037602D02*
Y038111D01*
X041835Y037606D02*
Y037933D01*
Y037606D02*
X041839Y037602D01*
X043774Y02988D02*
X04391D01*
X043727Y029833D02*
X043774Y02988D01*
X043727Y029767D02*
Y029833D01*
Y029767D02*
X04386Y029634D01*
X043907Y030053D02*
X04396Y03D01*
X04391Y02988D02*
X04396Y02993D01*
X043442Y030053D02*
X043907D01*
X04396Y02993D02*
Y03D01*
X043212Y030282D02*
X043442Y030053D01*
X044514Y029681D02*
Y031033D01*
X044643Y03108D02*
X044681Y031042D01*
X044561Y03108D02*
X044643D01*
X044514Y031033D02*
X044561Y03108D01*
X044467Y029634D02*
X044514Y029681D01*
X045319Y029474D02*
X045366Y029427D01*
X043794Y029474D02*
X045319D01*
X043033Y030235D02*
X043794Y029474D01*
X043897Y031159D02*
X043997Y031259D01*
X045138Y028586D02*
X045528Y028977D01*
Y029869D01*
X04483Y028746D02*
X044977Y028894D01*
X04459Y028793D02*
X044637Y028746D01*
X04483D01*
X04459Y028793D02*
Y02888D01*
X0444Y028415D02*
X045193D01*
X042861Y030181D02*
X044455Y028586D01*
X042767Y030048D02*
X0444Y028415D01*
X044455Y028586D02*
X045138D01*
X042861Y030181D02*
Y031545D01*
X045055Y027442D02*
Y027593D01*
X045118Y027656D01*
X045184D01*
X045609Y027231D01*
X04501Y027397D02*
X045055Y027442D01*
X045235Y027887D02*
X04575Y027372D01*
X045701Y027231D02*
X04575Y02728D01*
X044989Y027887D02*
X045235D01*
X044453Y027351D02*
X044989Y027887D01*
X04575Y02728D02*
Y027372D01*
X045609Y027231D02*
X045701D01*
X046676Y028803D02*
X047626D01*
X04789Y029067D01*
X046792Y028643D02*
X047936D01*
X04838Y029087D01*
X044443Y027071D02*
X04585D01*
X045995Y027216D02*
X049144D01*
X04585Y027071D02*
X045995Y027216D01*
X045257Y028092D02*
X045972Y027376D01*
X049234D01*
X042253Y029261D02*
X044443Y027071D01*
X04967Y015729D02*
X049999Y016058D01*
Y021864D01*
X04967Y014697D02*
Y015729D01*
X045461Y034013D02*
X045933D01*
X04924Y03048D02*
Y03105D01*
X04873Y031208D02*
X049082D01*
X048205D02*
X04873D01*
X049082D02*
X04924Y03105D01*
X048732Y03121D02*
X04895D01*
X04873Y031208D02*
X048732Y03121D01*
X0458Y03005D02*
X046575D01*
X046307Y0322D02*
X046315Y032192D01*
X04227Y03451D02*
X04229Y03449D01*
X04201Y03451D02*
X04227D01*
X041822Y034322D02*
X04201Y03451D01*
X041714Y034322D02*
X041822D01*
X044282Y035802D02*
Y036109D01*
X04412Y03564D02*
X044282Y035802D01*
X04388Y03561D02*
X04391Y03564D01*
X04412D01*
X0434Y037202D02*
Y038239D01*
X043225Y038414D02*
X0434Y038239D01*
X043065Y038348D02*
X04324Y038173D01*
Y037268D02*
Y038173D01*
X042051Y033732D02*
X042333Y03345D01*
X04292D01*
X041739Y033732D02*
X042051D01*
X04292Y03345D02*
X04334Y03387D01*
X03939Y03234D02*
Y03253D01*
X039611Y031328D02*
Y032119D01*
X03939Y03234D02*
X039611Y032119D01*
X039826Y031428D02*
Y032577D01*
X039986Y031428D02*
Y032643D01*
X03935Y033279D02*
Y034714D01*
X03919Y033213D02*
X039826Y032577D01*
X03919Y033213D02*
Y03478D01*
X03935Y033279D02*
X039986Y032643D01*
X03935Y034714D02*
X039999Y035363D01*
X040975D02*
X041428Y035816D01*
X03919Y03478D02*
X039933Y035523D01*
X040908D02*
X041268Y035882D01*
X039933Y035523D02*
X040908D01*
X039999Y035363D02*
X040975D01*
X041268Y035882D02*
Y03598D01*
X041428Y035816D02*
Y035913D01*
X04334Y03387D02*
Y034776D01*
X0435Y034694D02*
X044478Y035672D01*
Y036109D01*
X044675Y035643D02*
Y036109D01*
X04366Y034627D02*
X044675Y035643D01*
X043225Y038414D02*
Y039065D01*
X043065Y038348D02*
Y039131D01*
X04388Y03564D02*
X044Y03576D01*
X04388Y03561D02*
Y03564D01*
X043455Y031425D02*
X0435Y03138D01*
X043065Y039131D02*
X043454Y03952D01*
X04377D01*
X04391Y03966D01*
X043435Y039275D02*
X044315D01*
X043225Y039065D02*
X043435Y039275D01*
X0447Y03966D02*
X04471D01*
X044315Y039275D02*
X0447Y03966D01*
X041714Y033928D02*
Y034125D01*
X04095Y03267D02*
X04267D01*
X040202Y031328D02*
Y031921D01*
X04095Y03267D01*
X040398Y031328D02*
Y031883D01*
X041023Y032507D02*
X042591D01*
X040398Y031883D02*
X041023Y032507D01*
X042591D02*
X043455Y031643D01*
Y031425D02*
Y031643D01*
X041222Y033156D02*
Y033436D01*
Y033156D02*
X04143Y032947D01*
X040792Y031789D02*
X041166Y032164D01*
X04108Y032329D02*
X042529D01*
X043212Y031646D01*
X041166Y032164D02*
X042468D01*
X040989Y03176D02*
X041233Y032004D01*
X042402D01*
X040595Y031844D02*
X04108Y032329D01*
X042468Y032164D02*
X043033Y031599D01*
X042402Y032004D02*
X042861Y031545D01*
X040595Y031328D02*
Y031844D01*
X040792Y031328D02*
Y031789D01*
X040989Y031328D02*
Y03176D01*
X046575Y03005D02*
X046964Y030439D01*
Y030754D01*
X046989Y029744D02*
Y030002D01*
X04739Y03015D02*
X047555Y030315D01*
X046989Y030002D02*
X047358Y030372D01*
X04739Y02988D02*
Y03015D01*
X046698Y029937D02*
X047162Y030401D01*
X04667Y02966D02*
X046698Y029688D01*
Y029937D01*
X047162Y030401D02*
Y030755D01*
X04658Y030764D02*
Y031014D01*
X046621Y031055D02*
Y031061D01*
X04658Y031014D02*
X046621Y031055D01*
Y031061D02*
X04726Y0317D01*
X047358Y030372D02*
Y030755D01*
X046964Y030754D02*
X046965Y030755D01*
X047555Y030315D02*
Y030755D01*
X046989Y029744D02*
X047133Y0296D01*
X049037Y030277D02*
X04924Y03048D01*
X039606Y02638D02*
X040989Y027763D01*
X039606Y024605D02*
Y02638D01*
X040989Y027763D02*
Y028572D01*
X044438Y02685D02*
X046D01*
X042224Y029064D02*
X044438Y02685D01*
X042544Y029197D02*
Y029345D01*
X042431Y029458D02*
X042544Y029345D01*
X044389Y027351D02*
X044453D01*
X044326Y027415D02*
X044389Y027351D01*
X044326Y027415D02*
Y027479D01*
X04462Y027773D01*
Y027836D01*
X044556Y0279D02*
X04462Y027836D01*
X044492Y0279D02*
X044556D01*
X044198Y027606D02*
X044492Y0279D01*
X044135Y027606D02*
X044198D01*
X044071Y02767D02*
X044135Y027606D01*
X044071Y02767D02*
Y027733D01*
X044196Y027859D01*
Y027922D01*
X044133Y027986D02*
X044196Y027922D01*
X044069Y027986D02*
X044133D01*
X043944Y027861D02*
X044069Y027986D01*
X04388Y027861D02*
X043944D01*
X043817Y027924D02*
X04388Y027861D01*
X043817Y027924D02*
Y027988D01*
X043942Y028113D01*
Y028177D01*
X043878Y02824D02*
X043942Y028177D01*
X043815Y02824D02*
X043878D01*
X043689Y028115D02*
X043815Y02824D01*
X043626Y028115D02*
X043689D01*
X043562Y028179D02*
X043626Y028115D01*
X043562Y028179D02*
Y028242D01*
X043687Y028368D01*
Y028431D01*
X043624Y028495D02*
X043687Y028431D01*
X04356Y028495D02*
X043624D01*
X043435Y02837D02*
X04356Y028495D01*
X043371Y02837D02*
X043435D01*
X043307Y028433D02*
X043371Y02837D01*
X043307Y028433D02*
Y028497D01*
X043433Y028622D01*
Y028686D01*
X043369Y02875D02*
X043433Y028686D01*
X043305Y02875D02*
X043369D01*
X04318Y028624D02*
X043305Y02875D01*
X043116Y028624D02*
X04318D01*
X043053Y028688D02*
X043116Y028624D01*
X043053Y028688D02*
Y028752D01*
X043178Y028877D01*
Y028941D01*
X043115Y029004D02*
X043178Y028941D01*
X043051Y029004D02*
X043115D01*
X042926Y028879D02*
X043051Y029004D01*
X042862Y028879D02*
X042926D01*
X042798Y028942D02*
X042862Y028879D01*
X042798Y028942D02*
Y029006D01*
X042924Y029131D01*
Y029195D01*
X04286Y029259D02*
X042924Y029195D01*
X042796Y029259D02*
X04286D01*
X042671Y029133D02*
X042796Y029259D01*
X042607Y029133D02*
X042671D01*
X042544Y029197D02*
X042607Y029133D01*
X042364Y029458D02*
X042431D01*
X041678D02*
X042364D01*
X04269Y029655D02*
X044253Y028092D01*
X045257D01*
X04272Y029852D02*
X044319Y028252D01*
X045256D01*
X038176Y014587D02*
Y015774D01*
X038805Y016404D01*
X038176Y014587D02*
X03855Y014213D01*
Y015D02*
Y015922D01*
X038805Y016404D02*
Y023985D01*
X037763Y015587D02*
X038646Y01647D01*
Y023914D01*
X038965Y016338D02*
Y023965D01*
X03733Y014645D02*
Y015381D01*
X038486Y016537D02*
Y023848D01*
X03733Y015381D02*
X038486Y016537D01*
X03855Y015922D02*
X038965Y016338D01*
X037763Y015D02*
Y015587D01*
X043212Y030282D02*
Y031646D01*
X04789Y029647D02*
Y02988D01*
Y030184D01*
X047752Y030322D02*
Y030755D01*
Y030322D02*
X04789Y030184D01*
X046571Y030755D02*
X04658Y030764D01*
X048203Y032387D02*
X048205Y032389D01*
X047358Y031798D02*
X047947Y032387D01*
X04726Y0317D02*
X047358Y031798D01*
X047947Y032387D02*
X048203D01*
X041243Y025182D02*
Y025793D01*
X0414Y02595D01*
X041243Y026107D02*
X0414Y02595D01*
X040632Y026107D02*
X041243D01*
X0414Y02595D02*
X041557Y025793D01*
X041243Y026107D02*
Y026718D01*
X039414Y030836D02*
X0403Y02995D01*
X039414Y029064D02*
X0403Y02995D01*
X038965Y023965D02*
X039606Y024605D01*
X051242Y031868D02*
Y034666D01*
X050793Y035115D02*
X051242Y034666D01*
X050916Y031542D02*
X051242Y031868D01*
X04967Y014697D02*
X050155Y014213D01*
X041373Y031702D02*
X041414D01*
X041186Y031515D02*
X041373Y031702D01*
X048595Y031405D02*
X048732Y031542D01*
X050916D01*
X04122Y035063D02*
X041221Y035063D01*
Y034618D02*
Y035063D01*
X04073Y034824D02*
X040828Y034726D01*
Y034617D02*
Y034726D01*
X04073Y034824D02*
Y03505D01*
X041418Y034617D02*
X041428Y034627D01*
X042195Y028867D02*
X044435Y026627D01*
X041678Y029261D02*
X042253D01*
X041678Y029064D02*
X042224D01*
X041678Y028867D02*
X042195D01*
X047133Y0296D02*
X047843D01*
X04789Y029647D01*
X049137Y032147D02*
X0492Y03221D01*
X03831Y031153D02*
Y033091D01*
Y031153D02*
X038627Y030836D01*
X03847Y031219D02*
X038656Y031033D01*
X03847Y031219D02*
Y03205D01*
X03873Y03231D01*
X037596Y030966D02*
X037989Y031359D01*
X03785Y033081D02*
X03815Y032781D01*
Y031086D02*
X038597Y030639D01*
X03815Y031086D02*
Y032781D01*
X0378Y03209D02*
X037989Y0319D01*
Y031359D02*
Y0319D01*
X050633Y034301D02*
Y038147D01*
X050473Y034388D02*
Y037987D01*
X048878Y032348D02*
Y033076D01*
X048718Y032424D02*
Y033146D01*
X050793Y035115D02*
Y037861D01*
X048486Y032192D02*
X048718Y032424D01*
X048525Y031995D02*
X048878Y032348D01*
X05027Y03819D02*
Y038497D01*
Y03819D02*
X050473Y037987D01*
X049748Y039127D02*
X049916Y039295D01*
X050155Y038613D02*
X05027Y038497D01*
X05057Y03821D02*
Y039028D01*
Y03821D02*
X050633Y038147D01*
X05057Y039028D02*
X050942Y0394D01*
X048205Y031995D02*
X048525D01*
X048205Y032192D02*
X048486D01*
X049916Y039295D02*
X049943D01*
X050049Y0394D02*
X050155D01*
X049943Y039295D02*
X050049Y0394D01*
X050942Y03801D02*
Y038613D01*
X050793Y037861D02*
X050942Y03801D01*
X043033Y030235D02*
Y031599D01*
X041678Y030048D02*
X042767D01*
X041678Y029852D02*
X04272D01*
X041678Y029655D02*
X04269D01*
X037596Y030207D02*
X037983Y02982D01*
X037535Y029875D02*
X03775Y02966D01*
X037983Y02982D02*
X03841D01*
X037535Y029875D02*
X037535D01*
X037596Y030207D02*
Y030966D01*
X03775Y02966D02*
X038476D01*
X048205Y031405D02*
X048595D01*
X04827Y03072D02*
X04896D01*
X048261Y031011D02*
X04827Y031002D01*
Y03072D02*
Y031002D01*
X048205Y031011D02*
X048261D01*
X04841Y030277D02*
X049037D01*
X04789Y029067D02*
Y02932D01*
X04838Y02931D02*
X04839Y02932D01*
X04838Y029087D02*
Y02931D01*
X041186Y031328D02*
Y031515D01*
X041383Y028235D02*
Y028572D01*
Y028235D02*
X04159Y028028D01*
Y02777D02*
Y028028D01*
X037368Y024966D02*
X038486Y023848D01*
X038507Y024053D02*
X038646Y023914D01*
X037688Y025103D02*
X038805Y023985D01*
X037528Y025032D02*
X038507Y024053D01*
X037368Y024966D02*
Y02756D01*
X037528Y025032D02*
Y027494D01*
X037688Y025103D02*
Y027428D01*
X03733Y014645D02*
X037763Y014213D01*
X039807Y028283D02*
Y028571D01*
X039362Y027838D02*
X039807Y028283D01*
Y028571D02*
X039808Y028572D01*
X037528Y027494D02*
X038032Y027998D01*
X039296D02*
X039611Y028313D01*
X038098Y027838D02*
X039362D01*
X038032Y027998D02*
X039296D01*
X039611Y028313D02*
Y028572D01*
X037688Y027428D02*
X038098Y027838D01*
X037368Y02756D02*
X037966Y028158D01*
X039356Y026561D02*
X039581Y026785D01*
X038726Y027376D02*
Y027428D01*
X03853Y02718D02*
X038726Y027376D01*
Y027428D02*
X038977Y027678D01*
X039429D01*
X03916Y026314D02*
X039356Y02651D01*
Y026561D01*
X03923Y028158D02*
X039414Y028343D01*
X037966Y028158D02*
X03923D01*
X039414Y028343D02*
Y028572D01*
X038233Y030157D02*
X038254Y030136D01*
X038487D01*
X03833Y02904D02*
X038344Y029054D01*
X038549D01*
X038754Y029258D01*
X038669Y03345D02*
X03869D01*
X03831Y033091D02*
X038669Y03345D01*
X038919Y029258D02*
X038922Y029261D01*
X03797Y02919D02*
X038117Y029337D01*
X038606D01*
X038754Y029258D02*
X038919D01*
X038606Y029337D02*
X038727Y029458D01*
X037741Y0295D02*
X038543D01*
X03756Y02935D02*
X037591D01*
X037741Y0295D01*
X038543D02*
X038697Y029655D01*
X038476Y02966D02*
X038668Y029852D01*
X038638Y030048D02*
X038922D01*
X03841Y02982D02*
X038638Y030048D01*
X038727Y029458D02*
X038922D01*
X038697Y029655D02*
X038922D01*
X038668Y029852D02*
X038922D01*
X03842Y03059D02*
X038568Y030442D01*
X03823Y03059D02*
X03842D01*
X0378Y03209D02*
Y03259D01*
X038487Y030136D02*
X038596Y030245D01*
X038922D01*
X038568Y030442D02*
X038922D01*
X038597Y030639D02*
X038922D01*
X038627Y030836D02*
X038922D01*
X038656Y031033D02*
X038922D01*
X03785Y033081D02*
Y03368D01*
X03873Y03231D02*
Y03292D01*
X041222Y033436D02*
X041222Y033436D01*
X04091Y03299D02*
X041025Y033105D01*
X041221Y034618D02*
X041222Y034617D01*
X041025Y033105D02*
Y033436D01*
X040218Y034652D02*
X040395D01*
X04019Y03468D02*
X040218Y034652D01*
X0405Y034331D02*
Y034547D01*
X040509Y034322D02*
X040533D01*
X0405Y034331D02*
X040509Y034322D01*
X040395Y034652D02*
X0405Y034547D01*
X039808Y031328D02*
X039821Y031341D01*
X041268Y03598D02*
Y036082D01*
X0411Y03622D02*
X04113D01*
X041268Y036082D01*
X039992Y031341D02*
X040005Y031328D01*
X04156Y03622D02*
X04159D01*
X041428Y036088D02*
X04156Y03622D01*
X041428Y035913D02*
Y036088D01*
D86*
X042095Y03694D02*
X042464Y03657D01*
X043147Y036083D02*
Y036637D01*
X042464Y035444D02*
Y03657D01*
X043147Y036083D02*
X04315Y03608D01*
X042112Y035092D02*
X042464Y035444D01*
X045242Y032227D02*
X045489Y03198D01*
X045242Y032227D02*
Y032288D01*
X04522Y03231D02*
X045242Y032288D01*
X045489Y03198D02*
X04576D01*
X04582Y03192D01*
X049818Y037372D02*
Y037941D01*
Y037372D02*
X04991Y03728D01*
X04778Y03856D02*
X049199D01*
X049818Y037941D01*
X048847Y036834D02*
X04902Y03666D01*
X04942D02*
X049749Y036331D01*
X04902Y03666D02*
X04942D01*
X04992Y03591D02*
Y03615D01*
X049749Y036317D02*
Y036331D01*
X049916Y03615D02*
X04993D01*
X049749Y036317D02*
X049916Y03615D01*
X04576Y038137D02*
X045953Y03833D01*
X04576Y03758D02*
Y038137D01*
X04907Y037054D02*
Y03752D01*
X04885Y036834D02*
X04907Y037054D01*
X048847Y036834D02*
X04885D01*
X045953Y03833D02*
X04755D01*
X04778Y03856D01*
X049289Y016139D02*
Y019875D01*
X04582Y03111D02*
Y03192D01*
X040205Y037602D02*
X040205Y037602D01*
X040205Y036803D02*
X04023Y036778D01*
X040205Y036803D02*
Y037602D01*
X044368Y014926D02*
X048076D01*
X048592Y020573D02*
X049289Y019875D01*
X048076Y014926D02*
X049289Y016139D01*
X04692Y020573D02*
X048592D01*
X043625Y037116D02*
Y038595D01*
X04377Y03874D01*
X043147Y036637D02*
X043625Y037116D01*
X04175Y03507D02*
X041772Y035092D01*
X04175Y035039D02*
Y03507D01*
X041451Y034517D02*
Y03474D01*
X04175Y035039D01*
X041772Y035092D02*
X042112D01*
X040026Y034023D02*
X040523D01*
X042095Y03694D02*
Y037602D01*
X04184Y03402D02*
X04229D01*
X04683Y02809D02*
X0472D01*
X045782Y02171D02*
X04692Y020573D01*
X04991Y0359D02*
X04992Y03591D01*
X045163Y02171D02*
X045782D01*
X04516D02*
X045163D01*
X044433Y021295D02*
X044748D01*
X045163Y02171D01*
X03939Y01778D02*
Y019796D01*
X039444Y01985D01*
X044363Y014926D02*
X044365Y014929D01*
X042244Y014926D02*
X044363D01*
X03939Y01778D02*
X042244Y014926D01*
X044365Y014929D02*
X044368Y014926D01*
X044365Y021228D02*
X044433Y021295D01*
X04516Y02171D02*
Y02342D01*
X044384Y024196D02*
Y024752D01*
Y024196D02*
X04516Y02342D01*
X044365Y024771D02*
X044384Y024752D01*
X04954Y03124D02*
X05061D01*
X05063Y03126D01*
X04952Y03122D02*
X04954Y03124D01*
D87*
X041678Y031033D02*
X041873D01*
X04202Y03118D02*
X04221D01*
X041873Y031033D02*
X04202Y03118D01*
X04836Y02535D02*
X048382D01*
X048283D02*
X04836D01*
X048382D02*
X04842Y025312D01*
Y025291D02*
X048653Y025059D01*
Y023748D02*
Y025059D01*
X04842Y025291D02*
Y025312D01*
X04837Y02536D02*
X0484D01*
X04836Y02535D02*
X04837Y02536D01*
X048653Y023748D02*
X050379Y022021D01*
X04524Y025269D02*
Y02617D01*
Y025269D02*
X045574Y024935D01*
X047183D01*
X050179Y021938D01*
X04776Y034207D02*
X049431D01*
X049696Y034472D02*
Y034514D01*
X049431Y034207D02*
X049696Y034472D01*
X047843Y034007D02*
X049611D01*
X046771Y033218D02*
X04776Y034207D01*
X049611Y034007D02*
X050034Y034431D01*
X047162Y033326D02*
X047843Y034007D01*
X046771Y032599D02*
Y033218D01*
X047162Y032645D02*
Y033326D01*
X04785Y033149D02*
Y03357D01*
X047752Y033051D02*
X04785Y033149D01*
X047752Y032645D02*
Y033051D01*
X04785Y03357D02*
X04787Y03359D01*
X050034Y034431D02*
Y035106D01*
X041628Y038405D02*
X042052Y037982D01*
Y037645D02*
X042095Y037602D01*
X042052Y037645D02*
Y037982D01*
X038882Y031328D02*
X039217D01*
X04068Y02812D02*
X040792Y028232D01*
X04068Y02786D02*
Y02812D01*
X040792Y028232D02*
Y028572D01*
X038539Y028581D02*
X039208D01*
X046571Y032645D02*
Y033109D01*
X04582Y03107D02*
Y03111D01*
X040239Y037961D02*
X040683Y038405D01*
X041628D01*
X040205Y037602D02*
X040239Y037636D01*
Y037961D01*
X04842Y025811D02*
X048853Y025379D01*
X050579Y016295D02*
Y022104D01*
X051378Y014648D02*
Y015497D01*
X050579Y016295D02*
X051378Y015497D01*
X050379Y016212D02*
Y022021D01*
Y016212D02*
X050942Y015649D01*
Y015D02*
Y015649D01*
Y014213D02*
X051378Y014648D01*
X048853Y02383D02*
X050579Y022104D01*
X050155Y015D02*
X050179Y015025D01*
Y021938D01*
X048853Y02383D02*
Y025379D01*
X048387Y025845D02*
X04842Y025812D01*
Y025811D02*
Y025812D01*
X04524Y02617D02*
X04542Y02635D01*
X046D01*
X045871Y031019D02*
X046307D01*
X046315Y031011D01*
X04582Y03107D02*
X045871Y031019D01*
X04398Y037657D02*
Y03771D01*
Y037657D02*
X044085Y037553D01*
Y037251D02*
Y037553D01*
X044478Y037329D02*
Y037578D01*
X04474Y03784D01*
X046385Y030429D02*
X046699D01*
X046769Y030499D01*
Y030677D01*
X046315Y030499D02*
X046385Y030429D01*
X046315Y030499D02*
Y031011D01*
X038922Y028581D02*
X038922Y028581D01*
Y028867D01*
X039208Y028581D02*
X039217Y028572D01*
X03853Y02859D02*
X038539Y028581D01*
X038806Y031404D02*
Y031674D01*
Y031404D02*
X038882Y031328D01*
X0388Y03168D02*
X038806Y031674D01*
X05002Y03512D02*
X050034Y035106D01*
X048937Y032147D02*
X049137D01*
X048588Y031798D02*
X048937Y032147D01*
X048205Y031798D02*
X048588D01*
D88*
X040511Y024086D02*
Y024535D01*
X040928Y024951D01*
X041085Y024897D02*
Y025182D01*
X040784Y024596D02*
X041085Y024897D01*
X040928Y024951D02*
Y025182D01*
X040784Y024281D02*
Y024596D01*
X04084Y02715D02*
X040873Y027117D01*
X041243D01*
X040361Y024023D02*
X040851Y023534D01*
X039936Y021326D02*
X040251Y021641D01*
X040701Y018017D02*
X042497Y016221D01*
X040061Y023899D02*
X040551Y023409D01*
X040401Y017893D02*
X042873Y015421D01*
X041001Y020535D02*
X041278Y020258D01*
X040511Y024086D02*
X041001Y023596D01*
X039761Y023775D02*
X040251Y023285D01*
X040851Y020473D02*
X040989Y020334D01*
X039911Y023837D02*
X040401Y023347D01*
Y017893D02*
Y023347D01*
X041001Y020535D02*
Y023596D01*
X040251Y021641D02*
Y023285D01*
X040851Y020473D02*
Y023534D01*
X040551Y017955D02*
X042435Y016071D01*
X040551Y017955D02*
Y023409D01*
X040211Y023961D02*
X040701Y023472D01*
Y018017D02*
Y023472D01*
X041278Y017652D02*
Y020258D01*
X047445Y018842D02*
X04773Y019127D01*
X044654Y016847D02*
X046649Y018842D01*
X047445D01*
X043924Y016847D02*
X044654D01*
X043509Y016221D02*
X043986Y016697D01*
X044718D01*
X043447Y016371D02*
X043924Y016847D01*
X044718Y016697D02*
X046395Y018374D01*
X043919Y016418D02*
X044363D01*
X04773Y019127D02*
Y019853D01*
X040447Y025635D02*
X040632D01*
X040211Y025399D02*
X040447Y025635D01*
X040632D02*
X040632Y025635D01*
X041872Y02447D02*
X042063Y024279D01*
X041715Y024415D02*
X042185Y023945D01*
X042063Y024279D02*
X042889D01*
X041715Y024415D02*
Y025182D01*
X042185Y022285D02*
Y023945D01*
X041872Y02447D02*
Y025182D01*
X041487Y024687D02*
Y024891D01*
X041557Y024961D01*
X04144Y02464D02*
X041487Y024687D01*
X041557Y024961D02*
Y025182D01*
X040989Y019835D02*
Y020334D01*
X041278Y017652D02*
X042559Y016371D01*
X043447D01*
X042435Y016071D02*
X043572D01*
X043919Y016418D01*
X042497Y016221D02*
X043509D01*
X046395Y018374D02*
X047023D01*
X042185Y022285D02*
X042889Y021581D01*
X043755Y023839D02*
X044355Y023239D01*
X043138Y026382D02*
X043755Y025766D01*
Y023839D02*
Y025766D01*
X043076Y026232D02*
X043605Y025704D01*
Y020351D02*
X044365Y01959D01*
X043605Y020351D02*
Y025704D01*
X042958Y026382D02*
X043138D01*
X042605Y026232D02*
X043076D01*
X042542Y026382D02*
X042958D01*
X042873Y015421D02*
X042889D01*
X042168Y026107D02*
X04248D01*
X042605Y026232D01*
X042425Y026265D02*
X042542Y026382D01*
X042168Y026265D02*
X042425D01*
X042168Y02595D02*
X04271D01*
X039911Y026081D02*
X040094Y026265D01*
X040061Y025461D02*
X040393Y025793D01*
X039761Y023775D02*
Y026144D01*
X040361Y024023D02*
Y025304D01*
X039911Y023837D02*
Y026081D01*
X040061Y023899D02*
Y025461D01*
X039761Y026144D02*
X04004Y026422D01*
X040211Y023961D02*
Y025399D01*
X040361Y025304D02*
X040534Y025478D01*
X040632D01*
X040393Y025793D02*
X040632D01*
X042889Y020736D02*
Y021581D01*
X041715Y027093D02*
Y027252D01*
Y027093D02*
X041822D01*
X041715Y026718D02*
Y027093D01*
X041557Y026718D02*
Y027023D01*
X0414Y026718D02*
Y02696D01*
X041192Y027388D02*
X041557Y027023D01*
X041243Y027117D02*
X0414Y02696D01*
X04004Y026422D02*
X040632D01*
X040094Y026265D02*
X040632D01*
X040185Y025971D02*
X040206Y02595D01*
X040632D01*
X041192Y027388D02*
Y027389D01*
X041186Y027781D02*
X041715Y027252D01*
X041186Y027781D02*
Y028572D01*
D89*
X044305Y033325D02*
X04433Y0333D01*
X044305Y033325D02*
Y033805D01*
Y033305D02*
Y033325D01*
D90*
X048286Y035919D02*
X048798D01*
X048156Y03474D02*
Y035788D01*
X048798Y035919D02*
X048847Y035968D01*
X048156Y035788D02*
X048286Y035919D01*
X04966Y03221D02*
X050842D01*
X048283Y02685D02*
X04899D01*
X048283Y02635D02*
Y02685D01*
X049205Y031824D02*
X04921Y031819D01*
X0492Y03221D02*
X049205Y032205D01*
Y031824D02*
Y032205D01*
X04952Y03072D02*
Y03122D01*
X0492Y03221D02*
X04966D01*
X050842D02*
X050865Y032188D01*
X04765Y03474D02*
X048156D01*
X03916Y02575D02*
Y026314D01*
X03801Y02717D02*
X03852D01*
D91*
X044277Y034405D02*
X044279Y034407D01*
X043944Y034401D02*
X043948Y034405D01*
X044277D01*
X043944Y03396D02*
X044005D01*
X044056Y034011D01*
X044277D01*
X044279Y034013D01*
D92*
X04726Y02782D02*
Y028301D01*
D93*
X050942Y038613D02*
D03*
X050155Y0394D02*
D03*
X050942D02*
D03*
Y014213D02*
D03*
X050155Y015D02*
D03*
X050942D02*
D03*
X03855Y014213D02*
D03*
X037763Y015D02*
D03*
X03855D02*
D03*
Y038613D02*
D03*
X037763Y0394D02*
D03*
X03855D02*
D03*
D94*
X050155Y038613D02*
D03*
Y014213D02*
D03*
X037763D02*
D03*
Y038613D02*
D03*
D95*
X0422Y01985D02*
D03*
X044365Y014929D02*
D03*
Y024771D02*
D03*
Y017685D02*
D03*
Y022015D02*
D03*
X049287Y01985D02*
D03*
X039444D02*
D03*
X046531D02*
D03*
X044365Y018472D02*
D03*
Y021228D02*
D03*
D96*
X045842Y015421D02*
D03*
X042889D02*
D03*
Y024279D02*
D03*
X045842D02*
D03*
X042889Y017193D02*
D03*
Y022507D02*
D03*
X045842Y017193D02*
D03*
Y022507D02*
D03*
X048794Y018374D02*
D03*
Y021326D02*
D03*
X039936Y018374D02*
D03*
Y021326D02*
D03*
X047023Y018374D02*
D03*
Y021326D02*
D03*
X041708Y018374D02*
D03*
Y021326D02*
D03*
X042889Y018964D02*
D03*
X045842D02*
D03*
Y020736D02*
D03*
X042889D02*
D03*
X0384Y0356D02*
D03*
Y036584D02*
D03*
D97*
X04477Y03874D02*
D03*
D98*
X04377D02*
D03*
D99*
X0384Y034616D02*
D03*
D100*
X043895Y030747D02*
D03*
X041125Y03971D02*
D03*
X04749Y02538D02*
D03*
X04666D02*
D03*
X04888Y02611D02*
D03*
X04202Y0356D02*
D03*
X03922Y03619D02*
D03*
X04315Y03608D02*
D03*
X04355Y03603D02*
D03*
X04312Y0328D02*
D03*
X0493Y03898D02*
D03*
X04839D02*
D03*
X04873Y0353D02*
D03*
X04749Y03525D02*
D03*
Y03604D02*
D03*
X0482Y03747D02*
D03*
X04675D02*
D03*
X04421Y03655D02*
D03*
X04512D02*
D03*
X04748Y03898D02*
D03*
X04657D02*
D03*
X04239Y03971D02*
D03*
X041757D02*
D03*
X040493D02*
D03*
X03986D02*
D03*
X039506Y029646D02*
D03*
X04221Y03118D02*
D03*
X04218Y03064D02*
D03*
X04252Y03091D02*
D03*
X04184Y03172D02*
D03*
X04028Y03243D02*
D03*
X03815Y034D02*
D03*
X03864D02*
D03*
X04031Y03301D02*
D03*
X04329Y03554D02*
D03*
X03922Y03557D02*
D03*
X04782Y02782D02*
D03*
X049129Y027785D02*
D03*
X04741Y02609D02*
D03*
X04777Y02644D02*
D03*
X047889Y024825D02*
D03*
X048279Y024335D02*
D03*
X045859Y035555D02*
D03*
X04249Y03495D02*
D03*
X04667Y035127D02*
D03*
X046267D02*
D03*
X0484Y02536D02*
D03*
X045233Y03279D02*
D03*
X0443Y03332D02*
D03*
X046274Y032619D02*
D03*
X04522Y03231D02*
D03*
X044633Y031857D02*
D03*
X04581Y03248D02*
D03*
X04457Y03279D02*
D03*
X04356Y03206D02*
D03*
X04647Y03316D02*
D03*
X04597Y03065D02*
D03*
X04644Y03414D02*
D03*
X0475Y03322D02*
D03*
X04786Y0336D02*
D03*
X049696Y034514D02*
D03*
X04474Y03784D02*
D03*
X04494Y03518D02*
D03*
X046Y02585D02*
D03*
X043944Y03396D02*
D03*
Y034401D02*
D03*
X03732Y03701D02*
D03*
X045186Y029819D02*
D03*
X04382Y03033D02*
D03*
X04642Y02894D02*
D03*
X049918Y025758D02*
D03*
X04725Y02386D02*
D03*
X04899Y02195D02*
D03*
X04815Y02285D02*
D03*
X05132Y01622D02*
D03*
X04398Y03771D02*
D03*
X04234Y03345D02*
D03*
X039162Y031934D02*
D03*
X0435Y03138D02*
D03*
X04993Y0374D02*
D03*
X05117Y03728D02*
D03*
X04143Y032947D02*
D03*
X04084Y02715D02*
D03*
X04979Y0287D02*
D03*
X04758Y01592D02*
D03*
Y0176D02*
D03*
X04887Y0139D02*
D03*
X047016D02*
D03*
X045162D02*
D03*
X043308D02*
D03*
X041454D02*
D03*
X0396D02*
D03*
X03742Y024353D02*
D03*
Y022997D02*
D03*
Y021642D02*
D03*
Y020286D02*
D03*
Y018931D02*
D03*
Y017575D02*
D03*
Y01622D02*
D03*
X05132Y017575D02*
D03*
Y018931D02*
D03*
Y020286D02*
D03*
Y021642D02*
D03*
Y022997D02*
D03*
Y024353D02*
D03*
Y025708D02*
D03*
Y027064D02*
D03*
Y028419D02*
D03*
Y029775D02*
D03*
Y03113D02*
D03*
X05135Y03814D02*
D03*
X0514Y03502D02*
D03*
X04937Y03497D02*
D03*
X05007Y03024D02*
D03*
Y03076D02*
D03*
X04835Y03271D02*
D03*
X04851Y03338D02*
D03*
X05092Y03382D02*
D03*
Y03448D02*
D03*
X04943Y03286D02*
D03*
X04973Y0332D02*
D03*
X04782Y028301D02*
D03*
X04861Y02872D02*
D03*
X04342Y02675D02*
D03*
X04298Y02729D02*
D03*
X04254Y02784D02*
D03*
X04169Y02236D02*
D03*
Y02374D02*
D03*
X03814Y02611D02*
D03*
Y02513D02*
D03*
X03906D02*
D03*
X0432Y0253D02*
D03*
X04265Y0249D02*
D03*
X04172Y02589D02*
D03*
X04108D02*
D03*
X04123Y03024D02*
D03*
X04017Y03073D02*
D03*
X03932D02*
D03*
X04052Y03024D02*
D03*
X04058Y02889D02*
D03*
X03732Y0281D02*
D03*
Y0288D02*
D03*
X03728Y03048D02*
D03*
X03732Y03233D02*
D03*
Y03385D02*
D03*
Y03546D02*
D03*
X040784Y024281D02*
D03*
X04501Y027397D02*
D03*
Y028894D02*
D03*
X03891Y02447D02*
D03*
X044363Y016418D02*
D03*
X04144Y02464D02*
D03*
X044365Y01959D02*
D03*
X040989Y019835D02*
D03*
X044356Y023247D02*
D03*
X04773Y019853D02*
D03*
X04667Y02966D02*
D03*
X041414Y031702D02*
D03*
X041822Y027093D02*
D03*
X04271Y02595D02*
D03*
X04899Y02685D02*
D03*
X04872Y03473D02*
D03*
X05034Y0322D02*
D03*
X05063Y03126D02*
D03*
X04683Y02809D02*
D03*
X0388Y03168D02*
D03*
X04921Y031819D02*
D03*
X05002Y03512D02*
D03*
X04993Y03615D02*
D03*
X04122Y035063D02*
D03*
X04073Y03505D02*
D03*
X04175Y03507D02*
D03*
X04091Y03299D02*
D03*
X04184Y03402D02*
D03*
X04022Y02773D02*
D03*
X05117Y0359D02*
D03*
X05025Y033051D02*
D03*
X037535Y029875D02*
D03*
X04841Y030277D02*
D03*
X04827Y03072D02*
D03*
X04839Y02988D02*
D03*
X046Y02635D02*
D03*
X04501Y03039D02*
D03*
X04159Y02777D02*
D03*
X040185Y025971D02*
D03*
X041192Y027389D02*
D03*
X04068Y02786D02*
D03*
X03853Y02859D02*
D03*
X038233Y030157D02*
D03*
X03833Y02904D02*
D03*
X03869Y03345D02*
D03*
X03789Y02913D02*
D03*
X03756Y02935D02*
D03*
X03814Y03059D02*
D03*
X04019Y03468D02*
D03*
X040026Y034023D02*
D03*
X04111Y03696D02*
D03*
D101*
X04499Y03425D02*
D03*
D102*
X04736Y032345D02*
D03*
M02*
