G04*
G04 #@! TF.GenerationSoftware,Altium Limited,Altium Designer,21.3.2 (30)*
G04*
G04 Layer_Color=32896*
%FSTAX24Y24*%
%MOIN*%
G70*
G04*
G04 #@! TF.SameCoordinates,17C352DC-52FB-4B9E-A555-A73132B06FB7*
G04*
G04*
G04 #@! TF.FilePolarity,Positive*
G04*
G01*
G75*
%ADD14C,0.0079*%
%ADD15C,0.0060*%
%ADD116C,0.0039*%
D14*
X045143Y03839D02*
X046717D01*
X045143Y03713D02*
X046717D01*
X044783Y034896D02*
X045097D01*
X044109Y035144D02*
X044109Y035144D01*
X044404D01*
X044404Y035144D02*
X044404Y035144D01*
X044404Y033176D02*
Y035144D01*
X044109Y033176D02*
X044404D01*
X042436Y035144D02*
X042731D01*
X042436Y035144D02*
X042436Y035144D01*
X042436Y033176D02*
Y035144D01*
Y033176D02*
X042436Y033176D01*
X042731D01*
X043694Y037883D02*
Y038197D01*
X044854Y032633D02*
Y032947D01*
X044783Y033594D02*
X045097D01*
X044726Y028736D02*
Y029051D01*
X045883Y033476D02*
X046197D01*
X045413D02*
X045727D01*
X043686Y037203D02*
Y037517D01*
X040773Y033454D02*
X041087D01*
X041263Y033146D02*
X041577D01*
X041066Y034785D02*
X041381D01*
X047934Y021173D02*
Y021487D01*
X042733Y016304D02*
X043047D01*
X042733Y01987D02*
X043047D01*
X040824Y021173D02*
Y021487D01*
X045683Y023346D02*
X045997D01*
X044726Y02724D02*
Y027555D01*
Y029235D02*
Y02955D01*
Y030233D02*
Y030547D01*
Y029734D02*
Y030049D01*
X040924Y026403D02*
Y026717D01*
Y025793D02*
Y026107D01*
X041743Y025344D02*
X042057D01*
X041996Y025953D02*
Y026267D01*
X039013Y028576D02*
X039327D01*
X039547D02*
X039862D01*
X040073Y028006D02*
X040387D01*
X040615Y028576D02*
X04093D01*
X038926Y029497D02*
Y029812D01*
X038813Y031096D02*
X039127D01*
X039313D02*
X039627D01*
X040683D02*
X040997D01*
X041564Y030473D02*
Y030787D01*
X040308Y033869D02*
Y034184D01*
X040023Y034964D02*
X040337D01*
X040563Y034785D02*
X040877D01*
X041583D02*
X041897D01*
X044054Y039293D02*
Y039607D01*
X046823Y032944D02*
X047137D01*
X047348D02*
X047662D01*
X047873D02*
X048187D01*
X049476Y031583D02*
Y031897D01*
X044726Y026243D02*
Y026557D01*
Y026741D02*
Y027056D01*
X044208Y022964D02*
X044523D01*
X044208Y019314D02*
X044523D01*
X041074Y024923D02*
Y025237D01*
X042004Y026513D02*
Y026827D01*
X047446Y019693D02*
Y020007D01*
X041266Y019693D02*
Y020007D01*
X044208Y016704D02*
X044523D01*
X049654Y035993D02*
Y036307D01*
Y037243D02*
Y037557D01*
X041386Y036803D02*
Y037117D01*
D15*
X0483Y02442D02*
Y02417D01*
X04825Y02412D01*
X04815D01*
X0481Y02417D01*
Y02442D01*
X04785Y02412D02*
Y02442D01*
X048Y02427D01*
X0478D01*
X04378Y03698D02*
X04383Y03703D01*
X04393D01*
X04398Y03698D01*
Y03678D01*
X04393Y03673D01*
X04383D01*
X04378Y03678D01*
X04348Y03703D02*
X04368D01*
Y03688D01*
X04358Y03693D01*
X04353D01*
X04348Y03688D01*
Y03678D01*
X04353Y03673D01*
X04363D01*
X04368Y03678D01*
X04632Y03855D02*
Y03885D01*
X04617D01*
X04612Y0388D01*
Y0387D01*
X04617Y03865D01*
X04632D01*
X04622D02*
X04612Y03855D01*
X04602Y0388D02*
X04597Y03885D01*
X04587D01*
X04582Y0388D01*
Y03875D01*
X04587Y0387D01*
X04592D01*
X04587D01*
X04582Y03865D01*
Y0386D01*
X04587Y03855D01*
X04597D01*
X04602Y0386D01*
X04572Y0388D02*
X04567Y03885D01*
X04557D01*
X04552Y0388D01*
Y03875D01*
X04557Y0387D01*
X04552Y03865D01*
Y0386D01*
X04557Y03855D01*
X04567D01*
X04572Y0386D01*
Y03865D01*
X04567Y0387D01*
X04572Y03875D01*
Y0388D01*
X04567Y0387D02*
X04557D01*
X04333Y03833D02*
Y03863D01*
X04318D01*
X04313Y03858D01*
Y03848D01*
X04318Y03843D01*
X04333D01*
X04323D02*
X04313Y03833D01*
X04303Y03858D02*
X04298Y03863D01*
X04288D01*
X04283Y03858D01*
Y03853D01*
X04288Y03848D01*
X04293D01*
X04288D01*
X04283Y03843D01*
Y03838D01*
X04288Y03833D01*
X04298D01*
X04303Y03838D01*
X04273Y03863D02*
X04253D01*
Y03858D01*
X04273Y03838D01*
Y03833D01*
X04395Y03571D02*
Y03541D01*
X04375D01*
X04365D02*
X04355D01*
X0436D01*
Y03571D01*
X04365Y03566D01*
X04517Y03572D02*
X04522Y03577D01*
X04532D01*
X04537Y03572D01*
Y03552D01*
X04532Y03547D01*
X04522D01*
X04517Y03552D01*
X04492Y03547D02*
Y03577D01*
X04507Y03562D01*
X04487D01*
X04477Y03572D02*
X04472Y03577D01*
X04462D01*
X04457Y03572D01*
Y03567D01*
X04462Y03562D01*
X04457Y03557D01*
Y03552D01*
X04462Y03547D01*
X04472D01*
X04477Y03552D01*
Y03557D01*
X04472Y03562D01*
X04477Y03567D01*
Y03572D01*
X04472Y03562D02*
X04462D01*
X04784Y02018D02*
Y02048D01*
X04769D01*
X04764Y02043D01*
Y02033D01*
X04769Y02028D01*
X04784D01*
X04774D02*
X04764Y02018D01*
X04754Y02043D02*
X04749Y02048D01*
X04739D01*
X04734Y02043D01*
Y02038D01*
X04739Y02033D01*
X04744D01*
X04739D01*
X04734Y02028D01*
Y02023D01*
X04739Y02018D01*
X04749D01*
X04754Y02023D01*
X04704Y02048D02*
X04724D01*
Y02033D01*
X04714Y02038D01*
X04709D01*
X04704Y02033D01*
Y02023D01*
X04709Y02018D01*
X04719D01*
X04724Y02023D01*
X04472Y01891D02*
X04502D01*
Y01906D01*
X04497Y01911D01*
X04487D01*
X04482Y01906D01*
Y01891D01*
Y01901D02*
X04472Y01911D01*
X04497Y01921D02*
X04502Y01926D01*
Y01936D01*
X04497Y01941D01*
X04492D01*
X04487Y01936D01*
Y01931D01*
Y01936D01*
X04482Y01941D01*
X04477D01*
X04472Y01936D01*
Y01926D01*
X04477Y01921D01*
X04472Y01966D02*
X04502D01*
X04487Y01951D01*
Y01971D01*
X04167Y0202D02*
Y0205D01*
X04152D01*
X04147Y02045D01*
Y02035D01*
X04152Y0203D01*
X04167D01*
X04157D02*
X04147Y0202D01*
X04137Y02045D02*
X04132Y0205D01*
X04122D01*
X04117Y02045D01*
Y0204D01*
X04122Y02035D01*
X04127D01*
X04122D01*
X04117Y0203D01*
Y02025D01*
X04122Y0202D01*
X04132D01*
X04137Y02025D01*
X04107Y02045D02*
X04102Y0205D01*
X04092D01*
X04087Y02045D01*
Y0204D01*
X04092Y02035D01*
X04097D01*
X04092D01*
X04087Y0203D01*
Y02025D01*
X04092Y0202D01*
X04102D01*
X04107Y02025D01*
X04473Y01628D02*
X04503D01*
Y01643D01*
X04498Y01648D01*
X04488D01*
X04483Y01643D01*
Y01628D01*
Y01638D02*
X04473Y01648D01*
X04498Y01658D02*
X04503Y01663D01*
Y01673D01*
X04498Y01678D01*
X04493D01*
X04488Y01673D01*
Y01668D01*
Y01673D01*
X04483Y01678D01*
X04478D01*
X04473Y01673D01*
Y01663D01*
X04478Y01658D01*
X04473Y01708D02*
Y01688D01*
X04493Y01708D01*
X04498D01*
X04503Y01703D01*
Y01693D01*
X04498Y01688D01*
X044Y02333D02*
X0437D01*
Y02318D01*
X04375Y02313D01*
X04385D01*
X0439Y02318D01*
Y02333D01*
Y02323D02*
X044Y02313D01*
X04375Y02303D02*
X0437Y02298D01*
Y02288D01*
X04375Y02283D01*
X0438D01*
X04385Y02288D01*
Y02293D01*
Y02288D01*
X0439Y02283D01*
X04395D01*
X044Y02288D01*
Y02298D01*
X04395Y02303D01*
X044Y02273D02*
Y02263D01*
Y02268D01*
X0437D01*
X04375Y02273D01*
X04332Y02651D02*
Y02681D01*
X04317D01*
X04312Y02676D01*
Y02666D01*
X04317Y02661D01*
X04332D01*
X04322D02*
X04312Y02651D01*
X04302Y02676D02*
X04297Y02681D01*
X04287D01*
X04282Y02676D01*
Y02671D01*
X04287Y02666D01*
X04292D01*
X04287D01*
X04282Y02661D01*
Y02656D01*
X04287Y02651D01*
X04297D01*
X04302Y02656D01*
X04272Y02676D02*
X04267Y02681D01*
X04257D01*
X04252Y02676D01*
Y02656D01*
X04257Y02651D01*
X04267D01*
X04272Y02656D01*
Y02676D01*
X04053Y02492D02*
Y02522D01*
X04038D01*
X04033Y02517D01*
Y02507D01*
X04038Y02502D01*
X04053D01*
X04043D02*
X04033Y02492D01*
X04003D02*
X04023D01*
X04003Y02512D01*
Y02517D01*
X04008Y02522D01*
X04018D01*
X04023Y02517D01*
X03993Y02497D02*
X03988Y02492D01*
X03978D01*
X03973Y02497D01*
Y02517D01*
X03978Y02522D01*
X03988D01*
X03993Y02517D01*
Y02512D01*
X03988Y02507D01*
X03973D01*
X05002Y03647D02*
Y03677D01*
X04987D01*
X04982Y03672D01*
Y03662D01*
X04987Y03657D01*
X05002D01*
X04992D02*
X04982Y03647D01*
X04952D02*
X04972D01*
X04952Y03667D01*
Y03672D01*
X04957Y03677D01*
X04967D01*
X04972Y03672D01*
X04922Y03677D02*
X04942D01*
Y03662D01*
X04932Y03667D01*
X04927D01*
X04922Y03662D01*
Y03652D01*
X04927Y03647D01*
X04937D01*
X04942Y03652D01*
X05Y03773D02*
Y03803D01*
X04985D01*
X0498Y03798D01*
Y03788D01*
X04985Y03783D01*
X05D01*
X0499D02*
X0498Y03773D01*
X0495D02*
X0497D01*
X0495Y03793D01*
Y03798D01*
X04955Y03803D01*
X04965D01*
X0497Y03798D01*
X04925Y03773D02*
Y03803D01*
X0494Y03788D01*
X0492D01*
X045075Y03067D02*
Y03097D01*
X044925D01*
X044875Y03092D01*
Y03082D01*
X044925Y03077D01*
X045075D01*
X044975D02*
X044875Y03067D01*
X044775D02*
X044675D01*
X044725D01*
Y03097D01*
X044775Y03092D01*
X044525Y03097D02*
X044325D01*
Y03092D01*
X044525Y03072D01*
Y03067D01*
X044175Y02973D02*
Y03003D01*
X044025D01*
X043975Y02998D01*
Y02988D01*
X044025Y02983D01*
X044175D01*
X044075D02*
X043975Y02973D01*
X043875D02*
X043775D01*
X043825D01*
Y03003D01*
X043875Y02998D01*
X043425Y03003D02*
X043525Y02998D01*
X043625Y02988D01*
Y02978D01*
X043575Y02973D01*
X043475D01*
X043425Y02978D01*
Y02983D01*
X043475Y02988D01*
X043625D01*
X044175Y02923D02*
Y02953D01*
X044025D01*
X043975Y02948D01*
Y02938D01*
X044025Y02933D01*
X044175D01*
X044075D02*
X043975Y02923D01*
X043875D02*
X043775D01*
X043825D01*
Y02953D01*
X043875Y02948D01*
X043425Y02953D02*
X043625D01*
Y02938D01*
X043525Y02943D01*
X043475D01*
X043425Y02938D01*
Y02928D01*
X043475Y02923D01*
X043575D01*
X043625Y02928D01*
X044175Y02874D02*
Y02904D01*
X044025D01*
X043975Y02899D01*
Y02889D01*
X044025Y02884D01*
X044175D01*
X044075D02*
X043975Y02874D01*
X043875D02*
X043775D01*
X043825D01*
Y02904D01*
X043875Y02899D01*
X043475Y02874D02*
Y02904D01*
X043625Y02889D01*
X043425D01*
X044175Y02725D02*
Y02755D01*
X044025D01*
X043975Y0275D01*
Y0274D01*
X044025Y02735D01*
X044175D01*
X044075D02*
X043975Y02725D01*
X043875D02*
X043775D01*
X043825D01*
Y02755D01*
X043875Y0275D01*
X043625D02*
X043575Y02755D01*
X043475D01*
X043425Y0275D01*
Y02745D01*
X043475Y0274D01*
X043525D01*
X043475D01*
X043425Y02735D01*
Y0273D01*
X043475Y02725D01*
X043575D01*
X043625Y0273D01*
X044185Y02676D02*
Y02706D01*
X044035D01*
X043985Y02701D01*
Y02691D01*
X044035Y02686D01*
X044185D01*
X044085D02*
X043985Y02676D01*
X043885D02*
X043785D01*
X043835D01*
Y02706D01*
X043885Y02701D01*
X043435Y02676D02*
X043635D01*
X043435Y02696D01*
Y02701D01*
X043485Y02706D01*
X043585D01*
X043635Y02701D01*
X044175Y02624D02*
Y02654D01*
X044025D01*
X043975Y02649D01*
Y02639D01*
X044025Y02634D01*
X044175D01*
X044075D02*
X043975Y02624D01*
X043875D02*
X043775D01*
X043825D01*
Y02654D01*
X043875Y02649D01*
X043625Y02624D02*
X043525D01*
X043575D01*
Y02654D01*
X043625Y02649D01*
X04014Y02666D02*
X04019Y02671D01*
X04029D01*
X04034Y02666D01*
Y02646D01*
X04029Y02641D01*
X04019D01*
X04014Y02646D01*
X03989Y02641D02*
Y02671D01*
X04004Y02656D01*
X03984D01*
X03974Y02671D02*
X03954D01*
Y02666D01*
X03974Y02646D01*
Y02641D01*
X04313Y02632D02*
X04318Y02637D01*
X04328D01*
X04333Y02632D01*
Y02612D01*
X04328Y02607D01*
X04318D01*
X04313Y02612D01*
X04288Y02607D02*
Y02637D01*
X04303Y02622D01*
X04283D01*
X04253Y02637D02*
X04263Y02632D01*
X04273Y02622D01*
Y02612D01*
X04268Y02607D01*
X04258D01*
X04253Y02612D01*
Y02617D01*
X04258Y02622D01*
X04273D01*
X0428Y02539D02*
X04285Y02544D01*
X04295D01*
X043Y02539D01*
Y02519D01*
X04295Y02514D01*
X04285D01*
X0428Y02519D01*
X04255Y02514D02*
Y02544D01*
X0427Y02529D01*
X0425D01*
X0422Y02544D02*
X0424D01*
Y02529D01*
X0423Y02534D01*
X04225D01*
X0422Y02529D01*
Y02519D01*
X04225Y02514D01*
X04235D01*
X0424Y02519D01*
X04109Y02562D02*
X04114Y02567D01*
X04124D01*
X04129Y02562D01*
Y02542D01*
X04124Y02537D01*
X04114D01*
X04109Y02542D01*
X04084Y02537D02*
Y02567D01*
X04099Y02552D01*
X04079D01*
X04054Y02537D02*
Y02567D01*
X04069Y02552D01*
X04049D01*
X04231Y01655D02*
X04226Y0166D01*
Y0167D01*
X04231Y01675D01*
X04251D01*
X04256Y0167D01*
Y0166D01*
X04251Y01655D01*
X04256Y0163D02*
X04226D01*
X04241Y01645D01*
Y01625D01*
X04231Y01615D02*
X04226Y0161D01*
Y016D01*
X04231Y01595D01*
X04236D01*
X04241Y016D01*
Y01605D01*
Y016D01*
X04246Y01595D01*
X04251D01*
X04256Y016D01*
Y0161D01*
X04251Y01615D01*
X04348Y01967D02*
X04353Y01962D01*
Y01952D01*
X04348Y01947D01*
X04328D01*
X04323Y01952D01*
Y01962D01*
X04328Y01967D01*
X04323Y01992D02*
X04353D01*
X04338Y01977D01*
Y01997D01*
X04323Y02027D02*
Y02007D01*
X04343Y02027D01*
X04348D01*
X04353Y02022D01*
Y02012D01*
X04348Y02007D01*
X04809Y02186D02*
X04814Y02191D01*
X04824D01*
X04829Y02186D01*
Y02166D01*
X04824Y02161D01*
X04814D01*
X04809Y02166D01*
X04784Y02161D02*
Y02191D01*
X04799Y02176D01*
X04779D01*
X04769Y02161D02*
X04759D01*
X04764D01*
Y02191D01*
X04769Y02186D01*
X04104Y02189D02*
X04109Y02194D01*
X04119D01*
X04124Y02189D01*
Y02169D01*
X04119Y02164D01*
X04109D01*
X04104Y02169D01*
X04079Y02164D02*
Y02194D01*
X04094Y02179D01*
X04074D01*
X04064Y02189D02*
X04059Y02194D01*
X04049D01*
X04044Y02189D01*
Y02169D01*
X04049Y02164D01*
X04059D01*
X04064Y02169D01*
Y02189D01*
X04624Y02355D02*
X04619Y0236D01*
Y0237D01*
X04624Y02375D01*
X04644D01*
X04649Y0237D01*
Y0236D01*
X04644Y02355D01*
X04624Y02345D02*
X04619Y0234D01*
Y0233D01*
X04624Y02325D01*
X04629D01*
X04634Y0233D01*
Y02335D01*
Y0233D01*
X04639Y02325D01*
X04644D01*
X04649Y0233D01*
Y0234D01*
X04644Y02345D01*
Y02315D02*
X04649Y0231D01*
Y023D01*
X04644Y02295D01*
X04624D01*
X04619Y023D01*
Y0231D01*
X04624Y02315D01*
X04629D01*
X04634Y0231D01*
Y02295D01*
X0476Y03177D02*
X04765Y03172D01*
Y03162D01*
X0476Y03157D01*
X0474D01*
X04735Y03162D01*
Y03172D01*
X0474Y03177D01*
X04735Y03207D02*
Y03187D01*
X04755Y03207D01*
X0476D01*
X04765Y03202D01*
Y03192D01*
X0476Y03187D01*
X0474Y03217D02*
X04735Y03222D01*
Y03232D01*
X0474Y03237D01*
X0476D01*
X04765Y03232D01*
Y03222D01*
X0476Y03217D01*
X04755D01*
X0475Y03222D01*
Y03237D01*
X04707Y03179D02*
X04712Y03174D01*
Y03164D01*
X04707Y03159D01*
X04687D01*
X04682Y03164D01*
Y03174D01*
X04687Y03179D01*
X04682Y03209D02*
Y03189D01*
X04702Y03209D01*
X04707D01*
X04712Y03204D01*
Y03194D01*
X04707Y03189D01*
Y03219D02*
X04712Y03224D01*
Y03234D01*
X04707Y03239D01*
X04702D01*
X04697Y03234D01*
X04692Y03239D01*
X04687D01*
X04682Y03234D01*
Y03224D01*
X04687Y03219D01*
X04692D01*
X04697Y03224D01*
X04702Y03219D01*
X04707D01*
X04697Y03224D02*
Y03234D01*
X04813Y03177D02*
X04818Y03172D01*
Y03162D01*
X04813Y03157D01*
X04793D01*
X04788Y03162D01*
Y03172D01*
X04793Y03177D01*
X04788Y03207D02*
Y03187D01*
X04808Y03207D01*
X04813D01*
X04818Y03202D01*
Y03192D01*
X04813Y03187D01*
X04818Y03217D02*
Y03237D01*
X04813D01*
X04793Y03217D01*
X04788D01*
X04969Y03233D02*
X04974Y03238D01*
X04984D01*
X04989Y03233D01*
Y03213D01*
X04984Y03208D01*
X04974D01*
X04969Y03213D01*
X04939Y03208D02*
X04959D01*
X04939Y03228D01*
Y03233D01*
X04944Y03238D01*
X04954D01*
X04959Y03233D01*
X04909Y03238D02*
X04919Y03233D01*
X04929Y03223D01*
Y03213D01*
X04924Y03208D01*
X04914D01*
X04909Y03213D01*
Y03218D01*
X04914Y03223D01*
X04929D01*
X0418Y03724D02*
Y03754D01*
X04165D01*
X0416Y03749D01*
Y03739D01*
X04165Y03734D01*
X0418D01*
X0417D02*
X0416Y03724D01*
X0415Y03749D02*
X04145Y03754D01*
X04135D01*
X0413Y03749D01*
Y03744D01*
X04135Y03739D01*
X0414D01*
X04135D01*
X0413Y03734D01*
Y03729D01*
X04135Y03724D01*
X04145D01*
X0415Y03729D01*
X041Y03754D02*
X0411Y03749D01*
X0412Y03739D01*
Y03729D01*
X04115Y03724D01*
X04105D01*
X041Y03729D01*
Y03734D01*
X04105Y03739D01*
X0412D01*
X045045Y03221D02*
Y03251D01*
X044895D01*
X044845Y03246D01*
Y03236D01*
X044895Y03231D01*
X045045D01*
X044945D02*
X044845Y03221D01*
X044745D02*
X044645D01*
X044695D01*
Y03251D01*
X044745Y03246D01*
X044495D02*
X044445Y03251D01*
X044345D01*
X044295Y03246D01*
Y03241D01*
X044345Y03236D01*
X044295Y03231D01*
Y03226D01*
X044345Y03221D01*
X044445D01*
X044495Y03226D01*
Y03231D01*
X044445Y03236D01*
X044495Y03241D01*
Y03246D01*
X044445Y03236D02*
X044345D01*
X03918Y02999D02*
Y03029D01*
X03903D01*
X03898Y03024D01*
Y03014D01*
X03903Y03009D01*
X03918D01*
X03908D02*
X03898Y02999D01*
X03888Y03024D02*
X03883Y03029D01*
X03873D01*
X03868Y03024D01*
Y03019D01*
X03873Y03014D01*
X03868Y03009D01*
Y03004D01*
X03873Y02999D01*
X03883D01*
X03888Y03004D01*
Y03009D01*
X03883Y03014D01*
X03888Y03019D01*
Y03024D01*
X03883Y03014D02*
X03873D01*
X0401Y02858D02*
X0404D01*
Y02873D01*
X04035Y02878D01*
X04025D01*
X0402Y02873D01*
Y02858D01*
Y02868D02*
X0401Y02878D01*
X0404Y02888D02*
Y02908D01*
X04035D01*
X04015Y02888D01*
X0401D01*
X04223Y03299D02*
Y03329D01*
X04208D01*
X04203Y03324D01*
Y03314D01*
X04208Y03309D01*
X04223D01*
X04213D02*
X04203Y03299D01*
X04173Y03329D02*
X04193D01*
Y03314D01*
X04183Y03319D01*
X04178D01*
X04173Y03314D01*
Y03304D01*
X04178Y03299D01*
X04188D01*
X04193Y03304D01*
X04108Y03537D02*
X04138D01*
Y03552D01*
X04133Y03557D01*
X04123D01*
X04118Y03552D01*
Y03537D01*
Y03547D02*
X04108Y03557D01*
Y03582D02*
X04138D01*
X04123Y03567D01*
Y03587D01*
X04056Y03537D02*
X04086D01*
Y03552D01*
X04081Y03557D01*
X04071D01*
X04066Y03552D01*
Y03537D01*
Y03547D02*
X04056Y03557D01*
X04081Y03567D02*
X04086Y03572D01*
Y03582D01*
X04081Y03587D01*
X04076D01*
X04071Y03582D01*
Y03577D01*
Y03582D01*
X04066Y03587D01*
X04061D01*
X04056Y03582D01*
Y03572D01*
X04061Y03567D01*
X04003Y0355D02*
X04033D01*
Y03565D01*
X04028Y0357D01*
X04018D01*
X04013Y03565D01*
Y0355D01*
Y0356D02*
X04003Y0357D01*
Y0358D02*
Y0359D01*
Y03585D01*
X04033D01*
X04028Y0358D01*
X04616Y03422D02*
X04621Y03417D01*
Y03407D01*
X04616Y03402D01*
X04596D01*
X04591Y03407D01*
Y03417D01*
X04596Y03422D01*
X04616Y03432D02*
X04621Y03437D01*
Y03447D01*
X04616Y03452D01*
X04611D01*
X04606Y03447D01*
Y03442D01*
Y03447D01*
X04601Y03452D01*
X04596D01*
X04591Y03447D01*
Y03437D01*
X04596Y03432D01*
X04591Y03462D02*
Y03472D01*
Y03467D01*
X04621D01*
X04616Y03462D01*
X04567Y03423D02*
X04572Y03418D01*
Y03408D01*
X04567Y03403D01*
X04547D01*
X04542Y03408D01*
Y03418D01*
X04547Y03423D01*
X04567Y03433D02*
X04572Y03438D01*
Y03448D01*
X04567Y03453D01*
X04562D01*
X04557Y03448D01*
Y03443D01*
Y03448D01*
X04552Y03453D01*
X04547D01*
X04542Y03448D01*
Y03438D01*
X04547Y03433D01*
X04567Y03463D02*
X04572Y03468D01*
Y03478D01*
X04567Y03483D01*
X04547D01*
X04542Y03478D01*
Y03468D01*
X04547Y03463D01*
X04567D01*
X041765Y03121D02*
X041815Y03126D01*
X041915D01*
X041965Y03121D01*
Y03101D01*
X041915Y03096D01*
X041815D01*
X041765Y03101D01*
X041665Y03096D02*
X041565D01*
X041615D01*
Y03126D01*
X041665Y03121D01*
X041215Y03126D02*
X041415D01*
Y03111D01*
X041315Y03116D01*
X041265D01*
X041215Y03111D01*
Y03101D01*
X041265Y03096D01*
X041365D01*
X041415Y03101D01*
X041635Y02868D02*
X041685Y02873D01*
X041785D01*
X041835Y02868D01*
Y02848D01*
X041785Y02843D01*
X041685D01*
X041635Y02848D01*
X041535Y02843D02*
X041435D01*
X041485D01*
Y02873D01*
X041535Y02868D01*
X041135Y02843D02*
Y02873D01*
X041285Y02858D01*
X041085D01*
X040925Y0319D02*
X040975Y03195D01*
X041075D01*
X041125Y0319D01*
Y0317D01*
X041075Y03165D01*
X040975D01*
X040925Y0317D01*
X040825Y03165D02*
X040725D01*
X040775D01*
Y03195D01*
X040825Y0319D01*
X040575D02*
X040525Y03195D01*
X040425D01*
X040375Y0319D01*
Y03185D01*
X040425Y0318D01*
X040475D01*
X040425D01*
X040375Y03175D01*
Y0317D01*
X040425Y03165D01*
X040525D01*
X040575Y0317D01*
X03921Y027505D02*
X03926Y027455D01*
Y027355D01*
X03921Y027305D01*
X03901D01*
X03896Y027355D01*
Y027455D01*
X03901Y027505D01*
X03896Y027605D02*
Y027705D01*
Y027655D01*
X03926D01*
X03921Y027605D01*
X03896Y028055D02*
Y027855D01*
X03916Y028055D01*
X03921D01*
X03926Y028005D01*
Y027905D01*
X03921Y027855D01*
X03978Y027585D02*
X03983Y027535D01*
Y027435D01*
X03978Y027385D01*
X03958D01*
X03953Y027435D01*
Y027535D01*
X03958Y027585D01*
X03953Y027685D02*
Y027785D01*
Y027735D01*
X03983D01*
X03978Y027685D01*
X03953Y027935D02*
Y028035D01*
Y027985D01*
X03983D01*
X03978Y027935D01*
X038475Y03125D02*
X038525Y0313D01*
X038625D01*
X038675Y03125D01*
Y03105D01*
X038625Y031D01*
X038525D01*
X038475Y03105D01*
X038375Y031D02*
X038275D01*
X038325D01*
Y0313D01*
X038375Y03125D01*
X038125D02*
X038075Y0313D01*
X037975D01*
X037925Y03125D01*
Y03105D01*
X037975Y031D01*
X038075D01*
X038125Y03105D01*
Y03125D01*
X03953Y0319D02*
X03958Y03195D01*
X03968D01*
X03973Y0319D01*
Y0317D01*
X03968Y03165D01*
X03958D01*
X03953Y0317D01*
X03943D02*
X03938Y03165D01*
X03928D01*
X03923Y0317D01*
Y0319D01*
X03928Y03195D01*
X03938D01*
X03943Y0319D01*
Y03185D01*
X03938Y0318D01*
X03923D01*
X0445Y03361D02*
X04445Y03366D01*
Y03376D01*
X0445Y03381D01*
X0447D01*
X04475Y03376D01*
Y03366D01*
X0447Y03361D01*
X04445Y03351D02*
Y03331D01*
X0445D01*
X0447Y03351D01*
X04475D01*
X04488Y03956D02*
X04493Y03961D01*
X04503D01*
X04508Y03956D01*
Y03936D01*
X04503Y03931D01*
X04493D01*
X04488Y03936D01*
X04463Y03931D02*
Y03961D01*
X04478Y03946D01*
X04458D01*
X04044Y03352D02*
X04049Y03357D01*
X04059D01*
X04064Y03352D01*
Y03332D01*
X04059Y03327D01*
X04049D01*
X04044Y03332D01*
X04034Y03352D02*
X04029Y03357D01*
X04019D01*
X04014Y03352D01*
Y03347D01*
X04019Y03342D01*
X04024D01*
X04019D01*
X04014Y03337D01*
Y03332D01*
X04019Y03327D01*
X04029D01*
X04034Y03332D01*
X03955Y03413D02*
X0396Y03418D01*
X0397D01*
X03975Y03413D01*
Y03393D01*
X0397Y03388D01*
X0396D01*
X03955Y03393D01*
X03925Y03388D02*
X03945D01*
X03925Y03408D01*
Y03413D01*
X0393Y03418D01*
X0394D01*
X03945Y03413D01*
X04175Y03558D02*
X0418Y03563D01*
X0419D01*
X04195Y03558D01*
Y03538D01*
X0419Y03533D01*
X0418D01*
X04175Y03538D01*
X04165Y03533D02*
X04155D01*
X0416D01*
Y03563D01*
X04165Y03558D01*
D116*
X051369Y026736D02*
G03*
X051645Y026067I001582J00026D01*
G01*
X045386Y031126D02*
X051369D01*
X045386Y024676D02*
Y031126D01*
Y024676D02*
X049286D01*
Y024276D02*
Y024676D01*
Y024276D02*
X051645D01*
Y026067D01*
X051369Y026736D02*
Y031126D01*
M02*
