G04*
G04 #@! TF.GenerationSoftware,Altium Limited,Altium Designer,21.3.2 (30)*
G04*
G04 Layer_Color=128*
%FSTAX24Y24*%
%MOIN*%
G70*
G04*
G04 #@! TF.SameCoordinates,17C352DC-52FB-4B9E-A555-A73132B06FB7*
G04*
G04*
G04 #@! TF.FilePolarity,Positive*
G04*
G01*
G75*
%ADD117C,0.0020*%
D117*
X04216Y038114D02*
X042416D01*
X042288Y037986D02*
Y038242D01*
X039174Y039563D02*
X039725D01*
X039449Y039287D02*
Y039838D01*
X039174Y037917D02*
X039725D01*
X039449Y037642D02*
Y038193D01*
X042575Y039563D02*
X043126D01*
X042851Y039287D02*
Y039838D01*
X039884Y038114D02*
X04014D01*
X040012Y037986D02*
Y038242D01*
X042575Y037917D02*
X043126D01*
X042851Y037642D02*
Y038193D01*
X049873Y02965D02*
X050267D01*
X05007Y029453D02*
Y029846D01*
X049873Y0265D02*
X050267D01*
X05007Y026303D02*
Y026697D01*
X050804Y038613D02*
X05108D01*
X050942Y038475D02*
Y03875D01*
X050017Y038613D02*
X050293D01*
X050155Y038475D02*
Y03875D01*
X050017Y0394D02*
X050293D01*
X050155Y039262D02*
Y039538D01*
X050804Y0394D02*
X05108D01*
X050942Y039262D02*
Y039538D01*
X050804Y014213D02*
X05108D01*
X050942Y014075D02*
Y01435D01*
X050017Y014213D02*
X050293D01*
X050155Y014075D02*
Y01435D01*
X050017Y015D02*
X050293D01*
X050155Y014862D02*
Y015138D01*
X050804Y015D02*
X05108D01*
X050942Y014862D02*
Y015138D01*
X038412Y014213D02*
X038688D01*
X03855Y014075D02*
Y01435D01*
X037625Y014213D02*
X0379D01*
X037763Y014075D02*
Y01435D01*
X037625Y015D02*
X0379D01*
X037763Y014862D02*
Y015138D01*
X038412Y015D02*
X038688D01*
X03855Y014862D02*
Y015138D01*
X042062Y01985D02*
X042338D01*
X0422Y019712D02*
Y019988D01*
X045674Y015421D02*
X046009D01*
X045842Y015254D02*
Y015588D01*
X042722Y015421D02*
X043056D01*
X042889Y015254D02*
Y015588D01*
X042722Y024279D02*
X043056D01*
X042889Y024112D02*
Y024446D01*
X045674Y024279D02*
X046009D01*
X045842Y024112D02*
Y024446D01*
X042722Y017193D02*
X043056D01*
X042889Y017025D02*
Y01736D01*
X042722Y022507D02*
X043056D01*
X042889Y02234D02*
Y022675D01*
X045674Y017193D02*
X046009D01*
X045842Y017025D02*
Y01736D01*
X045674Y022507D02*
X046009D01*
X045842Y02234D02*
Y022675D01*
X044228Y014929D02*
X044503D01*
X044365Y014791D02*
Y015067D01*
X044228Y024771D02*
X044503D01*
X044365Y024633D02*
Y024909D01*
X044228Y017685D02*
X044503D01*
X044365Y017547D02*
Y017822D01*
X044228Y022015D02*
X044503D01*
X044365Y021878D02*
Y022153D01*
X048627Y018374D02*
X048962D01*
X048794Y018206D02*
Y018541D01*
X048627Y021326D02*
X048962D01*
X048794Y021159D02*
Y021494D01*
X039769Y018374D02*
X040104D01*
X039936Y018206D02*
Y018541D01*
X039769Y021326D02*
X040104D01*
X039936Y021159D02*
Y021494D01*
X046856Y018374D02*
X04719D01*
X047023Y018206D02*
Y018541D01*
X046856Y021326D02*
X04719D01*
X047023Y021159D02*
Y021494D01*
X041541Y018374D02*
X041875D01*
X041708Y018206D02*
Y018541D01*
X041541Y021326D02*
X041875D01*
X041708Y021159D02*
Y021494D01*
X049149Y01985D02*
X049424D01*
X049287Y019712D02*
Y019988D01*
X039306Y01985D02*
X039582D01*
X039444Y019712D02*
Y019988D01*
X046393Y01985D02*
X046669D01*
X046531Y019712D02*
Y019988D01*
X044228Y018472D02*
X044503D01*
X044365Y018334D02*
Y01861D01*
X044228Y021228D02*
X044503D01*
X044365Y02109D02*
Y021366D01*
X042722Y018964D02*
X043056D01*
X042889Y018797D02*
Y019131D01*
X045674Y018964D02*
X046009D01*
X045842Y018797D02*
Y019131D01*
X045674Y020736D02*
X046009D01*
X045842Y020568D02*
Y020903D01*
X042722Y020736D02*
X043056D01*
X042889Y020568D02*
Y020903D01*
X044593Y03874D02*
X044947D01*
X04477Y038563D02*
Y038917D01*
X043593Y03874D02*
X043947D01*
X04377Y038563D02*
Y038917D01*
X047124Y039511D02*
X047676D01*
X0474Y039236D02*
Y039787D01*
X047124Y036755D02*
X047676D01*
X0474Y03648D02*
Y037031D01*
X038199Y034616D02*
X038601D01*
X0384Y034415D02*
Y034817D01*
X038199Y0356D02*
X038601D01*
X0384Y035399D02*
Y035801D01*
X038199Y036584D02*
X038601D01*
X0384Y036383D02*
Y036785D01*
X038412Y038613D02*
X038688D01*
X03855Y038475D02*
Y03875D01*
X037625Y038613D02*
X0379D01*
X037763Y038475D02*
Y03875D01*
X037625Y0394D02*
X0379D01*
X037763Y039262D02*
Y039538D01*
X038412Y0394D02*
X038688D01*
X03855Y039262D02*
Y039538D01*
X043816Y030747D02*
X043974D01*
X043895Y030668D02*
Y030826D01*
X041046Y03971D02*
X041204D01*
X041125Y039631D02*
Y039789D01*
X047411Y02538D02*
X047569D01*
X04749Y025301D02*
Y025459D01*
X046581Y02538D02*
X046739D01*
X04666Y025301D02*
Y025459D01*
X048801Y02611D02*
X048959D01*
X04888Y026031D02*
Y026189D01*
X041941Y0356D02*
X042099D01*
X04202Y035521D02*
Y035679D01*
X039141Y03619D02*
X039299D01*
X03922Y036111D02*
Y036269D01*
X043071Y03608D02*
X043229D01*
X04315Y036001D02*
Y036159D01*
X043471Y03603D02*
X043629D01*
X04355Y035951D02*
Y036109D01*
X043041Y0328D02*
X043199D01*
X04312Y032721D02*
Y032879D01*
X049221Y03898D02*
X049379D01*
X0493Y038901D02*
Y039059D01*
X048311Y03898D02*
X048469D01*
X04839Y038901D02*
Y039059D01*
X048651Y0353D02*
X048809D01*
X04873Y035221D02*
Y035379D01*
X047411Y03525D02*
X047569D01*
X04749Y035171D02*
Y035329D01*
X047411Y03604D02*
X047569D01*
X04749Y035961D02*
Y036119D01*
X048121Y03747D02*
X048279D01*
X0482Y037391D02*
Y037549D01*
X046671Y03747D02*
X046829D01*
X04675Y037391D02*
Y037549D01*
X044131Y03655D02*
X044289D01*
X04421Y036471D02*
Y036629D01*
X045041Y03655D02*
X045199D01*
X04512Y036471D02*
Y036629D01*
X047401Y03898D02*
X047559D01*
X04748Y038901D02*
Y039059D01*
X046491Y03898D02*
X046649D01*
X04657Y038901D02*
Y039059D01*
X042311Y03971D02*
X042469D01*
X04239Y039631D02*
Y039789D01*
X041679Y03971D02*
X041836D01*
X041757Y039631D02*
Y039789D01*
X040414Y03971D02*
X040571D01*
X040493Y039631D02*
Y039789D01*
X039781Y03971D02*
X039939D01*
X03986Y039631D02*
Y039789D01*
X039427Y029646D02*
X039584D01*
X039506Y029567D02*
Y029724D01*
X042131Y03118D02*
X042289D01*
X04221Y031101D02*
Y031259D01*
X042101Y03064D02*
X042259D01*
X04218Y030561D02*
Y030719D01*
X042441Y03091D02*
X042599D01*
X04252Y030831D02*
Y030989D01*
X041761Y03172D02*
X041919D01*
X04184Y031641D02*
Y031799D01*
X040201Y03243D02*
X040359D01*
X04028Y032351D02*
Y032509D01*
X038071Y034D02*
X038229D01*
X03815Y033921D02*
Y034079D01*
X038561Y034D02*
X038719D01*
X03864Y033921D02*
Y034079D01*
X040231Y03301D02*
X040389D01*
X04031Y032931D02*
Y033089D01*
X043211Y03554D02*
X043369D01*
X04329Y035461D02*
Y035619D01*
X039141Y03557D02*
X039299D01*
X03922Y035491D02*
Y035649D01*
X047741Y02782D02*
X047899D01*
X04782Y027741D02*
Y027899D01*
X04905Y027785D02*
X049208D01*
X049129Y027706D02*
Y027864D01*
X047331Y02609D02*
X047489D01*
X04741Y026011D02*
Y026169D01*
X047691Y02644D02*
X047849D01*
X04777Y026361D02*
Y026519D01*
X04781Y024825D02*
X047968D01*
X047889Y024746D02*
Y024904D01*
X0482Y024335D02*
X048358D01*
X048279Y024256D02*
Y024414D01*
X04578Y035555D02*
X045938D01*
X045859Y035476D02*
Y035634D01*
X042411Y03495D02*
X042569D01*
X04249Y034871D02*
Y035029D01*
X046591Y035127D02*
X046749D01*
X04667Y035048D02*
Y035206D01*
X046188Y035127D02*
X046346D01*
X046267Y035048D02*
Y035206D01*
X048321Y02536D02*
X048479D01*
X0484Y025281D02*
Y025439D01*
X045154Y03279D02*
X045311D01*
X045233Y032711D02*
Y032869D01*
X044221Y03332D02*
X044379D01*
X0443Y033241D02*
Y033399D01*
X046195Y032619D02*
X046352D01*
X046274Y03254D02*
Y032698D01*
X045141Y03231D02*
X045299D01*
X04522Y032231D02*
Y032389D01*
X044554Y031857D02*
X044711D01*
X044633Y031779D02*
Y031936D01*
X045731Y03248D02*
X045889D01*
X04581Y032401D02*
Y032559D01*
X044491Y03279D02*
X044649D01*
X04457Y032711D02*
Y032869D01*
X043481Y03206D02*
X043639D01*
X04356Y031981D02*
Y032139D01*
X044892Y03425D02*
X045088D01*
X04499Y034152D02*
Y034348D01*
X046391Y03316D02*
X046549D01*
X04647Y033081D02*
Y033239D01*
X045891Y03065D02*
X046049D01*
X04597Y030571D02*
Y030729D01*
X046361Y03414D02*
X046519D01*
X04644Y034061D02*
Y034219D01*
X047421Y03322D02*
X047579D01*
X0475Y033141D02*
Y033299D01*
X047781Y0336D02*
X047939D01*
X04786Y033521D02*
Y033679D01*
X049618Y034514D02*
X049775D01*
X049696Y034435D02*
Y034592D01*
X044661Y03784D02*
X044819D01*
X04474Y037761D02*
Y037919D01*
X044861Y03518D02*
X045019D01*
X04494Y035101D02*
Y035259D01*
X045921Y02585D02*
X046079D01*
X046Y025771D02*
Y025929D01*
X043866Y03396D02*
X044023D01*
X043944Y033882D02*
Y034039D01*
X043866Y034401D02*
X044023D01*
X043944Y034322D02*
Y03448D01*
X037241Y03701D02*
X037399D01*
X03732Y036931D02*
Y037089D01*
X047301Y032345D02*
X047419D01*
X04736Y032286D02*
Y032404D01*
X045107Y029819D02*
X045265D01*
X045186Y029741D02*
Y029898D01*
X043741Y03033D02*
X043899D01*
X04382Y030251D02*
Y030409D01*
X046341Y02894D02*
X046499D01*
X04642Y028861D02*
Y029019D01*
X049839Y025758D02*
X049997D01*
X049918Y025679D02*
Y025837D01*
X047171Y02386D02*
X047329D01*
X04725Y023781D02*
Y023939D01*
X048911Y02195D02*
X049069D01*
X04899Y021871D02*
Y022029D01*
X048071Y02285D02*
X048229D01*
X04815Y022771D02*
Y022929D01*
X051241Y01622D02*
X051399D01*
X05132Y016141D02*
Y016299D01*
X043901Y03771D02*
X044059D01*
X04398Y037631D02*
Y037789D01*
X042261Y03345D02*
X042419D01*
X04234Y033371D02*
Y033529D01*
X039083Y031934D02*
X039241D01*
X039162Y031855D02*
Y032013D01*
X043421Y03138D02*
X043579D01*
X0435Y031301D02*
Y031459D01*
X049851Y0374D02*
X050009D01*
X04993Y037321D02*
Y037479D01*
X051091Y03728D02*
X051249D01*
X05117Y037201D02*
Y037359D01*
X041351Y032947D02*
X041509D01*
X04143Y032869D02*
Y033026D01*
X040761Y02715D02*
X040919D01*
X04084Y027071D02*
Y027229D01*
X041261Y034224D02*
X041379D01*
X04132Y034165D02*
Y034283D01*
X04106Y034033D02*
X041178D01*
X041119Y033974D02*
Y034092D01*
X040867Y034224D02*
X040985D01*
X040926Y034165D02*
Y034283D01*
X041261Y03383D02*
X041379D01*
X04132Y033771D02*
Y033889D01*
X040867Y03383D02*
X040985D01*
X040926Y033771D02*
Y033889D01*
X049711Y0287D02*
X049869D01*
X04979Y028621D02*
Y028779D01*
X047501Y01592D02*
X047659D01*
X04758Y015841D02*
Y015999D01*
X047501Y0176D02*
X047659D01*
X04758Y017521D02*
Y017679D01*
X048791Y0139D02*
X048949D01*
X04887Y013821D02*
Y013979D01*
X046937Y0139D02*
X047095D01*
X047016Y013821D02*
Y013979D01*
X045083Y0139D02*
X045241D01*
X045162Y013821D02*
Y013979D01*
X043229Y0139D02*
X043387D01*
X043308Y013821D02*
Y013979D01*
X041375Y0139D02*
X041533D01*
X041454Y013821D02*
Y013979D01*
X039521Y0139D02*
X039679D01*
X0396Y013821D02*
Y013979D01*
X037341Y024353D02*
X037499D01*
X03742Y024274D02*
Y024431D01*
X037341Y022997D02*
X037499D01*
X03742Y022919D02*
Y023076D01*
X037341Y021642D02*
X037499D01*
X03742Y021563D02*
Y021721D01*
X037341Y020286D02*
X037499D01*
X03742Y020208D02*
Y020365D01*
X037341Y018931D02*
X037499D01*
X03742Y018852D02*
Y01901D01*
X037341Y017575D02*
X037499D01*
X03742Y017497D02*
Y017654D01*
X037341Y01622D02*
X037499D01*
X03742Y016141D02*
Y016299D01*
X051241Y017575D02*
X051399D01*
X05132Y017497D02*
Y017654D01*
X051241Y018931D02*
X051399D01*
X05132Y018852D02*
Y01901D01*
X051241Y020286D02*
X051399D01*
X05132Y020208D02*
Y020365D01*
X051241Y021642D02*
X051399D01*
X05132Y021563D02*
Y021721D01*
X051241Y022997D02*
X051399D01*
X05132Y022919D02*
Y023076D01*
X051241Y024353D02*
X051399D01*
X05132Y024274D02*
Y024431D01*
X051241Y025708D02*
X051399D01*
X05132Y025629D02*
Y025787D01*
X051241Y027064D02*
X051399D01*
X05132Y026985D02*
Y027142D01*
X051241Y028419D02*
X051399D01*
X05132Y02834D02*
Y028498D01*
X051241Y029775D02*
X051399D01*
X05132Y029696D02*
Y029853D01*
X051241Y03113D02*
X051399D01*
X05132Y031051D02*
Y031209D01*
X051271Y03814D02*
X051429D01*
X05135Y038061D02*
Y038219D01*
X051321Y03502D02*
X051479D01*
X0514Y034941D02*
Y035099D01*
X049291Y03497D02*
X049449D01*
X04937Y034891D02*
Y035049D01*
X049991Y03024D02*
X050149D01*
X05007Y030161D02*
Y030319D01*
X049991Y03076D02*
X050149D01*
X05007Y030681D02*
Y030839D01*
X048271Y03271D02*
X048429D01*
X04835Y032631D02*
Y032789D01*
X048431Y03338D02*
X048589D01*
X04851Y033301D02*
Y033459D01*
X050841Y03382D02*
X050999D01*
X05092Y033741D02*
Y033899D01*
X050841Y03448D02*
X050999D01*
X05092Y034401D02*
Y034559D01*
X049351Y03286D02*
X049509D01*
X04943Y032781D02*
Y032939D01*
X049651Y0332D02*
X049809D01*
X04973Y033121D02*
Y033279D01*
X047741Y028301D02*
X047899D01*
X04782Y028222D02*
Y02838D01*
X048531Y02872D02*
X048689D01*
X04861Y028641D02*
Y028799D01*
X043341Y02675D02*
X043499D01*
X04342Y026671D02*
Y026829D01*
X042901Y02729D02*
X043059D01*
X04298Y027211D02*
Y027369D01*
X042461Y02784D02*
X042619D01*
X04254Y027761D02*
Y027919D01*
X041611Y02236D02*
X041769D01*
X04169Y022281D02*
Y022439D01*
X041611Y02374D02*
X041769D01*
X04169Y023661D02*
Y023819D01*
X038061Y02611D02*
X038219D01*
X03814Y026031D02*
Y026189D01*
X038061Y02513D02*
X038219D01*
X03814Y025051D02*
Y025209D01*
X038981Y02513D02*
X039139D01*
X03906Y025051D02*
Y025209D01*
X043121Y0253D02*
X043279D01*
X0432Y025221D02*
Y025379D01*
X042571Y0249D02*
X042729D01*
X04265Y024821D02*
Y024979D01*
X041641Y02589D02*
X041799D01*
X04172Y025811D02*
Y025969D01*
X041001Y02589D02*
X041159D01*
X04108Y025811D02*
Y025969D01*
X041151Y03024D02*
X041309D01*
X04123Y030161D02*
Y030319D01*
X040091Y03073D02*
X040249D01*
X04017Y030651D02*
Y030809D01*
X039241Y03073D02*
X039399D01*
X03932Y030651D02*
Y030809D01*
X040441Y03024D02*
X040599D01*
X04052Y030161D02*
Y030319D01*
X040501Y02889D02*
X040659D01*
X04058Y028811D02*
Y028969D01*
X037241Y0281D02*
X037399D01*
X03732Y028021D02*
Y028179D01*
X037241Y0288D02*
X037399D01*
X03732Y028721D02*
Y028879D01*
X037201Y03048D02*
X037359D01*
X03728Y030401D02*
Y030559D01*
X037241Y03233D02*
X037399D01*
X03732Y032251D02*
Y032409D01*
X037241Y03385D02*
X037399D01*
X03732Y033771D02*
Y033929D01*
X037241Y03546D02*
X037399D01*
X03732Y035381D02*
Y035539D01*
X040706Y024281D02*
X040863D01*
X040784Y024202D02*
Y02436D01*
X044931Y027397D02*
X045089D01*
X04501Y027319D02*
Y027476D01*
X044931Y028894D02*
X045089D01*
X04501Y028815D02*
Y028972D01*
X038831Y02447D02*
X038989D01*
X03891Y024391D02*
Y024549D01*
X044284Y016418D02*
X044442D01*
X044363Y01634D02*
Y016497D01*
X041361Y02464D02*
X041519D01*
X04144Y024561D02*
Y024719D01*
X044287Y01959D02*
X044444D01*
X044365Y019511D02*
Y019669D01*
X04091Y019835D02*
X041068D01*
X040989Y019756D02*
Y019913D01*
X044277Y023247D02*
X044434D01*
X044356Y023169D02*
Y023326D01*
X047652Y019853D02*
X047809D01*
X04773Y019775D02*
Y019932D01*
X046591Y02966D02*
X046749D01*
X04667Y029581D02*
Y029739D01*
X041335Y031702D02*
X041493D01*
X041414Y031623D02*
Y03178D01*
X041743Y027093D02*
X041901D01*
X041822Y027014D02*
Y027171D01*
X042631Y02595D02*
X042789D01*
X04271Y025871D02*
Y026029D01*
X048911Y02685D02*
X049069D01*
X04899Y026771D02*
Y026929D01*
X048641Y03473D02*
X048799D01*
X04872Y034651D02*
Y034809D01*
X050261Y0322D02*
X050419D01*
X05034Y032121D02*
Y032279D01*
X050551Y03126D02*
X050709D01*
X05063Y031181D02*
Y031339D01*
X046751Y02809D02*
X046909D01*
X04683Y028011D02*
Y028169D01*
X038721Y03168D02*
X038879D01*
X0388Y031601D02*
Y031759D01*
X049131Y031819D02*
X049289D01*
X04921Y031741D02*
Y031898D01*
X049941Y03512D02*
X050099D01*
X05002Y035041D02*
Y035199D01*
X049851Y03615D02*
X050009D01*
X04993Y036071D02*
Y036229D01*
X041141Y035063D02*
X041299D01*
X04122Y034985D02*
Y035142D01*
X040651Y03505D02*
X040809D01*
X04073Y034971D02*
Y035129D01*
X041671Y03507D02*
X041829D01*
X04175Y034991D02*
Y035149D01*
X040831Y03299D02*
X040989D01*
X04091Y032911D02*
Y033069D01*
X041761Y03402D02*
X041919D01*
X04184Y033941D02*
Y034099D01*
X040141Y02773D02*
X040299D01*
X04022Y027651D02*
Y027809D01*
X051091Y0359D02*
X051249D01*
X05117Y035821D02*
Y035979D01*
X050171Y033051D02*
X050329D01*
X05025Y032972D02*
Y033129D01*
X037456Y029875D02*
X037614D01*
X037535Y029796D02*
Y029954D01*
X048331Y030277D02*
X048489D01*
X04841Y030199D02*
Y030356D01*
X048191Y03072D02*
X048349D01*
X04827Y030641D02*
Y030799D01*
X048311Y02988D02*
X048469D01*
X04839Y029801D02*
Y029959D01*
X045921Y02635D02*
X046079D01*
X046Y026271D02*
Y026429D01*
X044931Y03039D02*
X045089D01*
X04501Y030311D02*
Y030469D01*
X041511Y02777D02*
X041669D01*
X04159Y027691D02*
Y027849D01*
X040107Y025971D02*
X040264D01*
X040185Y025892D02*
Y026049D01*
X041114Y027389D02*
X041271D01*
X041192Y027311D02*
Y027468D01*
X040601Y02786D02*
X040759D01*
X04068Y027781D02*
Y027939D01*
X038451Y02859D02*
X038609D01*
X03853Y028511D02*
Y028669D01*
X038154Y030157D02*
X038311D01*
X038233Y030079D02*
Y030236D01*
X038251Y02904D02*
X038409D01*
X03833Y028961D02*
Y029119D01*
X038611Y03345D02*
X038769D01*
X03869Y033371D02*
Y033529D01*
X037811Y02913D02*
X037969D01*
X03789Y029051D02*
Y029209D01*
X037481Y02935D02*
X037639D01*
X03756Y029271D02*
Y029429D01*
X038061Y03059D02*
X038219D01*
X03814Y030511D02*
Y030669D01*
X040111Y03468D02*
X040269D01*
X04019Y034601D02*
Y034759D01*
X039947Y034023D02*
X040104D01*
X040026Y033944D02*
Y034102D01*
X041031Y03696D02*
X041189D01*
X04111Y036881D02*
Y037039D01*
M02*
