G04*
G04 #@! TF.GenerationSoftware,Altium Limited,Altium Designer,21.3.2 (30)*
G04*
G04 Layer_Color=65535*
%FSTAX24Y24*%
%MOIN*%
G70*
G04*
G04 #@! TF.SameCoordinates,17C352DC-52FB-4B9E-A555-A73132B06FB7*
G04*
G04*
G04 #@! TF.FilePolarity,Positive*
G04*
G01*
G75*
%ADD10C,0.0100*%
%ADD11C,0.0098*%
%ADD12C,0.0197*%
%ADD13C,0.1181*%
%ADD14C,0.0079*%
%ADD15C,0.0060*%
%ADD16R,0.1417X0.0181*%
G36*
X044759Y023D02*
X043972D01*
X044365Y023787D01*
X044759Y023D01*
D02*
G37*
G36*
X048302Y01985D02*
X047515Y019456D01*
Y020244D01*
X048302Y01985D01*
D02*
G37*
G36*
X041216Y019456D02*
X040428Y01985D01*
X041216Y020244D01*
Y019456D01*
D02*
G37*
G36*
X044365Y015913D02*
X043972Y0167D01*
X044759D01*
X044365Y015913D01*
D02*
G37*
G36*
X05106Y028547D02*
X050691D01*
X050691Y028547D01*
X050693Y028545D01*
X050696Y028542D01*
X050699Y028538D01*
X050703Y028533D01*
X050708Y028526D01*
X050713Y028519D01*
X050719Y028511D01*
X050725Y028502D01*
X050731Y028493D01*
X050737Y028482D01*
X050743Y028471D01*
X050749Y028459D01*
X050755Y028447D01*
X05076Y028434D01*
X050765Y028421D01*
X050676D01*
Y028421D01*
X050675Y028422D01*
X050674Y028424D01*
X050673Y028427D01*
X050672Y028431D01*
X05067Y028435D01*
X050668Y02844D01*
X050665Y028446D01*
X050659Y028458D01*
X050651Y028472D01*
X050641Y028487D01*
X050628Y028504D01*
X050628Y028504D01*
X050627Y028506D01*
X050625Y028508D01*
X050622Y028511D01*
X050619Y028515D01*
X050614Y028519D01*
X05061Y028523D01*
X050604Y028528D01*
X050592Y028539D01*
X050578Y028549D01*
X050563Y028558D01*
X050555Y028562D01*
X050546Y028565D01*
Y028645D01*
X05106D01*
Y028547D01*
D02*
G37*
G36*
Y028216D02*
X050961D01*
Y028315D01*
X05106D01*
Y028216D01*
D02*
G37*
G36*
Y02795D02*
X050691D01*
X050691Y02795D01*
X050693Y027948D01*
X050696Y027945D01*
X050699Y027941D01*
X050703Y027936D01*
X050708Y027929D01*
X050713Y027923D01*
X050719Y027914D01*
X050725Y027906D01*
X050731Y027896D01*
X050737Y027886D01*
X050743Y027874D01*
X050749Y027863D01*
X050755Y02785D01*
X05076Y027837D01*
X050765Y027824D01*
X050676D01*
Y027824D01*
X050675Y027826D01*
X050674Y027828D01*
X050673Y027831D01*
X050672Y027834D01*
X05067Y027838D01*
X050668Y027843D01*
X050665Y027849D01*
X050659Y027861D01*
X050651Y027875D01*
X050641Y027891D01*
X050628Y027907D01*
X050628Y027908D01*
X050627Y027909D01*
X050625Y027912D01*
X050622Y027914D01*
X050619Y027918D01*
X050614Y027922D01*
X05061Y027927D01*
X050604Y027932D01*
X050592Y027942D01*
X050578Y027952D01*
X050563Y027962D01*
X050555Y027965D01*
X050546Y027969D01*
Y028049D01*
X05106D01*
Y02795D01*
D02*
G37*
G36*
Y027584D02*
Y027473D01*
X050547Y02729D01*
Y027402D01*
X050926Y027531D01*
X050547Y027657D01*
Y027767D01*
X05106Y027584D01*
D02*
G37*
G36*
X051201Y026885D02*
X051137D01*
Y027293D01*
X051201D01*
Y026885D01*
D02*
G37*
G36*
X050784Y02687D02*
X050784Y026869D01*
X050782Y026866D01*
X050779Y026862D01*
X050776Y026855D01*
X050773Y026848D01*
X05077Y02684D01*
X050769Y026833D01*
X050768Y026824D01*
Y026821D01*
X050769Y026817D01*
X05077Y026812D01*
X050771Y026807D01*
X050773Y026801D01*
X050776Y026795D01*
X05078Y026789D01*
X05078Y026789D01*
X050782Y026787D01*
X050785Y026784D01*
X050789Y026781D01*
X050795Y026778D01*
X050802Y026774D01*
X05081Y02677D01*
X050821Y026767D01*
X050821D01*
X050823Y026766D01*
X050824D01*
X050827Y026766D01*
X05083Y026765D01*
X050835Y026764D01*
X050841Y026763D01*
X050848Y026763D01*
X050855Y026762D01*
X050864Y026761D01*
X050874Y026761D01*
X050886Y02676D01*
X050899Y026759D01*
X050913D01*
X050928Y026759D01*
X050945D01*
X05106D01*
Y026661D01*
X050688D01*
Y026752D01*
X050742D01*
X050741Y026752D01*
X05074Y026753D01*
X050738Y026754D01*
X050735Y026756D01*
X050729Y02676D01*
X050721Y026766D01*
X050713Y026772D01*
X050705Y026779D01*
X050698Y026786D01*
X050694Y02679D01*
X050692Y026793D01*
X050692Y026794D01*
X050691Y026797D01*
X050688Y026801D01*
X050686Y026806D01*
X050684Y026812D01*
X050682Y026819D01*
X050681Y026827D01*
X05068Y026836D01*
Y026842D01*
X050681Y026845D01*
X050681Y026848D01*
X050682Y026857D01*
X050684Y026867D01*
X050688Y026878D01*
X050693Y026889D01*
X050699Y026901D01*
X050784Y02687D01*
D02*
G37*
G36*
X050902Y026339D02*
X050903D01*
X050904D01*
X050906D01*
X050909Y026339D01*
X050913Y02634D01*
X050918Y02634D01*
X050927Y026342D01*
X050938Y026345D01*
X05095Y026349D01*
X050961Y026354D01*
X050971Y026362D01*
Y026363D01*
X050972Y026363D01*
X050975Y026366D01*
X050979Y026371D01*
X050982Y026378D01*
X050987Y026386D01*
X050991Y026396D01*
X050994Y026407D01*
X050994Y026413D01*
X050995Y026419D01*
Y026423D01*
X050994Y026427D01*
X050993Y026433D01*
X050992Y026439D01*
X05099Y026445D01*
X050986Y026451D01*
X050982Y026458D01*
X050982Y026458D01*
X05098Y02646D01*
X050977Y026463D01*
X050972Y026466D01*
X050967Y026471D01*
X05096Y026475D01*
X050951Y026479D01*
X050941Y026482D01*
X050958Y02658D01*
X050959D01*
X05096Y026579D01*
X050963Y026577D01*
X050967Y026576D01*
X050971Y026574D01*
X050976Y026571D01*
X050982Y026569D01*
X050989Y026565D01*
X051002Y026557D01*
X051015Y026546D01*
X051029Y026534D01*
X051035Y026527D01*
X05104Y02652D01*
X051041Y026519D01*
X051041Y026518D01*
X051043Y026516D01*
X051045Y026512D01*
X051047Y026509D01*
X051049Y026504D01*
X051051Y026498D01*
X051054Y026492D01*
X051057Y026485D01*
X051059Y026477D01*
X051061Y026469D01*
X051063Y02646D01*
X051065Y02645D01*
X051067Y02644D01*
X051067Y026429D01*
X051068Y026418D01*
Y026414D01*
X051067Y026409D01*
X051067Y026402D01*
X051066Y026394D01*
X051065Y026385D01*
X051063Y026375D01*
X05106Y026364D01*
X051057Y026352D01*
X051052Y02634D01*
X051047Y026329D01*
X051041Y026317D01*
X051034Y026305D01*
X051026Y026294D01*
X051016Y026284D01*
X051005Y026275D01*
X051005Y026274D01*
X051003Y026273D01*
X051Y026272D01*
X050996Y026269D01*
X050991Y026267D01*
X050985Y026263D01*
X050978Y02626D01*
X05097Y026257D01*
X050961Y026253D01*
X050951Y02625D01*
X050941Y026247D01*
X05093Y026244D01*
X050918Y026242D01*
X050905Y02624D01*
X050891Y026239D01*
X050877Y026238D01*
X050876D01*
X050873D01*
X050868Y026239D01*
X050862D01*
X050854Y02624D01*
X050845Y026241D01*
X050835Y026242D01*
X050824Y026244D01*
X050813Y026247D01*
X050802Y02625D01*
X050789Y026254D01*
X050777Y026258D01*
X050765Y026264D01*
X050754Y02627D01*
X050743Y026278D01*
X050733Y026286D01*
X050732Y026287D01*
X05073Y026288D01*
X050728Y026291D01*
X050724Y026295D01*
X05072Y026299D01*
X050716Y026305D01*
X050711Y026312D01*
X050706Y026319D01*
X050702Y026328D01*
X050697Y026337D01*
X050692Y026347D01*
X050688Y026358D01*
X050685Y026369D01*
X050682Y026381D01*
X050681Y026395D01*
X05068Y026408D01*
Y026412D01*
X050681Y026416D01*
X050681Y026422D01*
X050682Y026429D01*
X050683Y026437D01*
X050684Y026446D01*
X050687Y026455D01*
X05069Y026466D01*
X050693Y026476D01*
X050698Y026487D01*
X050703Y026498D01*
X050709Y026509D01*
X050717Y026519D01*
X050725Y026529D01*
X050735Y026539D01*
X050735Y026539D01*
X050738Y026541D01*
X05074Y026543D01*
X050745Y026546D01*
X050751Y02655D01*
X050758Y026554D01*
X050767Y026558D01*
X050776Y026562D01*
X050787Y026567D01*
X0508Y026571D01*
X050813Y026575D01*
X050828Y026578D01*
X050845Y026581D01*
X050863Y026583D01*
X050881Y026585D01*
X050902D01*
Y026339D01*
D02*
G37*
G36*
X051046Y026073D02*
X05111Y026049D01*
X051111D01*
X051112Y026048D01*
X051113Y026048D01*
X051116Y026047D01*
X051121Y026045D01*
X051128Y026041D01*
X051136Y026037D01*
X051145Y026034D01*
X051152Y026029D01*
X051159Y026025D01*
X05116Y026024D01*
X051162Y026022D01*
X051166Y02602D01*
X051169Y026017D01*
X051174Y026013D01*
X051178Y026009D01*
X051183Y026003D01*
X051187Y025997D01*
X051188Y025997D01*
X051189Y025995D01*
X051191Y025991D01*
X051193Y025987D01*
X051196Y025982D01*
X051199Y025975D01*
X051202Y025968D01*
X051204Y02596D01*
Y025959D01*
X051205Y025956D01*
X051206Y025952D01*
X051207Y025946D01*
X051208Y025939D01*
X051209Y02593D01*
X051209Y025921D01*
X05121Y02591D01*
Y025905D01*
X051209Y0259D01*
Y025893D01*
X051208Y025884D01*
X051207Y025875D01*
X051206Y025865D01*
X051204Y025855D01*
X051127Y025846D01*
Y025848D01*
X051127Y02585D01*
X051128Y025855D01*
X051129Y02586D01*
X05113Y025866D01*
X051131Y025874D01*
X051132Y025888D01*
Y025891D01*
X051131Y025893D01*
X051131Y025899D01*
X051129Y025907D01*
X051127Y025915D01*
X051123Y025924D01*
X051118Y025931D01*
X051111Y025938D01*
X05111Y025939D01*
X051107Y025941D01*
X051103Y025944D01*
X051097Y025947D01*
X05109Y025951D01*
X051081Y025956D01*
X051072Y02596D01*
X051061Y025963D01*
X050688Y025823D01*
Y025927D01*
X050952Y026015D01*
X050688Y026102D01*
Y026204D01*
X051046Y026073D01*
D02*
G37*
G36*
X05106Y025697D02*
X051059D01*
X051058Y025696D01*
X051056Y025695D01*
X051052Y025694D01*
X051048Y025693D01*
X051044Y025691D01*
X051037Y025689D01*
X051031Y025687D01*
X05103D01*
X051029Y025686D01*
X051026Y025686D01*
X051022Y025684D01*
X05102Y025684D01*
X051019Y025683D01*
X05102Y025682D01*
X051023Y025679D01*
X051027Y025674D01*
X051033Y025667D01*
X051038Y025659D01*
X051045Y02565D01*
X051051Y02564D01*
X051056Y025629D01*
Y025629D01*
X051056Y025628D01*
X051057Y025627D01*
X051057Y025624D01*
X05106Y025619D01*
X051062Y025611D01*
X051064Y025602D01*
X051066Y025592D01*
X051067Y025581D01*
X051068Y025568D01*
Y025563D01*
X051067Y025559D01*
X051067Y025554D01*
X051066Y025548D01*
X051065Y025542D01*
X051064Y025536D01*
X051061Y025521D01*
X051055Y025506D01*
X051051Y025498D01*
X051047Y025491D01*
X051043Y025485D01*
X051037Y025478D01*
X051037Y025477D01*
X051036Y025476D01*
X051034Y025475D01*
X051032Y025473D01*
X051029Y02547D01*
X051025Y025467D01*
X051021Y025465D01*
X051016Y025462D01*
X05101Y025459D01*
X051005Y025456D01*
X050991Y02545D01*
X050984Y025448D01*
X050976Y025447D01*
X050967Y025446D01*
X050959Y025445D01*
X050958D01*
X050957D01*
X050955D01*
X050953D01*
X050947Y025446D01*
X05094Y025447D01*
X050931Y025449D01*
X050921Y025451D01*
X050912Y025455D01*
X050903Y02546D01*
X050902D01*
X050901Y025461D01*
X050899Y025463D01*
X050894Y025466D01*
X050889Y025471D01*
X050883Y025477D01*
X050876Y025484D01*
X05087Y025492D01*
X050865Y025502D01*
Y025502D01*
X050865Y025503D01*
X050864Y025505D01*
X050863Y025507D01*
X050862Y02551D01*
X05086Y025513D01*
X050859Y025517D01*
X050858Y025522D01*
X050856Y025527D01*
X050854Y025533D01*
X050852Y02554D01*
X05085Y025546D01*
X050848Y025554D01*
X050846Y025562D01*
X050844Y025571D01*
X050842Y02558D01*
Y025581D01*
X050841Y025583D01*
X050841Y025587D01*
X05084Y025591D01*
X050839Y025597D01*
X050838Y025603D01*
X050836Y025611D01*
X050834Y025618D01*
X05083Y025634D01*
X050827Y02565D01*
X050824Y025657D01*
X050822Y025664D01*
X05082Y025671D01*
X050818Y025676D01*
X050808D01*
X050808D01*
X050807D01*
X050803D01*
X050798Y025676D01*
X050792Y025674D01*
X050785Y025673D01*
X050779Y02567D01*
X050772Y025667D01*
X050767Y025662D01*
X050767Y025661D01*
X050765Y025659D01*
X050763Y025655D01*
X050761Y02565D01*
X050759Y025643D01*
X050757Y025633D01*
X050756Y025628D01*
X050755Y025622D01*
X050755Y025616D01*
Y025604D01*
X050755Y025599D01*
X050756Y025593D01*
X050758Y025587D01*
X050759Y02558D01*
X050762Y025573D01*
X050765Y025567D01*
X050766Y025566D01*
X050768Y025565D01*
X05077Y025562D01*
X050774Y025558D01*
X050779Y025555D01*
X050785Y025551D01*
X050793Y025547D01*
X050802Y025543D01*
X050786Y025455D01*
X050785D01*
X050784Y025456D01*
X050781Y025457D01*
X050777Y025458D01*
X050773Y02546D01*
X050768Y025462D01*
X050756Y025467D01*
X050743Y025475D01*
X050729Y025484D01*
X050717Y025494D01*
X050711Y0255D01*
X050706Y025507D01*
X050706Y025507D01*
X050705Y025508D01*
X050704Y025511D01*
X050702Y025513D01*
X0507Y025517D01*
X050698Y025522D01*
X050696Y025528D01*
X050693Y025534D01*
X050691Y025542D01*
X050688Y02555D01*
X050686Y025558D01*
X050684Y025568D01*
X050682Y025579D01*
X050681Y025591D01*
X05068Y025603D01*
Y025627D01*
X050681Y025632D01*
Y025639D01*
X050681Y025646D01*
X050682Y025653D01*
X050684Y025669D01*
X050687Y025686D01*
X050691Y025701D01*
X050693Y025708D01*
X050696Y025714D01*
Y025715D01*
X050697Y025716D01*
X050698Y025718D01*
X050699Y025719D01*
X050702Y025725D01*
X050707Y025732D01*
X050713Y02574D01*
X050719Y025747D01*
X050727Y025754D01*
X050735Y02576D01*
X050737Y02576D01*
X050738Y025761D01*
X05074Y025762D01*
X050743Y025763D01*
X050747Y025764D01*
X05075Y025765D01*
X050755Y025767D01*
X050761Y025768D01*
X050767Y025769D01*
X050774Y02577D01*
X050783Y025771D01*
X050792Y025772D01*
X050801Y025773D01*
X050812Y025773D01*
X050823D01*
X050938Y025772D01*
X050939D01*
X05094D01*
X050942D01*
X050946D01*
X05095D01*
X050955D01*
X050965Y025772D01*
X050977Y025773D01*
X050989Y025773D01*
X051Y025774D01*
X051006Y025775D01*
X05101Y025776D01*
X051011D01*
X051014Y025777D01*
X051019Y025778D01*
X051025Y02578D01*
X051032Y025782D01*
X051041Y025785D01*
X05105Y025789D01*
X05106Y025794D01*
Y025697D01*
D02*
G37*
G36*
Y025273D02*
X050547D01*
Y025371D01*
X05106D01*
Y025273D01*
D02*
G37*
G36*
X050717Y025188D02*
X050722Y025187D01*
X050727Y025187D01*
X050733Y025186D01*
X050745Y025184D01*
X050759Y025181D01*
X050772Y025177D01*
X050785Y025171D01*
X050785D01*
X050786Y02517D01*
X050788Y025169D01*
X05079Y025168D01*
X050796Y025164D01*
X050803Y025159D01*
X050811Y025153D01*
X050819Y025145D01*
X050828Y025137D01*
X050835Y025127D01*
Y025127D01*
X050836Y025126D01*
X050838Y025123D01*
X050841Y025118D01*
X050845Y025111D01*
X050849Y025103D01*
X050853Y025094D01*
X050856Y025084D01*
X050859Y025074D01*
Y025073D01*
X05086Y025072D01*
Y02507D01*
X05086Y025067D01*
X050861Y025063D01*
X050861Y025058D01*
X050862Y025053D01*
X050863Y025047D01*
X050864Y02504D01*
X050864Y025031D01*
X050865Y025022D01*
X050865Y025013D01*
X050866Y025002D01*
Y024991D01*
X050866Y024979D01*
Y024899D01*
X05106D01*
Y024796D01*
X050547D01*
Y024985D01*
X050548Y024993D01*
Y025002D01*
X050548Y025012D01*
X050549Y025033D01*
X05055Y025043D01*
X050551Y025053D01*
X050551Y025063D01*
X050552Y025071D01*
X050554Y025078D01*
X050555Y025084D01*
Y025085D01*
X050556Y025087D01*
X050556Y025089D01*
X050557Y025092D01*
X050559Y025096D01*
X050561Y0251D01*
X050566Y02511D01*
X050572Y025122D01*
X050581Y025134D01*
X050587Y025141D01*
X050592Y025147D01*
X050598Y025153D01*
X050606Y025158D01*
X050606Y025159D01*
X050607Y025159D01*
X050609Y025161D01*
X050612Y025163D01*
X050616Y025165D01*
X050621Y025168D01*
X050626Y02517D01*
X050632Y025173D01*
X050639Y025176D01*
X050647Y025179D01*
X050655Y025182D01*
X050664Y025184D01*
X050673Y025185D01*
X050683Y025187D01*
X050694Y025188D01*
X050706Y025188D01*
X050706D01*
X050708D01*
X05071D01*
X050713D01*
X050717Y025188D01*
D02*
G37*
G36*
X051201Y024339D02*
X051137D01*
Y024747D01*
X051201D01*
Y024339D01*
D02*
G37*
G36*
X050881Y024319D02*
X050887D01*
X050894Y024318D01*
X050903Y024317D01*
X050912Y024315D01*
X050922Y024313D01*
X050933Y02431D01*
X050944Y024306D01*
X050956Y024302D01*
X050967Y024297D01*
X05098Y02429D01*
X050991Y024283D01*
X051002Y024275D01*
X051013Y024265D01*
X051014Y024265D01*
X051015Y024263D01*
X051018Y02426D01*
X051021Y024255D01*
X051026Y02425D01*
X05103Y024244D01*
X051035Y024236D01*
X05104Y024228D01*
X051046Y024219D01*
X051051Y024208D01*
X051055Y024197D01*
X051059Y024185D01*
X051063Y024172D01*
X051066Y024158D01*
X051067Y024144D01*
X051068Y024129D01*
Y024124D01*
X051067Y02412D01*
Y024115D01*
X051067Y02411D01*
X051066Y024104D01*
X051065Y024098D01*
X051062Y024083D01*
X051058Y024066D01*
X051053Y024049D01*
X051045Y024032D01*
X051045Y024031D01*
X051044Y024029D01*
X051043Y024027D01*
X051041Y024024D01*
X051038Y02402D01*
X051035Y024016D01*
X051028Y024006D01*
X051019Y023994D01*
X051007Y023983D01*
X050993Y023972D01*
X050977Y023962D01*
X050977D01*
X050975Y023961D01*
X050973Y023959D01*
X05097Y023958D01*
X050965Y023956D01*
X05096Y023954D01*
X050954Y023952D01*
X050947Y02395D01*
X05094Y023948D01*
X050931Y023946D01*
X050923Y023943D01*
X050913Y023942D01*
X050903Y02394D01*
X050892Y023939D01*
X050881Y023938D01*
X050869Y023938D01*
X050869D01*
X050867D01*
X050864D01*
X050861Y023938D01*
X050856D01*
X050851Y023939D01*
X050845Y02394D01*
X050839Y023941D01*
X050824Y023944D01*
X050808Y023948D01*
X050792Y023954D01*
X050783Y023957D01*
X050774Y023962D01*
X050774Y023962D01*
X050772Y023963D01*
X05077Y023964D01*
X050767Y023966D01*
X050763Y023968D01*
X050758Y023972D01*
X050748Y023979D01*
X050737Y023989D01*
X050725Y024001D01*
X050714Y024014D01*
X050704Y024029D01*
X050704Y02403D01*
X050703Y024032D01*
X050702Y024034D01*
X050701Y024037D01*
X050699Y024042D01*
X050697Y024047D01*
X050694Y024052D01*
X050692Y024058D01*
X05069Y024065D01*
X050688Y024073D01*
X050684Y02409D01*
X050681Y024108D01*
X05068Y024118D01*
Y024132D01*
X050681Y024137D01*
X050681Y024142D01*
X050682Y024149D01*
X050683Y024158D01*
X050684Y024167D01*
X050687Y024177D01*
X05069Y024188D01*
X050693Y024199D01*
X050698Y02421D01*
X050703Y024221D01*
X050709Y024233D01*
X050717Y024245D01*
X050725Y024255D01*
X050735Y024266D01*
X050735Y024266D01*
X050738Y024268D01*
X05074Y024271D01*
X050745Y024274D01*
X05075Y024279D01*
X050757Y024283D01*
X050764Y024287D01*
X050773Y024293D01*
X050782Y024298D01*
X050793Y024302D01*
X050804Y024307D01*
X050816Y024311D01*
X050829Y024315D01*
X050843Y024317D01*
X050858Y024319D01*
X050873Y02432D01*
X050874D01*
X050877D01*
X050881Y024319D01*
D02*
G37*
G36*
X05106Y023762D02*
X050688D01*
Y02386D01*
X05106D01*
Y023762D01*
D02*
G37*
G36*
X050638D02*
X050547D01*
Y02386D01*
X050638D01*
Y023762D01*
D02*
G37*
G36*
X05106Y023574D02*
X051006D01*
X051007Y023573D01*
X051009Y023572D01*
X05101Y02357D01*
X051016Y023565D01*
X051023Y023559D01*
X051031Y02355D01*
X051039Y023542D01*
X051046Y023531D01*
X051053Y02352D01*
Y023519D01*
X051053Y023519D01*
X051054Y023517D01*
X051055Y023514D01*
X051058Y023508D01*
X05106Y0235D01*
X051063Y023491D01*
X051066Y023481D01*
X051067Y023469D01*
X051068Y023458D01*
Y023455D01*
X051067Y023452D01*
Y023447D01*
X051066Y023442D01*
X051065Y023435D01*
X051063Y023428D01*
X051061Y02342D01*
X051059Y023412D01*
X051056Y023403D01*
X051051Y023394D01*
X051046Y023384D01*
X051041Y023376D01*
X051034Y023366D01*
X051026Y023357D01*
X051017Y023348D01*
X051016Y023348D01*
X051015Y023347D01*
X051011Y023344D01*
X051007Y023341D01*
X051002Y023338D01*
X050996Y023334D01*
X050988Y02333D01*
X05098Y023326D01*
X05097Y023321D01*
X050959Y023317D01*
X050947Y023313D01*
X050934Y02331D01*
X05092Y023307D01*
X050905Y023305D01*
X050889Y023303D01*
X050873Y023303D01*
X050871D01*
X050868D01*
X050864Y023303D01*
X050857D01*
X050849Y023304D01*
X05084Y023305D01*
X05083Y023307D01*
X050819Y023308D01*
X050808Y023311D01*
X050796Y023313D01*
X050784Y023317D01*
X050772Y023321D01*
X05076Y023326D01*
X050749Y023332D01*
X050739Y023339D01*
X050729Y023347D01*
X050729Y023347D01*
X050727Y023349D01*
X050725Y023351D01*
X050722Y023355D01*
X050718Y023359D01*
X050714Y023365D01*
X050709Y023371D01*
X050704Y023377D01*
X0507Y023385D01*
X050696Y023394D01*
X050692Y023403D01*
X050688Y023413D01*
X050684Y023423D01*
X050682Y023434D01*
X050681Y023447D01*
X05068Y023459D01*
Y023462D01*
X050681Y023465D01*
Y023469D01*
X050682Y023475D01*
X050683Y023481D01*
X050684Y023488D01*
X050687Y023495D01*
X050689Y023504D01*
X050693Y023513D01*
X050697Y023522D01*
X050702Y02353D01*
X050708Y02354D01*
X050715Y023549D01*
X050723Y023558D01*
X050732Y023567D01*
X050547D01*
Y023665D01*
X05106D01*
Y023574D01*
D02*
G37*
G36*
Y023132D02*
X051005D01*
X051005Y023131D01*
X051007Y02313D01*
X051009Y023128D01*
X051015Y023124D01*
X051021Y023118D01*
X051029Y02311D01*
X051037Y023101D01*
X051044Y02309D01*
X051051Y023078D01*
Y023078D01*
X051052Y023076D01*
X051053Y023075D01*
X051054Y023073D01*
X051055Y023069D01*
X051056Y023066D01*
X05106Y023057D01*
X051062Y023047D01*
X051065Y023035D01*
X051067Y023022D01*
X051068Y023009D01*
Y023003D01*
X051067Y022999D01*
X051067Y022995D01*
X051066Y022987D01*
X051064Y022976D01*
X051061Y022965D01*
X051057Y022953D01*
X051052Y022942D01*
Y022941D01*
X051051Y02294D01*
X05105Y022939D01*
X051048Y022937D01*
X051045Y022932D01*
X05104Y022926D01*
X051034Y022918D01*
X051025Y022911D01*
X051016Y022904D01*
X051006Y022899D01*
X051005D01*
X051004Y022898D01*
X051002Y022898D01*
X051Y022897D01*
X050997Y022896D01*
X050994Y022895D01*
X050989Y022894D01*
X050984Y022893D01*
X050979Y022891D01*
X050972Y02289D01*
X050966Y022889D01*
X050959Y022888D01*
X050951Y022887D01*
X050942Y022887D01*
X050924Y022886D01*
X050688D01*
Y022984D01*
X050859D01*
X05086D01*
X050863D01*
X050866D01*
X050871D01*
X050878D01*
X050885Y022985D01*
X050893D01*
X0509D01*
X050917Y022985D01*
X050925Y022986D01*
X050932Y022987D01*
X05094Y022987D01*
X050946Y022988D01*
X050951Y022988D01*
X050955Y022989D01*
X050956Y02299D01*
X050958Y02299D01*
X050961Y022992D01*
X050965Y022994D01*
X05097Y022997D01*
X050974Y023D01*
X050979Y023004D01*
X050983Y023009D01*
X050984Y023009D01*
X050985Y023012D01*
X050986Y023014D01*
X050988Y023019D01*
X05099Y023024D01*
X050991Y02303D01*
X050992Y023038D01*
X050993Y023045D01*
Y02305D01*
X050992Y023054D01*
X050991Y02306D01*
X05099Y023067D01*
X050987Y023075D01*
X050984Y023083D01*
X05098Y02309D01*
X050979Y023091D01*
X050977Y023093D01*
X050974Y023096D01*
X05097Y023101D01*
X050965Y023105D01*
X050959Y02311D01*
X050952Y023114D01*
X050945Y023117D01*
X050944Y023118D01*
X050943D01*
X050941Y023118D01*
X050938Y023119D01*
X050935Y023119D01*
X05093Y02312D01*
X050925Y023121D01*
X050919Y023121D01*
X050912Y023123D01*
X050904Y023123D01*
X050894Y023124D01*
X050884Y023124D01*
X050873D01*
X05086Y023125D01*
X050845D01*
X050688D01*
Y023223D01*
X05106D01*
Y023132D01*
D02*
G37*
G36*
Y022722D02*
X050943Y022677D01*
Y022472D01*
X05106Y022429D01*
Y02232D01*
X050547Y022519D01*
Y022629D01*
X05106Y022834D01*
Y022722D01*
D02*
G37*
G36*
X038358Y020892D02*
X037916D01*
Y020973D01*
X038358D01*
Y020892D01*
D02*
G37*
G36*
X03837Y01915D02*
X037576D01*
Y020892D01*
D01*
Y021145D01*
X037577Y021123D01*
X037579Y021103D01*
X037584Y021086D01*
X037587Y021071D01*
X037591Y021059D01*
X037595Y021051D01*
X037596Y021048D01*
X037598Y021045D01*
X037599Y021044D01*
Y021043D01*
X037607Y021029D01*
X037616Y021018D01*
X037626Y021008D01*
X037634Y021001D01*
X037643Y020995D01*
X037649Y020992D01*
X037653Y020989D01*
X037654Y020988D01*
X037661Y020986D01*
X037669Y020983D01*
X037685Y02098D01*
X037703Y020977D01*
X037719Y020975D01*
X037734Y020974D01*
X037741D01*
X037747Y020973D01*
X037752D01*
X037755D01*
X037758D01*
X037759D01*
X0378D01*
Y020892D01*
X038358D01*
Y021122D01*
Y021121D01*
X037916D01*
Y021231D01*
X0378D01*
Y021121D01*
X037761D01*
X037746Y021122D01*
X037734Y021123D01*
X037724Y021125D01*
X037716Y021128D01*
X03771Y02113D01*
X037707Y021133D01*
X037704Y021133D01*
X037704Y021134D01*
X037699Y02114D01*
X037695Y021148D01*
X037692Y021155D01*
X03769Y021163D01*
X037689Y02117D01*
X037689Y021176D01*
Y021193D01*
X03769Y021206D01*
X037691Y021218D01*
X037693Y021228D01*
X037694Y021237D01*
X037696Y021244D01*
X037697Y021248D01*
X037698Y02125D01*
X037595Y021269D01*
D01*
X037589Y021247D01*
X037584Y021224D01*
X037581Y021203D01*
X037579Y021184D01*
X037578Y021176D01*
X037577Y021168D01*
Y021162D01*
X037576Y021156D01*
Y021269D01*
D01*
Y023384D01*
X03837D01*
Y01915D01*
D02*
G37*
%LPC*%
G36*
X050842Y026487D02*
X050841D01*
X05084D01*
X050838D01*
X050835Y026486D01*
X050831Y026486D01*
X050828Y026485D01*
X050818Y026484D01*
X050808Y026481D01*
X050797Y026477D01*
X050787Y026472D01*
X050778Y026465D01*
X050777Y026464D01*
X050774Y026461D01*
X05077Y026456D01*
X050766Y02645D01*
X050762Y026443D01*
X050758Y026434D01*
X050756Y026424D01*
X050755Y026414D01*
Y02641D01*
X050755Y026408D01*
X050756Y026403D01*
X050758Y026395D01*
X05076Y026386D01*
X050765Y026378D01*
X050771Y026369D01*
X050774Y026365D01*
X050779Y026361D01*
X05078Y02636D01*
X050783Y026358D01*
X050788Y026354D01*
X050795Y02635D01*
X050804Y026347D01*
X050815Y026343D01*
X050828Y026341D01*
X050842Y02634D01*
Y026487D01*
D02*
G37*
G36*
X050914Y025676D02*
X050901D01*
X050881D01*
X050882Y025675D01*
X050883Y025672D01*
X050884Y025668D01*
X050886Y025661D01*
X050888Y025653D01*
X050891Y025642D01*
X050894Y02563D01*
X050897Y025616D01*
Y025615D01*
X050898Y025614D01*
Y025612D01*
X050899Y025609D01*
X0509Y025602D01*
X050902Y025594D01*
X050905Y025585D01*
X050908Y025576D01*
X05091Y025568D01*
X050912Y025565D01*
X050914Y025562D01*
X050914Y025562D01*
X050916Y02556D01*
X050919Y025556D01*
X050923Y025553D01*
X050928Y02555D01*
X050934Y025546D01*
X050941Y025544D01*
X050948Y025543D01*
X050949D01*
X050951D01*
X050955Y025544D01*
X05096Y025545D01*
X050966Y025547D01*
X050972Y02555D01*
X050977Y025553D01*
X050984Y025558D01*
X050984Y025559D01*
X050986Y025561D01*
X050989Y025565D01*
X050991Y025569D01*
X050994Y025575D01*
X050996Y025582D01*
X050998Y025589D01*
X050999Y025598D01*
Y025599D01*
X050998Y025602D01*
X050997Y025607D01*
X050996Y025614D01*
X050994Y025622D01*
X050991Y025631D01*
X050987Y025639D01*
X050981Y025648D01*
X050981Y025649D01*
X050979Y025651D01*
X050976Y025654D01*
X050972Y025658D01*
X050967Y025662D01*
X050962Y025666D01*
X050956Y025669D01*
X050949Y025672D01*
X050949D01*
X050946Y025673D01*
X050943Y025673D01*
X050939Y025674D01*
X050932Y025675D01*
X050924Y025676D01*
X050914Y025676D01*
D02*
G37*
G36*
X050707Y025082D02*
X050706D01*
X050706D01*
X050702D01*
X050697Y025081D01*
X050691Y025079D01*
X050683Y025078D01*
X050676Y025074D01*
X050668Y025071D01*
X050661Y025065D01*
X05066Y025064D01*
X050658Y025062D01*
X050654Y025058D01*
X050651Y025053D01*
X050647Y025048D01*
X050643Y025041D01*
X05064Y025032D01*
X050638Y025023D01*
Y025022D01*
X050637Y02502D01*
X050637Y025017D01*
Y025015D01*
X050636Y025011D01*
X050636Y025007D01*
Y025002D01*
X050635Y024997D01*
Y024991D01*
X050634Y024984D01*
Y024977D01*
X050634Y024968D01*
Y024899D01*
X05078D01*
Y024971D01*
X050779Y024976D01*
X050779Y024989D01*
X050778Y025002D01*
X050777Y025016D01*
X050775Y025022D01*
X050775Y025028D01*
X050773Y025033D01*
X050772Y025037D01*
X050772Y025038D01*
X05077Y025041D01*
X050769Y025045D01*
X050766Y025049D01*
X050762Y025054D01*
X050758Y025059D01*
X050753Y025065D01*
X050747Y025069D01*
X050746Y02507D01*
X050743Y025071D01*
X05074Y025073D01*
X050735Y025076D01*
X050729Y025078D01*
X050723Y02508D01*
X050715Y025081D01*
X050707Y025082D01*
D02*
G37*
G36*
X050884Y024219D02*
X050874D01*
X050873D01*
X050871D01*
X050868D01*
X050865Y024218D01*
X05086D01*
X050855Y024218D01*
X050849Y024216D01*
X050843Y024215D01*
X050829Y024213D01*
X050815Y024208D01*
X050802Y024201D01*
X050795Y024197D01*
X050789Y024193D01*
X050789Y024192D01*
X050788Y024191D01*
X050787Y02419D01*
X050785Y024188D01*
X05078Y024183D01*
X050774Y024175D01*
X050769Y024165D01*
X050764Y024154D01*
X050761Y024142D01*
X05076Y024135D01*
X05076Y024128D01*
Y024124D01*
X05076Y024122D01*
X050761Y024119D01*
X050762Y024115D01*
X050764Y024106D01*
X050767Y024095D01*
X050772Y024085D01*
X050775Y024079D01*
X050779Y024074D01*
X050784Y024069D01*
X050789Y024064D01*
X05079D01*
X05079Y024063D01*
X050793Y024062D01*
X050795Y02406D01*
X050798Y024058D01*
X050802Y024055D01*
X050806Y024053D01*
X050811Y024051D01*
X050816Y024049D01*
X050823Y024047D01*
X05083Y024044D01*
X050838Y024042D01*
X050846Y024041D01*
X050855Y024039D01*
X050864Y024039D01*
X050874Y024038D01*
X050875D01*
X050876D01*
X05088D01*
X050883Y024039D01*
X050888D01*
X050893Y024039D01*
X050899Y024041D01*
X050906Y024042D01*
X050919Y024044D01*
X050934Y024049D01*
X050947Y024055D01*
X050954Y024059D01*
X050959Y024064D01*
X05096Y024064D01*
X05096Y024065D01*
X050962Y024067D01*
X050964Y024068D01*
X050968Y024074D01*
X050974Y024082D01*
X050979Y024091D01*
X050984Y024102D01*
X050987Y024114D01*
X050987Y024121D01*
X050988Y024128D01*
Y024132D01*
X050987Y024135D01*
X050987Y024138D01*
X050986Y024142D01*
X050984Y02415D01*
X050981Y024161D01*
X050976Y024171D01*
X050972Y024177D01*
X050969Y024183D01*
X050964Y024188D01*
X050959Y024193D01*
X050959Y024193D01*
X050957Y024194D01*
X050956Y024195D01*
X050954Y024196D01*
X050951Y024199D01*
X050947Y024201D01*
X050942Y024203D01*
X050937Y024206D01*
X050932Y024208D01*
X050925Y02421D01*
X050918Y024213D01*
X050911Y024215D01*
X050903Y024216D01*
X050894Y024218D01*
X050884Y024219D01*
D02*
G37*
G36*
X050886Y023567D02*
X050875D01*
X050875D01*
X050873D01*
X050869D01*
X050865Y023567D01*
X05086D01*
X050854Y023566D01*
X050847Y023565D01*
X05084Y023564D01*
X050825Y023562D01*
X050809Y023557D01*
X050795Y023552D01*
X050789Y023548D01*
X050783Y023544D01*
X050783D01*
X050782Y023543D01*
X050779Y02354D01*
X050774Y023535D01*
X050769Y023528D01*
X050764Y023519D01*
X050759Y023509D01*
X050756Y023498D01*
X050755Y023492D01*
X050755Y023485D01*
Y023482D01*
X050755Y023479D01*
X050757Y023473D01*
X050758Y023464D01*
X050762Y023456D01*
X050767Y023446D01*
X05077Y023441D01*
X050774Y023436D01*
X050778Y023431D01*
X050783Y023427D01*
X050784D01*
X050784Y023426D01*
X050786Y023424D01*
X050788Y023423D01*
X050792Y023421D01*
X050795Y023419D01*
X050799Y023417D01*
X050804Y023415D01*
X050809Y023413D01*
X050815Y023411D01*
X050823Y023409D01*
X05083Y023407D01*
X050838Y023406D01*
X050846Y023404D01*
X050856Y023404D01*
X050866Y023403D01*
X050866D01*
X050869D01*
X050871D01*
X050875D01*
X05088Y023404D01*
X050886Y023404D01*
X050893D01*
X050899Y023406D01*
X050913Y023407D01*
X050927Y02341D01*
X050941Y023414D01*
X050946Y023417D01*
X050952Y023419D01*
X050952Y02342D01*
X050954Y023421D01*
X050955Y023422D01*
X050958Y023424D01*
X050964Y023429D01*
X050971Y023437D01*
X050978Y023446D01*
X050984Y023457D01*
X050987Y023464D01*
X050989Y023471D01*
X05099Y023478D01*
X05099Y023486D01*
Y023489D01*
X05099Y023491D01*
X050989Y023498D01*
X050987Y023505D01*
X050984Y023514D01*
X050978Y023524D01*
X050975Y023529D01*
X050971Y023534D01*
X050967Y023539D01*
X050962Y023543D01*
X050961Y023544D01*
X050961Y023544D01*
X050959Y023545D01*
X050956Y023547D01*
X050954Y023549D01*
X05095Y023551D01*
X050945Y023553D01*
X05094Y023555D01*
X050935Y023558D01*
X050928Y023559D01*
X050921Y023562D01*
X050913Y023563D01*
X050905Y023565D01*
X050896Y023566D01*
X050886Y023567D01*
D02*
G37*
G36*
X050856Y022644D02*
X050667Y022573D01*
X050856Y022504D01*
Y022644D01*
D02*
G37*
G36*
X03837Y023018D02*
D01*
Y022707D01*
X038369Y022724D01*
X038367Y022741D01*
X038363Y022757D01*
X038358Y022771D01*
X038355Y022783D01*
X038351Y022792D01*
X038349Y022795D01*
X038348Y022799D01*
X038348Y022799D01*
Y0228D01*
X038338Y022817D01*
X038327Y022833D01*
X038314Y022846D01*
X038303Y022859D01*
X038293Y022868D01*
X038283Y022875D01*
X038281Y022878D01*
X038278Y022879D01*
X038277Y022881D01*
X038358D01*
Y023018D01*
X037589D01*
Y02287D01*
X037866D01*
X037852Y022857D01*
X03784Y022844D01*
X037829Y02283D01*
X037821Y022816D01*
X037814Y022803D01*
X037807Y022789D01*
X037802Y022776D01*
X037798Y022764D01*
X037794Y022752D01*
X037792Y022742D01*
X03779Y022733D01*
X037789Y022724D01*
Y022718D01*
X037788Y022713D01*
Y022709D01*
X037789Y02269D01*
X037791Y022672D01*
X037794Y022655D01*
X037799Y022639D01*
X037805Y022624D01*
X037811Y022611D01*
X037818Y022598D01*
X037824Y022586D01*
X037832Y022576D01*
X037839Y022567D01*
X037844Y022559D01*
X03785Y022552D01*
X037855Y022547D01*
X037859Y022544D01*
X037861Y022541D01*
X037862Y02254D01*
X037876Y022529D01*
X037892Y022519D01*
X037909Y022509D01*
X037926Y022502D01*
X037944Y022496D01*
X037962Y02249D01*
X037979Y022486D01*
X037997Y022483D01*
X038013Y02248D01*
X038028Y022478D01*
X038042Y022476D01*
X038053Y022475D01*
X038063D01*
X03807Y022475D01*
X037589D01*
X03837D01*
Y023018D01*
D02*
G37*
G36*
X038358Y022357D02*
X037589D01*
Y02221D01*
X038358D01*
Y022357D01*
D02*
G37*
G36*
X03837Y022089D02*
Y021839D01*
X038369Y021856D01*
X038368Y021871D01*
X038366Y021887D01*
X038363Y021901D01*
X03836Y021915D01*
X038357Y021927D01*
X038353Y021939D01*
X038349Y02195D01*
X038345Y021959D01*
X038342Y021967D01*
X038338Y021975D01*
X038335Y021981D01*
X038333Y021986D01*
X03833Y021989D01*
X038329Y021991D01*
X038328Y021991D01*
X03832Y022002D01*
X038311Y022013D01*
X038291Y022031D01*
X038271Y022047D01*
X038251Y02206D01*
X038242Y022065D01*
X038233Y022069D01*
X038225Y022073D01*
X038218Y022076D01*
X038213Y022078D01*
X038208Y02208D01*
X038206Y022081D01*
X038205D01*
X03818Y021935D01*
X038195Y02193D01*
X038208Y021924D01*
X038218Y021918D01*
X038227Y021911D01*
X038233Y021906D01*
X038238Y021902D01*
X038241Y021899D01*
X038242Y021898D01*
X038248Y021889D01*
X038253Y021879D01*
X038256Y02187D01*
X038258Y021861D01*
X038259Y021852D01*
X03826Y021846D01*
Y021841D01*
X038259Y021831D01*
X038258Y021822D01*
X038254Y021806D01*
X038248Y021791D01*
X038242Y021778D01*
X038236Y021768D01*
X03823Y021761D01*
X038226Y021756D01*
X038224Y021756D01*
Y021755D01*
X038209Y021743D01*
X038193Y021735D01*
X038175Y021729D01*
X038158Y021725D01*
X038144Y021722D01*
X038138Y021721D01*
X038132Y021721D01*
X038128Y02172D01*
X038123D01*
X038122D01*
X038121D01*
Y022089D01*
X03837D01*
X037788D01*
X03809D01*
X038062Y022086D01*
X038035Y022083D01*
X03801Y022079D01*
X037988Y022074D01*
X037968Y022068D01*
X037949Y022062D01*
X037932Y022055D01*
X037918Y022049D01*
X037905Y022042D01*
X037894Y022036D01*
X037885Y022031D01*
X037879Y022026D01*
X037874Y022023D01*
X037871Y022021D01*
X03787Y02202D01*
X037856Y022006D01*
X037843Y021991D01*
X037832Y021975D01*
X037823Y021959D01*
X037814Y021942D01*
X037808Y021926D01*
X037803Y021911D01*
X037798Y021895D01*
X037794Y021881D01*
X037792Y021867D01*
X03779Y021855D01*
X037789Y021845D01*
X037789Y021836D01*
X037788Y02183D01*
Y021824D01*
X037789Y021804D01*
X037791Y021784D01*
X037795Y021766D01*
X0378Y021749D01*
X037806Y021732D01*
X037813Y021717D01*
X03782Y021703D01*
X037827Y021691D01*
X037834Y02168D01*
X037842Y02167D01*
X037849Y021661D01*
X037854Y021654D01*
X037859Y021648D01*
X037864Y021644D01*
X037866Y021641D01*
X037867Y021641D01*
X037882Y021628D01*
X037899Y021617D01*
X037916Y021607D01*
X037934Y021599D01*
X037952Y021592D01*
X03797Y021587D01*
X037988Y021582D01*
X038004Y021578D01*
X038021Y021575D01*
X038035Y021573D01*
X038049Y021572D01*
X038061Y02157D01*
X03807D01*
X038078Y021569D01*
X037788D01*
X03837D01*
Y022089D01*
D02*
G37*
G36*
X038358Y021462D02*
X037589D01*
Y021314D01*
X037725D01*
Y021462D01*
X0378D01*
Y021314D01*
X038358D01*
Y021462D01*
D02*
G37*
G36*
Y020806D02*
X037988D01*
X037968Y020804D01*
X037952Y020804D01*
X037938Y020802D01*
X037927Y0208D01*
X037919Y020799D01*
X037914Y020798D01*
X037913D01*
X0379Y020794D01*
X037889Y020789D01*
X037878Y020785D01*
X037869Y02078D01*
X037861Y020775D01*
X037856Y020772D01*
X037852Y020769D01*
X037851Y020769D01*
X037841Y02076D01*
X037833Y02075D01*
X037824Y02074D01*
X037819Y02073D01*
X037813Y020722D01*
X037809Y020714D01*
X037807Y020709D01*
X037806Y020709D01*
Y020708D01*
X0378Y020693D01*
X037795Y020677D01*
X037792Y020662D01*
X03779Y020649D01*
X037789Y020636D01*
X037788Y020627D01*
Y020619D01*
X037789Y020599D01*
X037792Y020579D01*
X037796Y020561D01*
X037803Y020544D01*
X037809Y020528D01*
X037818Y020513D01*
X037826Y020499D01*
X037835Y020486D01*
X037844Y020474D01*
X037853Y020465D01*
X037861Y020456D01*
X037868Y020449D01*
X037874Y020444D01*
X037879Y020439D01*
X037882Y020437D01*
X037883Y020436D01*
X0378D01*
Y0203D01*
X038358D01*
Y020806D01*
D02*
G37*
G36*
Y02022D02*
D01*
X037589Y019912D01*
Y019747D01*
X038358Y019448D01*
Y019612D01*
X038183Y019676D01*
Y019984D01*
X038358Y020051D01*
Y019676D01*
Y02022D01*
D02*
G37*
%LPD*%
G36*
X038112Y022869D02*
X038125Y022868D01*
X038138Y022865D01*
X038149Y022863D01*
X03816Y022859D01*
X03817Y022857D01*
X038178Y022854D01*
X038186Y02285D01*
X038193Y022847D01*
X038198Y022844D01*
X038203Y022841D01*
X038206Y022839D01*
X038209Y022837D01*
X03821Y022836D01*
X038211Y022835D01*
X038218Y022829D01*
X038225Y022821D01*
X038231Y022814D01*
X038235Y022807D01*
X038243Y022792D01*
X038248Y022779D01*
X038251Y022767D01*
X038253Y022757D01*
X038253Y022754D01*
Y022749D01*
X038253Y022737D01*
X038251Y022726D01*
X038248Y022716D01*
X038244Y022706D01*
X038235Y022689D01*
X038224Y022675D01*
X038214Y022664D01*
X038205Y022656D01*
X038201Y022654D01*
X038198Y022651D01*
X038197Y02265D01*
X038196Y022649D01*
X038188Y022645D01*
X038179Y022641D01*
X038158Y022635D01*
X038138Y022631D01*
X038116Y022629D01*
X038107Y022627D01*
X038097D01*
X038088Y022626D01*
X038081Y022625D01*
X038075D01*
X038071D01*
X038068D01*
X038067D01*
X038052Y022626D01*
X038038Y022627D01*
X038024Y022629D01*
X038013Y022631D01*
X038002Y022634D01*
X037991Y022636D01*
X037982Y022639D01*
X037973Y022643D01*
X037967Y022646D01*
X03796Y022649D01*
X037955Y022652D01*
X03795Y022654D01*
X037947Y022657D01*
X037944Y022659D01*
X037943Y02266D01*
X037943D01*
X037935Y022667D01*
X037929Y022674D01*
X037923Y022681D01*
X037918Y022689D01*
X03791Y022704D01*
X037905Y022717D01*
X037903Y022729D01*
X037901Y022739D01*
X0379Y022743D01*
Y022748D01*
X037901Y022758D01*
X037902Y022767D01*
X037907Y022784D01*
X037914Y022799D01*
X037921Y022812D01*
X037929Y022823D01*
X037936Y02283D01*
X037941Y022834D01*
X037942Y022836D01*
X037943D01*
X037951Y022842D01*
X037961Y022848D01*
X037982Y022856D01*
X038005Y022863D01*
X038028Y022867D01*
X038038Y022869D01*
X038048Y022869D01*
X038058Y02287D01*
X038065D01*
X038072Y022871D01*
X038077D01*
X03808D01*
X038081D01*
X038097D01*
X038112Y022869D01*
D02*
G37*
G36*
X03837Y022475D02*
X038077D01*
X038102Y022475D01*
X038126Y022478D01*
X038148Y022481D01*
X038169Y022485D01*
X038188Y02249D01*
X038207Y022496D01*
X038223Y022502D01*
X038238Y022509D01*
X03825Y022515D01*
X038262Y022521D01*
X038271Y022527D01*
X038279Y022532D01*
X038285Y022536D01*
X03829Y02254D01*
X038293Y022542D01*
X038293Y022543D01*
X038307Y022556D01*
X038318Y022569D01*
X038329Y022584D01*
X038338Y022597D01*
X038345Y022611D01*
X038352Y022624D01*
X038357Y022638D01*
X03836Y02265D01*
X038363Y022662D01*
X038366Y022673D01*
X038368Y022683D01*
X038369Y022691D01*
Y022698D01*
X03837Y022703D01*
Y022475D01*
D02*
G37*
G36*
X038031Y021722D02*
X038009Y021723D01*
X037991Y021726D01*
X037974Y021731D01*
X037961Y021737D01*
X03795Y021743D01*
X037943Y021748D01*
X037938Y021751D01*
X037936Y021753D01*
X037929Y021759D01*
X037924Y021766D01*
X037915Y021778D01*
X037909Y021791D01*
X037904Y021804D01*
X037902Y021816D01*
X037901Y021824D01*
X0379Y021827D01*
Y021832D01*
X037902Y021848D01*
X037905Y021863D01*
X037911Y021876D01*
X037917Y021887D01*
X037924Y021896D01*
X037929Y021903D01*
X037933Y021907D01*
X037934Y021909D01*
X037948Y02192D01*
X037964Y021927D01*
X037979Y021933D01*
X037995Y021937D01*
X038009Y02194D01*
X038015Y021941D01*
X03802Y021941D01*
X038025Y021942D01*
X038028D01*
X03803D01*
X038031D01*
Y021722D01*
D02*
G37*
G36*
X03837Y021569D02*
X038083D01*
X038104Y02157D01*
X038125Y021572D01*
X038144Y021574D01*
X038163Y021577D01*
X038179Y021582D01*
X038195Y021587D01*
X03821Y021592D01*
X038223Y021597D01*
X038235Y021602D01*
X038246Y021607D01*
X038254Y021612D01*
X038262Y021616D01*
X038268Y021619D01*
X038273Y021622D01*
X038275Y021623D01*
X038276Y021624D01*
X038293Y021638D01*
X038307Y021653D01*
X038319Y02167D01*
X03833Y021686D01*
X038339Y021705D01*
X038347Y021722D01*
X038353Y02174D01*
X038358Y021757D01*
X038363Y021774D01*
X038365Y021789D01*
X038368Y021803D01*
X038368Y021815D01*
X038369Y021825D01*
X03837Y021832D01*
Y021569D01*
D02*
G37*
G36*
X038358Y020447D02*
X038105D01*
X038088D01*
X038073Y020448D01*
X038058D01*
X038046Y020449D01*
X038034Y020449D01*
X038023Y02045D01*
X038014Y020451D01*
X038006Y020453D01*
X037999Y020454D01*
X037993Y020454D01*
X037988Y020455D01*
X037984Y020456D01*
X037981Y020457D01*
X037979D01*
X037978Y020458D01*
X037965Y020463D01*
X037954Y020469D01*
X037944Y020475D01*
X037937Y020482D01*
X03793Y020489D01*
X037926Y020494D01*
X037923Y020497D01*
X037922Y020499D01*
X037914Y02051D01*
X037909Y020523D01*
X037905Y020534D01*
X037903Y020544D01*
X037901Y020554D01*
X0379Y020561D01*
Y020568D01*
X037901Y020579D01*
X037903Y020588D01*
X037905Y020596D01*
X037908Y020604D01*
X03791Y020609D01*
X037913Y020614D01*
X037914Y020617D01*
X037915Y020618D01*
X037921Y020625D01*
X037928Y020632D01*
X037935Y020637D01*
X037942Y020641D01*
X037948Y020644D01*
X037953Y020647D01*
X037956Y020649D01*
X037957D01*
X037963Y02065D01*
X037969Y020652D01*
X037977Y020654D01*
X037986Y020654D01*
X038005Y020656D01*
X038025Y020658D01*
X038043D01*
X038052Y020659D01*
X038058D01*
X038065D01*
X038069D01*
X038073D01*
X038073D01*
X038358D01*
Y020447D01*
D02*
G37*
G36*
X038053Y019724D02*
X037768Y019828D01*
X038053Y019935D01*
Y019724D01*
D02*
G37*
D10*
X046071Y0272D02*
G03*
X046071Y0272I-000051J0D01*
G01*
X047015Y02705D02*
G03*
X047265Y02705I000125J0D01*
G01*
X04968Y01985D02*
G03*
X04968Y01985I-005315J0D01*
G01*
X042187Y026552D02*
Y026737D01*
X042187Y026737D01*
X042002D02*
X042187D01*
X042187Y025163D02*
Y025348D01*
X042002Y025163D02*
X042187D01*
X040613D02*
X040798D01*
X040613Y025163D02*
X040613Y025163D01*
X040613Y025163D02*
Y025348D01*
X040691Y026737D02*
X040798D01*
X040613Y026659D02*
X040691Y026737D01*
X040613Y026552D02*
Y026659D01*
X044378Y03362D02*
X045362D01*
X044378Y034801D02*
X045362D01*
X04356Y03931D02*
Y04001D01*
X04456Y03931D02*
X04506D01*
X04456Y04001D02*
X04506D01*
X04356D02*
X04406D01*
X04356Y03931D02*
X04406D01*
X04506Y03981D02*
X04521Y03966D01*
X04506Y03951D02*
X04521Y03966D01*
X04506Y03931D02*
Y04001D01*
X04379Y036086D02*
X043932D01*
X043789Y037275D02*
X043932D01*
X044828Y037274D02*
X04497D01*
X044828Y036085D02*
X044971D01*
Y037274D01*
X043789Y036086D02*
X04379Y036086D01*
X043789Y036086D02*
Y037275D01*
X04643Y02705D02*
X047D01*
X047275D02*
X04787D01*
Y02518D02*
Y02705D01*
X04643Y02518D02*
X04787D01*
X04643D02*
Y02705D01*
X05024Y03778D02*
X05084D01*
X05024Y03679D02*
X05084D01*
X04265Y03734D02*
X04291D01*
Y03744D01*
X03939Y03734D02*
X03965D01*
X03939D02*
Y03744D01*
X03939Y04004D02*
Y04057D01*
X04291Y04004D02*
Y04057D01*
X03939Y03839D02*
Y03909D01*
X03939Y04057D02*
X04291D01*
Y03839D02*
Y03909D01*
X049763Y038215D02*
Y03979D01*
Y038215D02*
X051337D01*
Y03979D01*
X049763D02*
X051337D01*
X049763Y013815D02*
Y01539D01*
Y013815D02*
X051337D01*
Y01539D01*
X049763D02*
X051337D01*
X03737Y013815D02*
Y01539D01*
Y013815D02*
X038945D01*
Y01539D01*
X03737D02*
X038945D01*
X038353Y026679D02*
Y026815D01*
X039337Y026679D02*
Y026815D01*
X050058Y032553D02*
Y032688D01*
X051042Y032553D02*
Y032688D01*
X038922Y028572D02*
X039064D01*
X038922Y028572D02*
X038922Y028572D01*
X038922Y028572D02*
Y028713D01*
X038922Y031186D02*
Y031328D01*
X038922Y031328D01*
X039063D01*
X041536Y031328D02*
X041678D01*
X041678Y031328D01*
Y031188D02*
Y031328D01*
Y028572D02*
Y028714D01*
X041678Y028572D02*
X041678Y028572D01*
X041537Y028572D02*
X041678D01*
X05024Y03541D02*
X05084D01*
X05024Y0364D02*
X05084D01*
X048109Y040495D02*
Y040889D01*
X046691D02*
X048109D01*
X046691Y040528D02*
Y040889D01*
X04616Y040495D02*
X04864D01*
X04616Y040102D02*
Y040495D01*
X04864Y040102D02*
Y040495D01*
Y037267D02*
Y039236D01*
X04616Y038763D02*
Y039236D01*
Y036598D02*
Y037897D01*
Y035417D02*
Y035732D01*
Y035417D02*
X04864D01*
Y035535D01*
X036628Y034485D02*
X037416D01*
X036628D02*
Y035271D01*
X037416Y033927D02*
X038794D01*
Y037273D01*
X037416D02*
X038794D01*
X037416Y033927D02*
Y037273D01*
X036628Y035271D02*
X037416D01*
X036843Y034485D02*
Y035248D01*
X03737Y038215D02*
Y03979D01*
Y038215D02*
X038945D01*
Y03979D01*
X03737D02*
X038945D01*
D11*
X040432Y034767D02*
G03*
X040432Y034767I-000049J0D01*
G01*
D12*
X040534Y026816D02*
D03*
X044181Y034801D02*
D03*
X043671Y035971D02*
D03*
X046128Y032832D02*
D03*
X038804Y028454D02*
D03*
D13*
X044365Y01985D02*
D03*
D14*
X049244Y030563D02*
Y030877D01*
Y031063D02*
Y031377D01*
X044584Y033173D02*
Y033487D01*
X044963Y035484D02*
X045277D01*
X043596Y035453D02*
Y035767D01*
X046194Y033003D02*
Y033317D01*
X045663Y030834D02*
X045977D01*
X045663Y032196D02*
X045977D01*
X046164Y033983D02*
Y034297D01*
X041937Y036502D02*
X042252D01*
X038884Y025593D02*
Y025907D01*
X037853Y026894D02*
X038167D01*
X049503Y032486D02*
X049817D01*
X049043D02*
X049357D01*
X048833Y026566D02*
X049147D01*
X047536Y027663D02*
Y027977D01*
Y028144D02*
Y028458D01*
X048233Y029596D02*
X048547D01*
X047733D02*
X048047D01*
X047233D02*
X047547D01*
X04628Y032743D02*
X046433D01*
X046217Y032527D02*
Y03268D01*
X04628Y032743D01*
X046217Y030657D02*
Y030873D01*
Y030657D02*
X046433D01*
X048303Y030657D02*
Y030873D01*
X048087Y030657D02*
X048303D01*
X048087Y032743D02*
X048303D01*
Y032527D02*
Y032743D01*
X048431Y034583D02*
Y034897D01*
X047366Y034583D02*
Y034897D01*
X040493Y034657D02*
X040682D01*
X040493Y034472D02*
Y034657D01*
Y033397D02*
Y033589D01*
Y033397D02*
X040686D01*
X041564D02*
X041753D01*
Y033586D01*
X041571Y034661D02*
X041749D01*
X041753Y034468D02*
Y034657D01*
X042574Y033863D02*
Y034177D01*
Y034363D02*
Y034677D01*
X041433Y036504D02*
X041747D01*
X040073Y036502D02*
X040387D01*
X040943Y036504D02*
X041257D01*
X04327Y03924D02*
X04527D01*
X04327Y03824D02*
Y03924D01*
Y03824D02*
X04527D01*
Y03924D01*
X048913Y037804D02*
X049227D01*
X045603Y037296D02*
X045917D01*
D15*
X03813Y03334D02*
Y03364D01*
X03828D01*
X03833Y03359D01*
Y03349D01*
X03828Y03344D01*
X03813D01*
X03823D02*
X03833Y03334D01*
X03843Y03364D02*
X03863Y03334D01*
Y03364D02*
X03843Y03334D01*
X03785Y03157D02*
X0378Y03162D01*
X0377D01*
X03765Y03157D01*
Y03137D01*
X0377Y03132D01*
X0378D01*
X03785Y03137D01*
Y03147D01*
X03775D01*
X03795Y03132D02*
Y03162D01*
X03815Y03132D01*
Y03162D01*
X03825D02*
Y03132D01*
X0384D01*
X03845Y03137D01*
Y03157D01*
X0384Y03162D01*
X03825D01*
X03965Y03254D02*
Y03224D01*
X0398D01*
X03985Y03229D01*
Y03249D01*
X0398Y03254D01*
X03965D01*
X03995D02*
X04005D01*
X04D01*
Y03224D01*
X03995D01*
X04005D01*
X04035Y03254D02*
X04025D01*
X0402Y03249D01*
Y03229D01*
X04025Y03224D01*
X04035D01*
X0404Y03229D01*
Y03249D01*
X04035Y03254D01*
X03924Y03304D02*
X03919Y03309D01*
X03909D01*
X03904Y03304D01*
Y03284D01*
X03909Y03279D01*
X03919D01*
X03924Y03284D01*
X03934Y03309D02*
Y03279D01*
X03954D01*
X03964Y03309D02*
Y03279D01*
Y03289D01*
X03984Y03309D01*
X03969Y03294D01*
X03984Y03279D01*
X03801Y03238D02*
X03821D01*
X03811D01*
Y03208D01*
X03831Y03238D02*
X03851Y03208D01*
Y03238D02*
X03831Y03208D01*
X04346Y03803D02*
X04366D01*
X04356Y03813D02*
Y03793D01*
X04641Y02757D02*
Y02732D01*
X04646Y02727D01*
X04656D01*
X04661Y02732D01*
Y02757D01*
X04671D02*
X04691D01*
Y02752D01*
X04671Y02732D01*
Y02727D01*
X04606Y03522D02*
X04596D01*
X04601D01*
Y03497D01*
X04596Y03492D01*
X04591D01*
X04586Y03497D01*
X04616Y03492D02*
Y03522D01*
X04631D01*
X04636Y03517D01*
Y03507D01*
X04631Y03502D01*
X04616D01*
X04646Y03492D02*
X04656D01*
X04651D01*
Y03522D01*
X04646Y03517D01*
X03983Y0265D02*
Y02625D01*
X03988Y0262D01*
X03998D01*
X04003Y02625D01*
Y0265D01*
X04013Y02645D02*
X04018Y0265D01*
X04028D01*
X04033Y02645D01*
Y0264D01*
X04028Y02635D01*
X04033Y0263D01*
Y02625D01*
X04028Y0262D01*
X04018D01*
X04013Y02625D01*
Y0263D01*
X04018Y02635D01*
X04013Y0264D01*
Y02645D01*
X04018Y02635D02*
X04028D01*
X04429Y03527D02*
Y03502D01*
X04434Y03497D01*
X04444D01*
X04449Y03502D01*
Y03527D01*
X04479D02*
X04469Y03522D01*
X04459Y03512D01*
Y03502D01*
X04464Y03497D01*
X04474D01*
X04479Y03502D01*
Y03507D01*
X04474Y03512D01*
X04459D01*
X04316Y03724D02*
Y03699D01*
X04321Y03694D01*
X04331D01*
X04336Y03699D01*
Y03724D01*
X04366Y03694D02*
X04346D01*
X04366Y03714D01*
Y03719D01*
X04361Y03724D01*
X04351D01*
X04346Y03719D01*
X04324Y03317D02*
Y03347D01*
X04339D01*
X04344Y03342D01*
Y03332D01*
X04339Y03327D01*
X04324D01*
X04334D02*
X04344Y03317D01*
X04354Y03342D02*
X04359Y03347D01*
X04369D01*
X04374Y03342D01*
Y03337D01*
X04369Y03332D01*
X04364D01*
X04369D01*
X04374Y03327D01*
Y03322D01*
X04369Y03317D01*
X04359D01*
X04354Y03322D01*
X04384D02*
X04389Y03317D01*
X04399D01*
X04404Y03322D01*
Y03342D01*
X04399Y03347D01*
X04389D01*
X04384Y03342D01*
Y03337D01*
X04389Y03332D01*
X04404D01*
X04227Y03545D02*
Y03575D01*
X04242D01*
X04247Y0357D01*
Y0356D01*
X04242Y03555D01*
X04227D01*
X04237D02*
X04247Y03545D01*
X04277D02*
X04257D01*
X04277Y03565D01*
Y0357D01*
X04272Y03575D01*
X04262D01*
X04257Y0357D01*
X04287D02*
X04292Y03575D01*
X04302D01*
X04307Y0357D01*
Y03565D01*
X04302Y0356D01*
X04307Y03555D01*
Y0355D01*
X04302Y03545D01*
X04292D01*
X04287Y0355D01*
Y03555D01*
X04292Y0356D01*
X04287Y03565D01*
Y0357D01*
X04292Y0356D02*
X04302D01*
X0498Y03107D02*
Y03137D01*
X04995D01*
X05Y03132D01*
Y03122D01*
X04995Y03117D01*
X0498D01*
X0499D02*
X05Y03107D01*
X0503D02*
X0501D01*
X0503Y03127D01*
Y03132D01*
X05025Y03137D01*
X05015D01*
X0501Y03132D01*
X0504Y03137D02*
X0506D01*
Y03132D01*
X0504Y03112D01*
Y03107D01*
X04885Y03013D02*
Y03043D01*
X049D01*
X04905Y03038D01*
Y03028D01*
X049Y03023D01*
X04885D01*
X04895D02*
X04905Y03013D01*
X04935D02*
X04915D01*
X04935Y03033D01*
Y03038D01*
X0493Y03043D01*
X0492D01*
X04915Y03038D01*
X04965Y03043D02*
X04955Y03038D01*
X04945Y03028D01*
Y03018D01*
X0495Y03013D01*
X0496D01*
X04965Y03018D01*
Y03023D01*
X0496Y03028D01*
X04945D01*
X04312Y03935D02*
X04342D01*
Y03955D01*
X04312Y03965D02*
X04342D01*
Y0398D01*
X04337Y03985D01*
X04317D01*
X04312Y0398D01*
Y03965D01*
X04342Y03995D02*
Y04005D01*
Y04D01*
X04312D01*
X04317Y03995D01*
X04566Y03555D02*
X04571Y0356D01*
Y0357D01*
X04566Y03575D01*
X04546D01*
X04541Y0357D01*
Y0356D01*
X04546Y03555D01*
X04566Y03545D02*
X04571Y0354D01*
Y0353D01*
X04566Y03525D01*
X04561D01*
X04556Y0353D01*
Y03535D01*
Y0353D01*
X04551Y03525D01*
X04546D01*
X04541Y0353D01*
Y0354D01*
X04546Y03545D01*
X04571Y03515D02*
Y03495D01*
X04566D01*
X04546Y03515D01*
X04541D01*
X0392Y02832D02*
Y02807D01*
X03925Y02802D01*
X03935D01*
X0394Y02807D01*
Y02832D01*
X0395Y02827D02*
X03955Y02832D01*
X03965D01*
X0397Y02827D01*
Y02822D01*
X03965Y02817D01*
X0396D01*
X03965D01*
X0397Y02812D01*
Y02807D01*
X03965Y02802D01*
X03955D01*
X0395Y02807D01*
X04804Y03416D02*
Y03446D01*
X04819D01*
X04824Y03441D01*
Y03431D01*
X04819Y03426D01*
X04804D01*
X04814D02*
X04824Y03416D01*
X04854D02*
X04834D01*
X04854Y03436D01*
Y03441D01*
X04849Y03446D01*
X04839D01*
X04834Y03441D01*
X04884Y03416D02*
X04864D01*
X04884Y03436D01*
Y03441D01*
X04879Y03446D01*
X04869D01*
X04864Y03441D01*
X04958Y02678D02*
X04963Y02683D01*
Y02693D01*
X04958Y02698D01*
X04938D01*
X04933Y02693D01*
Y02683D01*
X04938Y02678D01*
X04958Y02668D02*
X04963Y02663D01*
Y02653D01*
X04958Y02648D01*
X04953D01*
X04948Y02653D01*
Y02658D01*
Y02653D01*
X04943Y02648D01*
X04938D01*
X04933Y02653D01*
Y02663D01*
X04938Y02668D01*
X04958Y02638D02*
X04963Y02633D01*
Y02623D01*
X04958Y02618D01*
X04953D01*
X04948Y02623D01*
X04943Y02618D01*
X04938D01*
X04933Y02623D01*
Y02633D01*
X04938Y02638D01*
X04943D01*
X04948Y02633D01*
X04953Y02638D01*
X04958D01*
X04948Y02633D02*
Y02623D01*
X04899Y03857D02*
X04894Y03862D01*
X04884D01*
X04879Y03857D01*
Y03837D01*
X04884Y03832D01*
X04894D01*
X04899Y03837D01*
X04909Y03857D02*
X04914Y03862D01*
X04924D01*
X04929Y03857D01*
Y03852D01*
X04924Y03847D01*
X04919D01*
X04924D01*
X04929Y03842D01*
Y03837D01*
X04924Y03832D01*
X04914D01*
X04909Y03837D01*
X04959Y03862D02*
X04949Y03857D01*
X04939Y03847D01*
Y03837D01*
X04944Y03832D01*
X04954D01*
X04959Y03837D01*
Y03842D01*
X04954Y03847D01*
X04939D01*
X0452Y0371D02*
X04515Y03705D01*
Y03695D01*
X0452Y0369D01*
X0454D01*
X04545Y03695D01*
Y03705D01*
X0454Y0371D01*
X0452Y0372D02*
X04515Y03725D01*
Y03735D01*
X0452Y0374D01*
X04525D01*
X0453Y03735D01*
Y0373D01*
Y03735D01*
X04535Y0374D01*
X0454D01*
X04545Y03735D01*
Y03725D01*
X0454Y0372D01*
X04515Y0377D02*
Y0375D01*
X0453D01*
X04525Y0376D01*
Y03765D01*
X0453Y0377D01*
X0454D01*
X04545Y03765D01*
Y03755D01*
X0454Y0375D01*
X04538Y03292D02*
X04533Y03287D01*
Y03277D01*
X04538Y03272D01*
X04558D01*
X04563Y03277D01*
Y03287D01*
X04558Y03292D01*
X04563Y03322D02*
Y03302D01*
X04543Y03322D01*
X04538D01*
X04533Y03317D01*
Y03307D01*
X04538Y03302D01*
X04533Y03352D02*
Y03332D01*
X04548D01*
X04543Y03342D01*
Y03347D01*
X04548Y03352D01*
X04558D01*
X04563Y03347D01*
Y03337D01*
X04558Y03332D01*
X04832Y02791D02*
X04827Y02796D01*
X04817D01*
X04812Y02791D01*
Y02771D01*
X04817Y02766D01*
X04827D01*
X04832Y02771D01*
X04862Y02766D02*
X04842D01*
X04862Y02786D01*
Y02791D01*
X04857Y02796D01*
X04847D01*
X04842Y02791D01*
X04872Y02766D02*
X04882D01*
X04877D01*
Y02796D01*
X04872Y02791D01*
X04735Y02885D02*
X0473Y0289D01*
X0472D01*
X04715Y02885D01*
Y02865D01*
X0472Y0286D01*
X0473D01*
X04735Y02865D01*
X04765Y0286D02*
X04745D01*
X04765Y0288D01*
Y02885D01*
X0476Y0289D01*
X0475D01*
X04745Y02885D01*
X04775D02*
X0478Y0289D01*
X0479D01*
X04795Y02885D01*
Y02865D01*
X0479Y0286D01*
X0478D01*
X04775Y02865D01*
Y02885D01*
X04697Y03416D02*
Y03446D01*
X04712D01*
X04717Y03441D01*
Y03431D01*
X04712Y03426D01*
X04697D01*
X04707D02*
X04717Y03416D01*
X04747D02*
X04727D01*
X04747Y03436D01*
Y03441D01*
X04742Y03446D01*
X04732D01*
X04727Y03441D01*
X04757D02*
X04762Y03446D01*
X04772D01*
X04777Y03441D01*
Y03436D01*
X04772Y03431D01*
X04767D01*
X04772D01*
X04777Y03426D01*
Y03421D01*
X04772Y03416D01*
X04762D01*
X04757Y03421D01*
X0471Y02923D02*
X0468D01*
Y02938D01*
X04685Y02943D01*
X04695D01*
X047Y02938D01*
Y02923D01*
Y02933D02*
X0471Y02943D01*
Y02973D02*
Y02953D01*
X0469Y02973D01*
X04685D01*
X0468Y02968D01*
Y02958D01*
X04685Y02953D01*
X0471Y02983D02*
Y02993D01*
Y02988D01*
X0468D01*
X04685Y02983D01*
X0474Y03014D02*
Y03044D01*
X04755D01*
X0476Y03039D01*
Y03029D01*
X04755Y03024D01*
X0474D01*
X0475D02*
X0476Y03014D01*
X0479D02*
X0477D01*
X0479Y03034D01*
Y03039D01*
X04785Y03044D01*
X04775D01*
X0477Y03039D01*
X048D02*
X04805Y03044D01*
X04815D01*
X0482Y03039D01*
Y03019D01*
X04815Y03014D01*
X04805D01*
X048Y03019D01*
Y03039D01*
X048705Y02945D02*
Y02975D01*
X048855D01*
X048905Y0297D01*
Y0296D01*
X048855Y02955D01*
X048705D01*
X048805D02*
X048905Y02945D01*
X049005D02*
X049105D01*
X049055D01*
Y02975D01*
X049005Y0297D01*
X049255Y0295D02*
X049305Y02945D01*
X049405D01*
X049455Y0295D01*
Y0297D01*
X049405Y02975D01*
X049305D01*
X049255Y0297D01*
Y02965D01*
X049305Y0296D01*
X049455D01*
X04144Y035975D02*
X04174D01*
Y035825D01*
X04169Y035775D01*
X04159D01*
X04154Y035825D01*
Y035975D01*
Y035875D02*
X04144Y035775D01*
Y035675D02*
Y035575D01*
Y035625D01*
X04174D01*
X04169Y035675D01*
Y035425D02*
X04174Y035375D01*
Y035275D01*
X04169Y035225D01*
X04149D01*
X04144Y035275D01*
Y035375D01*
X04149Y035425D01*
X04169D01*
X04094Y03597D02*
X04124D01*
Y03582D01*
X04119Y03577D01*
X04109D01*
X04104Y03582D01*
Y03597D01*
Y03587D02*
X04094Y03577D01*
X04099Y03567D02*
X04094Y03562D01*
Y03552D01*
X04099Y03547D01*
X04119D01*
X04124Y03552D01*
Y03562D01*
X04119Y03567D01*
X04114D01*
X04109Y03562D01*
Y03547D01*
X04312Y03386D02*
Y03416D01*
X04327D01*
X04332Y03411D01*
Y03401D01*
X04327Y03396D01*
X04312D01*
X04322D02*
X04332Y03386D01*
X04362Y03416D02*
X04352Y03411D01*
X04342Y03401D01*
Y03391D01*
X04347Y03386D01*
X04357D01*
X04362Y03391D01*
Y03396D01*
X04357Y03401D01*
X04342D01*
X04312Y03435D02*
Y03465D01*
X04327D01*
X04332Y0346D01*
Y0345D01*
X04327Y03445D01*
X04312D01*
X04322D02*
X04332Y03435D01*
X04362D02*
X04342D01*
X04362Y03455D01*
Y0346D01*
X04357Y03465D01*
X04347D01*
X04342Y0346D01*
X04951Y03182D02*
X04946Y03187D01*
X04936D01*
X04931Y03182D01*
Y03162D01*
X04936Y03157D01*
X04946D01*
X04951Y03162D01*
X04961Y03182D02*
X04966Y03187D01*
X04976D01*
X04981Y03182D01*
Y03177D01*
X04976Y03172D01*
X04971D01*
X04976D01*
X04981Y03167D01*
Y03162D01*
X04976Y03157D01*
X04966D01*
X04961Y03162D01*
X05006Y03157D02*
Y03187D01*
X04991Y03172D01*
X05011D01*
X04495Y03092D02*
X0449Y03097D01*
X0448D01*
X04475Y03092D01*
Y03072D01*
X0448Y03067D01*
X0449D01*
X04495Y03072D01*
X04525Y03067D02*
X04505D01*
X04525Y03087D01*
Y03092D01*
X0452Y03097D01*
X0451D01*
X04505Y03092D01*
X0455Y03067D02*
Y03097D01*
X04535Y03082D01*
X04555D01*
X044932Y032126D02*
X044882Y032176D01*
X044782D01*
X044732Y032126D01*
Y031926D01*
X044782Y031876D01*
X044882D01*
X044932Y031926D01*
X045232Y031876D02*
X045032D01*
X045232Y032076D01*
Y032126D01*
X045182Y032176D01*
X045082D01*
X045032Y032126D01*
X045332D02*
X045382Y032176D01*
X045482D01*
X045532Y032126D01*
Y032076D01*
X045482Y032026D01*
X045432D01*
X045482D01*
X045532Y031976D01*
Y031926D01*
X045482Y031876D01*
X045382D01*
X045332Y031926D01*
X04866Y03229D02*
X04861Y03224D01*
Y03214D01*
X04866Y03209D01*
X04886D01*
X04891Y03214D01*
Y03224D01*
X04886Y03229D01*
X04891Y03259D02*
Y03239D01*
X04871Y03259D01*
X04866D01*
X04861Y03254D01*
Y03244D01*
X04866Y03239D01*
X04891Y03289D02*
Y03269D01*
X04871Y03289D01*
X04866D01*
X04861Y03284D01*
Y03274D01*
X04866Y03269D01*
X042595Y03661D02*
X042545Y03666D01*
X042445D01*
X042395Y03661D01*
Y03641D01*
X042445Y03636D01*
X042545D01*
X042595Y03641D01*
X042695Y03636D02*
X042795D01*
X042745D01*
Y03666D01*
X042695Y03661D01*
X042945Y03641D02*
X042995Y03636D01*
X043095D01*
X043145Y03641D01*
Y03661D01*
X043095Y03666D01*
X042995D01*
X042945Y03661D01*
Y03656D01*
X042995Y03651D01*
X043145D01*
X039365Y03655D02*
X039315Y0366D01*
X039215D01*
X039165Y03655D01*
Y03635D01*
X039215Y0363D01*
X039315D01*
X039365Y03635D01*
X039465Y0363D02*
X039565D01*
X039515D01*
Y0366D01*
X039465Y03655D01*
X039715D02*
X039765Y0366D01*
X039865D01*
X039915Y03655D01*
Y0365D01*
X039865Y03645D01*
X039915Y0364D01*
Y03635D01*
X039865Y0363D01*
X039765D01*
X039715Y03635D01*
Y0364D01*
X039765Y03645D01*
X039715Y0365D01*
Y03655D01*
X039765Y03645D02*
X039865D01*
X037765Y02583D02*
X037715Y02588D01*
X037615D01*
X037565Y02583D01*
Y02563D01*
X037615Y02558D01*
X037715D01*
X037765Y02563D01*
X037865Y02558D02*
X037965D01*
X037915D01*
Y02588D01*
X037865Y02583D01*
X038115Y02588D02*
X038315D01*
Y02583D01*
X038115Y02563D01*
Y02558D01*
X03746Y026705D02*
X03741Y026655D01*
Y026555D01*
X03746Y026505D01*
X03766D01*
X03771Y026555D01*
Y026655D01*
X03766Y026705D01*
X03771Y026805D02*
Y026905D01*
Y026855D01*
X03741D01*
X03746Y026805D01*
X03741Y027255D02*
X03746Y027155D01*
X03756Y027055D01*
X03766D01*
X03771Y027105D01*
Y027205D01*
X03766Y027255D01*
X03761D01*
X03756Y027205D01*
Y027055D01*
X0461Y03381D02*
X04605Y03386D01*
X04595D01*
X0459Y03381D01*
Y03361D01*
X04595Y03356D01*
X04605D01*
X0461Y03361D01*
X0462Y03381D02*
X04625Y03386D01*
X04635D01*
X0464Y03381D01*
Y03376D01*
X04635Y03371D01*
X0464Y03366D01*
Y03361D01*
X04635Y03356D01*
X04625D01*
X0462Y03361D01*
Y03366D01*
X04625Y03371D01*
X0462Y03376D01*
Y03381D01*
X04625Y03371D02*
X04635D01*
X03842Y03778D02*
Y03808D01*
X03857D01*
X03862Y03803D01*
Y03793D01*
X03857Y03788D01*
X03842D01*
X03887Y03778D02*
Y03808D01*
X03872Y03793D01*
X03892D01*
X03742Y01562D02*
Y01592D01*
X03757D01*
X03762Y01587D01*
Y01577D01*
X03757Y01572D01*
X03742D01*
X03772Y01587D02*
X03777Y01592D01*
X03787D01*
X03792Y01587D01*
Y01582D01*
X03787Y01577D01*
X03782D01*
X03787D01*
X03792Y01572D01*
Y01567D01*
X03787Y01562D01*
X03777D01*
X03772Y01567D01*
X04981Y01563D02*
Y01593D01*
X04996D01*
X05001Y01588D01*
Y01578D01*
X04996Y01573D01*
X04981D01*
X05031Y01563D02*
X05011D01*
X05031Y01583D01*
Y01588D01*
X05026Y01593D01*
X05016D01*
X05011Y01588D01*
X04918Y03897D02*
Y03927D01*
X04933D01*
X04938Y03922D01*
Y03912D01*
X04933Y03907D01*
X04918D01*
X04948Y03897D02*
X04958D01*
X04953D01*
Y03927D01*
X04948Y03922D01*
X03929Y02356D02*
X03924Y02361D01*
X03914D01*
X03909Y02356D01*
Y02351D01*
X03914Y02346D01*
X03924D01*
X03929Y02341D01*
Y02336D01*
X03924Y02331D01*
X03914D01*
X03909Y02336D01*
X03939Y02361D02*
Y02331D01*
X03949Y02341D01*
X03959Y02331D01*
Y02361D01*
X03989Y02331D02*
X03969D01*
X03989Y02351D01*
Y02356D01*
X03984Y02361D01*
X03974D01*
X03969Y02356D01*
X05002Y03375D02*
X05022Y03345D01*
Y03375D02*
X05002Y03345D01*
X05032Y03375D02*
X05052D01*
X05042D01*
Y03345D01*
X05082D02*
X05062D01*
X05082Y03365D01*
Y0337D01*
X05077Y03375D01*
X05067D01*
X05062Y0337D01*
X04936Y03707D02*
X04931Y03702D01*
Y03692D01*
X04936Y03687D01*
X04956D01*
X04961Y03692D01*
Y03702D01*
X04956Y03707D01*
X04936Y03717D02*
X04931Y03722D01*
Y03732D01*
X04936Y03737D01*
X04941D01*
X04946Y03732D01*
Y03727D01*
Y03732D01*
X04951Y03737D01*
X04956D01*
X04961Y03732D01*
Y03722D01*
X04956Y03717D01*
X04936Y03747D02*
X04931Y03752D01*
Y03762D01*
X04936Y03767D01*
X04941D01*
X04946Y03762D01*
Y03757D01*
Y03762D01*
X04951Y03767D01*
X04956D01*
X04961Y03762D01*
Y03752D01*
X04956Y03747D01*
X04938Y03567D02*
X04933Y03562D01*
Y03552D01*
X04938Y03547D01*
X04958D01*
X04963Y03552D01*
Y03562D01*
X04958Y03567D01*
X04938Y03577D02*
X04933Y03582D01*
Y03592D01*
X04938Y03597D01*
X04943D01*
X04948Y03592D01*
Y03587D01*
Y03592D01*
X04953Y03597D01*
X04958D01*
X04963Y03592D01*
Y03582D01*
X04958Y03577D01*
X04963Y03627D02*
Y03607D01*
X04943Y03627D01*
X04938D01*
X04933Y03622D01*
Y03612D01*
X04938Y03607D01*
X04622Y03043D02*
Y03018D01*
X04627Y03013D01*
X04637D01*
X04642Y03018D01*
Y03043D01*
X04672D02*
X04652D01*
Y03028D01*
X04662Y03033D01*
X04667D01*
X04672Y03028D01*
Y03018D01*
X04667Y03013D01*
X04657D01*
X04652Y03018D01*
X04575Y03916D02*
X04565D01*
X0457D01*
Y03891D01*
X04565Y03886D01*
X0456D01*
X04555Y03891D01*
X04585Y03886D02*
X04595D01*
X0459D01*
Y03916D01*
X04585Y03911D01*
X03838Y02788D02*
X03858Y02758D01*
Y02788D02*
X03838Y02758D01*
X03868Y02788D02*
X03888D01*
X03878D01*
Y02758D01*
X03898D02*
X03908D01*
X03903D01*
Y02788D01*
X03898Y02783D01*
X03892Y0372D02*
Y03695D01*
X03897Y0369D01*
X03907D01*
X03912Y03695D01*
Y0372D01*
X03942Y03715D02*
X03937Y0372D01*
X03927D01*
X03922Y03715D01*
Y0371D01*
X03927Y03705D01*
X03937D01*
X03942Y037D01*
Y03695D01*
X03937Y0369D01*
X03927D01*
X03922Y03695D01*
X03952Y0372D02*
Y0369D01*
X03967D01*
X03972Y03695D01*
Y037D01*
X03967Y03705D01*
X03952D01*
X03967D01*
X03972Y0371D01*
Y03715D01*
X03967Y0372D01*
X03952D01*
X03982Y0369D02*
X03992D01*
X03987D01*
Y0372D01*
X03982Y03715D01*
X03982Y03449D02*
Y03424D01*
X03987Y03419D01*
X03997D01*
X04002Y03424D01*
Y03449D01*
X04012Y03419D02*
X04022D01*
X04017D01*
Y03449D01*
X04012Y03444D01*
X03763Y03771D02*
X03758Y03776D01*
X03748D01*
X03743Y03771D01*
Y03766D01*
X03748Y03761D01*
X03758D01*
X03763Y03756D01*
Y03751D01*
X03758Y03746D01*
X03748D01*
X03743Y03751D01*
X03773Y03776D02*
Y03746D01*
X03783Y03756D01*
X03793Y03746D01*
Y03776D01*
X03803Y03746D02*
X03813D01*
X03808D01*
Y03776D01*
X03803Y03771D01*
X04391Y0381D02*
Y0378D01*
X04406D01*
X04411Y03785D01*
Y0379D01*
X04406Y03795D01*
X04391D01*
X04406D01*
X04411Y038D01*
Y03805D01*
X04406Y0381D01*
X04391D01*
X04421D02*
X04441D01*
X04431D01*
Y0378D01*
X04451D02*
X04461D01*
X04456D01*
Y0381D01*
X04451Y03805D01*
D16*
X0474Y040798D02*
D03*
M02*
