G04*
G04 #@! TF.GenerationSoftware,Altium Limited,Altium Designer,21.3.2 (30)*
G04*
G04 Layer_Color=8388736*
%FSTAX24Y24*%
%MOIN*%
G70*
G04*
G04 #@! TF.SameCoordinates,17C352DC-52FB-4B9E-A555-A73132B06FB7*
G04*
G04*
G04 #@! TF.FilePolarity,Negative*
G04*
G01*
G75*
%ADD45R,0.1064X0.1064*%
%ADD46R,0.0356X0.0159*%
%ADD47R,0.0159X0.0356*%
%ADD48R,0.0400X0.0460*%
%ADD49C,0.0198*%
%ADD50R,0.0316X0.0174*%
%ADD51R,0.0710X0.1025*%
%ADD52R,0.0460X0.0400*%
%ADD53R,0.0630X0.0610*%
%ADD54R,0.0178X0.0356*%
%ADD55R,0.1025X0.0671*%
%ADD56R,0.0474X0.0277*%
%ADD57R,0.1419X0.1655*%
%ADD58C,0.0480*%
%ADD59R,0.0552X0.1064*%
%ADD60R,0.0198X0.0572*%
%ADD61R,0.0316X0.0572*%
%ADD62R,0.0552X0.0631*%
%ADD63R,0.1438X0.1438*%
%ADD64R,0.0356X0.0178*%
%ADD65R,0.0178X0.0356*%
%ADD66R,0.2285X0.2285*%
%ADD67R,0.0186X0.0297*%
%ADD68R,0.0297X0.0186*%
%ADD69R,0.0631X0.0631*%
%ADD70R,0.0178X0.0395*%
%ADD71R,0.0395X0.0178*%
%ADD72R,0.0926X0.0671*%
%ADD73C,0.0256*%
%ADD74O,0.0474X0.0867*%
%ADD75O,0.0394X0.0787*%
%ADD76C,0.0080*%
%ADD77C,0.0552*%
%ADD78R,0.0552X0.0552*%
%ADD79C,0.0631*%
%ADD80C,0.0710*%
%ADD81C,0.0671*%
%ADD82R,0.0671X0.0671*%
%ADD83R,0.0710X0.0710*%
%ADD84C,0.0474*%
G36*
X046399Y034847D02*
X046404Y034846D01*
X046409Y034844D01*
X046414Y034842D01*
X046418Y034839D01*
X046422Y034835D01*
X046619Y034638D01*
X046622Y034634D01*
X046625Y03463D01*
X046628Y034625D01*
X046629Y03462D01*
X04663Y034615D01*
X046631Y03461D01*
X04663Y034605D01*
X046629Y0346D01*
X046628Y034595D01*
X046625Y03459D01*
X046622Y034586D01*
X046619Y034582D01*
X046422Y034385D01*
X046418Y034381D01*
X046414Y034378D01*
X046409Y034376D01*
X046404Y034374D01*
X046399Y034373D01*
X046394Y034373D01*
X046098D01*
X046093Y034373D01*
X046088Y034374D01*
X046083Y034376D01*
X046078Y034378D01*
X046074Y034381D01*
X04607Y034385D01*
X046067Y034389D01*
X046064Y034393D01*
X046061Y034398D01*
X04606Y034403D01*
X046059Y034408D01*
X046058Y034413D01*
X046058Y034415D01*
X046028Y034385D01*
X046024Y034381D01*
X04602Y034378D01*
X046015Y034376D01*
X04601Y034374D01*
X046005Y034373D01*
X046Y034373D01*
X045803D01*
X045798Y034373D01*
X045793Y034374D01*
X045788Y034376D01*
X045783Y034378D01*
X045779Y034381D01*
X045775Y034385D01*
X045771Y034389D01*
X045768Y034393D01*
X045766Y034398D01*
X045764Y034403D01*
X045763Y034408D01*
X045763Y034413D01*
Y034807D01*
X045763Y034812D01*
X045764Y034817D01*
X045766Y034822D01*
X045768Y034827D01*
X045771Y034831D01*
X045775Y034835D01*
X045779Y034839D01*
X045783Y034842D01*
X045788Y034844D01*
X045793Y034846D01*
X045798Y034847D01*
X045803Y034847D01*
X046D01*
X046005Y034847D01*
X04601Y034846D01*
X046015Y034844D01*
X04602Y034842D01*
X046024Y034839D01*
X046028Y034835D01*
X046058Y034805D01*
X046058Y034807D01*
X046059Y034812D01*
X04606Y034817D01*
X046061Y034822D01*
X046064Y034827D01*
X046067Y034831D01*
X04607Y034835D01*
X046074Y034839D01*
X046078Y034842D01*
X046083Y034844D01*
X046088Y034846D01*
X046093Y034847D01*
X046098Y034847D01*
X046394D01*
X046399Y034847D01*
D02*
G37*
%LPC*%
G36*
X046237Y034612D02*
X046237Y03461D01*
X046237Y034608D01*
X046239Y03461D01*
X046237Y034612D01*
D02*
G37*
%LPD*%
D45*
X0414Y02595D02*
D03*
D46*
X042168Y025478D02*
D03*
Y025635D02*
D03*
Y025793D02*
D03*
Y02595D02*
D03*
Y026422D02*
D03*
Y026265D02*
D03*
Y026107D02*
D03*
X040632Y025793D02*
D03*
Y025635D02*
D03*
Y025478D02*
D03*
Y02595D02*
D03*
Y026107D02*
D03*
Y026265D02*
D03*
Y026422D02*
D03*
D47*
X040928Y025182D02*
D03*
X041085D02*
D03*
X041243D02*
D03*
X0414D02*
D03*
X041872D02*
D03*
X041715D02*
D03*
X041557D02*
D03*
X041872Y026718D02*
D03*
X041715D02*
D03*
X041557D02*
D03*
X0414D02*
D03*
X041243D02*
D03*
X041085D02*
D03*
X040928D02*
D03*
D48*
X04952Y03072D02*
D03*
X04896D02*
D03*
X04952Y03122D02*
D03*
X04896D02*
D03*
X04486Y03333D02*
D03*
X0443D02*
D03*
X04388Y03561D02*
D03*
X04332D02*
D03*
X04591Y03316D02*
D03*
X04647D02*
D03*
X04644Y03414D02*
D03*
X04588D02*
D03*
X03916Y02575D02*
D03*
X0386D02*
D03*
X04782Y02782D02*
D03*
X04726D02*
D03*
X04782Y028301D02*
D03*
X04726D02*
D03*
X048156Y03474D02*
D03*
X048716D02*
D03*
X04709D02*
D03*
X04765D02*
D03*
X04285Y03402D02*
D03*
X04229D02*
D03*
X04285Y03452D02*
D03*
X04229D02*
D03*
D49*
X046394Y03461D02*
D03*
X046D02*
D03*
D50*
X044279Y034604D02*
D03*
Y034407D02*
D03*
Y03421D02*
D03*
Y034013D02*
D03*
Y033816D02*
D03*
X045461Y034604D02*
D03*
Y034407D02*
D03*
Y03421D02*
D03*
Y034013D02*
D03*
Y033816D02*
D03*
D51*
X04487Y03421D02*
D03*
D52*
X04512Y03576D02*
D03*
Y0352D02*
D03*
X04582Y03111D02*
D03*
Y03055D02*
D03*
Y03192D02*
D03*
Y03248D02*
D03*
X042094Y036218D02*
D03*
Y036778D02*
D03*
X03801Y02717D02*
D03*
Y02661D02*
D03*
X04966Y03221D02*
D03*
Y03277D02*
D03*
X0492D02*
D03*
Y03221D02*
D03*
X04899Y02629D02*
D03*
Y02685D02*
D03*
X04839Y02932D02*
D03*
Y02988D02*
D03*
X04789Y02932D02*
D03*
Y02988D02*
D03*
X04739Y02932D02*
D03*
Y02988D02*
D03*
X04159Y03622D02*
D03*
Y03678D02*
D03*
X04023Y036778D02*
D03*
Y036218D02*
D03*
X0411Y03622D02*
D03*
Y03678D02*
D03*
X04907Y03808D02*
D03*
Y03752D02*
D03*
X04576Y03702D02*
D03*
Y03758D02*
D03*
D53*
X04471Y03966D02*
D03*
X04391D02*
D03*
D54*
X044085Y036109D02*
D03*
X044282D02*
D03*
X044478D02*
D03*
X044675D02*
D03*
X044085Y037251D02*
D03*
X044282D02*
D03*
X044478D02*
D03*
X044675D02*
D03*
D55*
X04438Y03668D02*
D03*
D56*
X048283Y02635D02*
D03*
Y02685D02*
D03*
Y02585D02*
D03*
Y02535D02*
D03*
X046D02*
D03*
Y02585D02*
D03*
Y02685D02*
D03*
Y02635D02*
D03*
D57*
X04715Y02608D02*
D03*
D58*
X03738Y03122D02*
D03*
X03873Y03292D02*
D03*
X03934Y03239D02*
D03*
X03752Y03185D02*
D03*
X0378Y03259D02*
D03*
X03785Y03352D02*
D03*
D59*
X04991Y03728D02*
D03*
X05117D02*
D03*
Y0359D02*
D03*
X04991D02*
D03*
D60*
X041445Y037602D02*
D03*
X041248D02*
D03*
X041642D02*
D03*
X040658D02*
D03*
X040461D02*
D03*
X040855D02*
D03*
X041839D02*
D03*
X041052D02*
D03*
D61*
X04241D02*
D03*
X03989D02*
D03*
X040205D02*
D03*
X042095D02*
D03*
D62*
X03916Y02718D02*
D03*
X03853D02*
D03*
Y026314D02*
D03*
X03916D02*
D03*
X050235Y033054D02*
D03*
X050865D02*
D03*
Y032188D02*
D03*
X050235D02*
D03*
D63*
X04726Y0317D02*
D03*
D64*
X046315Y032389D02*
D03*
Y032192D02*
D03*
Y031995D02*
D03*
Y031798D02*
D03*
Y031602D02*
D03*
Y031405D02*
D03*
Y031208D02*
D03*
Y031011D02*
D03*
X048205Y031011D02*
D03*
Y031208D02*
D03*
Y031405D02*
D03*
Y031602D02*
D03*
Y031798D02*
D03*
Y031995D02*
D03*
Y032192D02*
D03*
Y032389D02*
D03*
D65*
X046571Y030755D02*
D03*
X046768D02*
D03*
X046965D02*
D03*
X047162D02*
D03*
X047358D02*
D03*
X047555D02*
D03*
X047752D02*
D03*
X047949D02*
D03*
X046571Y032645D02*
D03*
X046768D02*
D03*
X046965D02*
D03*
X047162D02*
D03*
X047358D02*
D03*
X047555D02*
D03*
X047752D02*
D03*
X047949D02*
D03*
D66*
X0403Y02995D02*
D03*
D67*
X040202Y028572D02*
D03*
X041383D02*
D03*
X041186D02*
D03*
X040989D02*
D03*
X040792D02*
D03*
X040595D02*
D03*
X040398D02*
D03*
X040005D02*
D03*
X039808D02*
D03*
X039611D02*
D03*
X039414D02*
D03*
X039217D02*
D03*
X039217Y031328D02*
D03*
X039414D02*
D03*
X039611D02*
D03*
X039808D02*
D03*
X040005D02*
D03*
X040202D02*
D03*
X040398D02*
D03*
X040595D02*
D03*
X040792D02*
D03*
X040989D02*
D03*
X041186D02*
D03*
X041383D02*
D03*
D68*
X041678Y030639D02*
D03*
Y030442D02*
D03*
Y030245D02*
D03*
Y030048D02*
D03*
Y029852D02*
D03*
Y029655D02*
D03*
Y029458D02*
D03*
Y029261D02*
D03*
Y029064D02*
D03*
Y028867D02*
D03*
X038922Y029655D02*
D03*
Y029852D02*
D03*
Y030048D02*
D03*
Y030245D02*
D03*
Y030442D02*
D03*
Y030639D02*
D03*
Y030836D02*
D03*
Y031033D02*
D03*
X041678D02*
D03*
Y030836D02*
D03*
X038922Y028867D02*
D03*
Y029064D02*
D03*
Y029261D02*
D03*
Y029458D02*
D03*
D69*
X041123Y034027D02*
D03*
D70*
X040828Y034617D02*
D03*
X041025D02*
D03*
X041222D02*
D03*
X041418D02*
D03*
Y033436D02*
D03*
X041222D02*
D03*
X041025D02*
D03*
X040828D02*
D03*
D71*
X041714Y034322D02*
D03*
Y034125D02*
D03*
Y033928D02*
D03*
Y033732D02*
D03*
X040533D02*
D03*
Y033928D02*
D03*
Y034125D02*
D03*
Y034322D02*
D03*
D72*
X045953Y03833D02*
D03*
Y039669D02*
D03*
X048847Y035968D02*
D03*
X045953Y036165D02*
D03*
X048847Y036834D02*
D03*
Y039669D02*
D03*
D73*
X042288Y038114D02*
D03*
X040012D02*
D03*
D74*
X039449Y039563D02*
D03*
D75*
Y037917D02*
D03*
X042851Y039563D02*
D03*
Y037917D02*
D03*
D76*
X05007Y02965D02*
D03*
Y0265D02*
D03*
X0474Y039511D02*
D03*
Y036755D02*
D03*
D77*
X050942Y038613D02*
D03*
X050155Y0394D02*
D03*
X050942D02*
D03*
Y014213D02*
D03*
X050155Y015D02*
D03*
X050942D02*
D03*
X03855Y014213D02*
D03*
X037763Y015D02*
D03*
X03855D02*
D03*
Y038613D02*
D03*
X037763Y0394D02*
D03*
X03855D02*
D03*
D78*
X050155Y038613D02*
D03*
Y014213D02*
D03*
X037763D02*
D03*
Y038613D02*
D03*
D79*
X0422Y01985D02*
D03*
X044365Y014929D02*
D03*
Y024771D02*
D03*
Y017685D02*
D03*
Y022015D02*
D03*
X049287Y01985D02*
D03*
X039444D02*
D03*
X046531D02*
D03*
X044365Y018472D02*
D03*
Y021228D02*
D03*
D80*
X045842Y015421D02*
D03*
X042889D02*
D03*
Y024279D02*
D03*
X045842D02*
D03*
X042889Y017193D02*
D03*
Y022507D02*
D03*
X045842Y017193D02*
D03*
Y022507D02*
D03*
X048794Y018374D02*
D03*
Y021326D02*
D03*
X039936Y018374D02*
D03*
Y021326D02*
D03*
X047023Y018374D02*
D03*
Y021326D02*
D03*
X041708Y018374D02*
D03*
Y021326D02*
D03*
X042889Y018964D02*
D03*
X045842D02*
D03*
Y020736D02*
D03*
X042889D02*
D03*
X0384Y0356D02*
D03*
Y036584D02*
D03*
D81*
X04477Y03874D02*
D03*
D82*
X04377D02*
D03*
D83*
X0384Y034616D02*
D03*
D84*
X04499Y03425D02*
D03*
M02*
