G04*
G04 #@! TF.GenerationSoftware,Altium Limited,Altium Designer,21.3.2 (30)*
G04*
G04 Layer_Color=8421504*
%FSTAX24Y24*%
%MOIN*%
G70*
G04*
G04 #@! TF.SameCoordinates,17C352DC-52FB-4B9E-A555-A73132B06FB7*
G04*
G04*
G04 #@! TF.FilePolarity,Positive*
G04*
G01*
G75*
%ADD17R,0.0984X0.0984*%
%ADD18R,0.0276X0.0079*%
%ADD19R,0.0079X0.0276*%
%ADD20R,0.0320X0.0380*%
%ADD21C,0.0118*%
%ADD22R,0.0236X0.0094*%
%ADD23R,0.0630X0.0945*%
%ADD24R,0.0380X0.0320*%
%ADD25R,0.0550X0.0530*%
%ADD26R,0.0098X0.0276*%
%ADD27R,0.0945X0.0591*%
%ADD28R,0.0394X0.0197*%
%ADD29R,0.1339X0.1575*%
%ADD30C,0.0400*%
%ADD31R,0.0472X0.0984*%
%ADD32R,0.0118X0.0492*%
%ADD33R,0.0236X0.0492*%
%ADD34R,0.0472X0.0551*%
%ADD35R,0.1358X0.1358*%
%ADD36R,0.0276X0.0098*%
%ADD37R,0.0098X0.0276*%
%ADD38R,0.2205X0.2205*%
%ADD39R,0.0106X0.0217*%
%ADD40R,0.0217X0.0106*%
%ADD41R,0.0551X0.0551*%
%ADD42R,0.0098X0.0315*%
%ADD43R,0.0315X0.0098*%
%ADD44R,0.0846X0.0591*%
G36*
X046197Y03461D02*
X046Y034413D01*
X045803D01*
Y034807D01*
X046D01*
X046197Y03461D01*
D02*
G37*
D17*
X0414Y02595D02*
D03*
D18*
X042168Y025478D02*
D03*
Y025635D02*
D03*
Y025793D02*
D03*
Y02595D02*
D03*
Y026422D02*
D03*
Y026265D02*
D03*
Y026107D02*
D03*
X040632Y025793D02*
D03*
Y025635D02*
D03*
Y025478D02*
D03*
Y02595D02*
D03*
Y026107D02*
D03*
Y026265D02*
D03*
Y026422D02*
D03*
D19*
X040928Y025182D02*
D03*
X041085D02*
D03*
X041243D02*
D03*
X0414D02*
D03*
X041872D02*
D03*
X041715D02*
D03*
X041557D02*
D03*
X041872Y026718D02*
D03*
X041715D02*
D03*
X041557D02*
D03*
X0414D02*
D03*
X041243D02*
D03*
X041085D02*
D03*
X040928D02*
D03*
D20*
X04952Y03072D02*
D03*
X04896D02*
D03*
X04952Y03122D02*
D03*
X04896D02*
D03*
X04486Y03333D02*
D03*
X0443D02*
D03*
X04388Y03561D02*
D03*
X04332D02*
D03*
X04591Y03316D02*
D03*
X04647D02*
D03*
X04644Y03414D02*
D03*
X04588D02*
D03*
X03916Y02575D02*
D03*
X0386D02*
D03*
X04782Y02782D02*
D03*
X04726D02*
D03*
X04782Y028301D02*
D03*
X04726D02*
D03*
X048156Y03474D02*
D03*
X048716D02*
D03*
X04709D02*
D03*
X04765D02*
D03*
X04285Y03402D02*
D03*
X04229D02*
D03*
X04285Y03452D02*
D03*
X04229D02*
D03*
D21*
X046394Y03461D02*
D03*
X046D02*
D03*
D22*
X044279Y034604D02*
D03*
Y034407D02*
D03*
Y03421D02*
D03*
Y034013D02*
D03*
Y033816D02*
D03*
X045461Y034604D02*
D03*
Y034407D02*
D03*
Y03421D02*
D03*
Y034013D02*
D03*
Y033816D02*
D03*
D23*
X04487Y03421D02*
D03*
D24*
X04512Y03576D02*
D03*
Y0352D02*
D03*
X04582Y03111D02*
D03*
Y03055D02*
D03*
Y03192D02*
D03*
Y03248D02*
D03*
X042094Y036218D02*
D03*
Y036778D02*
D03*
X03801Y02717D02*
D03*
Y02661D02*
D03*
X04966Y03221D02*
D03*
Y03277D02*
D03*
X0492D02*
D03*
Y03221D02*
D03*
X04899Y02629D02*
D03*
Y02685D02*
D03*
X04839Y02932D02*
D03*
Y02988D02*
D03*
X04789Y02932D02*
D03*
Y02988D02*
D03*
X04739Y02932D02*
D03*
Y02988D02*
D03*
X04159Y03622D02*
D03*
Y03678D02*
D03*
X04023Y036778D02*
D03*
Y036218D02*
D03*
X0411Y03622D02*
D03*
Y03678D02*
D03*
X04907Y03808D02*
D03*
Y03752D02*
D03*
X04576Y03702D02*
D03*
Y03758D02*
D03*
D25*
X04471Y03966D02*
D03*
X04391D02*
D03*
D26*
X044085Y036109D02*
D03*
X044282D02*
D03*
X044478D02*
D03*
X044675D02*
D03*
X044085Y037251D02*
D03*
X044282D02*
D03*
X044478D02*
D03*
X044675D02*
D03*
D27*
X04438Y03668D02*
D03*
D28*
X048283Y02635D02*
D03*
Y02685D02*
D03*
Y02585D02*
D03*
Y02535D02*
D03*
X046D02*
D03*
Y02585D02*
D03*
Y02685D02*
D03*
Y02635D02*
D03*
D29*
X04715Y02608D02*
D03*
D30*
X03738Y03122D02*
D03*
X03873Y03292D02*
D03*
X03934Y03239D02*
D03*
X03752Y03185D02*
D03*
X0378Y03259D02*
D03*
X03785Y03352D02*
D03*
D31*
X04991Y03728D02*
D03*
X05117D02*
D03*
Y0359D02*
D03*
X04991D02*
D03*
D32*
X041445Y037602D02*
D03*
X041248D02*
D03*
X041642D02*
D03*
X040658D02*
D03*
X040461D02*
D03*
X040855D02*
D03*
X041839D02*
D03*
X041052D02*
D03*
D33*
X04241D02*
D03*
X03989D02*
D03*
X040205D02*
D03*
X042095D02*
D03*
D34*
X03916Y02718D02*
D03*
X03853D02*
D03*
Y026314D02*
D03*
X03916D02*
D03*
X050235Y033054D02*
D03*
X050865D02*
D03*
Y032188D02*
D03*
X050235D02*
D03*
D35*
X04726Y0317D02*
D03*
D36*
X046315Y032389D02*
D03*
Y032192D02*
D03*
Y031995D02*
D03*
Y031798D02*
D03*
Y031602D02*
D03*
Y031405D02*
D03*
Y031208D02*
D03*
Y031011D02*
D03*
X048205Y031011D02*
D03*
Y031208D02*
D03*
Y031405D02*
D03*
Y031602D02*
D03*
Y031798D02*
D03*
Y031995D02*
D03*
Y032192D02*
D03*
Y032389D02*
D03*
D37*
X046571Y030755D02*
D03*
X046768D02*
D03*
X046965D02*
D03*
X047162D02*
D03*
X047358D02*
D03*
X047555D02*
D03*
X047752D02*
D03*
X047949D02*
D03*
X046571Y032645D02*
D03*
X046768D02*
D03*
X046965D02*
D03*
X047162D02*
D03*
X047358D02*
D03*
X047555D02*
D03*
X047752D02*
D03*
X047949D02*
D03*
D38*
X0403Y02995D02*
D03*
D39*
X040202Y028572D02*
D03*
X041383D02*
D03*
X041186D02*
D03*
X040989D02*
D03*
X040792D02*
D03*
X040595D02*
D03*
X040398D02*
D03*
X040005D02*
D03*
X039808D02*
D03*
X039611D02*
D03*
X039414D02*
D03*
X039217D02*
D03*
X039217Y031328D02*
D03*
X039414D02*
D03*
X039611D02*
D03*
X039808D02*
D03*
X040005D02*
D03*
X040202D02*
D03*
X040398D02*
D03*
X040595D02*
D03*
X040792D02*
D03*
X040989D02*
D03*
X041186D02*
D03*
X041383D02*
D03*
D40*
X041678Y030639D02*
D03*
Y030442D02*
D03*
Y030245D02*
D03*
Y030048D02*
D03*
Y029852D02*
D03*
Y029655D02*
D03*
Y029458D02*
D03*
Y029261D02*
D03*
Y029064D02*
D03*
Y028867D02*
D03*
X038922Y029655D02*
D03*
Y029852D02*
D03*
Y030048D02*
D03*
Y030245D02*
D03*
Y030442D02*
D03*
Y030639D02*
D03*
Y030836D02*
D03*
Y031033D02*
D03*
X041678D02*
D03*
Y030836D02*
D03*
X038922Y028867D02*
D03*
Y029064D02*
D03*
Y029261D02*
D03*
Y029458D02*
D03*
D41*
X041123Y034027D02*
D03*
D42*
X040828Y034617D02*
D03*
X041025D02*
D03*
X041222D02*
D03*
X041418D02*
D03*
Y033436D02*
D03*
X041222D02*
D03*
X041025D02*
D03*
X040828D02*
D03*
D43*
X041714Y034322D02*
D03*
Y034125D02*
D03*
Y033928D02*
D03*
Y033732D02*
D03*
X040533D02*
D03*
Y033928D02*
D03*
Y034125D02*
D03*
Y034322D02*
D03*
D44*
X045953Y03833D02*
D03*
Y039669D02*
D03*
X048847Y035968D02*
D03*
X045953Y036165D02*
D03*
X048847Y036834D02*
D03*
Y039669D02*
D03*
M02*
