M48
;Layer_Color=9474304
;FILE_FORMAT=2:4
INCH,LZ
;TYPE=PLATED
T1F00S00C0.0118
T2F00S00C0.0157
T3F00S00C0.0197
T5F00S00C0.0256
T6F00S00C0.0276
T7F00S00C0.0335
T8F00S00C0.0354
T9F00S00C0.0394
T10F00S00C0.0402
T11F00S00C0.0551
%
T01
X040926Y03383
Y034224
X041119Y034033
X04132Y034224
Y03383
X04736Y032345
T02
X0396Y0139
X041454
X043308
X045162
X047016
X04887
X04758Y01592
Y0176
X04773Y019853
X04899Y02195
X04815Y02285
X048279Y024335
X047889Y024825
X04749Y02538
X04741Y02609
X04777Y02644
X04782Y02782
Y028301
X04861Y02872
X04979Y0287
X049129Y027785
X04899Y02685
X04888Y02611
X0484Y02536
X049918Y025758
X05132Y025708
Y024353
Y022997
Y021642
Y020286
Y018931
Y017575
Y01622
Y027064
Y028419
Y029775
Y03113
X05007Y03076
Y03024
X04841Y030277
X04839Y02988
X04827Y03072
X04725Y02386
X04666Y02538
X046Y02585
Y02635
X04501Y027397
Y028894
X045186Y029819
X04501Y03039
X04597Y03065
X04667Y02966
X04642Y02894
X04683Y02809
X04254Y02784
X04298Y02729
X04342Y02675
X04271Y02595
X04172Y02589
X04108
X040185Y025971
X04022Y02773
X04068Y02786
X04084Y02715
X041192Y027389
X04159Y02777
X041822Y027093
X04144Y02464
X040784Y024281
X04169Y02374
Y02236
X040989Y019835
X044365Y01959
X044363Y016418
X044356Y023247
X0432Y0253
X04265Y0249
X03906Y02513
X03891Y02447
X03814Y02513
Y02611
X03742Y024353
Y022997
Y021642
Y020286
Y018931
Y017575
Y01622
X03732Y0281
Y0288
X03756Y02935
X037535Y029875
X03728Y03048
X03814Y03059
X038233Y030157
X03833Y02904
X03789Y02913
X03853Y02859
X039506Y029646
X03932Y03073
X04017
X04052Y03024
X04123
X04218Y03064
X04221Y03118
X04252Y03091
X043895Y030747
X04382Y03033
X04058Y02889
X041414Y031702
X04184Y03172
X04143Y032947
X04091Y03299
X04031Y03301
X04028Y03243
X039162Y031934
X0388Y03168
X03869Y03345
X03864Y034
X03815
X03732Y03385
Y03233
Y03546
Y03701
X03922Y03619
Y03557
X04019Y03468
X040026Y034023
X04073Y03505
X04122Y035063
X04175Y03507
X04202Y0356
X04249Y03495
X04329Y03554
X04315Y03608
X04355Y03603
X04421Y03655
X04512
X04494Y03518
X045859Y035555
X046267Y035127
X04667
X04644Y03414
X04647Y03316
X046274Y032619
X04581Y03248
X04522Y03231
X045233Y03279
X04457
X0443Y03332
X043944Y03396
Y034401
X04312Y0328
X04356Y03206
X0435Y03138
X044633Y031857
X04234Y03345
X04184Y03402
X04111Y03696
X041125Y03971
X041757
X04239
X040493
X03986
X04398Y03771
X04474Y03784
X04675Y03747
X04657Y03898
X04748
X04839
X0493
X04993Y0374
Y03615
X05002Y03512
X04937Y03497
X049696Y034514
X04872Y03473
X04873Y0353
X04749Y03525
Y03604
X0482Y03747
X05117Y03728
X05135Y03814
X05117Y0359
X0514Y03502
X05092Y03448
Y03382
X05025Y033051
X04973Y0332
X04943Y03286
X04835Y03271
X04851Y03338
X04786Y0336
X0475Y03322
X04921Y031819
X05034Y0322
X05063Y03126
T03
X04499Y03425
T05
X040012Y038114
X042288
T06
X037763Y014213
X03855
Y015
X037763
X044365Y014929
X050155Y015
Y014213
X050942
Y015
X049287Y01985
X046531
X044365Y018472
Y017685
Y021228
Y022015
Y024771
X0422Y01985
X039444
X03855Y038613
X037763
Y0394
X03855
X050155
Y038613
X050942
Y0394
T07
X042889Y015421
X045842
X047023Y018374
X048794
Y021326
X047023
X045842Y020736
Y022507
Y024279
X042889
Y022507
Y020736
X041708Y021326
X039936
Y018374
X041708
X042889Y018964
Y017193
X045842
Y018964
T08
X04377Y03874
X04477
T09
X05007Y0265
Y02965
T10
X0384Y034616
Y0356
Y036584
T11
X0474Y036755
Y039511
M30
