G04*
G04 #@! TF.GenerationSoftware,Altium Limited,Altium Designer,21.3.2 (30)*
G04*
G04 Layer_Color=2752767*
%FSTAX24Y24*%
%MOIN*%
G70*
G04*
G04 #@! TF.SameCoordinates,17C352DC-52FB-4B9E-A555-A73132B06FB7*
G04*
G04*
G04 #@! TF.FilePolarity,Positive*
G04*
G01*
G75*
%ADD117C,0.0020*%
%ADD118C,0.0027*%
%ADD119C,0.0013*%
D117*
X042208Y038034D02*
Y038194D01*
X042368D01*
Y038034D01*
X042208D01*
X039932D02*
Y038194D01*
X040092D01*
Y038034D01*
X039932D01*
X05007Y029569D02*
X04999Y029729D01*
X05015D01*
X05007Y029569D01*
Y02642D02*
X04999Y02658D01*
X05015D01*
X05007Y02642D01*
X050942Y038533D02*
X050982Y038573D01*
X051022D01*
X050982Y038613D01*
X051022Y038653D01*
X050982D01*
X050942Y038693D01*
X050902Y038653D01*
X050862D01*
X050902Y038613D01*
X050862Y038573D01*
X050902D01*
X050942Y038533D01*
X050155D02*
X050195Y038573D01*
X050235D01*
X050195Y038613D01*
X050235Y038653D01*
X050195D01*
X050155Y038693D01*
X050115Y038653D01*
X050075D01*
X050115Y038613D01*
X050075Y038573D01*
X050115D01*
X050155Y038533D01*
Y03932D02*
X050195Y03936D01*
X050235D01*
X050195Y0394D01*
X050235Y03944D01*
X050195D01*
X050155Y03948D01*
X050115Y03944D01*
X050075D01*
X050115Y0394D01*
X050075Y03936D01*
X050115D01*
X050155Y03932D01*
X050942D02*
X050982Y03936D01*
X051022D01*
X050982Y0394D01*
X051022Y03944D01*
X050982D01*
X050942Y03948D01*
X050902Y03944D01*
X050862D01*
X050902Y0394D01*
X050862Y03936D01*
X050902D01*
X050942Y03932D01*
Y014133D02*
X050982Y014173D01*
X051022D01*
X050982Y014213D01*
X051022Y014253D01*
X050982D01*
X050942Y014293D01*
X050902Y014253D01*
X050862D01*
X050902Y014213D01*
X050862Y014173D01*
X050902D01*
X050942Y014133D01*
X050155D02*
X050195Y014173D01*
X050235D01*
X050195Y014213D01*
X050235Y014253D01*
X050195D01*
X050155Y014293D01*
X050115Y014253D01*
X050075D01*
X050115Y014213D01*
X050075Y014173D01*
X050115D01*
X050155Y014133D01*
Y01492D02*
X050195Y01496D01*
X050235D01*
X050195Y015D01*
X050235Y01504D01*
X050195D01*
X050155Y01508D01*
X050115Y01504D01*
X050075D01*
X050115Y015D01*
X050075Y01496D01*
X050115D01*
X050155Y01492D01*
X050942D02*
X050982Y01496D01*
X051022D01*
X050982Y015D01*
X051022Y01504D01*
X050982D01*
X050942Y01508D01*
X050902Y01504D01*
X050862D01*
X050902Y015D01*
X050862Y01496D01*
X050902D01*
X050942Y01492D01*
X03855Y014133D02*
X03859Y014173D01*
X03863D01*
X03859Y014213D01*
X03863Y014253D01*
X03859D01*
X03855Y014293D01*
X03851Y014253D01*
X03847D01*
X03851Y014213D01*
X03847Y014173D01*
X03851D01*
X03855Y014133D01*
X037763D02*
X037803Y014173D01*
X037843D01*
X037803Y014213D01*
X037843Y014253D01*
X037803D01*
X037763Y014293D01*
X037723Y014253D01*
X037683D01*
X037723Y014213D01*
X037683Y014173D01*
X037723D01*
X037763Y014133D01*
Y01492D02*
X037803Y01496D01*
X037843D01*
X037803Y015D01*
X037843Y01504D01*
X037803D01*
X037763Y01508D01*
X037723Y01504D01*
X037683D01*
X037723Y015D01*
X037683Y01496D01*
X037723D01*
X037763Y01492D01*
X03855D02*
X03859Y01496D01*
X03863D01*
X03859Y015D01*
X03863Y01504D01*
X03859D01*
X03855Y01508D01*
X03851Y01504D01*
X03847D01*
X03851Y015D01*
X03847Y01496D01*
X03851D01*
X03855Y01492D01*
X0422Y01977D02*
X04224Y01981D01*
X04228D01*
X04224Y01985D01*
X04228Y01989D01*
X04224D01*
X0422Y01993D01*
X04216Y01989D01*
X04212D01*
X04216Y01985D01*
X04212Y01981D01*
X04216D01*
X0422Y01977D01*
X045762Y015341D02*
X045802Y015421D01*
X045762Y015501D01*
X045842Y015461D01*
X045922Y015501D01*
X045882Y015421D01*
X045922Y015341D01*
X045842Y015381D01*
X045762Y015341D01*
X042809D02*
X042849Y015421D01*
X042809Y015501D01*
X042889Y015461D01*
X042969Y015501D01*
X042929Y015421D01*
X042969Y015341D01*
X042889Y015381D01*
X042809Y015341D01*
Y024199D02*
X042849Y024279D01*
X042809Y024359D01*
X042889Y024319D01*
X042969Y024359D01*
X042929Y024279D01*
X042969Y024199D01*
X042889Y024239D01*
X042809Y024199D01*
X045762D02*
X045802Y024279D01*
X045762Y024359D01*
X045842Y024319D01*
X045922Y024359D01*
X045882Y024279D01*
X045922Y024199D01*
X045842Y024239D01*
X045762Y024199D01*
X042809Y017113D02*
X042849Y017193D01*
X042809Y017273D01*
X042889Y017233D01*
X042969Y017273D01*
X042929Y017193D01*
X042969Y017113D01*
X042889Y017153D01*
X042809Y017113D01*
Y022427D02*
X042849Y022507D01*
X042809Y022587D01*
X042889Y022547D01*
X042969Y022587D01*
X042929Y022507D01*
X042969Y022427D01*
X042889Y022467D01*
X042809Y022427D01*
X045762Y017113D02*
X045802Y017193D01*
X045762Y017273D01*
X045842Y017233D01*
X045922Y017273D01*
X045882Y017193D01*
X045922Y017113D01*
X045842Y017153D01*
X045762Y017113D01*
Y022427D02*
X045802Y022507D01*
X045762Y022587D01*
X045842Y022547D01*
X045922Y022587D01*
X045882Y022507D01*
X045922Y022427D01*
X045842Y022467D01*
X045762Y022427D01*
X044365Y014849D02*
X044405Y014889D01*
X044445D01*
X044405Y014929D01*
X044445Y014969D01*
X044405D01*
X044365Y015009D01*
X044325Y014969D01*
X044285D01*
X044325Y014929D01*
X044285Y014889D01*
X044325D01*
X044365Y014849D01*
Y024691D02*
X044405Y024731D01*
X044445D01*
X044405Y024771D01*
X044445Y024811D01*
X044405D01*
X044365Y024851D01*
X044325Y024811D01*
X044285D01*
X044325Y024771D01*
X044285Y024731D01*
X044325D01*
X044365Y024691D01*
Y017605D02*
X044405Y017645D01*
X044445D01*
X044405Y017685D01*
X044445Y017725D01*
X044405D01*
X044365Y017765D01*
X044325Y017725D01*
X044285D01*
X044325Y017685D01*
X044285Y017645D01*
X044325D01*
X044365Y017605D01*
Y021935D02*
X044405Y021975D01*
X044445D01*
X044405Y022015D01*
X044445Y022055D01*
X044405D01*
X044365Y022095D01*
X044325Y022055D01*
X044285D01*
X044325Y022015D01*
X044285Y021975D01*
X044325D01*
X044365Y021935D01*
X048714Y018294D02*
X048754Y018374D01*
X048714Y018454D01*
X048794Y018414D01*
X048874Y018454D01*
X048834Y018374D01*
X048874Y018294D01*
X048794Y018334D01*
X048714Y018294D01*
Y021246D02*
X048754Y021326D01*
X048714Y021406D01*
X048794Y021366D01*
X048874Y021406D01*
X048834Y021326D01*
X048874Y021246D01*
X048794Y021286D01*
X048714Y021246D01*
X039856Y018294D02*
X039896Y018374D01*
X039856Y018454D01*
X039936Y018414D01*
X040016Y018454D01*
X039976Y018374D01*
X040016Y018294D01*
X039936Y018334D01*
X039856Y018294D01*
Y021246D02*
X039896Y021326D01*
X039856Y021406D01*
X039936Y021366D01*
X040016Y021406D01*
X039976Y021326D01*
X040016Y021246D01*
X039936Y021286D01*
X039856Y021246D01*
X046943Y018294D02*
X046983Y018374D01*
X046943Y018454D01*
X047023Y018414D01*
X047103Y018454D01*
X047063Y018374D01*
X047103Y018294D01*
X047023Y018334D01*
X046943Y018294D01*
Y021246D02*
X046983Y021326D01*
X046943Y021406D01*
X047023Y021366D01*
X047103Y021406D01*
X047063Y021326D01*
X047103Y021246D01*
X047023Y021286D01*
X046943Y021246D01*
X041628Y018294D02*
X041668Y018374D01*
X041628Y018454D01*
X041708Y018414D01*
X041788Y018454D01*
X041748Y018374D01*
X041788Y018294D01*
X041708Y018334D01*
X041628Y018294D01*
Y021246D02*
X041668Y021326D01*
X041628Y021406D01*
X041708Y021366D01*
X041788Y021406D01*
X041748Y021326D01*
X041788Y021246D01*
X041708Y021286D01*
X041628Y021246D01*
X049287Y01977D02*
X049327Y01981D01*
X049367D01*
X049327Y01985D01*
X049367Y01989D01*
X049327D01*
X049287Y01993D01*
X049247Y01989D01*
X049207D01*
X049247Y01985D01*
X049207Y01981D01*
X049247D01*
X049287Y01977D01*
X039444D02*
X039484Y01981D01*
X039524D01*
X039484Y01985D01*
X039524Y01989D01*
X039484D01*
X039444Y01993D01*
X039404Y01989D01*
X039364D01*
X039404Y01985D01*
X039364Y01981D01*
X039404D01*
X039444Y01977D01*
X046531D02*
X046571Y01981D01*
X046611D01*
X046571Y01985D01*
X046611Y01989D01*
X046571D01*
X046531Y01993D01*
X046491Y01989D01*
X046451D01*
X046491Y01985D01*
X046451Y01981D01*
X046491D01*
X046531Y01977D01*
X044365Y018392D02*
X044405Y018432D01*
X044445D01*
X044405Y018472D01*
X044445Y018512D01*
X044405D01*
X044365Y018552D01*
X044325Y018512D01*
X044285D01*
X044325Y018472D01*
X044285Y018432D01*
X044325D01*
X044365Y018392D01*
Y021148D02*
X044405Y021188D01*
X044445D01*
X044405Y021228D01*
X044445Y021268D01*
X044405D01*
X044365Y021308D01*
X044325Y021268D01*
X044285D01*
X044325Y021228D01*
X044285Y021188D01*
X044325D01*
X044365Y021148D01*
X042809Y018884D02*
X042849Y018964D01*
X042809Y019044D01*
X042889Y019004D01*
X042969Y019044D01*
X042929Y018964D01*
X042969Y018884D01*
X042889Y018924D01*
X042809Y018884D01*
X045762D02*
X045802Y018964D01*
X045762Y019044D01*
X045842Y019004D01*
X045922Y019044D01*
X045882Y018964D01*
X045922Y018884D01*
X045842Y018924D01*
X045762Y018884D01*
Y020656D02*
X045802Y020736D01*
X045762Y020816D01*
X045842Y020776D01*
X045922Y020816D01*
X045882Y020736D01*
X045922Y020656D01*
X045842Y020696D01*
X045762Y020656D01*
X042809D02*
X042849Y020736D01*
X042809Y020816D01*
X042889Y020776D01*
X042969Y020816D01*
X042929Y020736D01*
X042969Y020656D01*
X042889Y020696D01*
X042809Y020656D01*
X04473Y0387D02*
Y03866D01*
X04481D01*
Y0387D01*
X04485D01*
Y03878D01*
X04481D01*
Y03882D01*
X04473D01*
Y03878D01*
X04469D01*
Y0387D01*
X04473D01*
X04373D02*
Y03866D01*
X04381D01*
Y0387D01*
X04385D01*
Y03878D01*
X04381D01*
Y03882D01*
X04373D01*
Y03878D01*
X04369D01*
Y0387D01*
X04373D01*
X04732Y039431D02*
X04736D01*
X0474Y039471D01*
X04744Y039431D01*
X04748D01*
Y039471D01*
X04744Y039511D01*
X04748Y039551D01*
Y039591D01*
X04744D01*
X0474Y039551D01*
X04736Y039591D01*
X04732D01*
Y039551D01*
X04736Y039511D01*
X04732Y039471D01*
Y039431D01*
Y036675D02*
X04736D01*
X0474Y036715D01*
X04744Y036675D01*
X04748D01*
Y036715D01*
X04744Y036755D01*
X04748Y036795D01*
Y036835D01*
X04744D01*
X0474Y036795D01*
X04736Y036835D01*
X04732D01*
Y036795D01*
X04736Y036755D01*
X04732Y036715D01*
Y036675D01*
X03832Y034616D02*
X0384Y034696D01*
X03848Y034616D01*
X0384Y034536D01*
X03832Y034616D01*
Y0356D02*
X0384Y03568D01*
X03848Y0356D01*
X0384Y03552D01*
X03832Y0356D01*
Y036584D02*
X0384Y036664D01*
X03848Y036584D01*
X0384Y036504D01*
X03832Y036584D01*
X03855Y038533D02*
X03859Y038573D01*
X03863D01*
X03859Y038613D01*
X03863Y038653D01*
X03859D01*
X03855Y038693D01*
X03851Y038653D01*
X03847D01*
X03851Y038613D01*
X03847Y038573D01*
X03851D01*
X03855Y038533D01*
X037763D02*
X037803Y038573D01*
X037843D01*
X037803Y038613D01*
X037843Y038653D01*
X037803D01*
X037763Y038693D01*
X037723Y038653D01*
X037683D01*
X037723Y038613D01*
X037683Y038573D01*
X037723D01*
X037763Y038533D01*
Y03932D02*
X037803Y03936D01*
X037843D01*
X037803Y0394D01*
X037843Y03944D01*
X037803D01*
X037763Y03948D01*
X037723Y03944D01*
X037683D01*
X037723Y0394D01*
X037683Y03936D01*
X037723D01*
X037763Y03932D01*
X03855D02*
X03859Y03936D01*
X03863D01*
X03859Y0394D01*
X03863Y03944D01*
X03859D01*
X03855Y03948D01*
X03851Y03944D01*
X03847D01*
X03851Y0394D01*
X03847Y03936D01*
X03851D01*
X03855Y03932D01*
X043815Y030667D02*
Y030827D01*
X043975D01*
Y030667D01*
X043815D01*
X043855Y030707D02*
Y030787D01*
X043935D01*
Y030707D01*
X043855D01*
X041045Y03963D02*
Y03979D01*
X041205D01*
Y03963D01*
X041045D01*
X041085Y03967D02*
Y03975D01*
X041165D01*
Y03967D01*
X041085D01*
X04741Y0253D02*
Y02546D01*
X04757D01*
Y0253D01*
X04741D01*
X04745Y02534D02*
Y02542D01*
X04753D01*
Y02534D01*
X04745D01*
X04658Y0253D02*
Y02546D01*
X04674D01*
Y0253D01*
X04658D01*
X04662Y02534D02*
Y02542D01*
X0467D01*
Y02534D01*
X04662D01*
X0488Y02603D02*
Y02619D01*
X04896D01*
Y02603D01*
X0488D01*
X04884Y02607D02*
Y02615D01*
X04892D01*
Y02607D01*
X04884D01*
X04194Y03552D02*
Y03568D01*
X0421D01*
Y03552D01*
X04194D01*
X04198Y03556D02*
Y03564D01*
X04206D01*
Y03556D01*
X04198D01*
X03914Y03611D02*
Y03627D01*
X0393D01*
Y03611D01*
X03914D01*
X03918Y03615D02*
Y03623D01*
X03926D01*
Y03615D01*
X03918D01*
X04307Y036D02*
Y03616D01*
X04323D01*
Y036D01*
X04307D01*
X04311Y03604D02*
Y03612D01*
X04319D01*
Y03604D01*
X04311D01*
X04347Y03595D02*
Y03611D01*
X04363D01*
Y03595D01*
X04347D01*
X04351Y03599D02*
Y03607D01*
X04359D01*
Y03599D01*
X04351D01*
X04304Y03272D02*
Y03288D01*
X0432D01*
Y03272D01*
X04304D01*
X04308Y03276D02*
Y03284D01*
X04316D01*
Y03276D01*
X04308D01*
X04922Y0389D02*
Y03906D01*
X04938D01*
Y0389D01*
X04922D01*
X04926Y03894D02*
Y03902D01*
X04934D01*
Y03894D01*
X04926D01*
X04831Y0389D02*
Y03906D01*
X04847D01*
Y0389D01*
X04831D01*
X04835Y03894D02*
Y03902D01*
X04843D01*
Y03894D01*
X04835D01*
X04865Y03522D02*
Y03538D01*
X04881D01*
Y03522D01*
X04865D01*
X04869Y03526D02*
Y03534D01*
X04877D01*
Y03526D01*
X04869D01*
X04741Y03517D02*
Y03533D01*
X04757D01*
Y03517D01*
X04741D01*
X04745Y03521D02*
Y03529D01*
X04753D01*
Y03521D01*
X04745D01*
X04741Y03596D02*
Y03612D01*
X04757D01*
Y03596D01*
X04741D01*
X04745Y036D02*
Y03608D01*
X04753D01*
Y036D01*
X04745D01*
X04812Y03739D02*
Y03755D01*
X04828D01*
Y03739D01*
X04812D01*
X04816Y03743D02*
Y03751D01*
X04824D01*
Y03743D01*
X04816D01*
X04667Y03739D02*
Y03755D01*
X04683D01*
Y03739D01*
X04667D01*
X04671Y03743D02*
Y03751D01*
X04679D01*
Y03743D01*
X04671D01*
X04413Y03647D02*
Y03663D01*
X04429D01*
Y03647D01*
X04413D01*
X04417Y03651D02*
Y03659D01*
X04425D01*
Y03651D01*
X04417D01*
X04504Y03647D02*
Y03663D01*
X0452D01*
Y03647D01*
X04504D01*
X04508Y03651D02*
Y03659D01*
X04516D01*
Y03651D01*
X04508D01*
X0474Y0389D02*
Y03906D01*
X04756D01*
Y0389D01*
X0474D01*
X04744Y03894D02*
Y03902D01*
X04752D01*
Y03894D01*
X04744D01*
X04649Y0389D02*
Y03906D01*
X04665D01*
Y0389D01*
X04649D01*
X04653Y03894D02*
Y03902D01*
X04661D01*
Y03894D01*
X04653D01*
X04231Y03963D02*
Y03979D01*
X04247D01*
Y03963D01*
X04231D01*
X04235Y03967D02*
Y03975D01*
X04243D01*
Y03967D01*
X04235D01*
X041677Y03963D02*
Y03979D01*
X041838D01*
Y03963D01*
X041677D01*
X041718Y03967D02*
Y03975D01*
X041797D01*
Y03967D01*
X041718D01*
X040413Y03963D02*
Y03979D01*
X040573D01*
Y03963D01*
X040413D01*
X040452Y03967D02*
Y03975D01*
X040532D01*
Y03967D01*
X040452D01*
X03978Y03963D02*
Y03979D01*
X03994D01*
Y03963D01*
X03978D01*
X03982Y03967D02*
Y03975D01*
X0399D01*
Y03967D01*
X03982D01*
X039426Y029566D02*
Y029726D01*
X039586D01*
Y029566D01*
X039426D01*
X039466Y029606D02*
Y029686D01*
X039546D01*
Y029606D01*
X039466D01*
X04213Y0311D02*
Y03126D01*
X04229D01*
Y0311D01*
X04213D01*
X04217Y03114D02*
Y03122D01*
X04225D01*
Y03114D01*
X04217D01*
X0421Y03056D02*
Y03072D01*
X04226D01*
Y03056D01*
X0421D01*
X04214Y0306D02*
Y03068D01*
X04222D01*
Y0306D01*
X04214D01*
X04244Y03083D02*
Y03099D01*
X0426D01*
Y03083D01*
X04244D01*
X04248Y03087D02*
Y03095D01*
X04256D01*
Y03087D01*
X04248D01*
X04176Y03164D02*
Y0318D01*
X04192D01*
Y03164D01*
X04176D01*
X0418Y03168D02*
Y03176D01*
X04188D01*
Y03168D01*
X0418D01*
X0402Y03235D02*
Y03251D01*
X04036D01*
Y03235D01*
X0402D01*
X04024Y03239D02*
Y03247D01*
X04032D01*
Y03239D01*
X04024D01*
X03807Y03392D02*
Y03408D01*
X03823D01*
Y03392D01*
X03807D01*
X03811Y03396D02*
Y03404D01*
X03819D01*
Y03396D01*
X03811D01*
X03856Y03392D02*
Y03408D01*
X03872D01*
Y03392D01*
X03856D01*
X0386Y03396D02*
Y03404D01*
X03868D01*
Y03396D01*
X0386D01*
X04023Y03293D02*
Y03309D01*
X04039D01*
Y03293D01*
X04023D01*
X04027Y03297D02*
Y03305D01*
X04035D01*
Y03297D01*
X04027D01*
X04321Y03546D02*
Y03562D01*
X04337D01*
Y03546D01*
X04321D01*
X04325Y0355D02*
Y03558D01*
X04333D01*
Y0355D01*
X04325D01*
X03914Y03549D02*
Y03565D01*
X0393D01*
Y03549D01*
X03914D01*
X03918Y03553D02*
Y03561D01*
X03926D01*
Y03553D01*
X03918D01*
X04774Y02774D02*
Y0279D01*
X0479D01*
Y02774D01*
X04774D01*
X04778Y02778D02*
Y02786D01*
X04786D01*
Y02778D01*
X04778D01*
X049049Y027705D02*
Y027865D01*
X049209D01*
Y027705D01*
X049049D01*
X049089Y027745D02*
Y027825D01*
X049169D01*
Y027745D01*
X049089D01*
X04733Y02601D02*
Y02617D01*
X04749D01*
Y02601D01*
X04733D01*
X04737Y02605D02*
Y02613D01*
X04745D01*
Y02605D01*
X04737D01*
X04769Y02636D02*
Y02652D01*
X04785D01*
Y02636D01*
X04769D01*
X04773Y0264D02*
Y02648D01*
X04781D01*
Y0264D01*
X04773D01*
X047809Y024745D02*
Y024905D01*
X047969D01*
Y024745D01*
X047809D01*
X047849Y024785D02*
Y024865D01*
X047929D01*
Y024785D01*
X047849D01*
X048199Y024255D02*
Y024415D01*
X048359D01*
Y024255D01*
X048199D01*
X048239Y024295D02*
Y024375D01*
X048319D01*
Y024295D01*
X048239D01*
X045779Y035475D02*
Y035635D01*
X045939D01*
Y035475D01*
X045779D01*
X045819Y035515D02*
Y035595D01*
X045899D01*
Y035515D01*
X045819D01*
X04241Y03487D02*
Y03503D01*
X04257D01*
Y03487D01*
X04241D01*
X04245Y03491D02*
Y03499D01*
X04253D01*
Y03491D01*
X04245D01*
X04659Y035047D02*
Y035207D01*
X04675D01*
Y035047D01*
X04659D01*
X04663Y035087D02*
Y035167D01*
X04671D01*
Y035087D01*
X04663D01*
X046187Y035047D02*
Y035207D01*
X046347D01*
Y035047D01*
X046187D01*
X046227Y035087D02*
Y035167D01*
X046307D01*
Y035087D01*
X046227D01*
X04832Y02528D02*
Y02544D01*
X04848D01*
Y02528D01*
X04832D01*
X04836Y02532D02*
Y0254D01*
X04844D01*
Y02532D01*
X04836D01*
X045153Y03271D02*
Y03287D01*
X045313D01*
Y03271D01*
X045153D01*
X045193Y03275D02*
Y03283D01*
X045273D01*
Y03275D01*
X045193D01*
X04422Y03324D02*
Y0334D01*
X04438D01*
Y03324D01*
X04422D01*
X04426Y03328D02*
Y03336D01*
X04434D01*
Y03328D01*
X04426D01*
X046194Y032539D02*
Y032699D01*
X046354D01*
Y032539D01*
X046194D01*
X046234Y032579D02*
Y032659D01*
X046314D01*
Y032579D01*
X046234D01*
X04514Y03223D02*
Y03239D01*
X0453D01*
Y03223D01*
X04514D01*
X04518Y03227D02*
Y03235D01*
X04526D01*
Y03227D01*
X04518D01*
X044553Y031777D02*
Y031937D01*
X044713D01*
Y031777D01*
X044553D01*
X044593Y031817D02*
Y031897D01*
X044673D01*
Y031817D01*
X044593D01*
X04573Y0324D02*
Y03256D01*
X04589D01*
Y0324D01*
X04573D01*
X04577Y03244D02*
Y03252D01*
X04585D01*
Y03244D01*
X04577D01*
X04449Y03271D02*
Y03287D01*
X04465D01*
Y03271D01*
X04449D01*
X04453Y03275D02*
Y03283D01*
X04461D01*
Y03275D01*
X04453D01*
X04348Y03198D02*
Y03214D01*
X04364D01*
Y03198D01*
X04348D01*
X04352Y03202D02*
Y0321D01*
X0436D01*
Y03202D01*
X04352D01*
X04639Y03308D02*
Y03324D01*
X04655D01*
Y03308D01*
X04639D01*
X04643Y03312D02*
Y0332D01*
X04651D01*
Y03312D01*
X04643D01*
X04589Y03057D02*
Y03073D01*
X04605D01*
Y03057D01*
X04589D01*
X04593Y03061D02*
Y03069D01*
X04601D01*
Y03061D01*
X04593D01*
X04636Y03406D02*
Y03422D01*
X04652D01*
Y03406D01*
X04636D01*
X0464Y0341D02*
Y03418D01*
X04648D01*
Y0341D01*
X0464D01*
X04742Y03314D02*
Y0333D01*
X04758D01*
Y03314D01*
X04742D01*
X04746Y03318D02*
Y03326D01*
X04754D01*
Y03318D01*
X04746D01*
X04778Y03352D02*
Y03368D01*
X04794D01*
Y03352D01*
X04778D01*
X04782Y03356D02*
Y03364D01*
X0479D01*
Y03356D01*
X04782D01*
X049616Y034434D02*
Y034594D01*
X049776D01*
Y034434D01*
X049616D01*
X049656Y034474D02*
Y034554D01*
X049736D01*
Y034474D01*
X049656D01*
X04466Y03776D02*
Y03792D01*
X04482D01*
Y03776D01*
X04466D01*
X0447Y0378D02*
Y03788D01*
X04478D01*
Y0378D01*
X0447D01*
X04486Y0351D02*
Y03526D01*
X04502D01*
Y0351D01*
X04486D01*
X0449Y03514D02*
Y03522D01*
X04498D01*
Y03514D01*
X0449D01*
X04592Y02577D02*
Y02593D01*
X04608D01*
Y02577D01*
X04592D01*
X04596Y02581D02*
Y02589D01*
X04604D01*
Y02581D01*
X04596D01*
X043864Y03388D02*
Y03404D01*
X044024D01*
Y03388D01*
X043864D01*
X043904Y03392D02*
Y034D01*
X043984D01*
Y03392D01*
X043904D01*
X043864Y034321D02*
Y034481D01*
X044024D01*
Y034321D01*
X043864D01*
X043904Y034361D02*
Y034441D01*
X043984D01*
Y034361D01*
X043904D01*
X03724Y03693D02*
Y03709D01*
X0374D01*
Y03693D01*
X03724D01*
X03728Y03697D02*
Y03705D01*
X03736D01*
Y03697D01*
X03728D01*
X04736Y032265D02*
X04728Y032425D01*
X04744D01*
X04736Y032265D01*
Y032305D02*
X04732Y032385D01*
X0474D01*
X04736Y032305D01*
X045106Y029739D02*
Y029899D01*
X045266D01*
Y029739D01*
X045106D01*
X045146Y029779D02*
Y029859D01*
X045226D01*
Y029779D01*
X045146D01*
X04374Y03025D02*
Y03041D01*
X0439D01*
Y03025D01*
X04374D01*
X04378Y03029D02*
Y03037D01*
X04386D01*
Y03029D01*
X04378D01*
X04634Y02886D02*
Y02902D01*
X0465D01*
Y02886D01*
X04634D01*
X04638Y0289D02*
Y02898D01*
X04646D01*
Y0289D01*
X04638D01*
X049838Y025678D02*
Y025838D01*
X049998D01*
Y025678D01*
X049838D01*
X049878Y025718D02*
Y025798D01*
X049958D01*
Y025718D01*
X049878D01*
X04717Y02378D02*
Y02394D01*
X04733D01*
Y02378D01*
X04717D01*
X04721Y02382D02*
Y0239D01*
X04729D01*
Y02382D01*
X04721D01*
X04891Y02187D02*
Y02203D01*
X04907D01*
Y02187D01*
X04891D01*
X04895Y02191D02*
Y02199D01*
X04903D01*
Y02191D01*
X04895D01*
X04807Y02277D02*
Y02293D01*
X04823D01*
Y02277D01*
X04807D01*
X04811Y02281D02*
Y02289D01*
X04819D01*
Y02281D01*
X04811D01*
X05124Y01614D02*
Y0163D01*
X0514D01*
Y01614D01*
X05124D01*
X05128Y01618D02*
Y01626D01*
X05136D01*
Y01618D01*
X05128D01*
X0439Y03763D02*
Y03779D01*
X04406D01*
Y03763D01*
X0439D01*
X04394Y03767D02*
Y03775D01*
X04402D01*
Y03767D01*
X04394D01*
X04226Y03337D02*
Y03353D01*
X04242D01*
Y03337D01*
X04226D01*
X0423Y03341D02*
Y03349D01*
X04238D01*
Y03341D01*
X0423D01*
X039082Y031854D02*
Y032014D01*
X039242D01*
Y031854D01*
X039082D01*
X039122Y031894D02*
Y031974D01*
X039202D01*
Y031894D01*
X039122D01*
X04342Y0313D02*
Y03146D01*
X04358D01*
Y0313D01*
X04342D01*
X04346Y03134D02*
Y03142D01*
X04354D01*
Y03134D01*
X04346D01*
X04985Y03732D02*
Y03748D01*
X05001D01*
Y03732D01*
X04985D01*
X04989Y03736D02*
Y03744D01*
X04997D01*
Y03736D01*
X04989D01*
X05109Y0372D02*
Y03736D01*
X05125D01*
Y0372D01*
X05109D01*
X05113Y03724D02*
Y03732D01*
X05121D01*
Y03724D01*
X05113D01*
X04135Y032867D02*
Y033027D01*
X04151D01*
Y032867D01*
X04135D01*
X04139Y032907D02*
Y032987D01*
X04147D01*
Y032907D01*
X04139D01*
X04076Y02707D02*
Y02723D01*
X04092D01*
Y02707D01*
X04076D01*
X0408Y02711D02*
Y02719D01*
X04088D01*
Y02711D01*
X0408D01*
X04132Y034144D02*
X04124Y034304D01*
X0414D01*
X04132Y034144D01*
Y034184D02*
X04128Y034264D01*
X04136D01*
X04132Y034184D01*
X041119Y033953D02*
X041039Y034113D01*
X041199D01*
X041119Y033953D01*
Y033993D02*
X041079Y034073D01*
X041159D01*
X041119Y033993D01*
X040926Y034144D02*
X040846Y034304D01*
X041006D01*
X040926Y034144D01*
Y034184D02*
X040886Y034264D01*
X040966D01*
X040926Y034184D01*
X04132Y03375D02*
X04124Y03391D01*
X0414D01*
X04132Y03375D01*
Y03379D02*
X04128Y03387D01*
X04136D01*
X04132Y03379D01*
X040926Y03375D02*
X040846Y03391D01*
X041006D01*
X040926Y03375D01*
Y03379D02*
X040886Y03387D01*
X040966D01*
X040926Y03379D01*
X04971Y02862D02*
Y02878D01*
X04987D01*
Y02862D01*
X04971D01*
X04975Y02866D02*
Y02874D01*
X04983D01*
Y02866D01*
X04975D01*
X0475Y01584D02*
Y016D01*
X04766D01*
Y01584D01*
X0475D01*
X04754Y01588D02*
Y01596D01*
X04762D01*
Y01588D01*
X04754D01*
X0475Y01752D02*
Y01768D01*
X04766D01*
Y01752D01*
X0475D01*
X04754Y01756D02*
Y01764D01*
X04762D01*
Y01756D01*
X04754D01*
X04879Y01382D02*
Y01398D01*
X04895D01*
Y01382D01*
X04879D01*
X04883Y01386D02*
Y01394D01*
X04891D01*
Y01386D01*
X04883D01*
X046936Y01382D02*
Y01398D01*
X047096D01*
Y01382D01*
X046936D01*
X046976Y01386D02*
Y01394D01*
X047056D01*
Y01386D01*
X046976D01*
X045082Y01382D02*
Y01398D01*
X045242D01*
Y01382D01*
X045082D01*
X045122Y01386D02*
Y01394D01*
X045202D01*
Y01386D01*
X045122D01*
X043228Y01382D02*
Y01398D01*
X043388D01*
Y01382D01*
X043228D01*
X043268Y01386D02*
Y01394D01*
X043348D01*
Y01386D01*
X043268D01*
X041374Y01382D02*
Y01398D01*
X041534D01*
Y01382D01*
X041374D01*
X041414Y01386D02*
Y01394D01*
X041494D01*
Y01386D01*
X041414D01*
X03952Y01382D02*
Y01398D01*
X03968D01*
Y01382D01*
X03952D01*
X03956Y01386D02*
Y01394D01*
X03964D01*
Y01386D01*
X03956D01*
X03734Y024273D02*
Y024433D01*
X0375D01*
Y024273D01*
X03734D01*
X03738Y024313D02*
Y024393D01*
X03746D01*
Y024313D01*
X03738D01*
X03734Y022917D02*
Y023077D01*
X0375D01*
Y022917D01*
X03734D01*
X03738Y022957D02*
Y023037D01*
X03746D01*
Y022957D01*
X03738D01*
X03734Y021562D02*
Y021722D01*
X0375D01*
Y021562D01*
X03734D01*
X03738Y021602D02*
Y021682D01*
X03746D01*
Y021602D01*
X03738D01*
X03734Y020206D02*
Y020366D01*
X0375D01*
Y020206D01*
X03734D01*
X03738Y020246D02*
Y020326D01*
X03746D01*
Y020246D01*
X03738D01*
X03734Y018851D02*
Y019011D01*
X0375D01*
Y018851D01*
X03734D01*
X03738Y018891D02*
Y018971D01*
X03746D01*
Y018891D01*
X03738D01*
X03734Y017495D02*
Y017655D01*
X0375D01*
Y017495D01*
X03734D01*
X03738Y017535D02*
Y017615D01*
X03746D01*
Y017535D01*
X03738D01*
X03734Y01614D02*
Y0163D01*
X0375D01*
Y01614D01*
X03734D01*
X03738Y01618D02*
Y01626D01*
X03746D01*
Y01618D01*
X03738D01*
X05124Y017495D02*
Y017655D01*
X0514D01*
Y017495D01*
X05124D01*
X05128Y017535D02*
Y017615D01*
X05136D01*
Y017535D01*
X05128D01*
X05124Y018851D02*
Y019011D01*
X0514D01*
Y018851D01*
X05124D01*
X05128Y018891D02*
Y018971D01*
X05136D01*
Y018891D01*
X05128D01*
X05124Y020206D02*
Y020366D01*
X0514D01*
Y020206D01*
X05124D01*
X05128Y020246D02*
Y020326D01*
X05136D01*
Y020246D01*
X05128D01*
X05124Y021562D02*
Y021722D01*
X0514D01*
Y021562D01*
X05124D01*
X05128Y021602D02*
Y021682D01*
X05136D01*
Y021602D01*
X05128D01*
X05124Y022917D02*
Y023077D01*
X0514D01*
Y022917D01*
X05124D01*
X05128Y022957D02*
Y023037D01*
X05136D01*
Y022957D01*
X05128D01*
X05124Y024273D02*
Y024433D01*
X0514D01*
Y024273D01*
X05124D01*
X05128Y024313D02*
Y024393D01*
X05136D01*
Y024313D01*
X05128D01*
X05124Y025628D02*
Y025788D01*
X0514D01*
Y025628D01*
X05124D01*
X05128Y025668D02*
Y025748D01*
X05136D01*
Y025668D01*
X05128D01*
X05124Y026984D02*
Y027144D01*
X0514D01*
Y026984D01*
X05124D01*
X05128Y027024D02*
Y027104D01*
X05136D01*
Y027024D01*
X05128D01*
X05124Y028339D02*
Y028499D01*
X0514D01*
Y028339D01*
X05124D01*
X05128Y028379D02*
Y028459D01*
X05136D01*
Y028379D01*
X05128D01*
X05124Y029695D02*
Y029855D01*
X0514D01*
Y029695D01*
X05124D01*
X05128Y029735D02*
Y029815D01*
X05136D01*
Y029735D01*
X05128D01*
X05124Y03105D02*
Y03121D01*
X0514D01*
Y03105D01*
X05124D01*
X05128Y03109D02*
Y03117D01*
X05136D01*
Y03109D01*
X05128D01*
X05127Y03806D02*
Y03822D01*
X05143D01*
Y03806D01*
X05127D01*
X05131Y0381D02*
Y03818D01*
X05139D01*
Y0381D01*
X05131D01*
X05132Y03494D02*
Y0351D01*
X05148D01*
Y03494D01*
X05132D01*
X05136Y03498D02*
Y03506D01*
X05144D01*
Y03498D01*
X05136D01*
X04929Y03489D02*
Y03505D01*
X04945D01*
Y03489D01*
X04929D01*
X04933Y03493D02*
Y03501D01*
X04941D01*
Y03493D01*
X04933D01*
X04999Y03016D02*
Y03032D01*
X05015D01*
Y03016D01*
X04999D01*
X05003Y0302D02*
Y03028D01*
X05011D01*
Y0302D01*
X05003D01*
X04999Y03068D02*
Y03084D01*
X05015D01*
Y03068D01*
X04999D01*
X05003Y03072D02*
Y0308D01*
X05011D01*
Y03072D01*
X05003D01*
X04827Y03263D02*
Y03279D01*
X04843D01*
Y03263D01*
X04827D01*
X04831Y03267D02*
Y03275D01*
X04839D01*
Y03267D01*
X04831D01*
X04843Y0333D02*
Y03346D01*
X04859D01*
Y0333D01*
X04843D01*
X04847Y03334D02*
Y03342D01*
X04855D01*
Y03334D01*
X04847D01*
X05084Y03374D02*
Y0339D01*
X051D01*
Y03374D01*
X05084D01*
X05088Y03378D02*
Y03386D01*
X05096D01*
Y03378D01*
X05088D01*
X05084Y0344D02*
Y03456D01*
X051D01*
Y0344D01*
X05084D01*
X05088Y03444D02*
Y03452D01*
X05096D01*
Y03444D01*
X05088D01*
X04935Y03278D02*
Y03294D01*
X04951D01*
Y03278D01*
X04935D01*
X04939Y03282D02*
Y0329D01*
X04947D01*
Y03282D01*
X04939D01*
X04965Y03312D02*
Y03328D01*
X04981D01*
Y03312D01*
X04965D01*
X04969Y03316D02*
Y03324D01*
X04977D01*
Y03316D01*
X04969D01*
X04774Y028221D02*
Y028381D01*
X0479D01*
Y028221D01*
X04774D01*
X04778Y028261D02*
Y028341D01*
X04786D01*
Y028261D01*
X04778D01*
X04853Y02864D02*
Y0288D01*
X04869D01*
Y02864D01*
X04853D01*
X04857Y02868D02*
Y02876D01*
X04865D01*
Y02868D01*
X04857D01*
X04334Y02667D02*
Y02683D01*
X0435D01*
Y02667D01*
X04334D01*
X04338Y02671D02*
Y02679D01*
X04346D01*
Y02671D01*
X04338D01*
X0429Y02721D02*
Y02737D01*
X04306D01*
Y02721D01*
X0429D01*
X04294Y02725D02*
Y02733D01*
X04302D01*
Y02725D01*
X04294D01*
X04246Y02776D02*
Y02792D01*
X04262D01*
Y02776D01*
X04246D01*
X0425Y0278D02*
Y02788D01*
X04258D01*
Y0278D01*
X0425D01*
X04161Y02228D02*
Y02244D01*
X04177D01*
Y02228D01*
X04161D01*
X04165Y02232D02*
Y0224D01*
X04173D01*
Y02232D01*
X04165D01*
X04161Y02366D02*
Y02382D01*
X04177D01*
Y02366D01*
X04161D01*
X04165Y0237D02*
Y02378D01*
X04173D01*
Y0237D01*
X04165D01*
X03806Y02603D02*
Y02619D01*
X03822D01*
Y02603D01*
X03806D01*
X0381Y02607D02*
Y02615D01*
X03818D01*
Y02607D01*
X0381D01*
X03806Y02505D02*
Y02521D01*
X03822D01*
Y02505D01*
X03806D01*
X0381Y02509D02*
Y02517D01*
X03818D01*
Y02509D01*
X0381D01*
X03898Y02505D02*
Y02521D01*
X03914D01*
Y02505D01*
X03898D01*
X03902Y02509D02*
Y02517D01*
X0391D01*
Y02509D01*
X03902D01*
X04312Y02522D02*
Y02538D01*
X04328D01*
Y02522D01*
X04312D01*
X04316Y02526D02*
Y02534D01*
X04324D01*
Y02526D01*
X04316D01*
X04257Y02482D02*
Y02498D01*
X04273D01*
Y02482D01*
X04257D01*
X04261Y02486D02*
Y02494D01*
X04269D01*
Y02486D01*
X04261D01*
X04164Y02581D02*
Y02597D01*
X0418D01*
Y02581D01*
X04164D01*
X04168Y02585D02*
Y02593D01*
X04176D01*
Y02585D01*
X04168D01*
X041Y02581D02*
Y02597D01*
X04116D01*
Y02581D01*
X041D01*
X04104Y02585D02*
Y02593D01*
X04112D01*
Y02585D01*
X04104D01*
X04115Y03016D02*
Y03032D01*
X04131D01*
Y03016D01*
X04115D01*
X04119Y0302D02*
Y03028D01*
X04127D01*
Y0302D01*
X04119D01*
X04009Y03065D02*
Y03081D01*
X04025D01*
Y03065D01*
X04009D01*
X04013Y03069D02*
Y03077D01*
X04021D01*
Y03069D01*
X04013D01*
X03924Y03065D02*
Y03081D01*
X0394D01*
Y03065D01*
X03924D01*
X03928Y03069D02*
Y03077D01*
X03936D01*
Y03069D01*
X03928D01*
X04044Y03016D02*
Y03032D01*
X0406D01*
Y03016D01*
X04044D01*
X04048Y0302D02*
Y03028D01*
X04056D01*
Y0302D01*
X04048D01*
X0405Y02881D02*
Y02897D01*
X04066D01*
Y02881D01*
X0405D01*
X04054Y02885D02*
Y02893D01*
X04062D01*
Y02885D01*
X04054D01*
X03724Y02802D02*
Y02818D01*
X0374D01*
Y02802D01*
X03724D01*
X03728Y02806D02*
Y02814D01*
X03736D01*
Y02806D01*
X03728D01*
X03724Y02872D02*
Y02888D01*
X0374D01*
Y02872D01*
X03724D01*
X03728Y02876D02*
Y02884D01*
X03736D01*
Y02876D01*
X03728D01*
X0372Y0304D02*
Y03056D01*
X03736D01*
Y0304D01*
X0372D01*
X03724Y03044D02*
Y03052D01*
X03732D01*
Y03044D01*
X03724D01*
Y03225D02*
Y03241D01*
X0374D01*
Y03225D01*
X03724D01*
X03728Y03229D02*
Y03237D01*
X03736D01*
Y03229D01*
X03728D01*
X03724Y03377D02*
Y03393D01*
X0374D01*
Y03377D01*
X03724D01*
X03728Y03381D02*
Y03389D01*
X03736D01*
Y03381D01*
X03728D01*
X03724Y03538D02*
Y03554D01*
X0374D01*
Y03538D01*
X03724D01*
X03728Y03542D02*
Y0355D01*
X03736D01*
Y03542D01*
X03728D01*
X040704Y024201D02*
Y024361D01*
X040864D01*
Y024201D01*
X040704D01*
X040744Y024241D02*
Y024321D01*
X040824D01*
Y024241D01*
X040744D01*
X04493Y027318D02*
Y027478D01*
X04509D01*
Y027318D01*
X04493D01*
X04497Y027357D02*
Y027438D01*
X04505D01*
Y027357D01*
X04497D01*
X04493Y028814D02*
Y028974D01*
X04509D01*
Y028814D01*
X04493D01*
X04497Y028854D02*
Y028934D01*
X04505D01*
Y028854D01*
X04497D01*
X03883Y02439D02*
Y02455D01*
X03899D01*
Y02439D01*
X03883D01*
X03887Y02443D02*
Y02451D01*
X03895D01*
Y02443D01*
X03887D01*
X044283Y016338D02*
Y016498D01*
X044443D01*
Y016338D01*
X044283D01*
X044323Y016378D02*
Y016458D01*
X044403D01*
Y016378D01*
X044323D01*
X04136Y02456D02*
Y02472D01*
X04152D01*
Y02456D01*
X04136D01*
X0414Y0246D02*
Y02468D01*
X04148D01*
Y0246D01*
X0414D01*
X044285Y01951D02*
Y01967D01*
X044445D01*
Y01951D01*
X044285D01*
X044325Y01955D02*
Y01963D01*
X044405D01*
Y01955D01*
X044325D01*
X040909Y019755D02*
Y019915D01*
X041069D01*
Y019755D01*
X040909D01*
X040949Y019795D02*
Y019875D01*
X041029D01*
Y019795D01*
X040949D01*
X044276Y023167D02*
Y023327D01*
X044436D01*
Y023167D01*
X044276D01*
X044316Y023207D02*
Y023287D01*
X044396D01*
Y023207D01*
X044316D01*
X04765Y019773D02*
Y019933D01*
X04781D01*
Y019773D01*
X04765D01*
X04769Y019813D02*
Y019893D01*
X04777D01*
Y019813D01*
X04769D01*
X04659Y02958D02*
Y02974D01*
X04675D01*
Y02958D01*
X04659D01*
X04663Y02962D02*
Y0297D01*
X04671D01*
Y02962D01*
X04663D01*
X041334Y031622D02*
Y031782D01*
X041494D01*
Y031622D01*
X041334D01*
X041374Y031662D02*
Y031742D01*
X041454D01*
Y031662D01*
X041374D01*
X041742Y027013D02*
Y027173D01*
X041902D01*
Y027013D01*
X041742D01*
X041782Y027053D02*
Y027133D01*
X041862D01*
Y027053D01*
X041782D01*
X04263Y02587D02*
Y02603D01*
X04279D01*
Y02587D01*
X04263D01*
X04267Y02591D02*
Y02599D01*
X04275D01*
Y02591D01*
X04267D01*
X04891Y02677D02*
Y02693D01*
X04907D01*
Y02677D01*
X04891D01*
X04895Y02681D02*
Y02689D01*
X04903D01*
Y02681D01*
X04895D01*
X04864Y03465D02*
Y03481D01*
X0488D01*
Y03465D01*
X04864D01*
X04868Y03469D02*
Y03477D01*
X04876D01*
Y03469D01*
X04868D01*
X05026Y03212D02*
Y03228D01*
X05042D01*
Y03212D01*
X05026D01*
X0503Y03216D02*
Y03224D01*
X05038D01*
Y03216D01*
X0503D01*
X05055Y03118D02*
Y03134D01*
X05071D01*
Y03118D01*
X05055D01*
X05059Y03122D02*
Y0313D01*
X05067D01*
Y03122D01*
X05059D01*
X04675Y02801D02*
Y02817D01*
X04691D01*
Y02801D01*
X04675D01*
X04679Y02805D02*
Y02813D01*
X04687D01*
Y02805D01*
X04679D01*
X03872Y0316D02*
Y03176D01*
X03888D01*
Y0316D01*
X03872D01*
X03876Y03164D02*
Y03172D01*
X03884D01*
Y03164D01*
X03876D01*
X04913Y031739D02*
Y031899D01*
X04929D01*
Y031739D01*
X04913D01*
X04917Y031779D02*
Y031859D01*
X04925D01*
Y031779D01*
X04917D01*
X04994Y03504D02*
Y0352D01*
X0501D01*
Y03504D01*
X04994D01*
X04998Y03508D02*
Y03516D01*
X05006D01*
Y03508D01*
X04998D01*
X04985Y03607D02*
Y03623D01*
X05001D01*
Y03607D01*
X04985D01*
X04989Y03611D02*
Y03619D01*
X04997D01*
Y03611D01*
X04989D01*
X04114Y034983D02*
Y035143D01*
X0413D01*
Y034983D01*
X04114D01*
X04118Y035023D02*
Y035103D01*
X04126D01*
Y035023D01*
X04118D01*
X04065Y03497D02*
Y03513D01*
X04081D01*
Y03497D01*
X04065D01*
X04069Y03501D02*
Y03509D01*
X04077D01*
Y03501D01*
X04069D01*
X04167Y03499D02*
Y03515D01*
X04183D01*
Y03499D01*
X04167D01*
X04171Y03503D02*
Y03511D01*
X04179D01*
Y03503D01*
X04171D01*
X04083Y03291D02*
Y03307D01*
X04099D01*
Y03291D01*
X04083D01*
X04087Y03295D02*
Y03303D01*
X04095D01*
Y03295D01*
X04087D01*
X04176Y03394D02*
Y0341D01*
X04192D01*
Y03394D01*
X04176D01*
X0418Y03398D02*
Y03406D01*
X04188D01*
Y03398D01*
X0418D01*
X04014Y02765D02*
Y02781D01*
X0403D01*
Y02765D01*
X04014D01*
X04018Y02769D02*
Y02777D01*
X04026D01*
Y02769D01*
X04018D01*
X05109Y03582D02*
Y03598D01*
X05125D01*
Y03582D01*
X05109D01*
X05113Y03586D02*
Y03594D01*
X05121D01*
Y03586D01*
X05113D01*
X05017Y032971D02*
Y033131D01*
X05033D01*
Y032971D01*
X05017D01*
X05021Y033011D02*
Y033091D01*
X05029D01*
Y033011D01*
X05021D01*
X037455Y029795D02*
Y029955D01*
X037615D01*
Y029795D01*
X037455D01*
X037495Y029835D02*
Y029915D01*
X037575D01*
Y029835D01*
X037495D01*
X04833Y030197D02*
Y030357D01*
X04849D01*
Y030197D01*
X04833D01*
X04837Y030237D02*
Y030317D01*
X04845D01*
Y030237D01*
X04837D01*
X04819Y03064D02*
Y0308D01*
X04835D01*
Y03064D01*
X04819D01*
X04823Y03068D02*
Y03076D01*
X04831D01*
Y03068D01*
X04823D01*
X04831Y0298D02*
Y02996D01*
X04847D01*
Y0298D01*
X04831D01*
X04835Y02984D02*
Y02992D01*
X04843D01*
Y02984D01*
X04835D01*
X04592Y02627D02*
Y02643D01*
X04608D01*
Y02627D01*
X04592D01*
X04596Y02631D02*
Y02639D01*
X04604D01*
Y02631D01*
X04596D01*
X04493Y03031D02*
Y03047D01*
X04509D01*
Y03031D01*
X04493D01*
X04497Y03035D02*
Y03043D01*
X04505D01*
Y03035D01*
X04497D01*
X04151Y02769D02*
Y02785D01*
X04167D01*
Y02769D01*
X04151D01*
X04155Y02773D02*
Y02781D01*
X04163D01*
Y02773D01*
X04155D01*
X040105Y025891D02*
Y026051D01*
X040265D01*
Y025891D01*
X040105D01*
X040145Y025931D02*
Y026011D01*
X040225D01*
Y025931D01*
X040145D01*
X041112Y027309D02*
Y027469D01*
X041272D01*
Y027309D01*
X041112D01*
X041152Y027349D02*
Y027429D01*
X041232D01*
Y027349D01*
X041152D01*
X0406Y02778D02*
Y02794D01*
X04076D01*
Y02778D01*
X0406D01*
X04064Y02782D02*
Y0279D01*
X04072D01*
Y02782D01*
X04064D01*
X03845Y02851D02*
Y02867D01*
X03861D01*
Y02851D01*
X03845D01*
X03849Y02855D02*
Y02863D01*
X03857D01*
Y02855D01*
X03849D01*
X038153Y030077D02*
Y030237D01*
X038313D01*
Y030077D01*
X038153D01*
X038193Y030117D02*
Y030197D01*
X038273D01*
Y030117D01*
X038193D01*
X03825Y02896D02*
Y02912D01*
X03841D01*
Y02896D01*
X03825D01*
X03829Y029D02*
Y02908D01*
X03837D01*
Y029D01*
X03829D01*
X03861Y03337D02*
Y03353D01*
X03877D01*
Y03337D01*
X03861D01*
X03865Y03341D02*
Y03349D01*
X03873D01*
Y03341D01*
X03865D01*
X03781Y02905D02*
Y02921D01*
X03797D01*
Y02905D01*
X03781D01*
X03785Y02909D02*
Y02917D01*
X03793D01*
Y02909D01*
X03785D01*
X03748Y02927D02*
Y02943D01*
X03764D01*
Y02927D01*
X03748D01*
X03752Y02931D02*
Y02939D01*
X0376D01*
Y02931D01*
X03752D01*
X03806Y03051D02*
Y03067D01*
X03822D01*
Y03051D01*
X03806D01*
X0381Y03055D02*
Y03063D01*
X03818D01*
Y03055D01*
X0381D01*
X04011Y0346D02*
Y03476D01*
X04027D01*
Y0346D01*
X04011D01*
X04015Y03464D02*
Y03472D01*
X04023D01*
Y03464D01*
X04015D01*
X039946Y033943D02*
Y034103D01*
X040106D01*
Y033943D01*
X039946D01*
X039986Y033983D02*
Y034063D01*
X040066D01*
Y033983D01*
X039986D01*
X04103Y03688D02*
Y03704D01*
X04119D01*
Y03688D01*
X04103D01*
X04107Y03692D02*
Y037D01*
X04115D01*
Y03692D01*
X04107D01*
D118*
X039529Y039563D02*
G03*
X039529Y039563I-00008J0D01*
G01*
Y037917D02*
G03*
X039529Y037917I-00008J0D01*
G01*
X042931Y039563D02*
G03*
X042931Y039563I-00008J0D01*
G01*
Y037917D02*
G03*
X042931Y037917I-00008J0D01*
G01*
X04507Y03425D02*
G03*
X04507Y03425I-00008J0D01*
G01*
D119*
X04503D02*
G03*
X04503Y03425I-00004J0D01*
G01*
M02*
