G04*
G04 #@! TF.GenerationSoftware,Altium Limited,Altium Designer,21.3.2 (30)*
G04*
G04 Layer_Color=128*
%FSTAX24Y24*%
%MOIN*%
G70*
G04*
G04 #@! TF.SameCoordinates,65AEA3AE-AEA4-4408-87EB-DFBB4D2FCE8C*
G04*
G04*
G04 #@! TF.FilePolarity,Positive*
G04*
G01*
G75*
%ADD41C,0.0020*%
D41*
X031217Y02975D02*
X041374D01*
X036295Y024671D02*
Y034829D01*
X042489Y035331D02*
X042961D01*
X042725Y035095D02*
Y035568D01*
X03862Y0373D02*
X038955D01*
X038788Y037133D02*
Y037467D01*
X03862Y038875D02*
X038955D01*
X038788Y038707D02*
Y039042D01*
X042489Y039269D02*
X042961D01*
X042725Y039032D02*
Y039505D01*
X03862Y035725D02*
X038955D01*
X038788Y035558D02*
Y035893D01*
X042744Y04192D02*
X043D01*
X042872Y041792D02*
Y042048D01*
X041957Y04192D02*
X042213D01*
X042085Y041792D02*
Y042048D01*
X041957Y041133D02*
X042213D01*
X042085Y041005D02*
Y041261D01*
X042744Y041133D02*
X043D01*
X042872Y041005D02*
Y041261D01*
X030352Y04192D02*
X030608D01*
X03048Y041792D02*
Y042048D01*
X029565Y04192D02*
X029821D01*
X029693Y041792D02*
Y042048D01*
X029565Y041133D02*
X029821D01*
X029693Y041005D02*
Y041261D01*
X030352Y041133D02*
X030608D01*
X03048Y041005D02*
Y041261D01*
X030352Y01752D02*
X030608D01*
X03048Y017392D02*
Y017648D01*
X029565Y01752D02*
X029821D01*
X029693Y017392D02*
Y017648D01*
X029565Y016733D02*
X029821D01*
X029693Y016605D02*
Y016861D01*
X030352Y016733D02*
X030608D01*
X03048Y016605D02*
Y016861D01*
X042744Y01752D02*
X043D01*
X042872Y017392D02*
Y017648D01*
X041957Y01752D02*
X042213D01*
X042085Y017392D02*
Y017648D01*
X041957Y016733D02*
X042213D01*
X042085Y016605D02*
Y016861D01*
X042744Y016733D02*
X043D01*
X042872Y016605D02*
Y016861D01*
X030784Y02237D02*
X041807D01*
X036295Y016858D02*
Y027882D01*
X036152Y0319D02*
X036348D01*
X03625Y031802D02*
Y031998D01*
X036552Y03145D02*
X036748D01*
X03665Y031352D02*
Y031548D01*
X040502Y0323D02*
X040698D01*
X0406Y032202D02*
Y032398D01*
X040502Y03415D02*
X040698D01*
X0406Y034052D02*
Y034248D01*
X040502Y036D02*
X040698D01*
X0406Y035902D02*
Y036098D01*
X040502Y03785D02*
X040698D01*
X0406Y037752D02*
Y037948D01*
X040502Y0397D02*
X040698D01*
X0406Y039602D02*
Y039798D01*
X031802Y0323D02*
X031998D01*
X0319Y032202D02*
Y032398D01*
X031802Y03415D02*
X031998D01*
X0319Y034052D02*
Y034248D01*
X031802Y036D02*
X031998D01*
X0319Y035902D02*
Y036098D01*
X031802Y03785D02*
X031998D01*
X0319Y037752D02*
Y037948D01*
X031802Y0397D02*
X031998D01*
X0319Y039602D02*
Y039798D01*
X034602Y03725D02*
X034798D01*
X0347Y037152D02*
Y037348D01*
X037002Y03765D02*
X037198D01*
X0371Y037552D02*
Y037748D01*
M02*
