G04*
G04 #@! TF.GenerationSoftware,Altium Limited,Altium Designer,21.3.2 (30)*
G04*
G04 Layer_Physical_Order=1*
G04 Layer_Color=255*
%FSTAX24Y24*%
%MOIN*%
G70*
G04*
G04 #@! TF.SameCoordinates,65AEA3AE-AEA4-4408-87EB-DFBB4D2FCE8C*
G04*
G04*
G04 #@! TF.FilePolarity,Positive*
G04*
G01*
G75*
%ADD17C,0.0120*%
%ADD18C,0.0394*%
%ADD19O,1.0157X0.0394*%
%ADD20C,0.0787*%
%ADD21C,0.0630*%
%ADD22C,0.0413*%
%ADD23R,0.0413X0.0413*%
%ADD24C,1.0630*%
%ADD25C,0.0394*%
G36*
X043556Y016054D02*
X029005D01*
X029005Y042587D01*
X043556D01*
X043556Y016054D01*
D02*
G37*
%LPC*%
G36*
X042913Y042227D02*
X042832D01*
X042754Y042206D01*
X042684Y042165D01*
X042627Y042108D01*
X042586Y042038D01*
X042566Y04196D01*
Y04188D01*
X042586Y041802D01*
X042627Y041732D01*
X042684Y041675D01*
X042754Y041634D01*
X042832Y041613D01*
X042913D01*
X042991Y041634D01*
X043061Y041675D01*
X043118Y041732D01*
X043158Y041802D01*
X043179Y04188D01*
Y04196D01*
X043158Y042038D01*
X043118Y042108D01*
X043061Y042165D01*
X042991Y042206D01*
X042913Y042227D01*
D02*
G37*
G36*
X042125D02*
X042044D01*
X041966Y042206D01*
X041896Y042165D01*
X041839Y042108D01*
X041799Y042038D01*
X041778Y04196D01*
Y04188D01*
X041799Y041802D01*
X041839Y041732D01*
X041896Y041675D01*
X041966Y041634D01*
X042044Y041613D01*
X042125D01*
X042203Y041634D01*
X042273Y041675D01*
X04233Y041732D01*
X042371Y041802D01*
X042392Y04188D01*
Y04196D01*
X042371Y042038D01*
X04233Y042108D01*
X042273Y042165D01*
X042203Y042206D01*
X042125Y042227D01*
D02*
G37*
G36*
X03052Y041439D02*
X03044D01*
X030412Y041432D01*
X029999D01*
Y041439D01*
X029386D01*
Y040826D01*
X029999D01*
Y040833D01*
X030412D01*
X03044Y040826D01*
X03052D01*
X030548Y040833D01*
X034543D01*
X037009Y038367D01*
Y037933D01*
X036985Y037927D01*
X036918Y037888D01*
X036862Y037832D01*
X036823Y037765D01*
X036803Y037689D01*
Y037611D01*
X036756Y037549D01*
X0347D01*
X034681Y037547D01*
X034661D01*
X034642Y037542D01*
X034623Y037539D01*
X034604Y037532D01*
X034585Y037527D01*
X034568Y037517D01*
X03455Y037509D01*
X034535Y037497D01*
X034518Y037488D01*
X034504Y037474D01*
X034488Y037462D01*
X034476Y037446D01*
X034462Y037432D01*
X034453Y037415D01*
X034441Y0374D01*
X034433Y037382D01*
X034423Y037365D01*
X034418Y037346D01*
X034411Y037327D01*
X034408Y037308D01*
X034403Y037289D01*
Y037269D01*
X034401Y03725D01*
X034403Y037231D01*
Y037211D01*
X034408Y037192D01*
X034411Y037173D01*
X034418Y037154D01*
X034423Y037135D01*
X034433Y037118D01*
X034441Y0371D01*
X034453Y037085D01*
X034462Y037068D01*
X034476Y037054D01*
X034488Y037038D01*
X034504Y037026D01*
X034518Y037012D01*
X034535Y037003D01*
X03455Y036991D01*
X034568Y036983D01*
X034585Y036973D01*
X034604Y036968D01*
X034623Y036961D01*
X034642Y036958D01*
X034661Y036953D01*
X034681D01*
X0347Y036951D01*
X037009D01*
Y035956D01*
X037019Y035878D01*
X037049Y035806D01*
X037097Y035744D01*
X037328Y035513D01*
X03739Y035466D01*
X037419Y035454D01*
X037462Y035436D01*
X037539Y035426D01*
X0385D01*
X038533Y035393D01*
X038628Y035339D01*
X038733Y03531D01*
X038842D01*
X038948Y035339D01*
X039043Y035393D01*
X03912Y03547D01*
X039174Y035565D01*
X039203Y035671D01*
Y03578D01*
X039174Y035885D01*
X03912Y03598D01*
X039043Y036057D01*
X038948Y036112D01*
X038842Y03614D01*
X038733D01*
X038628Y036112D01*
X038533Y036057D01*
X0385Y036025D01*
X037663D01*
X037608Y03608D01*
Y037246D01*
Y038491D01*
X037598Y038569D01*
X037568Y038641D01*
X03752Y038703D01*
X034879Y041344D01*
X034817Y041392D01*
X034745Y041422D01*
X034667Y041432D01*
X030548D01*
X03052Y041439D01*
D02*
G37*
G36*
X042913D02*
X042832D01*
X042754Y041418D01*
X042684Y041378D01*
X042627Y041321D01*
X042586Y041251D01*
X042566Y041173D01*
Y041092D01*
X042586Y041014D01*
X042627Y040944D01*
X042684Y040887D01*
X042754Y040847D01*
X042832Y040826D01*
X042913D01*
X042991Y040847D01*
X043061Y040887D01*
X043118Y040944D01*
X043158Y041014D01*
X043179Y041092D01*
Y041173D01*
X043158Y041251D01*
X043118Y041321D01*
X043061Y041378D01*
X042991Y041418D01*
X042913Y041439D01*
D02*
G37*
G36*
X042392D02*
X041778D01*
Y040826D01*
X042392D01*
Y041439D01*
D02*
G37*
G36*
X04279Y039762D02*
X04266D01*
X042534Y039729D01*
X042422Y039664D01*
X04233Y039572D01*
X042265Y039459D01*
X042231Y039334D01*
Y039204D01*
X042265Y039078D01*
X04233Y038965D01*
X042422Y038873D01*
X042534Y038808D01*
X04266Y038775D01*
X04279D01*
X042915Y038808D01*
X043028Y038873D01*
X04312Y038965D01*
X043185Y039078D01*
X043218Y039204D01*
Y039334D01*
X043185Y039459D01*
X04312Y039572D01*
X043028Y039664D01*
X042915Y039729D01*
X04279Y039762D01*
D02*
G37*
G36*
X038842Y037715D02*
X038733D01*
X038628Y037687D01*
X038533Y037632D01*
X038456Y037555D01*
X038401Y03746D01*
X038373Y037355D01*
Y037245D01*
X038401Y03714D01*
X038456Y037045D01*
X038533Y036968D01*
X038628Y036913D01*
X038733Y036885D01*
X038842D01*
X038948Y036913D01*
X039043Y036968D01*
X03912Y037045D01*
X039174Y03714D01*
X039203Y037245D01*
Y037355D01*
X039174Y03746D01*
X03912Y037555D01*
X039043Y037632D01*
X038948Y037687D01*
X038842Y037715D01*
D02*
G37*
G36*
X04279Y035825D02*
X04266D01*
X042534Y035792D01*
X042422Y035727D01*
X04233Y035635D01*
X042265Y035522D01*
X042231Y035396D01*
Y035266D01*
X042265Y035141D01*
X04233Y035028D01*
X042422Y034936D01*
X042534Y034871D01*
X04266Y034838D01*
X04279D01*
X042915Y034871D01*
X043028Y034936D01*
X04312Y035028D01*
X043185Y035141D01*
X043218Y035266D01*
Y035396D01*
X043185Y035522D01*
X04312Y035635D01*
X043028Y035727D01*
X042915Y035792D01*
X04279Y035825D01*
D02*
G37*
G36*
X042125Y017827D02*
X042044D01*
X041966Y017806D01*
X041896Y017765D01*
X041839Y017708D01*
X041799Y017638D01*
X041778Y01756D01*
Y01748D01*
X041799Y017402D01*
X041839Y017332D01*
X041896Y017275D01*
X041966Y017234D01*
X042044Y017213D01*
X042125D01*
X042203Y017234D01*
X042273Y017275D01*
X04233Y017332D01*
X042371Y017402D01*
X042392Y01748D01*
Y01756D01*
X042371Y017638D01*
X04233Y017708D01*
X042273Y017765D01*
X042203Y017806D01*
X042125Y017827D01*
D02*
G37*
G36*
X03052D02*
X03044D01*
X030362Y017806D01*
X030292Y017765D01*
X030235Y017708D01*
X030194Y017638D01*
X030173Y01756D01*
Y01748D01*
X030194Y017402D01*
X030235Y017332D01*
X030292Y017275D01*
X030362Y017234D01*
X03044Y017213D01*
X03052D01*
X030598Y017234D01*
X030668Y017275D01*
X030725Y017332D01*
X030766Y017402D01*
X030787Y01748D01*
Y01756D01*
X030766Y017638D01*
X030725Y017708D01*
X030668Y017765D01*
X030598Y017806D01*
X03052Y017827D01*
D02*
G37*
G36*
X029733D02*
X029652D01*
X029574Y017806D01*
X029504Y017765D01*
X029447Y017708D01*
X029407Y017638D01*
X029386Y01756D01*
Y01748D01*
X029407Y017402D01*
X029447Y017332D01*
X029504Y017275D01*
X029574Y017234D01*
X029652Y017213D01*
X029733D01*
X029811Y017234D01*
X029881Y017275D01*
X029938Y017332D01*
X029978Y017402D01*
X029999Y01748D01*
Y01756D01*
X029978Y017638D01*
X029938Y017708D01*
X029881Y017765D01*
X029811Y017806D01*
X029733Y017827D01*
D02*
G37*
G36*
X036289Y032197D02*
X036211D01*
X036135Y032177D01*
X036068Y032138D01*
X036012Y032082D01*
X035973Y032015D01*
X035953Y031939D01*
Y031861D01*
X035973Y031785D01*
X036012Y031718D01*
X036068Y031662D01*
X036087Y031651D01*
Y031029D01*
X036099Y030967D01*
X036135Y030914D01*
X036718Y030331D01*
X03677Y030296D01*
X036833Y030283D01*
X041161D01*
X04215Y029294D01*
Y019525D01*
X042163Y019463D01*
X042198Y01941D01*
X042709Y018899D01*
Y01778D01*
X042684Y017765D01*
X042627Y017708D01*
X042586Y017638D01*
X042566Y01756D01*
Y01748D01*
X042586Y017402D01*
X042627Y017332D01*
X042684Y017275D01*
X042754Y017234D01*
X042832Y017213D01*
X042913D01*
X042954Y017224D01*
X043031Y017184D01*
X043041Y017171D01*
X043046Y017137D01*
X042941Y017032D01*
X042913Y017039D01*
X042832D01*
X042754Y017018D01*
X042684Y016978D01*
X042627Y016921D01*
X042586Y016851D01*
X042566Y016773D01*
Y016692D01*
X042586Y016614D01*
X042627Y016544D01*
X042684Y016487D01*
X042754Y016447D01*
X042832Y016426D01*
X042913D01*
X042991Y016447D01*
X043061Y016487D01*
X043118Y016544D01*
X043158Y016614D01*
X043179Y016692D01*
Y016773D01*
X043171Y016801D01*
X043373Y017002D01*
X043408Y017055D01*
X04342Y017118D01*
Y018898D01*
X04342Y018898D01*
X043408Y018961D01*
X043373Y019014D01*
X042697Y01969D01*
Y029453D01*
X042684Y029515D01*
X042649Y029568D01*
X041435Y030782D01*
X041382Y030817D01*
X041319Y03083D01*
X036992D01*
X036813Y031008D01*
Y031201D01*
X036832Y031212D01*
X036888Y031268D01*
X036927Y031335D01*
X036947Y031411D01*
Y031489D01*
X036927Y031565D01*
X036888Y031632D01*
X036832Y031688D01*
X036765Y031727D01*
X036689Y031747D01*
X036611D01*
X036594Y031742D01*
X036573Y031756D01*
X036533Y031809D01*
X036547Y031861D01*
Y031939D01*
X036527Y032015D01*
X036488Y032082D01*
X036432Y032138D01*
X036365Y032177D01*
X036289Y032197D01*
D02*
G37*
G36*
X036516Y027982D02*
X036075D01*
X035635Y027947D01*
X0352Y027878D01*
X034771Y027775D01*
X034352Y027639D01*
X033944Y02747D01*
X033551Y02727D01*
X033175Y02704D01*
X032818Y02678D01*
X032483Y026494D01*
X032171Y026182D01*
X031885Y025847D01*
X031626Y02549D01*
X031395Y025114D01*
X031195Y024721D01*
X031026Y024314D01*
X03089Y023894D01*
X030787Y023466D01*
X030718Y02303D01*
X030684Y02259D01*
Y02215D01*
X030718Y02171D01*
X030787Y021274D01*
X03089Y020846D01*
X031026Y020426D01*
X031195Y020019D01*
X031395Y019626D01*
X031626Y01925D01*
X031885Y018893D01*
X032171Y018558D01*
X032483Y018246D01*
X032818Y01796D01*
X033175Y0177D01*
X033551Y01747D01*
X033944Y01727D01*
X034352Y017101D01*
X034771Y016965D01*
X0352Y016862D01*
X035635Y016793D01*
X036075Y016758D01*
X036516D01*
X036955Y016793D01*
X037391Y016862D01*
X03782Y016965D01*
X038239Y017101D01*
X038647Y01727D01*
X03904Y01747D01*
X039416Y0177D01*
X039772Y01796D01*
X040108Y018246D01*
X040419Y018558D01*
X040706Y018893D01*
X040965Y01925D01*
X041195Y019626D01*
X041396Y020019D01*
X041564Y020426D01*
X041701Y020846D01*
X041804Y021274D01*
X041873Y02171D01*
X041907Y02215D01*
Y02259D01*
X041873Y02303D01*
X041804Y023466D01*
X041701Y023894D01*
X041564Y024314D01*
X041396Y024721D01*
X041195Y025114D01*
X040965Y02549D01*
X040706Y025847D01*
X040419Y026182D01*
X040108Y026494D01*
X039772Y02678D01*
X039416Y02704D01*
X03904Y02727D01*
X038647Y02747D01*
X038239Y027639D01*
X03782Y027775D01*
X037391Y027878D01*
X036955Y027947D01*
X036516Y027982D01*
D02*
G37*
G36*
X042392Y017039D02*
X041778D01*
Y016426D01*
X042392D01*
Y017039D01*
D02*
G37*
G36*
X03052D02*
X03044D01*
X030362Y017018D01*
X030292Y016978D01*
X030235Y016921D01*
X030194Y016851D01*
X030173Y016773D01*
Y016692D01*
X030194Y016614D01*
X030235Y016544D01*
X030292Y016487D01*
X030362Y016447D01*
X03044Y016426D01*
X03052D01*
X030598Y016447D01*
X030668Y016487D01*
X030725Y016544D01*
X030766Y016614D01*
X030787Y016692D01*
Y016773D01*
X030766Y016851D01*
X030725Y016921D01*
X030668Y016978D01*
X030598Y017018D01*
X03052Y017039D01*
D02*
G37*
G36*
X029999D02*
X029386D01*
Y016426D01*
X029999D01*
Y017039D01*
D02*
G37*
%LPD*%
D17*
X042533Y019622D02*
Y029453D01*
X042313Y019525D02*
Y029361D01*
X036833Y030447D02*
X041228D01*
X036924Y030667D02*
X041319D01*
X042533Y029453D01*
X041228Y030447D02*
X042313Y029361D01*
X043257Y017118D02*
Y018898D01*
X042533Y019622D02*
X043257Y018898D01*
X042313Y019525D02*
X042872Y018967D01*
Y01752D02*
Y018967D01*
X03665Y030941D02*
X036924Y030667D01*
X03665Y030941D02*
Y03145D01*
X03625Y031029D02*
Y0319D01*
Y031029D02*
X036833Y030447D01*
X042872Y016733D02*
X043257Y017118D01*
D18*
X037309Y037246D02*
Y038491D01*
Y035956D02*
X037539Y035725D01*
X038788D01*
X037309Y035956D02*
Y037246D01*
X037305Y03725D02*
X037309Y037246D01*
X0347Y03725D02*
X037305D01*
X034667Y041133D02*
X037309Y038491D01*
X03048Y041133D02*
X034667D01*
X029693D02*
X03048D01*
D19*
X036295Y02975D02*
D03*
D20*
X042725Y035331D02*
D03*
Y039269D02*
D03*
D21*
X038788Y0373D02*
D03*
Y038875D02*
D03*
Y035725D02*
D03*
D22*
X042872Y04192D02*
D03*
X042085D02*
D03*
X042872Y041133D02*
D03*
X03048Y04192D02*
D03*
X029693D02*
D03*
X03048Y041133D02*
D03*
Y01752D02*
D03*
X029693D02*
D03*
X03048Y016733D02*
D03*
X042872Y01752D02*
D03*
X042085D02*
D03*
X042872Y016733D02*
D03*
D23*
X042085Y041133D02*
D03*
X029693D02*
D03*
Y016733D02*
D03*
X042085D02*
D03*
D24*
X036295Y02237D02*
D03*
D25*
X03625Y0319D02*
D03*
X03665Y03145D02*
D03*
X0406Y0323D02*
D03*
Y03415D02*
D03*
Y036D02*
D03*
Y03785D02*
D03*
Y0397D02*
D03*
X0319Y0323D02*
D03*
Y03415D02*
D03*
Y036D02*
D03*
Y03785D02*
D03*
Y0397D02*
D03*
X0347Y03725D02*
D03*
X0371Y03765D02*
D03*
M02*
