G04*
G04 #@! TF.GenerationSoftware,Altium Limited,Altium Designer,21.3.2 (30)*
G04*
G04 Layer_Color=16711935*
%FSTAX24Y24*%
%MOIN*%
G70*
G04*
G04 #@! TF.SameCoordinates,65AEA3AE-AEA4-4408-87EB-DFBB4D2FCE8C*
G04*
G04*
G04 #@! TF.FilePolarity,Negative*
G04*
G01*
G75*
%ADD12C,0.0867*%
%ADD13C,0.0710*%
%ADD14C,0.0493*%
%ADD15R,0.0493X0.0493*%
%ADD32R,0.0218X0.0867*%
%ADD33R,0.0400X0.0460*%
%ADD34R,0.0460X0.0400*%
%ADD35R,0.0552X0.0415*%
%ADD36C,0.0480*%
%ADD37C,0.0474*%
D12*
X042725Y035331D02*
D03*
Y039269D02*
D03*
D13*
X038788Y0373D02*
D03*
Y038875D02*
D03*
Y035725D02*
D03*
D14*
X042872Y04192D02*
D03*
X042085D02*
D03*
X042872Y041133D02*
D03*
X03048Y04192D02*
D03*
X029693D02*
D03*
X03048Y041133D02*
D03*
Y01752D02*
D03*
X029693D02*
D03*
X03048Y016733D02*
D03*
X042872Y01752D02*
D03*
X042085D02*
D03*
X042872Y016733D02*
D03*
D15*
X042085Y041133D02*
D03*
X029693D02*
D03*
Y016733D02*
D03*
X042085D02*
D03*
D32*
X036278Y033293D02*
D03*
X036002D02*
D03*
X039034D02*
D03*
X038758D02*
D03*
X038482D02*
D03*
X038207D02*
D03*
X037931D02*
D03*
X036829D02*
D03*
X037656D02*
D03*
X03738D02*
D03*
X036553D02*
D03*
X037104D02*
D03*
D33*
X0347Y03565D02*
D03*
X03414D02*
D03*
X03708Y03702D02*
D03*
X03652D02*
D03*
X03708Y03767D02*
D03*
X03652D02*
D03*
D34*
X0347Y0368D02*
D03*
Y03624D02*
D03*
X03725Y03567D02*
D03*
Y03623D02*
D03*
D35*
X036434Y036024D02*
D03*
X035452Y036394D02*
D03*
X03545Y03565D02*
D03*
D36*
X0394Y04205D02*
D03*
X0404D02*
D03*
X0384D02*
D03*
X0374D02*
D03*
X04Y03185D02*
D03*
D37*
X036295Y02237D02*
D03*
M02*
