G04*
G04 #@! TF.GenerationSoftware,Altium Limited,Altium Designer,21.3.2 (30)*
G04*
G04 Layer_Physical_Order=2*
G04 Layer_Color=16711680*
%FSTAX24Y24*%
%MOIN*%
G70*
G04*
G04 #@! TF.SameCoordinates,65AEA3AE-AEA4-4408-87EB-DFBB4D2FCE8C*
G04*
G04*
G04 #@! TF.FilePolarity,Positive*
G04*
G01*
G75*
%ADD17C,0.0120*%
%ADD18C,0.0394*%
%ADD19O,1.0157X0.0394*%
%ADD20C,0.0787*%
%ADD21C,0.0630*%
%ADD22C,0.0413*%
%ADD23R,0.0413X0.0413*%
%ADD25C,0.0394*%
%ADD26R,0.0138X0.0787*%
%ADD27R,0.0320X0.0380*%
%ADD28R,0.0380X0.0320*%
%ADD29R,0.0472X0.0335*%
%ADD30C,0.0400*%
%ADD31C,0.0150*%
G36*
X043556Y016054D02*
X029977D01*
X029969Y016133D01*
X030021Y016169D01*
X030229Y016376D01*
X030264Y016429D01*
X03035Y016453D01*
X030362Y016447D01*
X03044Y016426D01*
X03052D01*
X030598Y016447D01*
X030668Y016487D01*
X030725Y016544D01*
X030766Y016614D01*
X030787Y016692D01*
Y016773D01*
X030779Y016801D01*
X031115Y017137D01*
X031151Y01719D01*
X031163Y017253D01*
Y018375D01*
X031151Y018438D01*
X031115Y018491D01*
X030368Y019238D01*
Y029288D01*
X031497Y030416D01*
X03693D01*
X036993Y030429D01*
X037046Y030464D01*
X037693Y031111D01*
X037728Y031164D01*
X037741Y031227D01*
Y032062D01*
X037728Y032124D01*
X037693Y032177D01*
X037543Y032327D01*
Y0328D01*
X037549D01*
Y033787D01*
X036109D01*
Y0328D01*
X036114D01*
Y032607D01*
X035685Y032177D01*
X035649Y032124D01*
X035637Y032062D01*
Y031532D01*
X035288Y031183D01*
X033629D01*
X033599Y031257D01*
X034255Y031913D01*
X034291Y031966D01*
X034303Y032029D01*
Y035303D01*
X03436Y03536D01*
X03442Y03536D01*
X03448Y03536D01*
X03496D01*
Y035487D01*
X035114D01*
Y035383D01*
X035786D01*
Y035917D01*
X035114D01*
Y035813D01*
X03496D01*
Y035912D01*
X03499Y03598D01*
X03499D01*
X03499Y03598D01*
Y03646D01*
X03499Y03652D01*
X03499Y03658D01*
Y036829D01*
X034999Y0369D01*
Y03725D01*
X034997Y037269D01*
Y037289D01*
X034992Y037308D01*
X034989Y037327D01*
X034982Y037346D01*
X034977Y037365D01*
X034967Y037382D01*
X034959Y0374D01*
X034947Y037415D01*
X034938Y037432D01*
X034924Y037446D01*
X034912Y037462D01*
X034896Y037474D01*
X034882Y037488D01*
X034865Y037497D01*
X03485Y037509D01*
X034832Y037517D01*
X034815Y037527D01*
X034796Y037532D01*
X034777Y037539D01*
X034758Y037542D01*
X034739Y037547D01*
X034719D01*
X0347Y037549D01*
X034681Y037547D01*
X034661D01*
X034642Y037542D01*
X034623Y037539D01*
X034604Y037532D01*
X034585Y037527D01*
X034568Y037517D01*
X03455Y037509D01*
X034535Y037497D01*
X034518Y037488D01*
X034504Y037474D01*
X034488Y037462D01*
X034476Y037446D01*
X034462Y037432D01*
X034453Y037415D01*
X034441Y0374D01*
X034433Y037382D01*
X034423Y037365D01*
X034418Y037346D01*
X034411Y037327D01*
X034408Y037308D01*
X034403Y037289D01*
Y037269D01*
X034401Y03725D01*
Y0369D01*
X03441Y036829D01*
X03441Y03652D01*
X03441Y03646D01*
Y036016D01*
X034405Y035977D01*
X034347Y03594D01*
X03388D01*
Y03536D01*
X033977D01*
Y032096D01*
X033284Y031403D01*
X031156D01*
X031156Y031403D01*
X031093Y03139D01*
X03104Y031355D01*
X029429Y029744D01*
X029394Y029691D01*
X029381Y029629D01*
Y019223D01*
X029079Y01892D01*
X029005Y01895D01*
X029005Y042587D01*
X043556D01*
X043556Y016054D01*
D02*
G37*
%LPC*%
G36*
X04044Y04235D02*
X04036D01*
X040284Y04233D01*
X040216Y04229D01*
X04016Y042234D01*
X04012Y042166D01*
X0401Y04209D01*
Y04201D01*
X04012Y041934D01*
X04016Y041866D01*
X040216Y04181D01*
X040239Y041797D01*
X040217Y041717D01*
X039986D01*
X039698Y042004D01*
X0397Y04201D01*
Y04209D01*
X03968Y042166D01*
X03964Y042234D01*
X039584Y04229D01*
X039516Y04233D01*
X039439Y04235D01*
X03936D01*
X039284Y04233D01*
X039216Y04229D01*
X03916Y042234D01*
X03912Y042166D01*
X039116Y042151D01*
X039027Y042127D01*
X038978Y042176D01*
X03892Y042215D01*
X038851Y042228D01*
X038643D01*
X03864Y042234D01*
X038584Y04229D01*
X038516Y04233D01*
X03844Y04235D01*
X038361D01*
X038284Y04233D01*
X038216Y04229D01*
X03816Y042234D01*
X03812Y042166D01*
X03811Y042127D01*
X038024Y042099D01*
X037947Y042176D01*
X03789Y042215D01*
X037821Y042228D01*
X037643D01*
X03764Y042234D01*
X037584Y04229D01*
X037516Y04233D01*
X037439Y04235D01*
X03736D01*
X037284Y04233D01*
X037216Y04229D01*
X03716Y042234D01*
X03712Y042166D01*
X0371Y04209D01*
Y04201D01*
X03712Y041934D01*
X03716Y041866D01*
X037216Y04181D01*
X037284Y04177D01*
X03736Y04175D01*
X037439D01*
X037516Y04177D01*
X037584Y04181D01*
X03764Y041866D01*
X037643Y041872D01*
X037747D01*
X039195Y040424D01*
X039195Y040424D01*
X039253Y040385D01*
X039321Y040372D01*
X04229D01*
X042358Y040385D01*
X042416Y040424D01*
X042821Y040829D01*
X042832Y040826D01*
X042913D01*
X042991Y040847D01*
X043061Y040887D01*
X043118Y040944D01*
X043158Y041014D01*
X043179Y041092D01*
Y041173D01*
X043158Y041251D01*
X043118Y041321D01*
X043061Y041378D01*
X042991Y041418D01*
X042913Y041439D01*
X042832D01*
X042754Y041418D01*
X042712Y041394D01*
X042663Y041458D01*
X042821Y041616D01*
X042832Y041613D01*
X042913D01*
X042991Y041634D01*
X043061Y041675D01*
X043118Y041732D01*
X043158Y041802D01*
X043179Y04188D01*
Y04196D01*
X043158Y042038D01*
X043118Y042108D01*
X043061Y042165D01*
X042991Y042206D01*
X042913Y042227D01*
X042832D01*
X042754Y042206D01*
X042684Y042165D01*
X042627Y042108D01*
X042586Y042038D01*
X042566Y04196D01*
Y04188D01*
X042568Y041869D01*
X042473Y041774D01*
X042445Y041777D01*
X042388Y041866D01*
X042392Y04188D01*
Y04196D01*
X042371Y042038D01*
X04233Y042108D01*
X042273Y042165D01*
X042203Y042206D01*
X042125Y042227D01*
X042044D01*
X041966Y042206D01*
X041896Y042165D01*
X041839Y042108D01*
X041819Y042073D01*
X041329D01*
X041226Y042176D01*
X041168Y042215D01*
X0411Y042228D01*
X040643D01*
X04064Y042234D01*
X040584Y04229D01*
X040516Y04233D01*
X04044Y04235D01*
D02*
G37*
G36*
X03052Y041439D02*
X03044D01*
X030362Y041418D01*
X030292Y041378D01*
X030235Y041321D01*
X030194Y041251D01*
X030173Y041173D01*
Y041092D01*
X030194Y041014D01*
X030235Y040944D01*
X030292Y040887D01*
X030362Y040847D01*
X03044Y040826D01*
X03052D01*
X030598Y040847D01*
X030668Y040887D01*
X030725Y040944D01*
X030766Y041014D01*
X030787Y041092D01*
Y041173D01*
X030766Y041251D01*
X030725Y041321D01*
X030668Y041378D01*
X030598Y041418D01*
X03052Y041439D01*
D02*
G37*
G36*
X029999D02*
X029386D01*
Y040826D01*
X029999D01*
Y041439D01*
D02*
G37*
G36*
X04279Y039762D02*
X04266D01*
X042534Y039729D01*
X042422Y039664D01*
X04233Y039572D01*
X042265Y039459D01*
X042231Y039334D01*
Y039204D01*
X042265Y039078D01*
X04233Y038965D01*
X042422Y038873D01*
X042534Y038808D01*
X04266Y038775D01*
X04279D01*
X042915Y038808D01*
X043028Y038873D01*
X04312Y038965D01*
X043185Y039078D01*
X043218Y039204D01*
Y039334D01*
X043185Y039459D01*
X04312Y039572D01*
X043028Y039664D01*
X042915Y039729D01*
X04279Y039762D01*
D02*
G37*
G36*
X03734Y03796D02*
X03682D01*
Y037778D01*
X036791Y037707D01*
X036781Y03763D01*
Y0371D01*
X036791Y037023D01*
X03682Y036952D01*
Y03673D01*
X03734D01*
Y036952D01*
X037369Y037023D01*
X037379Y0371D01*
Y037546D01*
X037382Y037554D01*
X037389Y037573D01*
X037392Y037592D01*
X037397Y037611D01*
Y037631D01*
X037399Y03765D01*
X037397Y037669D01*
Y037689D01*
X037392Y037708D01*
X037389Y037727D01*
X037382Y037746D01*
X037377Y037765D01*
X037367Y037782D01*
X037359Y0378D01*
X037347Y037815D01*
X03734Y037828D01*
Y03796D01*
D02*
G37*
G36*
X03754Y03649D02*
X03696D01*
Y03589D01*
X036903Y035833D01*
X03677D01*
Y036291D01*
X036098D01*
Y035757D01*
X036271D01*
Y03574D01*
X036284Y035678D01*
X036319Y035625D01*
X036389Y035555D01*
X036442Y035519D01*
X036505Y035507D01*
X03696D01*
Y03541D01*
X03754D01*
Y03601D01*
X037597Y036067D01*
X038429D01*
X038463Y035987D01*
X038456Y03598D01*
X038401Y035885D01*
X038373Y03578D01*
Y035671D01*
X038401Y035565D01*
X038456Y03547D01*
X038488Y035438D01*
Y035016D01*
X038134Y034662D01*
X038086Y0346D01*
X038056Y034527D01*
X038046Y03445D01*
Y033787D01*
X038038D01*
Y0328D01*
X038927D01*
Y033787D01*
X038921D01*
Y033925D01*
X03952Y034524D01*
X039556Y034577D01*
X039568Y034639D01*
Y035887D01*
X039556Y03595D01*
X03952Y036003D01*
X039178Y036345D01*
X039125Y036381D01*
X039062Y036393D01*
X03754D01*
Y03649D01*
D02*
G37*
G36*
X04279Y035825D02*
X04266D01*
X042534Y035792D01*
X042422Y035727D01*
X04233Y035635D01*
X042265Y035522D01*
X042231Y035396D01*
Y035266D01*
X042265Y035141D01*
X04233Y035028D01*
X042422Y034936D01*
X042534Y034871D01*
X04266Y034838D01*
X04279D01*
X042915Y034871D01*
X043028Y034936D01*
X04312Y035028D01*
X043185Y035141D01*
X043218Y035266D01*
Y035396D01*
X043185Y035522D01*
X04312Y035635D01*
X043028Y035727D01*
X042915Y035792D01*
X04279Y035825D01*
D02*
G37*
G36*
X042913Y017827D02*
X042832D01*
X042754Y017806D01*
X042684Y017765D01*
X042627Y017708D01*
X042586Y017638D01*
X042566Y01756D01*
Y01748D01*
X042586Y017402D01*
X042627Y017332D01*
X042684Y017275D01*
X042754Y017234D01*
X042832Y017213D01*
X042913D01*
X042991Y017234D01*
X043061Y017275D01*
X043118Y017332D01*
X043158Y017402D01*
X043179Y01748D01*
Y01756D01*
X043158Y017638D01*
X043118Y017708D01*
X043061Y017765D01*
X042991Y017806D01*
X042913Y017827D01*
D02*
G37*
G36*
X038842Y037715D02*
X038733D01*
X038628Y037687D01*
X038533Y037632D01*
X038456Y037555D01*
X038401Y03746D01*
X038373Y037355D01*
Y037245D01*
X038401Y03714D01*
X038456Y037045D01*
X038533Y036968D01*
X038628Y036913D01*
X038733Y036885D01*
X038842D01*
X038948Y036913D01*
X039043Y036968D01*
X03912Y037045D01*
X039144Y037087D01*
X039282D01*
X039737Y036632D01*
Y032905D01*
X039243Y032411D01*
X039207Y032358D01*
X039195Y032295D01*
Y031392D01*
X039207Y03133D01*
X039243Y031277D01*
X039562Y030957D01*
X039615Y030921D01*
X039678Y030909D01*
X041317D01*
X042004Y030222D01*
Y018778D01*
X041385Y018159D01*
X041349Y018106D01*
X041337Y018044D01*
Y017317D01*
X041349Y017255D01*
X041385Y017202D01*
X041778Y016809D01*
Y016426D01*
X042392D01*
Y017039D01*
X042009D01*
X041663Y017385D01*
Y017976D01*
X041848Y018161D01*
X041922Y01813D01*
Y01778D01*
X041896Y017765D01*
X041839Y017708D01*
X041799Y017638D01*
X041778Y01756D01*
Y01748D01*
X041799Y017402D01*
X041839Y017332D01*
X041896Y017275D01*
X041966Y017234D01*
X042044Y017213D01*
X042125D01*
X042203Y017234D01*
X042273Y017275D01*
X04233Y017332D01*
X042371Y017402D01*
X042392Y01748D01*
Y01756D01*
X042371Y017638D01*
X04233Y017708D01*
X042273Y017765D01*
X042248Y01778D01*
Y01825D01*
X042503Y018504D01*
X042538Y018557D01*
X04255Y01862D01*
Y030381D01*
X042538Y030443D01*
X042503Y030496D01*
X041034Y031965D01*
X040981Y032001D01*
X040918Y032013D01*
X040252D01*
X04024Y032034D01*
X040184Y03209D01*
X040116Y03213D01*
X04004Y03215D01*
X03996D01*
X039884Y03213D01*
X039816Y03209D01*
X03976Y032034D01*
X03972Y031966D01*
X0397Y03189D01*
Y031811D01*
X03972Y031734D01*
X03976Y031666D01*
X039816Y03161D01*
X039884Y03157D01*
X03996Y03155D01*
X04004D01*
X040116Y03157D01*
X040184Y03161D01*
X04024Y031666D01*
X040252Y031687D01*
X040851D01*
X041228Y031309D01*
X041198Y031235D01*
X039745D01*
X039521Y03146D01*
Y032228D01*
X040015Y032722D01*
X040051Y032775D01*
X040063Y032837D01*
Y0367D01*
X040051Y036762D01*
X040015Y036815D01*
X039465Y037365D01*
X039412Y037401D01*
X03935Y037413D01*
X039187D01*
X039174Y03746D01*
X03912Y037555D01*
X039043Y037632D01*
X038948Y037687D01*
X038842Y037715D01*
D02*
G37*
G36*
X036516Y027982D02*
X036075D01*
X035635Y027947D01*
X0352Y027878D01*
X034771Y027775D01*
X034352Y027639D01*
X033944Y02747D01*
X033551Y02727D01*
X033175Y02704D01*
X032818Y02678D01*
X032483Y026494D01*
X032171Y026182D01*
X031885Y025847D01*
X031626Y02549D01*
X031395Y025114D01*
X031195Y024721D01*
X031026Y024314D01*
X03089Y023894D01*
X030787Y023466D01*
X030718Y02303D01*
X030684Y02259D01*
Y02215D01*
X030718Y02171D01*
X030787Y021274D01*
X03089Y020846D01*
X031026Y020426D01*
X031195Y020019D01*
X031395Y019626D01*
X031626Y01925D01*
X031885Y018893D01*
X032171Y018558D01*
X032483Y018246D01*
X032818Y01796D01*
X033175Y0177D01*
X033551Y01747D01*
X033944Y01727D01*
X034352Y017101D01*
X034771Y016965D01*
X0352Y016862D01*
X035635Y016793D01*
X036075Y016758D01*
X036516D01*
X036955Y016793D01*
X037391Y016862D01*
X03782Y016965D01*
X038239Y017101D01*
X038647Y01727D01*
X03904Y01747D01*
X039416Y0177D01*
X039772Y01796D01*
X040108Y018246D01*
X040419Y018558D01*
X040706Y018893D01*
X040965Y01925D01*
X041195Y019626D01*
X041396Y020019D01*
X041564Y020426D01*
X041701Y020846D01*
X041804Y021274D01*
X041873Y02171D01*
X041907Y02215D01*
Y02259D01*
X041873Y02303D01*
X041804Y023466D01*
X041701Y023894D01*
X041564Y024314D01*
X041396Y024721D01*
X041195Y025114D01*
X040965Y02549D01*
X040706Y025847D01*
X040419Y026182D01*
X040108Y026494D01*
X039772Y02678D01*
X039416Y02704D01*
X03904Y02727D01*
X038647Y02747D01*
X038239Y027639D01*
X03782Y027775D01*
X037391Y027878D01*
X036955Y027947D01*
X036516Y027982D01*
D02*
G37*
G36*
X042913Y017039D02*
X042832D01*
X042754Y017018D01*
X042684Y016978D01*
X042627Y016921D01*
X042586Y016851D01*
X042566Y016773D01*
Y016692D01*
X042586Y016614D01*
X042627Y016544D01*
X042684Y016487D01*
X042754Y016447D01*
X042832Y016426D01*
X042913D01*
X042991Y016447D01*
X043061Y016487D01*
X043118Y016544D01*
X043158Y016614D01*
X043179Y016692D01*
Y016773D01*
X043158Y016851D01*
X043118Y016921D01*
X043061Y016978D01*
X042991Y017018D01*
X042913Y017039D01*
D02*
G37*
%LPD*%
D17*
X036505Y03567D02*
X03725D01*
X036434Y03574D02*
X036505Y03567D01*
X036434Y03574D02*
Y036024D01*
X039405Y034639D02*
Y035887D01*
X038758Y033992D02*
X039405Y034639D01*
X039062Y03623D02*
X039405Y035887D01*
X03725Y03623D02*
X039062D01*
X038758Y033293D02*
Y033992D01*
X0399Y032837D02*
Y0367D01*
X038838Y03725D02*
X03935D01*
X038788Y0373D02*
X038838Y03725D01*
X03935D02*
X0399Y0367D01*
X031156Y03124D02*
X033351D01*
X03414Y032029D02*
Y03565D01*
X033351Y03124D02*
X03414Y032029D01*
X031338Y0308D02*
X036839D01*
X03693Y03058D02*
X037578Y031227D01*
X031429Y03058D02*
X03693D01*
X035356Y03102D02*
X0358Y031464D01*
X031247Y03102D02*
X035356D01*
X029765Y029537D02*
X031247Y03102D01*
X036839Y0308D02*
X037358Y031318D01*
X029985Y029446D02*
X031338Y0308D01*
X029545Y029629D02*
X031156Y03124D01*
X030205Y029355D02*
X031429Y03058D01*
X037578Y031227D02*
Y032062D01*
X037358Y031318D02*
Y031971D01*
X03665Y03145D02*
Y032223D01*
X036829Y032402D02*
Y033293D01*
X03665Y032223D02*
X036829Y032402D01*
X03625Y032197D02*
X036553Y032501D01*
Y033293D01*
X03625Y0319D02*
Y032197D01*
X0358Y031464D02*
Y032062D01*
X036278Y032539D01*
Y033293D01*
X03738Y032259D02*
X037578Y032062D01*
X03738Y032259D02*
Y033293D01*
X0371Y032228D02*
X037358Y031971D01*
X0371Y032228D02*
Y0327D01*
X037104Y032704D02*
Y033293D01*
X039358Y032295D02*
X0399Y032837D01*
X039358Y031392D02*
X039678Y031072D01*
X039358Y031392D02*
Y032295D01*
X040918Y03185D02*
X042387Y030381D01*
X04Y03185D02*
X040918D01*
X029906Y016284D02*
X030113Y016491D01*
X029287Y016284D02*
X029906D01*
X030113Y016491D02*
Y01714D01*
X02908Y016492D02*
X029287Y016284D01*
X041385Y031072D02*
X042167Y03029D01*
X039678Y031072D02*
X041385D01*
X042167Y018711D02*
Y03029D01*
X042387Y01862D02*
Y030381D01*
X0415Y018044D02*
X042167Y018711D01*
X042085Y018317D02*
X042387Y01862D01*
X0293Y017125D02*
Y018599D01*
X02908Y016492D02*
Y018691D01*
X029545Y019155D02*
Y029629D01*
X02908Y018691D02*
X029545Y019155D01*
X0293Y018599D02*
X029765Y019064D01*
Y029537D01*
X029733Y01752D02*
X030113Y01714D01*
X029693Y01752D02*
X029733D01*
X0293Y017125D02*
X029693Y016733D01*
X029985Y01908D02*
Y029446D01*
X030205Y019171D02*
Y029355D01*
X0347Y03565D02*
Y03624D01*
Y03565D02*
X03545D01*
X042085Y01752D02*
Y018317D01*
X0415Y017317D02*
Y018044D01*
X029985Y01908D02*
X03045Y018614D01*
Y01755D02*
Y018614D01*
X031Y017253D02*
Y018375D01*
X030205Y019171D02*
X031Y018375D01*
X03045Y01755D02*
X03048Y01752D01*
X0415Y017317D02*
X042085Y016733D01*
X03048D02*
X031Y017253D01*
X0371Y0327D02*
X037104Y032704D01*
D18*
X038346Y03315D02*
Y03445D01*
X03708Y03763D02*
X0371Y03765D01*
X038788Y034892D02*
Y035725D01*
X038346Y03445D02*
X038788Y034892D01*
X0347Y0369D02*
Y03725D01*
X03708Y0371D02*
Y03763D01*
D19*
X036295Y02975D02*
D03*
D20*
X042725Y035331D02*
D03*
Y039269D02*
D03*
D21*
X038788Y0373D02*
D03*
Y038875D02*
D03*
Y035725D02*
D03*
D22*
X042872Y04192D02*
D03*
X042085D02*
D03*
X042872Y041133D02*
D03*
X03048Y04192D02*
D03*
X029693D02*
D03*
X03048Y041133D02*
D03*
Y01752D02*
D03*
X029693D02*
D03*
X03048Y016733D02*
D03*
X042872Y01752D02*
D03*
X042085D02*
D03*
X042872Y016733D02*
D03*
D23*
X042085Y041133D02*
D03*
X029693D02*
D03*
Y016733D02*
D03*
X042085D02*
D03*
D25*
X036295Y02237D02*
D03*
X03625Y0319D02*
D03*
X03665Y03145D02*
D03*
X0406Y0323D02*
D03*
Y03415D02*
D03*
Y036D02*
D03*
Y03785D02*
D03*
Y0397D02*
D03*
X0319Y0323D02*
D03*
Y03415D02*
D03*
Y036D02*
D03*
Y03785D02*
D03*
Y0397D02*
D03*
X0347Y03725D02*
D03*
X0371Y03765D02*
D03*
D26*
X036278Y033293D02*
D03*
X036002D02*
D03*
X039034D02*
D03*
X038758D02*
D03*
X038482D02*
D03*
X038207D02*
D03*
X037931D02*
D03*
X036829D02*
D03*
X037656D02*
D03*
X03738D02*
D03*
X036553D02*
D03*
X037104D02*
D03*
D27*
X0347Y03565D02*
D03*
X03414D02*
D03*
X03708Y03702D02*
D03*
X03652D02*
D03*
X03708Y03767D02*
D03*
X03652D02*
D03*
D28*
X0347Y0368D02*
D03*
Y03624D02*
D03*
X03725Y03567D02*
D03*
Y03623D02*
D03*
D29*
X036434Y036024D02*
D03*
X035452Y036394D02*
D03*
X03545Y03565D02*
D03*
D30*
X0394Y04205D02*
D03*
X0404D02*
D03*
X0384D02*
D03*
X0374D02*
D03*
X04Y03185D02*
D03*
D31*
X0384Y04205D02*
X038851D01*
X039769Y041133D01*
X042085D01*
X037821Y04205D02*
X039321Y04055D01*
X0374Y04205D02*
X037821D01*
X039321Y04055D02*
X04229D01*
X0411Y04205D02*
X041255Y041895D01*
X04206D01*
X042085Y04192D01*
X042491Y041538D02*
X042872Y04192D01*
X0394Y04205D02*
X039912Y041538D01*
X042491D01*
X0404Y04205D02*
X0411D01*
X04229Y04055D02*
X042872Y041133D01*
M02*
