G04*
G04 #@! TF.GenerationSoftware,Altium Limited,Altium Designer,21.3.2 (30)*
G04*
G04 Layer_Color=65535*
%FSTAX24Y24*%
%MOIN*%
G70*
G04*
G04 #@! TF.SameCoordinates,65AEA3AE-AEA4-4408-87EB-DFBB4D2FCE8C*
G04*
G04*
G04 #@! TF.FilePolarity,Positive*
G04*
G01*
G75*
%ADD10C,0.0100*%
%ADD11C,0.0060*%
D10*
X041375Y030107D02*
Y040264D01*
X031218D02*
X041375D01*
X031218Y030107D02*
Y040264D01*
Y030107D02*
X041375D01*
X041693Y04231D02*
X043267D01*
Y040735D02*
Y04231D01*
X041693Y040735D02*
X043267D01*
X041693D02*
Y04231D01*
X0293D02*
X030875D01*
Y040735D02*
Y04231D01*
X0293Y040735D02*
X030875D01*
X0293D02*
Y04231D01*
Y01791D02*
X030875D01*
Y016335D02*
Y01791D01*
X0293Y016335D02*
X030875D01*
X0293D02*
Y01791D01*
X041693D02*
X043267D01*
Y016335D02*
Y01791D01*
X041693Y016335D02*
X043267D01*
X041693D02*
Y01791D01*
D11*
X03123Y04087D02*
Y04057D01*
X03143D01*
X03173Y04082D02*
X03168Y04087D01*
X03158D01*
X03153Y04082D01*
Y04062D01*
X03158Y04057D01*
X03168D01*
X03173Y04062D01*
X03183Y04087D02*
Y04057D01*
X03198D01*
X03203Y04062D01*
Y04082D01*
X03198Y04087D01*
X03183D01*
X03213Y04057D02*
X03223D01*
X03218D01*
Y04087D01*
X03213Y04082D01*
X02935Y0402D02*
Y0405D01*
X0295D01*
X02955Y04045D01*
Y04035D01*
X0295Y0403D01*
X02935D01*
X0298Y0402D02*
Y0405D01*
X02965Y04035D01*
X02985D01*
X02931Y01822D02*
Y01852D01*
X02946D01*
X02951Y01847D01*
Y01837D01*
X02946Y01832D01*
X02931D01*
X02961Y01847D02*
X02966Y01852D01*
X02976D01*
X02981Y01847D01*
Y01842D01*
X02976Y01837D01*
X02971D01*
X02976D01*
X02981Y01832D01*
Y01827D01*
X02976Y01822D01*
X02966D01*
X02961Y01827D01*
X0417Y01822D02*
Y01852D01*
X04185D01*
X0419Y01847D01*
Y01837D01*
X04185Y01832D01*
X0417D01*
X0422Y01822D02*
X042D01*
X0422Y01842D01*
Y01847D01*
X04215Y01852D01*
X04205D01*
X042Y01847D01*
X0428Y04015D02*
Y04045D01*
X04295D01*
X043Y0404D01*
Y0403D01*
X04295Y04025D01*
X0428D01*
X0431Y04015D02*
X0432D01*
X04315D01*
Y04045D01*
X0431Y0404D01*
M02*
