M48
;Layer_Color=9474304
;FILE_FORMAT=2:4
INCH,LZ
;TYPE=PLATED
T1F00S00C0.0197
T2F00S00C0.0256
T3F00S00C0.0335
T5F00S00C0.0472
T6F00S00C1.1024
%
T01
X0319Y0323
Y03415
Y036
Y03785
Y0397
X0347Y03725
X0371Y03765
X0406Y03785
Y036
Y03415
Y0323
X03625Y0319
X03665Y03145
X0406Y0397
T02
X042085Y016733
Y01752
X042872
Y016733
X03048
Y01752
X029693
Y016733
Y041133
Y04192
X03048
Y041133
X042085
Y04192
X042872
Y041133
T03
X038788Y035725
Y0373
Y038875
T05
X042725Y035331
Y039269
T06
X036295Y02237
M30
