G04*
G04 #@! TF.GenerationSoftware,Altium Limited,Altium Designer,21.3.2 (30)*
G04*
G04 Layer_Color=2752767*
%FSTAX24Y24*%
%MOIN*%
G70*
G04*
G04 #@! TF.SameCoordinates,65AEA3AE-AEA4-4408-87EB-DFBB4D2FCE8C*
G04*
G04*
G04 #@! TF.FilePolarity,Positive*
G04*
G01*
G75*
%ADD41C,0.0020*%
%ADD42C,0.0027*%
D41*
X036215Y02967D02*
Y02983D01*
X036375D01*
Y02967D01*
X036215D01*
X038788Y03722D02*
X038708Y03738D01*
X038868D01*
X038788Y03722D01*
Y038795D02*
X038708Y038955D01*
X038868D01*
X038788Y038795D01*
Y035645D02*
X038708Y035805D01*
X038868D01*
X038788Y035645D01*
X042872Y04184D02*
X042912Y04188D01*
X042952D01*
X042912Y04192D01*
X042952Y04196D01*
X042912D01*
X042872Y042D01*
X042832Y04196D01*
X042792D01*
X042832Y04192D01*
X042792Y04188D01*
X042832D01*
X042872Y04184D01*
X042085D02*
X042125Y04188D01*
X042165D01*
X042125Y04192D01*
X042165Y04196D01*
X042125D01*
X042085Y042D01*
X042045Y04196D01*
X042005D01*
X042045Y04192D01*
X042005Y04188D01*
X042045D01*
X042085Y04184D01*
Y041053D02*
X042125Y041093D01*
X042165D01*
X042125Y041133D01*
X042165Y041173D01*
X042125D01*
X042085Y041213D01*
X042045Y041173D01*
X042005D01*
X042045Y041133D01*
X042005Y041093D01*
X042045D01*
X042085Y041053D01*
X042872D02*
X042912Y041093D01*
X042952D01*
X042912Y041133D01*
X042952Y041173D01*
X042912D01*
X042872Y041213D01*
X042832Y041173D01*
X042792D01*
X042832Y041133D01*
X042792Y041093D01*
X042832D01*
X042872Y041053D01*
X03048Y04184D02*
X03052Y04188D01*
X03056D01*
X03052Y04192D01*
X03056Y04196D01*
X03052D01*
X03048Y042D01*
X03044Y04196D01*
X0304D01*
X03044Y04192D01*
X0304Y04188D01*
X03044D01*
X03048Y04184D01*
X029693D02*
X029733Y04188D01*
X029773D01*
X029733Y04192D01*
X029773Y04196D01*
X029733D01*
X029693Y042D01*
X029653Y04196D01*
X029613D01*
X029653Y04192D01*
X029613Y04188D01*
X029653D01*
X029693Y04184D01*
Y041053D02*
X029733Y041093D01*
X029773D01*
X029733Y041133D01*
X029773Y041173D01*
X029733D01*
X029693Y041213D01*
X029653Y041173D01*
X029613D01*
X029653Y041133D01*
X029613Y041093D01*
X029653D01*
X029693Y041053D01*
X03048D02*
X03052Y041093D01*
X03056D01*
X03052Y041133D01*
X03056Y041173D01*
X03052D01*
X03048Y041213D01*
X03044Y041173D01*
X0304D01*
X03044Y041133D01*
X0304Y041093D01*
X03044D01*
X03048Y041053D01*
Y01744D02*
X03052Y01748D01*
X03056D01*
X03052Y01752D01*
X03056Y01756D01*
X03052D01*
X03048Y0176D01*
X03044Y01756D01*
X0304D01*
X03044Y01752D01*
X0304Y01748D01*
X03044D01*
X03048Y01744D01*
X029693D02*
X029733Y01748D01*
X029773D01*
X029733Y01752D01*
X029773Y01756D01*
X029733D01*
X029693Y0176D01*
X029653Y01756D01*
X029613D01*
X029653Y01752D01*
X029613Y01748D01*
X029653D01*
X029693Y01744D01*
Y016653D02*
X029733Y016693D01*
X029773D01*
X029733Y016733D01*
X029773Y016773D01*
X029733D01*
X029693Y016813D01*
X029653Y016773D01*
X029613D01*
X029653Y016733D01*
X029613Y016693D01*
X029653D01*
X029693Y016653D01*
X03048D02*
X03052Y016693D01*
X03056D01*
X03052Y016733D01*
X03056Y016773D01*
X03052D01*
X03048Y016813D01*
X03044Y016773D01*
X0304D01*
X03044Y016733D01*
X0304Y016693D01*
X03044D01*
X03048Y016653D01*
X042872Y01744D02*
X042912Y01748D01*
X042952D01*
X042912Y01752D01*
X042952Y01756D01*
X042912D01*
X042872Y0176D01*
X042832Y01756D01*
X042792D01*
X042832Y01752D01*
X042792Y01748D01*
X042832D01*
X042872Y01744D01*
X042085D02*
X042125Y01748D01*
X042165D01*
X042125Y01752D01*
X042165Y01756D01*
X042125D01*
X042085Y0176D01*
X042045Y01756D01*
X042005D01*
X042045Y01752D01*
X042005Y01748D01*
X042045D01*
X042085Y01744D01*
Y016653D02*
X042125Y016693D01*
X042165D01*
X042125Y016733D01*
X042165Y016773D01*
X042125D01*
X042085Y016813D01*
X042045Y016773D01*
X042005D01*
X042045Y016733D01*
X042005Y016693D01*
X042045D01*
X042085Y016653D01*
X042872D02*
X042912Y016693D01*
X042952D01*
X042912Y016733D01*
X042952Y016773D01*
X042912D01*
X042872Y016813D01*
X042832Y016773D01*
X042792D01*
X042832Y016733D01*
X042792Y016693D01*
X042832D01*
X042872Y016653D01*
X036215Y02229D02*
X036255Y02237D01*
X036215Y02245D01*
X036295Y02241D01*
X036375Y02245D01*
X036335Y02237D01*
X036375Y02229D01*
X036295Y02233D01*
X036215Y02229D01*
X03621Y03186D02*
Y03182D01*
X03629D01*
Y03186D01*
X03633D01*
Y03194D01*
X03629D01*
Y03198D01*
X03621D01*
Y03194D01*
X03617D01*
Y03186D01*
X03621D01*
X03661Y03141D02*
Y03137D01*
X03669D01*
Y03141D01*
X03673D01*
Y03149D01*
X03669D01*
Y03153D01*
X03661D01*
Y03149D01*
X03657D01*
Y03141D01*
X03661D01*
X04056Y03226D02*
Y03222D01*
X04064D01*
Y03226D01*
X04068D01*
Y03234D01*
X04064D01*
Y03238D01*
X04056D01*
Y03234D01*
X04052D01*
Y03226D01*
X04056D01*
Y03411D02*
Y03407D01*
X04064D01*
Y03411D01*
X04068D01*
Y03419D01*
X04064D01*
Y03423D01*
X04056D01*
Y03419D01*
X04052D01*
Y03411D01*
X04056D01*
Y03596D02*
Y03592D01*
X04064D01*
Y03596D01*
X04068D01*
Y03604D01*
X04064D01*
Y03608D01*
X04056D01*
Y03604D01*
X04052D01*
Y03596D01*
X04056D01*
Y03781D02*
Y03777D01*
X04064D01*
Y03781D01*
X04068D01*
Y03789D01*
X04064D01*
Y03793D01*
X04056D01*
Y03789D01*
X04052D01*
Y03781D01*
X04056D01*
Y03966D02*
Y03962D01*
X04064D01*
Y03966D01*
X04068D01*
Y03974D01*
X04064D01*
Y03978D01*
X04056D01*
Y03974D01*
X04052D01*
Y03966D01*
X04056D01*
X03186Y03226D02*
Y03222D01*
X03194D01*
Y03226D01*
X03198D01*
Y03234D01*
X03194D01*
Y03238D01*
X03186D01*
Y03234D01*
X03182D01*
Y03226D01*
X03186D01*
Y03411D02*
Y03407D01*
X03194D01*
Y03411D01*
X03198D01*
Y03419D01*
X03194D01*
Y03423D01*
X03186D01*
Y03419D01*
X03182D01*
Y03411D01*
X03186D01*
Y03596D02*
Y03592D01*
X03194D01*
Y03596D01*
X03198D01*
Y03604D01*
X03194D01*
Y03608D01*
X03186D01*
Y03604D01*
X03182D01*
Y03596D01*
X03186D01*
Y03781D02*
Y03777D01*
X03194D01*
Y03781D01*
X03198D01*
Y03789D01*
X03194D01*
Y03793D01*
X03186D01*
Y03789D01*
X03182D01*
Y03781D01*
X03186D01*
Y03966D02*
Y03962D01*
X03194D01*
Y03966D01*
X03198D01*
Y03974D01*
X03194D01*
Y03978D01*
X03186D01*
Y03974D01*
X03182D01*
Y03966D01*
X03186D01*
X03466Y03721D02*
Y03717D01*
X03474D01*
Y03721D01*
X03478D01*
Y03729D01*
X03474D01*
Y03733D01*
X03466D01*
Y03729D01*
X03462D01*
Y03721D01*
X03466D01*
X03706Y03761D02*
Y03757D01*
X03714D01*
Y03761D01*
X03718D01*
Y03769D01*
X03714D01*
Y03773D01*
X03706D01*
Y03769D01*
X03702D01*
Y03761D01*
X03706D01*
D42*
X042805Y035331D02*
G03*
X042805Y035331I-00008J0D01*
G01*
Y039269D02*
G03*
X042805Y039269I-00008J0D01*
G01*
M02*
